M48
; DRILL file {KiCad 8.0.9-8.0.9-0~ubuntu24.04.1} date 2025-04-13T21:31:44+0500
; FORMAT={-:-/ absolute / inch / decimal}
; #@! TF.CreationDate,2025-04-13T21:31:44+05:00
; #@! TF.GenerationSoftware,Kicad,Pcbnew,8.0.9-8.0.9-0~ubuntu24.04.1
; #@! TF.FileFunction,Plated,1,4,PTH
FMAT,2
INCH
; #@! TA.AperFunction,Plated,PTH,ViaDrill
T1C0.0118
; #@! TA.AperFunction,Plated,PTH,ComponentDrill
T2C0.0118
; #@! TA.AperFunction,Plated,PTH,ComponentDrill
T3C0.0197
; #@! TA.AperFunction,Plated,PTH,ComponentDrill
T4C0.0236
; #@! TA.AperFunction,Plated,PTH,ComponentDrill
T5C0.0374
; #@! TA.AperFunction,Plated,PTH,ComponentDrill
T6C0.1260
%
G90
G05
T1
X2.9173Y-3.6181
X2.9173Y-3.6496
X2.9173Y-3.6811
X2.9173Y-3.7126
X2.9173Y-3.7441
X2.9173Y-3.7756
X2.9173Y-3.8071
X2.9252Y-4.6339
X2.9252Y-4.6614
X2.9252Y-4.689
X2.9252Y-4.7165
X2.9252Y-4.7441
X2.9252Y-4.7717
X2.9409Y-3.6024
X2.9409Y-3.6339
X2.9409Y-3.6654
X2.9409Y-3.6969
X2.9409Y-3.7283
X2.9409Y-3.7598
X2.9409Y-3.7913
X2.9409Y-3.8228
X2.9528Y-4.7441
X2.9528Y-4.7717
X2.9803Y-4.5768
X2.9803Y-4.7441
X2.9803Y-4.7717
X3.0157Y-4.3366
X3.0157Y-4.3642
X3.0157Y-4.3917
X3.0157Y-4.4193
X3.0433Y-4.3366
X3.0433Y-4.3642
X3.0433Y-4.3917
X3.0433Y-4.4193
X3.1083Y-4.6063
X3.1083Y-4.6339
X3.1083Y-4.6614
X3.1083Y-4.689
X3.1083Y-4.7165
X3.1339Y-4.6339
X3.1339Y-4.6614
X3.1339Y-4.689
X3.1339Y-4.7165
X3.2638Y-3.6496
X3.2638Y-3.6772
X3.2638Y-3.7047
X3.2638Y-3.7323
X3.2638Y-3.7598
X3.2638Y-3.7874
X3.2756Y-4.2067
X3.2835Y-4.3366
X3.2835Y-4.3642
X3.2835Y-4.3917
X3.2835Y-4.4193
X3.311Y-4.2815
X3.311Y-4.3091
X3.311Y-4.3366
X3.311Y-4.3642
X3.311Y-4.3917
X3.311Y-4.4193
X3.3307Y-3.0531
X3.3386Y-3.7126
X3.3386Y-3.7559
X3.3386Y-3.7992
X3.3386Y-3.8425
X3.3386Y-3.8858
X3.3386Y-3.9291
X3.3386Y-3.9724
X3.3386Y-4.0157
X3.3386Y-4.0591
X3.3386Y-4.1024
X3.3386Y-4.1496
X3.3524Y-3.3602
X3.3524Y-3.4331
X3.3622Y-4.6378
X3.3701Y-4.4409
X3.3917Y-4.0217
X3.4331Y-3.6024
X3.4469Y-4.0157
X3.5Y-3.3602
X3.5Y-3.4331
X3.5039Y-4.2067
X3.5453Y-3.6457
X3.5512Y-3.1437
X3.5512Y-3.9331
X3.561Y-4.0374
X3.5768Y-3.122
X3.5827Y-3.4232
X3.6043Y-2.9705
X3.6043Y-3.002
X3.6043Y-3.0335
X3.622Y-4.6417
X3.626Y-3.0551
X3.6476Y-3.0768
X3.6693Y-3.0984
X3.6781Y-3.9715
X3.6791Y-3.7283
X3.6909Y-3.1201
X3.7126Y-3.1417
X3.7303Y-4.0413
X3.7382Y-3.5748
X3.7382Y-3.6024
X3.7382Y-3.644
X3.7421Y-3.7717
X3.7441Y-3.1417
X3.7559Y-3.4764
X3.7559Y-3.5039
X3.7559Y-4.0079
X3.7736Y-3.7717
X3.7756Y-3.1417
X3.7795Y-4.0906
X3.7835Y-3.4764
X3.7835Y-3.5039
X3.7854Y-3.2402
X3.7933Y-3.5551
X3.7972Y-3.6909
X3.7992Y-3.7717
X3.8071Y-3.1417
X3.8071Y-4.0453
X3.811Y-3.439
X3.8366Y-3.439
X3.8386Y-3.1417
X3.846Y-3.5906
X3.8484Y-3.7618
X3.8602Y-3.2402
X3.8602Y-4.0098
X3.8622Y-3.439
X3.8642Y-3.8031
X3.878Y-3.7618
X3.8898Y-4.1693
X3.8898Y-3.439
X3.8937Y-3.9764
X3.8937Y-4.6417
X3.8996Y-4.0827
X3.8996Y-4.1083
X3.9075Y-3.6457
X3.9075Y-3.6949
X3.9291Y-4.2008
X3.9331Y-3.1417
X3.937Y-3.1732
X3.937Y-3.2008
X3.937Y-3.2657
X3.937Y-3.2894
X3.937Y-3.313
X3.939Y-3.374
X3.9508Y-3.437
X3.9724Y-4.2008
X3.9961Y-3.5
X4.0Y-3.1732
X4.0Y-3.2008
X4.0Y-3.2283
X4.0Y-3.252
X4.0Y-3.2756
X4.0Y-3.2992
X4.0Y-3.3228
X4.0Y-3.3465
X4.0Y-3.3701
X4.0039Y-3.1417
X4.0059Y-3.7323
X4.0157Y-4.2008
X4.0315Y-3.2992
X4.0354Y-3.1417
X4.0354Y-3.4193
X4.0504Y-3.2171
X4.0504Y-3.2407
X4.0504Y-3.2644
X4.0571Y-3.2992
X4.0591Y-4.2008
X4.063Y-3.5984
X4.063Y-3.6299
X4.065Y-3.4902
X4.065Y-3.5217
X4.065Y-3.561
X4.0669Y-3.1417
X4.0701Y-3.1974
X4.0846Y-3.4508
X4.0937Y-3.1974
X4.0984Y-3.1417
X4.0984Y-3.3504
X4.0984Y-4.1339
X4.1024Y-4.2008
X4.1083Y-3.8051
X4.1173Y-3.1974
X4.1299Y-3.1417
X4.1339Y-3.6516
X4.1409Y-3.1974
X4.1457Y-4.2008
X4.1496Y-3.4488
X4.1575Y-4.6417
X4.1614Y-3.1417
X4.1614Y-3.376
X4.1634Y-4.1496
X4.1646Y-3.1974
X4.1654Y-3.6516
X4.1791Y-3.4488
X4.189Y-3.372
X4.1909Y-4.1713
X4.1929Y-3.1417
X4.1929Y-4.128
X4.1952Y-3.6437
X4.1957Y-4.0484
X4.2175Y-3.4488
X4.2244Y-3.1417
X4.2559Y-3.1417
X4.2618Y-3.9744
X4.2638Y-3.4567
X4.2638Y-3.8445
X4.2638Y-3.874
X4.2638Y-3.9232
X4.2697Y-3.5374
X4.2748Y-3.3234
X4.2874Y-3.1417
X4.2874Y-4.1732
X4.2984Y-3.3234
X4.3189Y-3.1417
X4.3366Y-3.4311
X4.3366Y-3.4626
X4.3366Y-3.4941
X4.3366Y-3.5335
X4.3504Y-3.1417
X4.376Y-3.8012
X4.378Y-4.1299
X4.3799Y-3.7264
X4.3819Y-3.1417
X4.3874Y-3.4685
X4.3874Y-3.5079
X4.3933Y-3.3346
X4.3933Y-3.435
X4.4055Y-3.8012
X4.4094Y-3.1594
X4.4154Y-3.6339
X4.4154Y-3.6614
X4.4331Y-3.7343
X4.4409Y-3.1594
X4.4567Y-4.374
X4.4622Y-3.378
X4.4622Y-3.5472
X4.4665Y-3.7343
X4.4685Y-3.1417
X4.4882Y-3.9213
X4.4882Y-3.9488
X4.4882Y-3.9764
X4.4921Y-4.3071
X4.4921Y-4.4783
X4.5079Y-3.1417
X4.5272Y-3.3878
X4.5276Y-3.3366
X4.5276Y-4.1713
X4.5331Y-3.5079
X4.5394Y-3.1417
X4.5492Y-3.5906
X4.5591Y-3.3661
X4.5709Y-3.1417
X4.5945Y-3.8524
X4.6024Y-3.1417
X4.622Y-3.8524
X4.624Y-4.0965
X4.624Y-4.1319
X4.6339Y-3.1417
X4.6535Y-3.9094
X4.6535Y-3.9685
X4.6575Y-3.7815
X4.6614Y-3.1417
X4.6654Y-3.4685
X4.6654Y-3.5
X4.6654Y-3.5354
X4.6791Y-3.9094
X4.6791Y-3.9685
X4.6831Y-3.7815
X4.6929Y-3.1417
X4.7087Y-3.7815
X4.7087Y-4.1969
X4.7165Y-3.4173
X4.7697Y-4.3898
X4.7835Y-3.6614
X4.7894Y-4.0453
X4.7894Y-4.1634
X4.8268Y-3.9744
X4.8406Y-3.8799
X4.9409Y-3.7677
X4.9685Y-3.9016
X4.9916Y-3.2717
T2
X3.8858Y-3.1378
T3
X2.9764Y-3.1102
X2.9764Y-4.8819
X3.0041Y-3.0434
X3.0041Y-3.177
X3.0041Y-4.8151
X3.0041Y-4.9487
X3.0709Y-3.0157
X3.0709Y-3.2047
X3.0709Y-4.7874
X3.0709Y-4.9764
X3.1377Y-3.0434
X3.1377Y-3.177
X3.1377Y-4.8151
X3.1377Y-4.9487
X3.1654Y-3.1102
X3.1654Y-4.8819
X4.748Y-3.1102
X4.748Y-4.8819
X4.7757Y-3.0434
X4.7757Y-3.177
X4.7757Y-4.8151
X4.7757Y-4.9487
X4.8425Y-3.0157
X4.8425Y-3.2047
X4.8425Y-4.7874
X4.8425Y-4.9764
X4.9093Y-3.0434
X4.9093Y-3.177
X4.9093Y-4.8151
X4.9093Y-4.9487
X4.937Y-3.1102
X4.937Y-4.8819
T5
X3.4291Y-4.6417
X3.4291Y-4.7402
X3.4291Y-4.8386
X3.6969Y-4.6417
X3.6969Y-4.7402
X3.6969Y-4.8386
X3.9646Y-4.6417
X3.9646Y-4.7402
X3.9646Y-4.8386
X4.2323Y-4.6417
X4.2323Y-4.7402
X4.2323Y-4.8386
X4.4685Y-4.6457
X4.4685Y-4.7441
X4.4685Y-4.8425
X4.4685Y-4.9409
T6
X3.0709Y-3.1102
X3.0709Y-4.8819
X4.8425Y-3.1102
X4.8425Y-4.8819
T4
G00X4.7498Y-3.9441
M15
G01X4.7931Y-3.9441
M16
G05
G00X4.7498Y-4.2843
M15
G01X4.7931Y-4.2843
M16
G05
G00X4.9203Y-3.9441
M15
G01X4.9518Y-3.9441
M16
G05
G00X4.9203Y-4.2843
M15
G01X4.9518Y-4.2843
M16
G05
M30
