%TF.GenerationSoftware,KiCad,Pcbnew,8.0.6-8.0.6-0~ubuntu20.04.1*%
%TF.CreationDate,2024-12-12T22:35:04+05:00*%
%TF.ProjectId,EpsilonAnomalain,45707369-6c6f-46e4-916e-6f6d616c6169,rev?*%
%TF.SameCoordinates,Original*%
%TF.FileFunction,Legend,Bot*%
%TF.FilePolarity,Positive*%
%FSLAX46Y46*%
G04 Gerber Fmt 4.6, Leading zero omitted, Abs format (unit mm)*
G04 Created by KiCad (PCBNEW 8.0.6-8.0.6-0~ubuntu20.04.1) date 2024-12-12 22:35:04*
%MOMM*%
%LPD*%
G01*
G04 APERTURE LIST*
%ADD10C,0.100000*%
G04 APERTURE END LIST*
D10*
X240500000Y-76000000D02*
X270500000Y-76000000D01*
X270500000Y-82000000D01*
X240500000Y-82000000D01*
X240500000Y-76000000D01*
G36*
X240500000Y-76000000D02*
G01*
X270500000Y-76000000D01*
X270500000Y-82000000D01*
X240500000Y-82000000D01*
X240500000Y-76000000D01*
G37*
G36*
X232541252Y-97874389D02*
G01*
X231044531Y-97874389D01*
X230870142Y-97700000D01*
X230571677Y-97998464D01*
X230816409Y-98243196D01*
X230273701Y-98690648D01*
X230571677Y-99118073D01*
X231128062Y-99118073D01*
X231128062Y-98696022D01*
X230785145Y-98696022D01*
X230636157Y-98482065D01*
X230869653Y-98296441D01*
X232296520Y-98296441D01*
X232470910Y-98696022D01*
X231719619Y-98696022D01*
X231545229Y-98521632D01*
X231246764Y-98819609D01*
X231545229Y-99118073D01*
X232285285Y-99118073D01*
X232839716Y-98555338D01*
X232541252Y-97874389D01*
G37*
G36*
X232541252Y-100206420D02*
G01*
X230782703Y-100206420D01*
X230642019Y-100006629D01*
X230903847Y-99806838D01*
X232366862Y-99806838D01*
X232541252Y-99981228D01*
X232839716Y-99683251D01*
X232541252Y-99384787D01*
X231071887Y-99384787D01*
X230897497Y-99210397D01*
X230600009Y-99508862D01*
X230852556Y-99761898D01*
X230273701Y-100201046D01*
X230571677Y-100628471D01*
X232366862Y-100628471D01*
X232541252Y-100802861D01*
X232839716Y-100504884D01*
X232541252Y-100206420D01*
G37*
G36*
X231044531Y-100969434D02*
G01*
X232541252Y-100969434D01*
X232839716Y-101267899D01*
X232589123Y-101518004D01*
X232988704Y-101914654D01*
X232693171Y-102213119D01*
X230571677Y-102213119D01*
X230273701Y-101785694D01*
X230526689Y-101577110D01*
X230633715Y-101577110D01*
X230782703Y-101791067D01*
X232515850Y-101791067D01*
X232639926Y-101667480D01*
X232363931Y-101391486D01*
X230867211Y-101391486D01*
X230633715Y-101577110D01*
X230526689Y-101577110D01*
X230816409Y-101338241D01*
X230571677Y-101093510D01*
X230870142Y-100795045D01*
X231044531Y-100969434D01*
G37*
G36*
X235013251Y-97712930D02*
G01*
X234715275Y-98010907D01*
X234962937Y-98258569D01*
X234419741Y-98672316D01*
X234718206Y-98970293D01*
X235151493Y-98970293D01*
X235359588Y-98756824D01*
X235711297Y-99108534D01*
X236530000Y-99108534D01*
X236822602Y-98810069D01*
X236530000Y-98520397D01*
X236822602Y-98227794D01*
X236530000Y-97929330D01*
X235953098Y-97929330D01*
X235953098Y-98351381D01*
X236265729Y-98351381D01*
X236479197Y-98562407D01*
X236355610Y-98686482D01*
X235882756Y-98686482D01*
X235578918Y-98379713D01*
X235410390Y-98548241D01*
X234892595Y-98548241D01*
X234808087Y-98463733D01*
X235013251Y-98309371D01*
X235508576Y-98309371D01*
X235508576Y-97887320D01*
X235187641Y-97887320D01*
X235013251Y-97712930D01*
G37*
G36*
X234560425Y-99801207D02*
G01*
X236321905Y-99801207D01*
X236487501Y-100037634D01*
X236459658Y-100065966D01*
X234734815Y-100065966D01*
X234560425Y-99888646D01*
X234261960Y-100189553D01*
X234560425Y-100488018D01*
X236206133Y-100488018D01*
X236830907Y-99809511D01*
X236532930Y-99379155D01*
X234734815Y-99379155D01*
X234560425Y-99204766D01*
X234261960Y-99502742D01*
X234560425Y-99801207D01*
G37*
G36*
X236355610Y-100997997D02*
G01*
X236181221Y-101172386D01*
X235843677Y-101172386D01*
X235457773Y-101566594D01*
X234892595Y-101566594D01*
X234796852Y-101467920D01*
X235061123Y-101161151D01*
X235508576Y-101161151D01*
X235508576Y-100739099D01*
X235187641Y-100739099D01*
X235013251Y-100564710D01*
X234715275Y-100862686D01*
X234979546Y-101127445D01*
X234419741Y-101684319D01*
X234715275Y-101988646D01*
X235145631Y-101988646D01*
X235531046Y-101594438D01*
X236355610Y-101594438D01*
X236530000Y-101768827D01*
X236828464Y-101470851D01*
X236355610Y-100997997D01*
G37*
M02*
