%TF.GenerationSoftware,KiCad,Pcbnew,8.0.6-8.0.6-0~ubuntu20.04.1*%
%TF.CreationDate,2024-12-12T22:35:04+05:00*%
%TF.ProjectId,EpsilonAnomalain,45707369-6c6f-46e4-916e-6f6d616c6169,rev?*%
%TF.SameCoordinates,Original*%
%TF.FileFunction,Copper,L2,Inr*%
%TF.FilePolarity,Positive*%
%FSLAX46Y46*%
G04 Gerber Fmt 4.6, Leading zero omitted, Abs format (unit mm)*
G04 Created by KiCad (PCBNEW 8.0.6-8.0.6-0~ubuntu20.04.1) date 2024-12-12 22:35:04*
%MOMM*%
%LPD*%
G01*
G04 APERTURE LIST*
G04 Aperture macros list*
%AMRoundRect*
0 Rectangle with rounded corners*
0 $1 Rounding radius*
0 $2 $3 $4 $5 $6 $7 $8 $9 X,Y pos of 4 corners*
0 Add a 4 corners polygon primitive as box body*
4,1,4,$2,$3,$4,$5,$6,$7,$8,$9,$2,$3,0*
0 Add four circle primitives for the rounded corners*
1,1,$1+$1,$2,$3*
1,1,$1+$1,$4,$5*
1,1,$1+$1,$6,$7*
1,1,$1+$1,$8,$9*
0 Add four rect primitives between the rounded corners*
20,1,$1+$1,$2,$3,$4,$5,0*
20,1,$1+$1,$4,$5,$6,$7,0*
20,1,$1+$1,$6,$7,$8,$9,0*
20,1,$1+$1,$8,$9,$2,$3,0*%
G04 Aperture macros list end*
%TA.AperFunction,ComponentPad*%
%ADD10RoundRect,0.250000X-0.725000X0.600000X-0.725000X-0.600000X0.725000X-0.600000X0.725000X0.600000X0*%
%TD*%
%TA.AperFunction,ComponentPad*%
%ADD11O,1.950000X1.700000*%
%TD*%
%TA.AperFunction,ComponentPad*%
%ADD12C,0.800000*%
%TD*%
%TA.AperFunction,ComponentPad*%
%ADD13C,6.400000*%
%TD*%
%TA.AperFunction,ComponentPad*%
%ADD14RoundRect,0.250000X0.725000X-0.600000X0.725000X0.600000X-0.725000X0.600000X-0.725000X-0.600000X0*%
%TD*%
%TA.AperFunction,ComponentPad*%
%ADD15C,0.499999*%
%TD*%
%TA.AperFunction,ComponentPad*%
%ADD16O,2.100000X1.000000*%
%TD*%
%TA.AperFunction,ComponentPad*%
%ADD17O,1.800000X1.000000*%
%TD*%
%TA.AperFunction,ViaPad*%
%ADD18C,0.500000*%
%TD*%
%TA.AperFunction,ViaPad*%
%ADD19C,0.600000*%
%TD*%
%TA.AperFunction,Conductor*%
%ADD20C,0.200000*%
%TD*%
G04 APERTURE END LIST*
D10*
%TO.N,/SERVOB*%
%TO.C,J4*%
X254700000Y-117900000D03*
D11*
%TO.N,+6V*%
X254700000Y-120400000D03*
%TO.N,GND*%
X254700000Y-122900000D03*
%TD*%
D12*
%TO.N,N/C*%
%TO.C,H1*%
X275600000Y-79000000D03*
X276302944Y-77302944D03*
X276302944Y-80697056D03*
X278000000Y-76600000D03*
D13*
X278000000Y-79000000D03*
D12*
X278000000Y-81400000D03*
X279697056Y-77302944D03*
X279697056Y-80697056D03*
X280400000Y-79000000D03*
%TD*%
D10*
%TO.N,/SERVOA*%
%TO.C,J3*%
X261500000Y-117900000D03*
D11*
%TO.N,+6V*%
X261500000Y-120400000D03*
%TO.N,GND*%
X261500000Y-122900000D03*
%TD*%
D14*
%TO.N,VDD*%
%TO.C,J7*%
X267500000Y-125500000D03*
D11*
%TO.N,GND*%
X267500000Y-123000000D03*
%TO.N,/RXD0*%
X267500000Y-120500000D03*
%TO.N,/TXD0*%
X267500000Y-118000000D03*
%TD*%
D15*
%TO.N,GND*%
%TO.C,U2*%
X234119920Y-109024920D03*
X235395000Y-109799920D03*
X232844998Y-109799920D03*
X234119920Y-110574920D03*
%TD*%
D10*
%TO.N,/SERVOD*%
%TO.C,J6*%
X241100000Y-117900000D03*
D11*
%TO.N,+6V*%
X241100000Y-120400000D03*
%TO.N,GND*%
X241100000Y-122900000D03*
%TD*%
D12*
%TO.N,N/C*%
%TO.C,H4*%
X275600000Y-124000000D03*
X276302944Y-122302944D03*
X276302944Y-125697056D03*
X278000000Y-121600000D03*
D13*
X278000000Y-124000000D03*
D12*
X278000000Y-126400000D03*
X279697056Y-122302944D03*
X279697056Y-125697056D03*
X280400000Y-124000000D03*
%TD*%
D10*
%TO.N,/SERVOC*%
%TO.C,J5*%
X247900000Y-117900000D03*
D11*
%TO.N,+6V*%
X247900000Y-120400000D03*
%TO.N,GND*%
X247900000Y-122900000D03*
%TD*%
D12*
%TO.N,N/C*%
%TO.C,H2*%
X230600000Y-124000000D03*
X231302944Y-122302944D03*
X231302944Y-125697056D03*
X233000000Y-121600000D03*
D13*
X233000000Y-124000000D03*
D12*
X233000000Y-126400000D03*
X234697056Y-122302944D03*
X234697056Y-125697056D03*
X235400000Y-124000000D03*
%TD*%
D16*
%TO.N,unconnected-(J1-SHIELD-PadS1)_1*%
%TO.C,J1*%
X276195000Y-108820000D03*
D17*
%TO.N,unconnected-(J1-SHIELD-PadS1)_3*%
X280375000Y-108820000D03*
D16*
%TO.N,unconnected-(J1-SHIELD-PadS1)*%
X276195000Y-100180000D03*
D17*
%TO.N,unconnected-(J1-SHIELD-PadS1)_2*%
X280375000Y-100180000D03*
%TD*%
D12*
%TO.N,N/C*%
%TO.C,H3*%
X230600000Y-79000000D03*
X231302944Y-77302944D03*
X231302944Y-80697056D03*
X233000000Y-76600000D03*
D13*
X233000000Y-79000000D03*
D12*
X233000000Y-81400000D03*
X234697056Y-77302944D03*
X234697056Y-80697056D03*
X235400000Y-79000000D03*
%TD*%
D18*
%TO.N,GND*%
X250750000Y-114350000D03*
X243950000Y-114350000D03*
X269700000Y-90900000D03*
X268450000Y-90900000D03*
X263300000Y-95900000D03*
%TO.N,VDD*%
X273910002Y-93990000D03*
X250500000Y-101100000D03*
X266110000Y-89740000D03*
D19*
X275020000Y-86040000D03*
D18*
X264300000Y-100800000D03*
X252020000Y-112110000D03*
X273300000Y-100700000D03*
X255880000Y-112060000D03*
X272700000Y-101200000D03*
X271700000Y-104500000D03*
X259130000Y-111120000D03*
X268145022Y-92054978D03*
X257000000Y-90900000D03*
X265230000Y-112500000D03*
X253800000Y-90299996D03*
X272099994Y-100700000D03*
%TO.N,/TX0_RAW*%
X271900000Y-89150000D03*
X265789667Y-95739667D03*
X265400000Y-113800000D03*
%TO.N,/BOOT*%
X252980000Y-96775000D03*
X262480000Y-97265076D03*
%TO.N,/RXD0*%
X271900002Y-90000000D03*
X264925000Y-95795000D03*
D19*
%TO.N,GND*%
X229600000Y-87800000D03*
X243000000Y-127000000D03*
X269500000Y-84000000D03*
D18*
X261224265Y-90675735D03*
D19*
X242250000Y-127000000D03*
X243000000Y-126250000D03*
X263250000Y-127000000D03*
D18*
X273985000Y-96245000D03*
D19*
X237100000Y-111100000D03*
X230100000Y-109300000D03*
D18*
X259820000Y-92590000D03*
D19*
X230900000Y-112500000D03*
X274500000Y-84000000D03*
X277000000Y-92500000D03*
X277000000Y-94500000D03*
X281000000Y-102500000D03*
D18*
X249500012Y-101090000D03*
D19*
X237900000Y-108700000D03*
X230450000Y-116500000D03*
X254500000Y-84000000D03*
X249750000Y-126250000D03*
X231250000Y-116500000D03*
X259500000Y-84000000D03*
X230100000Y-112500000D03*
X247000000Y-84000000D03*
X262500000Y-126250000D03*
X237900000Y-111100000D03*
X228800000Y-90200000D03*
X256500000Y-127000000D03*
X229500000Y-104500000D03*
X262500000Y-127750000D03*
X249000000Y-127750000D03*
X249750000Y-127000000D03*
X244500000Y-84000000D03*
X242250000Y-126250000D03*
X230900000Y-110100000D03*
X228800000Y-91000000D03*
D18*
X252900000Y-94499992D03*
D19*
X257000000Y-101260000D03*
X272000000Y-84000000D03*
X229600000Y-91800000D03*
X228800000Y-87800000D03*
X237100000Y-109500000D03*
X262500000Y-127000000D03*
X230100000Y-110100000D03*
X228800000Y-89400000D03*
X228800000Y-92600000D03*
X252000000Y-84000000D03*
X230900000Y-111700000D03*
X228800000Y-91800000D03*
X237900000Y-110300000D03*
X281000000Y-106500000D03*
D18*
X269690000Y-108530000D03*
D19*
X256989998Y-102210000D03*
D18*
X257000000Y-89800000D03*
X253510000Y-100430000D03*
X258389773Y-97263343D03*
D19*
X229600000Y-92600000D03*
D18*
X263370000Y-100790000D03*
D19*
X249500000Y-84000000D03*
X230900000Y-109300000D03*
D18*
X262000000Y-90400000D03*
D19*
X237900000Y-109500000D03*
X229600000Y-89400000D03*
X256500000Y-127750000D03*
X264500000Y-84000000D03*
X230100000Y-111700000D03*
D18*
X269445000Y-101625000D03*
D19*
X237100000Y-110300000D03*
X249000000Y-126250000D03*
X242250000Y-127750000D03*
X237100000Y-111900000D03*
X242000000Y-84000000D03*
D18*
X276850000Y-105650000D03*
D19*
X281785000Y-83385000D03*
X237900000Y-107900000D03*
X229600000Y-88600000D03*
D18*
X269445000Y-100890000D03*
D19*
X241900000Y-92480000D03*
X230900000Y-110900000D03*
X255750000Y-127000000D03*
D18*
X257080000Y-109730000D03*
D19*
X229500000Y-106500000D03*
D18*
X252500000Y-117000000D03*
D19*
X228800000Y-88600000D03*
X229500000Y-98500000D03*
X263250000Y-127750000D03*
X262000000Y-84000000D03*
X230450000Y-115750000D03*
X229600000Y-91000000D03*
D18*
X267240000Y-90879998D03*
D19*
X281790000Y-90140000D03*
D18*
X265950000Y-93450000D03*
D19*
X229500000Y-100500000D03*
D18*
X269450000Y-100160000D03*
D19*
X249000000Y-127000000D03*
D18*
X255755000Y-107930000D03*
D19*
X247905000Y-92440000D03*
X281000000Y-104500000D03*
X243000000Y-127750000D03*
X263250000Y-126250000D03*
X257000000Y-84000000D03*
X255750000Y-127750000D03*
D18*
X259500000Y-114500000D03*
X262800000Y-90400000D03*
X245800000Y-117000000D03*
X274065002Y-104525000D03*
D19*
X229600000Y-90200000D03*
D18*
X245380000Y-107820000D03*
D19*
X256500000Y-126250000D03*
D18*
X273005000Y-108230000D03*
X261310000Y-94120000D03*
X274800000Y-100800000D03*
D19*
X237900000Y-111900000D03*
X267000000Y-84000000D03*
X255750000Y-126250000D03*
X281000000Y-114000000D03*
X230100000Y-110900000D03*
X249750000Y-127750000D03*
X229500000Y-102500000D03*
D18*
X245000000Y-102200000D03*
D19*
X239500000Y-84000000D03*
D18*
X251565000Y-103450000D03*
D19*
X231250000Y-115750000D03*
X281000000Y-116000000D03*
D18*
X269295000Y-104420000D03*
%TO.N,/IMU_INT*%
X258950000Y-100100002D03*
D19*
X255750000Y-96900000D03*
%TO.N,+3V8*%
X235800000Y-96000000D03*
X235800000Y-97000000D03*
D18*
X269299998Y-112000000D03*
D19*
X234150000Y-96000000D03*
X235000000Y-96000000D03*
X233300000Y-96000000D03*
X233300000Y-97000000D03*
X234150000Y-97000000D03*
X235000000Y-97000000D03*
X238200000Y-97000000D03*
X236600000Y-96000000D03*
X237400000Y-96000000D03*
X238200000Y-96000000D03*
D18*
X279300000Y-96050000D03*
X266300000Y-114800000D03*
D19*
X237400000Y-97000000D03*
D18*
X257300000Y-111700000D03*
X258900000Y-103400000D03*
D19*
X236600000Y-97000000D03*
D18*
%TO.N,/SDA*%
X265150000Y-100850000D03*
X259733986Y-91135348D03*
%TO.N,/SCL*%
X265950000Y-100850000D03*
X259700000Y-90400000D03*
X254970000Y-94045000D03*
X255500000Y-91600000D03*
D19*
%TO.N,/CHIP_PU*%
X250400000Y-95250000D03*
D18*
X262480000Y-95865076D03*
%TO.N,/SERVOA*%
X262500000Y-100650000D03*
X267540000Y-97855000D03*
%TO.N,/SERVOB*%
X262500000Y-99800000D03*
X267429002Y-97073031D03*
%TO.N,/SERVOC*%
X262500000Y-98950000D03*
X267555000Y-96355000D03*
%TO.N,/OFF*%
X268125000Y-94955000D03*
X271660000Y-102580000D03*
X270165000Y-95670000D03*
%TO.N,/DP*%
X266800000Y-100900000D03*
X269600000Y-103550000D03*
%TO.N,/DN*%
X266400000Y-102500000D03*
X269600000Y-105450000D03*
%TO.N,/SERVOEN*%
X269050000Y-93400000D03*
D19*
X237195000Y-105950000D03*
D18*
%TO.N,Net-(RN5-R2.1)*%
X243450000Y-103700000D03*
X248450000Y-107350000D03*
%TO.N,Net-(D1-A)*%
X274380000Y-107235000D03*
X274300000Y-102090000D03*
%TO.N,Net-(RN4-R4.2)*%
X255250000Y-109194620D03*
X251150000Y-106850000D03*
%TO.N,Net-(RN4-R3.2)*%
X255000000Y-106100000D03*
X250965565Y-106054826D03*
%TO.N,Net-(RN4-R4.1)*%
X247503313Y-106208209D03*
X246450000Y-102200000D03*
%TO.N,Net-(RN4-R3.1)*%
X248250000Y-105550000D03*
X247900000Y-102200000D03*
%TO.N,Net-(RN4-R2.2)*%
X250750000Y-103750000D03*
X254900000Y-103600000D03*
%TO.N,Net-(RN5-R3.1)*%
X243599989Y-102199995D03*
X248150000Y-108139998D03*
%TO.N,/SERVOD*%
X267619266Y-95629000D03*
X262500000Y-98100000D03*
%TO.N,/LD_D*%
X267560000Y-100525000D03*
D19*
X263055000Y-111530000D03*
D18*
%TO.N,/LD_OE*%
X253950000Y-108650000D03*
X267300000Y-93550000D03*
%TD*%
D20*
%TO.N,GND*%
X254700000Y-125200000D02*
X255750000Y-126250000D01*
X263370000Y-100385000D02*
X264265000Y-99490000D01*
X274800000Y-97060000D02*
X274800000Y-97130000D01*
X261500000Y-122900000D02*
X241100000Y-122900000D01*
X273985000Y-96245000D02*
X274800000Y-97060000D01*
X273005000Y-108230000D02*
X273005000Y-105585002D01*
X251565000Y-101780000D02*
X251575000Y-101770000D01*
X268860000Y-99490000D02*
X269530000Y-100160000D01*
X252900000Y-93351471D02*
X256451471Y-89800000D01*
X237569920Y-108250000D02*
X244950000Y-108250000D01*
X270070000Y-100160000D02*
X273985000Y-96245000D01*
X241100000Y-122900000D02*
X237800000Y-122900000D01*
X253510000Y-100830000D02*
X253510000Y-100430000D01*
X270585000Y-105185000D02*
X270585000Y-107635000D01*
X262800000Y-91100000D02*
X265150000Y-93450000D01*
X251575000Y-101770000D02*
X249610000Y-101770000D01*
X246400000Y-100800000D02*
X249210012Y-100800000D01*
X253635000Y-100305000D02*
X253510000Y-100430000D01*
X252900000Y-94499992D02*
X253635000Y-95234992D01*
X269530000Y-100885000D02*
X269525000Y-100890000D01*
X281790000Y-90140000D02*
X274800000Y-97130000D01*
X267500000Y-123000000D02*
X266500000Y-123000000D01*
X253635000Y-95234992D02*
X253635000Y-100305000D01*
X262800000Y-90400000D02*
X262000000Y-90400000D01*
X241100000Y-122900000D02*
X241100000Y-125100000D01*
X269530000Y-100160000D02*
X269530000Y-100885000D01*
X247905000Y-99494988D02*
X247905000Y-92440000D01*
X251575000Y-101770000D02*
X252570000Y-101770000D01*
X274800000Y-100800000D02*
X273656000Y-101944000D01*
X256451471Y-89800000D02*
X257000000Y-89800000D01*
X261500000Y-125250000D02*
X262500000Y-126250000D01*
X273656000Y-104115998D02*
X274065002Y-104525000D01*
X247900000Y-125150000D02*
X249000000Y-126250000D01*
X269295000Y-104420000D02*
X269820000Y-104420000D01*
X273656000Y-101944000D02*
X273656000Y-104115998D01*
X245000000Y-102200000D02*
X246400000Y-100800000D01*
X254700000Y-122900000D02*
X254700000Y-125200000D01*
X264265000Y-99490000D02*
X268860000Y-99490000D01*
X269990000Y-108230000D02*
X269690000Y-108530000D01*
X237800000Y-122900000D02*
X230100000Y-115200000D01*
X261500000Y-122900000D02*
X261500000Y-125250000D01*
X244950000Y-108250000D02*
X245380000Y-107820000D01*
X259000000Y-95000000D02*
X259000000Y-96653116D01*
X247900000Y-122900000D02*
X247900000Y-125150000D01*
X270585000Y-107635000D02*
X269690000Y-108530000D01*
X273005000Y-105585002D02*
X274065002Y-104525000D01*
X230100000Y-115200000D02*
X230100000Y-112500000D01*
X249500012Y-101090000D02*
X247905000Y-99494988D01*
X269525000Y-101625000D02*
X269525000Y-100890000D01*
X269820000Y-104420000D02*
X270585000Y-105185000D01*
X249610000Y-101770000D02*
X249500012Y-101660012D01*
X261500000Y-90400000D02*
X261224265Y-90675735D01*
X259000000Y-96653116D02*
X258389773Y-97263343D01*
X251565000Y-103450000D02*
X251565000Y-101780000D01*
X245000000Y-107440000D02*
X245380000Y-107820000D01*
X269530000Y-100160000D02*
X270070000Y-100160000D01*
X262800000Y-90400000D02*
X262800000Y-91100000D01*
X254340000Y-101260000D02*
X253510000Y-100430000D01*
X274800000Y-97130000D02*
X274800000Y-100800000D01*
X259000000Y-95000000D02*
X253400008Y-95000000D01*
X249500012Y-101660012D02*
X249500012Y-101090000D01*
X273005000Y-108230000D02*
X269990000Y-108230000D01*
X245000000Y-102200000D02*
X245000000Y-107440000D01*
X257000000Y-101260000D02*
X254340000Y-101260000D01*
X265150000Y-93450000D02*
X265950000Y-93450000D01*
X262000000Y-90400000D02*
X261500000Y-90400000D01*
X249210012Y-100800000D02*
X249500012Y-101090000D01*
X263370000Y-100790000D02*
X263370000Y-100385000D01*
X241100000Y-125100000D02*
X242250000Y-126250000D01*
X253400008Y-95000000D02*
X252900000Y-94499992D01*
X252900000Y-94499992D02*
X252900000Y-93351471D01*
X252570000Y-101770000D02*
X253510000Y-100830000D01*
%TD*%
%TA.AperFunction,Conductor*%
%TO.N,GND*%
G36*
X234600000Y-95467162D02*
G01*
X234580315Y-95534201D01*
X234527511Y-95579956D01*
X234458353Y-95589900D01*
X234408961Y-95571478D01*
X234360050Y-95540045D01*
X234221963Y-95499500D01*
X234221961Y-95499500D01*
X234078039Y-95499500D01*
X234078036Y-95499500D01*
X233939949Y-95540045D01*
X233818872Y-95617857D01*
X233818711Y-95618043D01*
X233818504Y-95618175D01*
X233812172Y-95623663D01*
X233811382Y-95622752D01*
X233759932Y-95655816D01*
X233690063Y-95655814D01*
X233638617Y-95622752D01*
X233637828Y-95623663D01*
X233631495Y-95618175D01*
X233631289Y-95618043D01*
X233631128Y-95617857D01*
X233510053Y-95540047D01*
X233510051Y-95540046D01*
X233510049Y-95540045D01*
X233510050Y-95540045D01*
X233371963Y-95499500D01*
X233371961Y-95499500D01*
X233228039Y-95499500D01*
X233228036Y-95499500D01*
X233089949Y-95540045D01*
X232968873Y-95617856D01*
X232968872Y-95617856D01*
X232968872Y-95617857D01*
X232963841Y-95623663D01*
X232874623Y-95726626D01*
X232874622Y-95726628D01*
X232814834Y-95857543D01*
X232794353Y-96000000D01*
X232814834Y-96142456D01*
X232874622Y-96273371D01*
X232874623Y-96273373D01*
X232968872Y-96382143D01*
X232968874Y-96382144D01*
X232989943Y-96395685D01*
X233035698Y-96448489D01*
X233045641Y-96517648D01*
X233016615Y-96581203D01*
X232989943Y-96604315D01*
X232968874Y-96617855D01*
X232874623Y-96726626D01*
X232874622Y-96726628D01*
X232814834Y-96857543D01*
X232794353Y-97000000D01*
X232814834Y-97142456D01*
X232874622Y-97273371D01*
X232874623Y-97273373D01*
X232968872Y-97382143D01*
X233089947Y-97459953D01*
X233089950Y-97459954D01*
X233089949Y-97459954D01*
X233228036Y-97500499D01*
X233228038Y-97500500D01*
X233228039Y-97500500D01*
X233371962Y-97500500D01*
X233371962Y-97500499D01*
X233510053Y-97459953D01*
X233631128Y-97382143D01*
X233631285Y-97381961D01*
X233631486Y-97381832D01*
X233637828Y-97376337D01*
X233638617Y-97377248D01*
X233690059Y-97344186D01*
X233759929Y-97344182D01*
X233811384Y-97377246D01*
X233812172Y-97376337D01*
X233818492Y-97381813D01*
X233818705Y-97381950D01*
X233818872Y-97382143D01*
X233818873Y-97382144D01*
X233852534Y-97403776D01*
X233939947Y-97459953D01*
X233939950Y-97459954D01*
X233939949Y-97459954D01*
X234078036Y-97500499D01*
X234078038Y-97500500D01*
X234078039Y-97500500D01*
X234221962Y-97500500D01*
X234221962Y-97500499D01*
X234360050Y-97459954D01*
X234360051Y-97459954D01*
X234360053Y-97459953D01*
X234408961Y-97428521D01*
X234475999Y-97408837D01*
X234543039Y-97428521D01*
X234588794Y-97481325D01*
X234600000Y-97532837D01*
X234600000Y-116600000D01*
X228500500Y-116600000D01*
X228500500Y-94600000D01*
X234600000Y-94600000D01*
X234600000Y-95467162D01*
G37*
%TD.AperFunction*%
%TD*%
%TA.AperFunction,Conductor*%
%TO.N,GND*%
G36*
X280308363Y-74520185D02*
G01*
X280329005Y-74536819D01*
X282463181Y-76670995D01*
X282496666Y-76732318D01*
X282499500Y-76758676D01*
X282499500Y-120500000D01*
X268675500Y-120500000D01*
X268675500Y-120396534D01*
X268675499Y-120396530D01*
X268635131Y-120193587D01*
X268635130Y-120193580D01*
X268555941Y-120002402D01*
X268440977Y-119830345D01*
X268440975Y-119830342D01*
X268294657Y-119684024D01*
X268144993Y-119584023D01*
X268122598Y-119569059D01*
X267931420Y-119489870D01*
X267931412Y-119489868D01*
X267728469Y-119449500D01*
X267728465Y-119449500D01*
X267271535Y-119449500D01*
X267271530Y-119449500D01*
X267068587Y-119489868D01*
X267068579Y-119489870D01*
X266877403Y-119569058D01*
X266705342Y-119684024D01*
X266559024Y-119830342D01*
X266444058Y-120002403D01*
X266364870Y-120193579D01*
X266364868Y-120193587D01*
X266324500Y-120396530D01*
X266324500Y-120500000D01*
X264500000Y-120500000D01*
X264500000Y-119500000D01*
X264000000Y-119000000D01*
X262661521Y-119000000D01*
X262594482Y-118980315D01*
X262548727Y-118927511D01*
X262538783Y-118858353D01*
X262561751Y-118802367D01*
X262627790Y-118712886D01*
X262627789Y-118712886D01*
X262627793Y-118712882D01*
X262650219Y-118648790D01*
X262672646Y-118584701D01*
X262672646Y-118584699D01*
X262675500Y-118554269D01*
X262675500Y-117896530D01*
X266324500Y-117896530D01*
X266324500Y-118103469D01*
X266364868Y-118306412D01*
X266364870Y-118306420D01*
X266444058Y-118497596D01*
X266559024Y-118669657D01*
X266705342Y-118815975D01*
X266705345Y-118815977D01*
X266877402Y-118930941D01*
X267068580Y-119010130D01*
X267271530Y-119050499D01*
X267271534Y-119050500D01*
X267271535Y-119050500D01*
X267728466Y-119050500D01*
X267728467Y-119050499D01*
X267931420Y-119010130D01*
X268122598Y-118930941D01*
X268294655Y-118815977D01*
X268440977Y-118669655D01*
X268555941Y-118497598D01*
X268635130Y-118306420D01*
X268675500Y-118103465D01*
X268675500Y-117896535D01*
X268635130Y-117693580D01*
X268555941Y-117502402D01*
X268440977Y-117330345D01*
X268440975Y-117330342D01*
X268294657Y-117184024D01*
X268149624Y-117087117D01*
X268122598Y-117069059D01*
X268088036Y-117054743D01*
X267931420Y-116989870D01*
X267931412Y-116989868D01*
X267728469Y-116949500D01*
X267728465Y-116949500D01*
X267271535Y-116949500D01*
X267271530Y-116949500D01*
X267068587Y-116989868D01*
X267068579Y-116989870D01*
X266877403Y-117069058D01*
X266705342Y-117184024D01*
X266559024Y-117330342D01*
X266444058Y-117502403D01*
X266364870Y-117693579D01*
X266364868Y-117693587D01*
X266324500Y-117896530D01*
X262675500Y-117896530D01*
X262675500Y-117245730D01*
X262672646Y-117215300D01*
X262672646Y-117215298D01*
X262627793Y-117087119D01*
X262627792Y-117087117D01*
X262603899Y-117054743D01*
X262547150Y-116977850D01*
X262437882Y-116897207D01*
X262437880Y-116897206D01*
X262309700Y-116852353D01*
X262279270Y-116849500D01*
X262279266Y-116849500D01*
X260720734Y-116849500D01*
X260720730Y-116849500D01*
X260690300Y-116852353D01*
X260690298Y-116852353D01*
X260562119Y-116897206D01*
X260562117Y-116897207D01*
X260452850Y-116977850D01*
X260372207Y-117087117D01*
X260372206Y-117087119D01*
X260327353Y-117215298D01*
X260327353Y-117215300D01*
X260324500Y-117245730D01*
X260324500Y-118554269D01*
X260327353Y-118584699D01*
X260327353Y-118584701D01*
X260372206Y-118712880D01*
X260372209Y-118712886D01*
X260438249Y-118802367D01*
X260462220Y-118867996D01*
X260446904Y-118936166D01*
X260397164Y-118985234D01*
X260338479Y-119000000D01*
X255861521Y-119000000D01*
X255794482Y-118980315D01*
X255748727Y-118927511D01*
X255738783Y-118858353D01*
X255761751Y-118802367D01*
X255827790Y-118712886D01*
X255827789Y-118712886D01*
X255827793Y-118712882D01*
X255850219Y-118648790D01*
X255872646Y-118584701D01*
X255872646Y-118584699D01*
X255875500Y-118554269D01*
X255875500Y-117245730D01*
X255872646Y-117215300D01*
X255872646Y-117215298D01*
X255827793Y-117087119D01*
X255827792Y-117087117D01*
X255803899Y-117054743D01*
X255747150Y-116977850D01*
X255637882Y-116897207D01*
X255637880Y-116897206D01*
X255509700Y-116852353D01*
X255479270Y-116849500D01*
X255479266Y-116849500D01*
X253920734Y-116849500D01*
X253920730Y-116849500D01*
X253890300Y-116852353D01*
X253890298Y-116852353D01*
X253762119Y-116897206D01*
X253762117Y-116897207D01*
X253652850Y-116977850D01*
X253572207Y-117087117D01*
X253572206Y-117087119D01*
X253527353Y-117215298D01*
X253527353Y-117215300D01*
X253524500Y-117245730D01*
X253524500Y-118554269D01*
X253527353Y-118584699D01*
X253527353Y-118584701D01*
X253572206Y-118712880D01*
X253572209Y-118712886D01*
X253638249Y-118802367D01*
X253662220Y-118867996D01*
X253646904Y-118936166D01*
X253597164Y-118985234D01*
X253538479Y-119000000D01*
X249061521Y-119000000D01*
X248994482Y-118980315D01*
X248948727Y-118927511D01*
X248938783Y-118858353D01*
X248961751Y-118802367D01*
X249027790Y-118712886D01*
X249027789Y-118712886D01*
X249027793Y-118712882D01*
X249050219Y-118648790D01*
X249072646Y-118584701D01*
X249072646Y-118584699D01*
X249075500Y-118554269D01*
X249075500Y-117245730D01*
X249072646Y-117215300D01*
X249072646Y-117215298D01*
X249027793Y-117087119D01*
X249027792Y-117087117D01*
X249003899Y-117054743D01*
X248947150Y-116977850D01*
X248837882Y-116897207D01*
X248837880Y-116897206D01*
X248709700Y-116852353D01*
X248679270Y-116849500D01*
X248679266Y-116849500D01*
X247120734Y-116849500D01*
X247120730Y-116849500D01*
X247090300Y-116852353D01*
X247090298Y-116852353D01*
X246962119Y-116897206D01*
X246962117Y-116897207D01*
X246852850Y-116977850D01*
X246772207Y-117087117D01*
X246772206Y-117087119D01*
X246727353Y-117215298D01*
X246727353Y-117215300D01*
X246724500Y-117245730D01*
X246724500Y-118554269D01*
X246727353Y-118584699D01*
X246727353Y-118584701D01*
X246772206Y-118712880D01*
X246772209Y-118712886D01*
X246838249Y-118802367D01*
X246862220Y-118867996D01*
X246846904Y-118936166D01*
X246797164Y-118985234D01*
X246738479Y-119000000D01*
X242261521Y-119000000D01*
X242194482Y-118980315D01*
X242148727Y-118927511D01*
X242138783Y-118858353D01*
X242161751Y-118802367D01*
X242227790Y-118712886D01*
X242227789Y-118712886D01*
X242227793Y-118712882D01*
X242250219Y-118648790D01*
X242272646Y-118584701D01*
X242272646Y-118584699D01*
X242275500Y-118554269D01*
X242275500Y-117245730D01*
X242272646Y-117215300D01*
X242272646Y-117215298D01*
X242227793Y-117087119D01*
X242227792Y-117087117D01*
X242203899Y-117054743D01*
X242147150Y-116977850D01*
X242037882Y-116897207D01*
X242037880Y-116897206D01*
X241909700Y-116852353D01*
X241879270Y-116849500D01*
X241879266Y-116849500D01*
X240320734Y-116849500D01*
X240320730Y-116849500D01*
X240290300Y-116852353D01*
X240290298Y-116852353D01*
X240162119Y-116897206D01*
X240162117Y-116897207D01*
X240052850Y-116977850D01*
X239972207Y-117087117D01*
X239972206Y-117087119D01*
X239927353Y-117215298D01*
X239927353Y-117215300D01*
X239924500Y-117245730D01*
X239924500Y-118554269D01*
X239927353Y-118584699D01*
X239927353Y-118584701D01*
X239972206Y-118712880D01*
X239972209Y-118712886D01*
X240038249Y-118802367D01*
X240062220Y-118867996D01*
X240046904Y-118936166D01*
X239997164Y-118985234D01*
X239938479Y-119000000D01*
X236557689Y-119000000D01*
X236490650Y-118980315D01*
X236462840Y-118955873D01*
X236438956Y-118927511D01*
X235745024Y-118103466D01*
X234929151Y-117134616D01*
X234901025Y-117070657D01*
X234900000Y-117054743D01*
X234900000Y-114800000D01*
X265844867Y-114800000D01*
X265863302Y-114928225D01*
X265917117Y-115046061D01*
X265917118Y-115046063D01*
X266001951Y-115143967D01*
X266110931Y-115214004D01*
X266235225Y-115250499D01*
X266235227Y-115250500D01*
X266235228Y-115250500D01*
X266364773Y-115250500D01*
X266364773Y-115250499D01*
X266489069Y-115214004D01*
X266598049Y-115143967D01*
X266682882Y-115046063D01*
X266736697Y-114928226D01*
X266755133Y-114800000D01*
X266736697Y-114671774D01*
X266682882Y-114553937D01*
X266598049Y-114456033D01*
X266489069Y-114385996D01*
X266489065Y-114385994D01*
X266489064Y-114385994D01*
X266364774Y-114349500D01*
X266364772Y-114349500D01*
X266235228Y-114349500D01*
X266235226Y-114349500D01*
X266110935Y-114385994D01*
X266110932Y-114385995D01*
X266110931Y-114385996D01*
X266059677Y-114418934D01*
X266001950Y-114456033D01*
X265917118Y-114553937D01*
X265917117Y-114553938D01*
X265863302Y-114671774D01*
X265844867Y-114800000D01*
X234900000Y-114800000D01*
X234900000Y-113800000D01*
X264944867Y-113800000D01*
X264963302Y-113928225D01*
X265017117Y-114046061D01*
X265017118Y-114046063D01*
X265101951Y-114143967D01*
X265210931Y-114214004D01*
X265335225Y-114250499D01*
X265335227Y-114250500D01*
X265335228Y-114250500D01*
X265464773Y-114250500D01*
X265464773Y-114250499D01*
X265589069Y-114214004D01*
X265698049Y-114143967D01*
X265782882Y-114046063D01*
X265836697Y-113928226D01*
X265855133Y-113800000D01*
X265836697Y-113671774D01*
X265782882Y-113553937D01*
X265698049Y-113456033D01*
X265589069Y-113385996D01*
X265589065Y-113385994D01*
X265589064Y-113385994D01*
X265464774Y-113349500D01*
X265464772Y-113349500D01*
X265335228Y-113349500D01*
X265335226Y-113349500D01*
X265210935Y-113385994D01*
X265210932Y-113385995D01*
X265210931Y-113385996D01*
X265159677Y-113418934D01*
X265101950Y-113456033D01*
X265017118Y-113553937D01*
X265017117Y-113553938D01*
X264963302Y-113671774D01*
X264944867Y-113800000D01*
X234900000Y-113800000D01*
X234900000Y-112110000D01*
X251564867Y-112110000D01*
X251583302Y-112238225D01*
X251614283Y-112306062D01*
X251637118Y-112356063D01*
X251721951Y-112453967D01*
X251830931Y-112524004D01*
X251955225Y-112560499D01*
X251955227Y-112560500D01*
X251955228Y-112560500D01*
X252084773Y-112560500D01*
X252084773Y-112560499D01*
X252209069Y-112524004D01*
X252318049Y-112453967D01*
X252402882Y-112356063D01*
X252456697Y-112238226D01*
X252475133Y-112110000D01*
X252467944Y-112060000D01*
X255424867Y-112060000D01*
X255443302Y-112188225D01*
X255473313Y-112253938D01*
X255497118Y-112306063D01*
X255581951Y-112403967D01*
X255690931Y-112474004D01*
X255815225Y-112510499D01*
X255815227Y-112510500D01*
X255815228Y-112510500D01*
X255944773Y-112510500D01*
X255944773Y-112510499D01*
X255980531Y-112500000D01*
X264774867Y-112500000D01*
X264793302Y-112628225D01*
X264847117Y-112746061D01*
X264847118Y-112746063D01*
X264931951Y-112843967D01*
X265040931Y-112914004D01*
X265165225Y-112950499D01*
X265165227Y-112950500D01*
X265165228Y-112950500D01*
X265294773Y-112950500D01*
X265294773Y-112950499D01*
X265419069Y-112914004D01*
X265528049Y-112843967D01*
X265612882Y-112746063D01*
X265666697Y-112628226D01*
X265685133Y-112500000D01*
X265666697Y-112371774D01*
X265612882Y-112253937D01*
X265528049Y-112156033D01*
X265419069Y-112085996D01*
X265419065Y-112085994D01*
X265419064Y-112085994D01*
X265294774Y-112049500D01*
X265294772Y-112049500D01*
X265165228Y-112049500D01*
X265165226Y-112049500D01*
X265040935Y-112085994D01*
X265040932Y-112085995D01*
X265040931Y-112085996D01*
X265003580Y-112110000D01*
X264931950Y-112156033D01*
X264847118Y-112253937D01*
X264847117Y-112253938D01*
X264793302Y-112371774D01*
X264774867Y-112500000D01*
X255980531Y-112500000D01*
X256069069Y-112474004D01*
X256178049Y-112403967D01*
X256262882Y-112306063D01*
X256316697Y-112188226D01*
X256335133Y-112060000D01*
X256316697Y-111931774D01*
X256262882Y-111813937D01*
X256178049Y-111716033D01*
X256153101Y-111700000D01*
X256844867Y-111700000D01*
X256863302Y-111828225D01*
X256879612Y-111863938D01*
X256917118Y-111946063D01*
X257001951Y-112043967D01*
X257110931Y-112114004D01*
X257159368Y-112128226D01*
X257235225Y-112150499D01*
X257235227Y-112150500D01*
X257235228Y-112150500D01*
X257364773Y-112150500D01*
X257364773Y-112150499D01*
X257489069Y-112114004D01*
X257598049Y-112043967D01*
X257682882Y-111946063D01*
X257736697Y-111828226D01*
X257755133Y-111700000D01*
X257736697Y-111571774D01*
X257682882Y-111453937D01*
X257598049Y-111356033D01*
X257489069Y-111285996D01*
X257489065Y-111285994D01*
X257489064Y-111285994D01*
X257364774Y-111249500D01*
X257364772Y-111249500D01*
X257235228Y-111249500D01*
X257235226Y-111249500D01*
X257110935Y-111285994D01*
X257110932Y-111285995D01*
X257110931Y-111285996D01*
X257059677Y-111318934D01*
X257001950Y-111356033D01*
X256917118Y-111453937D01*
X256917117Y-111453938D01*
X256863302Y-111571774D01*
X256844867Y-111700000D01*
X256153101Y-111700000D01*
X256069069Y-111645996D01*
X256069065Y-111645994D01*
X256069064Y-111645994D01*
X255944774Y-111609500D01*
X255944772Y-111609500D01*
X255815228Y-111609500D01*
X255815226Y-111609500D01*
X255690935Y-111645994D01*
X255690932Y-111645995D01*
X255690931Y-111645996D01*
X255649758Y-111672456D01*
X255581950Y-111716033D01*
X255497118Y-111813937D01*
X255497117Y-111813938D01*
X255443302Y-111931774D01*
X255424867Y-112060000D01*
X252467944Y-112060000D01*
X252456697Y-111981774D01*
X252402882Y-111863937D01*
X252318049Y-111766033D01*
X252209069Y-111695996D01*
X252209065Y-111695994D01*
X252209064Y-111695994D01*
X252084774Y-111659500D01*
X252084772Y-111659500D01*
X251955228Y-111659500D01*
X251955226Y-111659500D01*
X251830935Y-111695994D01*
X251830932Y-111695995D01*
X251830931Y-111695996D01*
X251824701Y-111700000D01*
X251721950Y-111766033D01*
X251637118Y-111863937D01*
X251637117Y-111863938D01*
X251583302Y-111981774D01*
X251564867Y-112110000D01*
X234900000Y-112110000D01*
X234900000Y-111120000D01*
X258674867Y-111120000D01*
X258693302Y-111248225D01*
X258697140Y-111256628D01*
X258747118Y-111366063D01*
X258831951Y-111463967D01*
X258940931Y-111534004D01*
X258993707Y-111549500D01*
X259065225Y-111570499D01*
X259065227Y-111570500D01*
X259065228Y-111570500D01*
X259194773Y-111570500D01*
X259194773Y-111570499D01*
X259319069Y-111534004D01*
X259325299Y-111530000D01*
X262549353Y-111530000D01*
X262569834Y-111672456D01*
X262612570Y-111766033D01*
X262629623Y-111803373D01*
X262723872Y-111912143D01*
X262844947Y-111989953D01*
X262844950Y-111989954D01*
X262844949Y-111989954D01*
X262983036Y-112030499D01*
X262983038Y-112030500D01*
X262983039Y-112030500D01*
X263126962Y-112030500D01*
X263126962Y-112030499D01*
X263230835Y-112000000D01*
X268844865Y-112000000D01*
X268863300Y-112128225D01*
X268873473Y-112150500D01*
X268917116Y-112246063D01*
X269001949Y-112343967D01*
X269110929Y-112414004D01*
X269235223Y-112450499D01*
X269235225Y-112450500D01*
X269235226Y-112450500D01*
X269364771Y-112450500D01*
X269364771Y-112450499D01*
X269489067Y-112414004D01*
X269598047Y-112343967D01*
X269682880Y-112246063D01*
X269736695Y-112128226D01*
X269755131Y-112000000D01*
X269736695Y-111871774D01*
X269682880Y-111753937D01*
X269598047Y-111656033D01*
X269489067Y-111585996D01*
X269489063Y-111585994D01*
X269489062Y-111585994D01*
X269364772Y-111549500D01*
X269364770Y-111549500D01*
X269235226Y-111549500D01*
X269235224Y-111549500D01*
X269110933Y-111585994D01*
X269110930Y-111585995D01*
X269110929Y-111585996D01*
X269074356Y-111609500D01*
X269001948Y-111656033D01*
X268917116Y-111753937D01*
X268917115Y-111753938D01*
X268863300Y-111871774D01*
X268844865Y-112000000D01*
X263230835Y-112000000D01*
X263265053Y-111989953D01*
X263386128Y-111912143D01*
X263480377Y-111803373D01*
X263540165Y-111672457D01*
X263560647Y-111530000D01*
X263540165Y-111387543D01*
X263480377Y-111256627D01*
X263386128Y-111147857D01*
X263265053Y-111070047D01*
X263265051Y-111070046D01*
X263265049Y-111070045D01*
X263265050Y-111070045D01*
X263126963Y-111029500D01*
X263126961Y-111029500D01*
X262983039Y-111029500D01*
X262983036Y-111029500D01*
X262844949Y-111070045D01*
X262723873Y-111147856D01*
X262629623Y-111256626D01*
X262629622Y-111256628D01*
X262569834Y-111387543D01*
X262549353Y-111530000D01*
X259325299Y-111530000D01*
X259428049Y-111463967D01*
X259512882Y-111366063D01*
X259566697Y-111248226D01*
X259585133Y-111120000D01*
X259566697Y-110991774D01*
X259512882Y-110873937D01*
X259428049Y-110776033D01*
X259319069Y-110705996D01*
X259319065Y-110705994D01*
X259319064Y-110705994D01*
X259194774Y-110669500D01*
X259194772Y-110669500D01*
X259065228Y-110669500D01*
X259065226Y-110669500D01*
X258940935Y-110705994D01*
X258940932Y-110705995D01*
X258940931Y-110705996D01*
X258889677Y-110738934D01*
X258831950Y-110776033D01*
X258747118Y-110873937D01*
X258747117Y-110873938D01*
X258693302Y-110991774D01*
X258674867Y-111120000D01*
X234900000Y-111120000D01*
X234900000Y-110800000D01*
X234900000Y-109194620D01*
X254794867Y-109194620D01*
X254813302Y-109322845D01*
X254867117Y-109440681D01*
X254867118Y-109440683D01*
X254951951Y-109538587D01*
X255060931Y-109608624D01*
X255185225Y-109645119D01*
X255185227Y-109645120D01*
X255185228Y-109645120D01*
X255314773Y-109645120D01*
X255314773Y-109645119D01*
X255439069Y-109608624D01*
X255548049Y-109538587D01*
X255632882Y-109440683D01*
X255686697Y-109322846D01*
X255705133Y-109194620D01*
X255686697Y-109066394D01*
X255632882Y-108948557D01*
X255581272Y-108888995D01*
X274944499Y-108888995D01*
X274971418Y-109024322D01*
X274971421Y-109024332D01*
X275024221Y-109151804D01*
X275024228Y-109151817D01*
X275100885Y-109266541D01*
X275100888Y-109266545D01*
X275198454Y-109364111D01*
X275198458Y-109364114D01*
X275313182Y-109440771D01*
X275313195Y-109440778D01*
X275440667Y-109493578D01*
X275440672Y-109493580D01*
X275440676Y-109493580D01*
X275440677Y-109493581D01*
X275576004Y-109520500D01*
X275576007Y-109520500D01*
X276813995Y-109520500D01*
X276905041Y-109502389D01*
X276949328Y-109493580D01*
X277076811Y-109440775D01*
X277191542Y-109364114D01*
X277289114Y-109266542D01*
X277365775Y-109151811D01*
X277418580Y-109024328D01*
X277445500Y-108888995D01*
X279274499Y-108888995D01*
X279301418Y-109024322D01*
X279301421Y-109024332D01*
X279354221Y-109151804D01*
X279354228Y-109151817D01*
X279430885Y-109266541D01*
X279430888Y-109266545D01*
X279528454Y-109364111D01*
X279528458Y-109364114D01*
X279643182Y-109440771D01*
X279643195Y-109440778D01*
X279770667Y-109493578D01*
X279770672Y-109493580D01*
X279770676Y-109493580D01*
X279770677Y-109493581D01*
X279906004Y-109520500D01*
X279906007Y-109520500D01*
X280843995Y-109520500D01*
X280935041Y-109502389D01*
X280979328Y-109493580D01*
X281106811Y-109440775D01*
X281221542Y-109364114D01*
X281319114Y-109266542D01*
X281395775Y-109151811D01*
X281448580Y-109024328D01*
X281475500Y-108888993D01*
X281475500Y-108751007D01*
X281475500Y-108751004D01*
X281448581Y-108615677D01*
X281448580Y-108615676D01*
X281448580Y-108615672D01*
X281423036Y-108554002D01*
X281395778Y-108488195D01*
X281395771Y-108488182D01*
X281319114Y-108373458D01*
X281319111Y-108373454D01*
X281221545Y-108275888D01*
X281221541Y-108275885D01*
X281106817Y-108199228D01*
X281106804Y-108199221D01*
X280979332Y-108146421D01*
X280979322Y-108146418D01*
X280843995Y-108119500D01*
X280843993Y-108119500D01*
X279906007Y-108119500D01*
X279906005Y-108119500D01*
X279770677Y-108146418D01*
X279770667Y-108146421D01*
X279643195Y-108199221D01*
X279643182Y-108199228D01*
X279528458Y-108275885D01*
X279528454Y-108275888D01*
X279430888Y-108373454D01*
X279430885Y-108373458D01*
X279354228Y-108488182D01*
X279354221Y-108488195D01*
X279301421Y-108615667D01*
X279301418Y-108615677D01*
X279274500Y-108751004D01*
X279274500Y-108751007D01*
X279274500Y-108888993D01*
X279274500Y-108888995D01*
X279274499Y-108888995D01*
X277445500Y-108888995D01*
X277445500Y-108888993D01*
X277445500Y-108751007D01*
X277445500Y-108751004D01*
X277418581Y-108615677D01*
X277418580Y-108615676D01*
X277418580Y-108615672D01*
X277393036Y-108554002D01*
X277365778Y-108488195D01*
X277365771Y-108488182D01*
X277289114Y-108373458D01*
X277289111Y-108373454D01*
X277191545Y-108275888D01*
X277191541Y-108275885D01*
X277076817Y-108199228D01*
X277076804Y-108199221D01*
X276949332Y-108146421D01*
X276949320Y-108146418D01*
X276856728Y-108128000D01*
X276794817Y-108095615D01*
X276760242Y-108034899D01*
X276763982Y-107965130D01*
X276804849Y-107908458D01*
X276848823Y-107886609D01*
X276895520Y-107874097D01*
X277013981Y-107805704D01*
X277110704Y-107708981D01*
X277179097Y-107590520D01*
X277214500Y-107458394D01*
X277214500Y-107321606D01*
X277179097Y-107189480D01*
X277125163Y-107096063D01*
X277110708Y-107071025D01*
X277110702Y-107071017D01*
X277013982Y-106974297D01*
X277013974Y-106974291D01*
X276895526Y-106905906D01*
X276895522Y-106905904D01*
X276895520Y-106905903D01*
X276763394Y-106870500D01*
X276626606Y-106870500D01*
X276494480Y-106905903D01*
X276494473Y-106905906D01*
X276376025Y-106974291D01*
X276376017Y-106974297D01*
X276279297Y-107071017D01*
X276279291Y-107071025D01*
X276210906Y-107189473D01*
X276210903Y-107189480D01*
X276175500Y-107321606D01*
X276175500Y-107458394D01*
X276207808Y-107578967D01*
X276210903Y-107590519D01*
X276210906Y-107590526D01*
X276279291Y-107708974D01*
X276279295Y-107708979D01*
X276279296Y-107708981D01*
X276376019Y-107805704D01*
X276376021Y-107805705D01*
X276376025Y-107805708D01*
X276494473Y-107874093D01*
X276494480Y-107874097D01*
X276500559Y-107875726D01*
X276560218Y-107912090D01*
X276590747Y-107974937D01*
X276582452Y-108044313D01*
X276537967Y-108098191D01*
X276471415Y-108119465D01*
X276468464Y-108119500D01*
X275576005Y-108119500D01*
X275440677Y-108146418D01*
X275440667Y-108146421D01*
X275313195Y-108199221D01*
X275313182Y-108199228D01*
X275198458Y-108275885D01*
X275198454Y-108275888D01*
X275100888Y-108373454D01*
X275100885Y-108373458D01*
X275024228Y-108488182D01*
X275024221Y-108488195D01*
X274971421Y-108615667D01*
X274971418Y-108615677D01*
X274944500Y-108751004D01*
X274944500Y-108751007D01*
X274944500Y-108888993D01*
X274944500Y-108888995D01*
X274944499Y-108888995D01*
X255581272Y-108888995D01*
X255548049Y-108850653D01*
X255439069Y-108780616D01*
X255439065Y-108780614D01*
X255439064Y-108780614D01*
X255314774Y-108744120D01*
X255314772Y-108744120D01*
X255185228Y-108744120D01*
X255185226Y-108744120D01*
X255060935Y-108780614D01*
X255060932Y-108780615D01*
X255060931Y-108780616D01*
X255009677Y-108813554D01*
X254951950Y-108850653D01*
X254867118Y-108948557D01*
X254867117Y-108948558D01*
X254813302Y-109066394D01*
X254794867Y-109194620D01*
X234900000Y-109194620D01*
X234900000Y-108650000D01*
X253494867Y-108650000D01*
X253513302Y-108778225D01*
X253563889Y-108888993D01*
X253567118Y-108896063D01*
X253651951Y-108993967D01*
X253760931Y-109064004D01*
X253769071Y-109066394D01*
X253885225Y-109100499D01*
X253885227Y-109100500D01*
X253885228Y-109100500D01*
X254014773Y-109100500D01*
X254014773Y-109100499D01*
X254139069Y-109064004D01*
X254248049Y-108993967D01*
X254332882Y-108896063D01*
X254386697Y-108778226D01*
X254405133Y-108650000D01*
X254386697Y-108521774D01*
X254332882Y-108403937D01*
X254248049Y-108306033D01*
X254139069Y-108235996D01*
X254139065Y-108235994D01*
X254139064Y-108235994D01*
X254014774Y-108199500D01*
X254014772Y-108199500D01*
X253885228Y-108199500D01*
X253885226Y-108199500D01*
X253760935Y-108235994D01*
X253760932Y-108235995D01*
X253760931Y-108235996D01*
X253710785Y-108268223D01*
X253651950Y-108306033D01*
X253567118Y-108403937D01*
X253567117Y-108403938D01*
X253513302Y-108521774D01*
X253494867Y-108650000D01*
X234900000Y-108650000D01*
X234900000Y-108139998D01*
X247694867Y-108139998D01*
X247713302Y-108268223D01*
X247761362Y-108373458D01*
X247767118Y-108386061D01*
X247851951Y-108483965D01*
X247960931Y-108554002D01*
X248085225Y-108590497D01*
X248085227Y-108590498D01*
X248085228Y-108590498D01*
X248214773Y-108590498D01*
X248214773Y-108590497D01*
X248339069Y-108554002D01*
X248448049Y-108483965D01*
X248532882Y-108386061D01*
X248586697Y-108268224D01*
X248605133Y-108139998D01*
X248586697Y-108011772D01*
X248552564Y-107937032D01*
X248542620Y-107867873D01*
X248571645Y-107804318D01*
X248630423Y-107766543D01*
X248630424Y-107766543D01*
X248635482Y-107765057D01*
X248639069Y-107764004D01*
X248748049Y-107693967D01*
X248832882Y-107596063D01*
X248886697Y-107478226D01*
X248905133Y-107350000D01*
X248886697Y-107221774D01*
X248832882Y-107103937D01*
X248748049Y-107006033D01*
X248639069Y-106935996D01*
X248639065Y-106935994D01*
X248639064Y-106935994D01*
X248514774Y-106899500D01*
X248514772Y-106899500D01*
X248385228Y-106899500D01*
X248385226Y-106899500D01*
X248260935Y-106935994D01*
X248260932Y-106935995D01*
X248260931Y-106935996D01*
X248209677Y-106968934D01*
X248151950Y-107006033D01*
X248067118Y-107103937D01*
X248067117Y-107103938D01*
X248013302Y-107221774D01*
X247994867Y-107350000D01*
X248013302Y-107478226D01*
X248013303Y-107478227D01*
X248047435Y-107552966D01*
X248057379Y-107622124D01*
X248028354Y-107685680D01*
X247969583Y-107723452D01*
X247960936Y-107725991D01*
X247851950Y-107796031D01*
X247767118Y-107893935D01*
X247767117Y-107893936D01*
X247713302Y-108011772D01*
X247694867Y-108139998D01*
X234900000Y-108139998D01*
X234900000Y-105950000D01*
X236689353Y-105950000D01*
X236709834Y-106092456D01*
X236751208Y-106183051D01*
X236769623Y-106223373D01*
X236863872Y-106332143D01*
X236984947Y-106409953D01*
X236984950Y-106409954D01*
X236984949Y-106409954D01*
X237073642Y-106435996D01*
X237100789Y-106443967D01*
X237123036Y-106450499D01*
X237123038Y-106450500D01*
X237123039Y-106450500D01*
X237266962Y-106450500D01*
X237266962Y-106450499D01*
X237405053Y-106409953D01*
X237526128Y-106332143D01*
X237620377Y-106223373D01*
X237627302Y-106208209D01*
X247048180Y-106208209D01*
X247066615Y-106336434D01*
X247112550Y-106437015D01*
X247120431Y-106454272D01*
X247205264Y-106552176D01*
X247314244Y-106622213D01*
X247438538Y-106658708D01*
X247438540Y-106658709D01*
X247438541Y-106658709D01*
X247568086Y-106658709D01*
X247568086Y-106658708D01*
X247692382Y-106622213D01*
X247801362Y-106552176D01*
X247886195Y-106454272D01*
X247940010Y-106336435D01*
X247958446Y-106208209D01*
X247944729Y-106112804D01*
X247953065Y-106054826D01*
X250510432Y-106054826D01*
X250528867Y-106183051D01*
X250582682Y-106300887D01*
X250582683Y-106300889D01*
X250667516Y-106398793D01*
X250726993Y-106437016D01*
X250772747Y-106489819D01*
X250782691Y-106558977D01*
X250769204Y-106595140D01*
X250770802Y-106595870D01*
X250713302Y-106721774D01*
X250694867Y-106850000D01*
X250713302Y-106978225D01*
X250755683Y-107071025D01*
X250767118Y-107096063D01*
X250851951Y-107193967D01*
X250960931Y-107264004D01*
X251085225Y-107300499D01*
X251085227Y-107300500D01*
X251085228Y-107300500D01*
X251214773Y-107300500D01*
X251214773Y-107300499D01*
X251339069Y-107264004D01*
X251384200Y-107235000D01*
X273924867Y-107235000D01*
X273943302Y-107363225D01*
X273986764Y-107458392D01*
X273997118Y-107481063D01*
X274081951Y-107578967D01*
X274190931Y-107649004D01*
X274315225Y-107685499D01*
X274315227Y-107685500D01*
X274315228Y-107685500D01*
X274444773Y-107685500D01*
X274444773Y-107685499D01*
X274569069Y-107649004D01*
X274678049Y-107578967D01*
X274762882Y-107481063D01*
X274816697Y-107363226D01*
X274835133Y-107235000D01*
X274816697Y-107106774D01*
X274762882Y-106988937D01*
X274678049Y-106891033D01*
X274569069Y-106820996D01*
X274569065Y-106820994D01*
X274569064Y-106820994D01*
X274444774Y-106784500D01*
X274444772Y-106784500D01*
X274315228Y-106784500D01*
X274315226Y-106784500D01*
X274190935Y-106820994D01*
X274190932Y-106820995D01*
X274190931Y-106820996D01*
X274145800Y-106850000D01*
X274081950Y-106891033D01*
X273997118Y-106988937D01*
X273997117Y-106988938D01*
X273943302Y-107106774D01*
X273924867Y-107235000D01*
X251384200Y-107235000D01*
X251448049Y-107193967D01*
X251532882Y-107096063D01*
X251586697Y-106978226D01*
X251605133Y-106850000D01*
X251586697Y-106721774D01*
X251532882Y-106603937D01*
X251448049Y-106506033D01*
X251448048Y-106506032D01*
X251388572Y-106467809D01*
X251342818Y-106415005D01*
X251332874Y-106345847D01*
X251346362Y-106309686D01*
X251344763Y-106308956D01*
X251383848Y-106223373D01*
X251402262Y-106183052D01*
X251414203Y-106100000D01*
X254544867Y-106100000D01*
X254563302Y-106228225D01*
X254612721Y-106336435D01*
X254617118Y-106346063D01*
X254701951Y-106443967D01*
X254810931Y-106514004D01*
X254935225Y-106550499D01*
X254935227Y-106550500D01*
X254935228Y-106550500D01*
X255064773Y-106550500D01*
X255064773Y-106550499D01*
X255189069Y-106514004D01*
X255298049Y-106443967D01*
X255382882Y-106346063D01*
X255436697Y-106228226D01*
X255455133Y-106100000D01*
X255436697Y-105971774D01*
X255382882Y-105853937D01*
X255298049Y-105756033D01*
X255189069Y-105685996D01*
X255189065Y-105685994D01*
X255189064Y-105685994D01*
X255064774Y-105649500D01*
X255064772Y-105649500D01*
X254935228Y-105649500D01*
X254935226Y-105649500D01*
X254810935Y-105685994D01*
X254810932Y-105685995D01*
X254810931Y-105685996D01*
X254766481Y-105714562D01*
X254701950Y-105756033D01*
X254617118Y-105853937D01*
X254617117Y-105853938D01*
X254563302Y-105971774D01*
X254544867Y-106100000D01*
X251414203Y-106100000D01*
X251420698Y-106054826D01*
X251402262Y-105926600D01*
X251348447Y-105808763D01*
X251263614Y-105710859D01*
X251154634Y-105640822D01*
X251154630Y-105640820D01*
X251154629Y-105640820D01*
X251030339Y-105604326D01*
X251030337Y-105604326D01*
X250900793Y-105604326D01*
X250900791Y-105604326D01*
X250776500Y-105640820D01*
X250776497Y-105640821D01*
X250776496Y-105640822D01*
X250762993Y-105649500D01*
X250667515Y-105710859D01*
X250582683Y-105808763D01*
X250582682Y-105808764D01*
X250528867Y-105926600D01*
X250510432Y-106054826D01*
X247953065Y-106054826D01*
X247954673Y-106043646D01*
X248000428Y-105990842D01*
X248067467Y-105971158D01*
X248102401Y-105976181D01*
X248185225Y-106000499D01*
X248185227Y-106000500D01*
X248185228Y-106000500D01*
X248314773Y-106000500D01*
X248314773Y-106000499D01*
X248439069Y-105964004D01*
X248548049Y-105893967D01*
X248632882Y-105796063D01*
X248686697Y-105678226D01*
X248705133Y-105550000D01*
X248690755Y-105450000D01*
X269144867Y-105450000D01*
X269163302Y-105578225D01*
X269217117Y-105696061D01*
X269217118Y-105696063D01*
X269301951Y-105793967D01*
X269410931Y-105864004D01*
X269535225Y-105900499D01*
X269535227Y-105900500D01*
X269535228Y-105900500D01*
X269664773Y-105900500D01*
X269664773Y-105900499D01*
X269789069Y-105864004D01*
X269898049Y-105793967D01*
X269982882Y-105696063D01*
X270036697Y-105578226D01*
X270055133Y-105450000D01*
X270036697Y-105321774D01*
X269982882Y-105203937D01*
X269898049Y-105106033D01*
X269789069Y-105035996D01*
X269789065Y-105035994D01*
X269789064Y-105035994D01*
X269664774Y-104999500D01*
X269664772Y-104999500D01*
X269535228Y-104999500D01*
X269535226Y-104999500D01*
X269410935Y-105035994D01*
X269410932Y-105035995D01*
X269410931Y-105035996D01*
X269359677Y-105068934D01*
X269301950Y-105106033D01*
X269217118Y-105203937D01*
X269217117Y-105203938D01*
X269163302Y-105321774D01*
X269144867Y-105450000D01*
X248690755Y-105450000D01*
X248686697Y-105421774D01*
X248632882Y-105303937D01*
X248548049Y-105206033D01*
X248439069Y-105135996D01*
X248439065Y-105135994D01*
X248439064Y-105135994D01*
X248314774Y-105099500D01*
X248314772Y-105099500D01*
X248185228Y-105099500D01*
X248185226Y-105099500D01*
X248060935Y-105135994D01*
X248060932Y-105135995D01*
X248060931Y-105135996D01*
X248009677Y-105168934D01*
X247951950Y-105206033D01*
X247867118Y-105303937D01*
X247867117Y-105303938D01*
X247813302Y-105421774D01*
X247794867Y-105550000D01*
X247808583Y-105645404D01*
X247798639Y-105714562D01*
X247752884Y-105767366D01*
X247685844Y-105787050D01*
X247650912Y-105782028D01*
X247568085Y-105757709D01*
X247438541Y-105757709D01*
X247438539Y-105757709D01*
X247314248Y-105794203D01*
X247314245Y-105794204D01*
X247314244Y-105794205D01*
X247291590Y-105808764D01*
X247205263Y-105864242D01*
X247120431Y-105962146D01*
X247120430Y-105962147D01*
X247066615Y-106079983D01*
X247048180Y-106208209D01*
X237627302Y-106208209D01*
X237680165Y-106092457D01*
X237700647Y-105950000D01*
X237680165Y-105807543D01*
X237620377Y-105676627D01*
X237526128Y-105567857D01*
X237405053Y-105490047D01*
X237405051Y-105490046D01*
X237405049Y-105490045D01*
X237405050Y-105490045D01*
X237266963Y-105449500D01*
X237266961Y-105449500D01*
X237123039Y-105449500D01*
X237123036Y-105449500D01*
X236984949Y-105490045D01*
X236863873Y-105567856D01*
X236769623Y-105676626D01*
X236769622Y-105676628D01*
X236709834Y-105807543D01*
X236689353Y-105950000D01*
X234900000Y-105950000D01*
X234900000Y-104500000D01*
X271244867Y-104500000D01*
X271263302Y-104628225D01*
X271317117Y-104746061D01*
X271317118Y-104746063D01*
X271401951Y-104843967D01*
X271510931Y-104914004D01*
X271635225Y-104950499D01*
X271635227Y-104950500D01*
X271635228Y-104950500D01*
X271764773Y-104950500D01*
X271764773Y-104950499D01*
X271889069Y-104914004D01*
X271998049Y-104843967D01*
X272082882Y-104746063D01*
X272136697Y-104628226D01*
X272155133Y-104500000D01*
X272136697Y-104371774D01*
X272082882Y-104253937D01*
X271998049Y-104156033D01*
X271889069Y-104085996D01*
X271889065Y-104085994D01*
X271889064Y-104085994D01*
X271764774Y-104049500D01*
X271764772Y-104049500D01*
X271635228Y-104049500D01*
X271635226Y-104049500D01*
X271510935Y-104085994D01*
X271510932Y-104085995D01*
X271510931Y-104085996D01*
X271467350Y-104114004D01*
X271401950Y-104156033D01*
X271317118Y-104253937D01*
X271317117Y-104253938D01*
X271263302Y-104371774D01*
X271244867Y-104500000D01*
X234900000Y-104500000D01*
X234900000Y-103700000D01*
X242994867Y-103700000D01*
X243013302Y-103828225D01*
X243043326Y-103893966D01*
X243067118Y-103946063D01*
X243151951Y-104043967D01*
X243260931Y-104114004D01*
X243385225Y-104150499D01*
X243385227Y-104150500D01*
X243385228Y-104150500D01*
X243514773Y-104150500D01*
X243514773Y-104150499D01*
X243639069Y-104114004D01*
X243748049Y-104043967D01*
X243832882Y-103946063D01*
X243886697Y-103828226D01*
X243897944Y-103750000D01*
X250294867Y-103750000D01*
X250313302Y-103878225D01*
X250344283Y-103946062D01*
X250367118Y-103996063D01*
X250451951Y-104093967D01*
X250560931Y-104164004D01*
X250685225Y-104200499D01*
X250685227Y-104200500D01*
X250685228Y-104200500D01*
X250814773Y-104200500D01*
X250814773Y-104200499D01*
X250939069Y-104164004D01*
X251048049Y-104093967D01*
X251132882Y-103996063D01*
X251186697Y-103878226D01*
X251205133Y-103750000D01*
X251186697Y-103621774D01*
X251176753Y-103600000D01*
X254444867Y-103600000D01*
X254463302Y-103728225D01*
X254508972Y-103828226D01*
X254517118Y-103846063D01*
X254601951Y-103943967D01*
X254710931Y-104014004D01*
X254835225Y-104050499D01*
X254835227Y-104050500D01*
X254835228Y-104050500D01*
X254964773Y-104050500D01*
X254964773Y-104050499D01*
X255089069Y-104014004D01*
X255198049Y-103943967D01*
X255282882Y-103846063D01*
X255336697Y-103728226D01*
X255355133Y-103600000D01*
X255336697Y-103471774D01*
X255303919Y-103400000D01*
X258444867Y-103400000D01*
X258463302Y-103528225D01*
X258473247Y-103550000D01*
X258517118Y-103646063D01*
X258601951Y-103743967D01*
X258710931Y-103814004D01*
X258820117Y-103846063D01*
X258835225Y-103850499D01*
X258835227Y-103850500D01*
X258835228Y-103850500D01*
X258964773Y-103850500D01*
X258964773Y-103850499D01*
X259089069Y-103814004D01*
X259198049Y-103743967D01*
X259282882Y-103646063D01*
X259326753Y-103550000D01*
X269144867Y-103550000D01*
X269163302Y-103678225D01*
X269193326Y-103743966D01*
X269217118Y-103796063D01*
X269301951Y-103893967D01*
X269410931Y-103964004D01*
X269520117Y-103996063D01*
X269535225Y-104000499D01*
X269535227Y-104000500D01*
X269535228Y-104000500D01*
X269664773Y-104000500D01*
X269664773Y-104000499D01*
X269789069Y-103964004D01*
X269898049Y-103893967D01*
X269982882Y-103796063D01*
X270036697Y-103678226D01*
X270055133Y-103550000D01*
X270036697Y-103421774D01*
X269982882Y-103303937D01*
X269898049Y-103206033D01*
X269789069Y-103135996D01*
X269789065Y-103135994D01*
X269789064Y-103135994D01*
X269664774Y-103099500D01*
X269664772Y-103099500D01*
X269535228Y-103099500D01*
X269535226Y-103099500D01*
X269410935Y-103135994D01*
X269410932Y-103135995D01*
X269410931Y-103135996D01*
X269383013Y-103153938D01*
X269301950Y-103206033D01*
X269217118Y-103303937D01*
X269217117Y-103303938D01*
X269163302Y-103421774D01*
X269144867Y-103550000D01*
X259326753Y-103550000D01*
X259336697Y-103528226D01*
X259355133Y-103400000D01*
X259336697Y-103271774D01*
X259282882Y-103153937D01*
X259198049Y-103056033D01*
X259089069Y-102985996D01*
X259089065Y-102985994D01*
X259089064Y-102985994D01*
X258964774Y-102949500D01*
X258964772Y-102949500D01*
X258835228Y-102949500D01*
X258835226Y-102949500D01*
X258710935Y-102985994D01*
X258710932Y-102985995D01*
X258710931Y-102985996D01*
X258698469Y-102994005D01*
X258601950Y-103056033D01*
X258517118Y-103153937D01*
X258517117Y-103153938D01*
X258463302Y-103271774D01*
X258444867Y-103400000D01*
X255303919Y-103400000D01*
X255282882Y-103353937D01*
X255198049Y-103256033D01*
X255089069Y-103185996D01*
X255089065Y-103185994D01*
X255089064Y-103185994D01*
X254964774Y-103149500D01*
X254964772Y-103149500D01*
X254835228Y-103149500D01*
X254835226Y-103149500D01*
X254710935Y-103185994D01*
X254710932Y-103185995D01*
X254710931Y-103185996D01*
X254679753Y-103206033D01*
X254601950Y-103256033D01*
X254517118Y-103353937D01*
X254517117Y-103353938D01*
X254463302Y-103471774D01*
X254444867Y-103600000D01*
X251176753Y-103600000D01*
X251132882Y-103503937D01*
X251048049Y-103406033D01*
X250939069Y-103335996D01*
X250939065Y-103335994D01*
X250939064Y-103335994D01*
X250814774Y-103299500D01*
X250814772Y-103299500D01*
X250685228Y-103299500D01*
X250685226Y-103299500D01*
X250560935Y-103335994D01*
X250560932Y-103335995D01*
X250560931Y-103335996D01*
X250533013Y-103353938D01*
X250451950Y-103406033D01*
X250367118Y-103503937D01*
X250367117Y-103503938D01*
X250313302Y-103621774D01*
X250294867Y-103750000D01*
X243897944Y-103750000D01*
X243905133Y-103700000D01*
X243886697Y-103571774D01*
X243832882Y-103453937D01*
X243748049Y-103356033D01*
X243639069Y-103285996D01*
X243639065Y-103285994D01*
X243639064Y-103285994D01*
X243514774Y-103249500D01*
X243514772Y-103249500D01*
X243385228Y-103249500D01*
X243385226Y-103249500D01*
X243260935Y-103285994D01*
X243260932Y-103285995D01*
X243260931Y-103285996D01*
X243233013Y-103303938D01*
X243151950Y-103356033D01*
X243067118Y-103453937D01*
X243067117Y-103453938D01*
X243013302Y-103571774D01*
X242994867Y-103700000D01*
X234900000Y-103700000D01*
X234900000Y-102199995D01*
X243144856Y-102199995D01*
X243163291Y-102328220D01*
X243166873Y-102336063D01*
X243217107Y-102446058D01*
X243301940Y-102543962D01*
X243410920Y-102613999D01*
X243459374Y-102628226D01*
X243535214Y-102650494D01*
X243535216Y-102650495D01*
X243535217Y-102650495D01*
X243664762Y-102650495D01*
X243664762Y-102650494D01*
X243789058Y-102613999D01*
X243898038Y-102543962D01*
X243982871Y-102446058D01*
X244036686Y-102328221D01*
X244055121Y-102200000D01*
X245994867Y-102200000D01*
X246013302Y-102328225D01*
X246016882Y-102336063D01*
X246067118Y-102446063D01*
X246151951Y-102543967D01*
X246260931Y-102614004D01*
X246309368Y-102628226D01*
X246385225Y-102650499D01*
X246385227Y-102650500D01*
X246385228Y-102650500D01*
X246514773Y-102650500D01*
X246514773Y-102650499D01*
X246639069Y-102614004D01*
X246748049Y-102543967D01*
X246832882Y-102446063D01*
X246886697Y-102328226D01*
X246905133Y-102200000D01*
X247444867Y-102200000D01*
X247463302Y-102328225D01*
X247466882Y-102336063D01*
X247517118Y-102446063D01*
X247601951Y-102543967D01*
X247710931Y-102614004D01*
X247759368Y-102628226D01*
X247835225Y-102650499D01*
X247835227Y-102650500D01*
X247835228Y-102650500D01*
X247964773Y-102650500D01*
X247964773Y-102650499D01*
X248089069Y-102614004D01*
X248198049Y-102543967D01*
X248236146Y-102500000D01*
X265944867Y-102500000D01*
X265963302Y-102628225D01*
X265973475Y-102650500D01*
X266017118Y-102746063D01*
X266101951Y-102843967D01*
X266210931Y-102914004D01*
X266335225Y-102950499D01*
X266335227Y-102950500D01*
X266335228Y-102950500D01*
X266464773Y-102950500D01*
X266464773Y-102950499D01*
X266589069Y-102914004D01*
X266698049Y-102843967D01*
X266782882Y-102746063D01*
X266836697Y-102628226D01*
X266843631Y-102580000D01*
X271204867Y-102580000D01*
X271223302Y-102708225D01*
X271277117Y-102826061D01*
X271277118Y-102826063D01*
X271361951Y-102923967D01*
X271470931Y-102994004D01*
X271595225Y-103030499D01*
X271595227Y-103030500D01*
X271595228Y-103030500D01*
X271724773Y-103030500D01*
X271724773Y-103030499D01*
X271849069Y-102994004D01*
X271958049Y-102923967D01*
X272042882Y-102826063D01*
X272096697Y-102708226D01*
X272115133Y-102580000D01*
X272096697Y-102451774D01*
X272042882Y-102333937D01*
X271958049Y-102236033D01*
X271849069Y-102165996D01*
X271849065Y-102165994D01*
X271849064Y-102165994D01*
X271724774Y-102129500D01*
X271724772Y-102129500D01*
X271595228Y-102129500D01*
X271595226Y-102129500D01*
X271470935Y-102165994D01*
X271470932Y-102165995D01*
X271470931Y-102165996D01*
X271419677Y-102198934D01*
X271361950Y-102236033D01*
X271277118Y-102333937D01*
X271277117Y-102333938D01*
X271223302Y-102451774D01*
X271204867Y-102580000D01*
X266843631Y-102580000D01*
X266855133Y-102500000D01*
X266836697Y-102371774D01*
X266782882Y-102253937D01*
X266698049Y-102156033D01*
X266595299Y-102090000D01*
X273844867Y-102090000D01*
X273863302Y-102218225D01*
X273917117Y-102336061D01*
X273917118Y-102336063D01*
X274001951Y-102433967D01*
X274110931Y-102504004D01*
X274235225Y-102540499D01*
X274235227Y-102540500D01*
X274235228Y-102540500D01*
X274364773Y-102540500D01*
X274364773Y-102540499D01*
X274489069Y-102504004D01*
X274598049Y-102433967D01*
X274682882Y-102336063D01*
X274736697Y-102218226D01*
X274755133Y-102090000D01*
X274736697Y-101961774D01*
X274682882Y-101843937D01*
X274598049Y-101746033D01*
X274489069Y-101675996D01*
X274489065Y-101675994D01*
X274489064Y-101675994D01*
X274364774Y-101639500D01*
X274364772Y-101639500D01*
X274235228Y-101639500D01*
X274235226Y-101639500D01*
X274110935Y-101675994D01*
X274110932Y-101675995D01*
X274110931Y-101675996D01*
X274107200Y-101678394D01*
X274001950Y-101746033D01*
X273917118Y-101843937D01*
X273917117Y-101843938D01*
X273863302Y-101961774D01*
X273844867Y-102090000D01*
X266595299Y-102090000D01*
X266589069Y-102085996D01*
X266589065Y-102085994D01*
X266589064Y-102085994D01*
X266464774Y-102049500D01*
X266464772Y-102049500D01*
X266335228Y-102049500D01*
X266335226Y-102049500D01*
X266210935Y-102085994D01*
X266210932Y-102085995D01*
X266210931Y-102085996D01*
X266198326Y-102094097D01*
X266101950Y-102156033D01*
X266017118Y-102253937D01*
X266017117Y-102253938D01*
X265963302Y-102371774D01*
X265944867Y-102500000D01*
X248236146Y-102500000D01*
X248282882Y-102446063D01*
X248336697Y-102328226D01*
X248355133Y-102200000D01*
X248336697Y-102071774D01*
X248282882Y-101953937D01*
X248198049Y-101856033D01*
X248089069Y-101785996D01*
X248089065Y-101785994D01*
X248089064Y-101785994D01*
X247964774Y-101749500D01*
X247964772Y-101749500D01*
X247835228Y-101749500D01*
X247835226Y-101749500D01*
X247710935Y-101785994D01*
X247710932Y-101785995D01*
X247710931Y-101785996D01*
X247659677Y-101818934D01*
X247601950Y-101856033D01*
X247517118Y-101953937D01*
X247517117Y-101953938D01*
X247463302Y-102071774D01*
X247444867Y-102200000D01*
X246905133Y-102200000D01*
X246886697Y-102071774D01*
X246832882Y-101953937D01*
X246748049Y-101856033D01*
X246639069Y-101785996D01*
X246639065Y-101785994D01*
X246639064Y-101785994D01*
X246514774Y-101749500D01*
X246514772Y-101749500D01*
X246385228Y-101749500D01*
X246385226Y-101749500D01*
X246260935Y-101785994D01*
X246260932Y-101785995D01*
X246260931Y-101785996D01*
X246209677Y-101818934D01*
X246151950Y-101856033D01*
X246067118Y-101953937D01*
X246067117Y-101953938D01*
X246013302Y-102071774D01*
X245994867Y-102200000D01*
X244055121Y-102200000D01*
X244055122Y-102199995D01*
X244036686Y-102071769D01*
X243982871Y-101953932D01*
X243898038Y-101856028D01*
X243789058Y-101785991D01*
X243789054Y-101785989D01*
X243789053Y-101785989D01*
X243664763Y-101749495D01*
X243664761Y-101749495D01*
X243535217Y-101749495D01*
X243535215Y-101749495D01*
X243410924Y-101785989D01*
X243410921Y-101785990D01*
X243410920Y-101785991D01*
X243372754Y-101810519D01*
X243301939Y-101856028D01*
X243217107Y-101953932D01*
X243217106Y-101953933D01*
X243163291Y-102071769D01*
X243144856Y-102199995D01*
X234900000Y-102199995D01*
X234900000Y-101100000D01*
X250044867Y-101100000D01*
X250063302Y-101228225D01*
X250108972Y-101328226D01*
X250117118Y-101346063D01*
X250201951Y-101443967D01*
X250310931Y-101514004D01*
X250435225Y-101550499D01*
X250435227Y-101550500D01*
X250435228Y-101550500D01*
X250564773Y-101550500D01*
X250564773Y-101550499D01*
X250689069Y-101514004D01*
X250798049Y-101443967D01*
X250882882Y-101346063D01*
X250936697Y-101228226D01*
X250955133Y-101100000D01*
X250936697Y-100971774D01*
X250882882Y-100853937D01*
X250798049Y-100756033D01*
X250689069Y-100685996D01*
X250689065Y-100685994D01*
X250689064Y-100685994D01*
X250564774Y-100649500D01*
X250564772Y-100649500D01*
X250435228Y-100649500D01*
X250435226Y-100649500D01*
X250310935Y-100685994D01*
X250310932Y-100685995D01*
X250310931Y-100685996D01*
X250259677Y-100718934D01*
X250201950Y-100756033D01*
X250117118Y-100853937D01*
X250117117Y-100853938D01*
X250063302Y-100971774D01*
X250044867Y-101100000D01*
X234900000Y-101100000D01*
X234900000Y-100100002D01*
X258494867Y-100100002D01*
X258513302Y-100228227D01*
X258539684Y-100285994D01*
X258567118Y-100346065D01*
X258651951Y-100443969D01*
X258760931Y-100514006D01*
X258885225Y-100550501D01*
X258885227Y-100550502D01*
X258885228Y-100550502D01*
X259014773Y-100550502D01*
X259014773Y-100550501D01*
X259139069Y-100514006D01*
X259248049Y-100443969D01*
X259332882Y-100346065D01*
X259386697Y-100228228D01*
X259405133Y-100100002D01*
X259386697Y-99971776D01*
X259332882Y-99853939D01*
X259248049Y-99756035D01*
X259139069Y-99685998D01*
X259139065Y-99685996D01*
X259139064Y-99685996D01*
X259014774Y-99649502D01*
X259014772Y-99649502D01*
X258885228Y-99649502D01*
X258885226Y-99649502D01*
X258760935Y-99685996D01*
X258760932Y-99685997D01*
X258760931Y-99685998D01*
X258709677Y-99718936D01*
X258651950Y-99756035D01*
X258567118Y-99853939D01*
X258567117Y-99853940D01*
X258513302Y-99971776D01*
X258494867Y-100100002D01*
X234900000Y-100100002D01*
X234900000Y-97624500D01*
X234919685Y-97557461D01*
X234972489Y-97511706D01*
X235024000Y-97500500D01*
X235071962Y-97500500D01*
X235071962Y-97500499D01*
X235210050Y-97459954D01*
X235210051Y-97459954D01*
X235210053Y-97459953D01*
X235331128Y-97382143D01*
X235331129Y-97382141D01*
X235332960Y-97380965D01*
X235400000Y-97361280D01*
X235467039Y-97380964D01*
X235467040Y-97380965D01*
X235468870Y-97382141D01*
X235468872Y-97382143D01*
X235546251Y-97431871D01*
X235589948Y-97459954D01*
X235728036Y-97500499D01*
X235728038Y-97500500D01*
X235728039Y-97500500D01*
X235871962Y-97500500D01*
X235871962Y-97500499D01*
X236010050Y-97459954D01*
X236010051Y-97459954D01*
X236010053Y-97459953D01*
X236131128Y-97382143D01*
X236131129Y-97382141D01*
X236132960Y-97380965D01*
X236200000Y-97361280D01*
X236267039Y-97380964D01*
X236267040Y-97380965D01*
X236268870Y-97382141D01*
X236268872Y-97382143D01*
X236346251Y-97431871D01*
X236389948Y-97459954D01*
X236528036Y-97500499D01*
X236528038Y-97500500D01*
X236528039Y-97500500D01*
X236671962Y-97500500D01*
X236671962Y-97500499D01*
X236810050Y-97459954D01*
X236810051Y-97459954D01*
X236810053Y-97459953D01*
X236931128Y-97382143D01*
X236931129Y-97382141D01*
X236932960Y-97380965D01*
X237000000Y-97361280D01*
X237067039Y-97380964D01*
X237067040Y-97380965D01*
X237068870Y-97382141D01*
X237068872Y-97382143D01*
X237146251Y-97431871D01*
X237189948Y-97459954D01*
X237328036Y-97500499D01*
X237328038Y-97500500D01*
X237328039Y-97500500D01*
X237471962Y-97500500D01*
X237471962Y-97500499D01*
X237610050Y-97459954D01*
X237610051Y-97459954D01*
X237610053Y-97459953D01*
X237731128Y-97382143D01*
X237731129Y-97382141D01*
X237732960Y-97380965D01*
X237800000Y-97361280D01*
X237867039Y-97380964D01*
X237867040Y-97380965D01*
X237868870Y-97382141D01*
X237868872Y-97382143D01*
X237946251Y-97431871D01*
X237989948Y-97459954D01*
X238128036Y-97500499D01*
X238128038Y-97500500D01*
X238128039Y-97500500D01*
X238271962Y-97500500D01*
X238271962Y-97500499D01*
X238410053Y-97459953D01*
X238531128Y-97382143D01*
X238625377Y-97273373D01*
X238685165Y-97142457D01*
X238705647Y-97000000D01*
X238685165Y-96857543D01*
X238647468Y-96775000D01*
X252524867Y-96775000D01*
X252543302Y-96903225D01*
X252587499Y-97000000D01*
X252597118Y-97021063D01*
X252681951Y-97118967D01*
X252790931Y-97189004D01*
X252832659Y-97201256D01*
X252915225Y-97225499D01*
X252915227Y-97225500D01*
X252915228Y-97225500D01*
X253044773Y-97225500D01*
X253044773Y-97225499D01*
X253169069Y-97189004D01*
X253278049Y-97118967D01*
X253362882Y-97021063D01*
X253416697Y-96903226D01*
X253417161Y-96900000D01*
X255244353Y-96900000D01*
X255264834Y-97042456D01*
X255310504Y-97142457D01*
X255324623Y-97173373D01*
X255418872Y-97282143D01*
X255539947Y-97359953D01*
X255539950Y-97359954D01*
X255539949Y-97359954D01*
X255678036Y-97400499D01*
X255678038Y-97400500D01*
X255678039Y-97400500D01*
X255821962Y-97400500D01*
X255821962Y-97400499D01*
X255960053Y-97359953D01*
X256081128Y-97282143D01*
X256095917Y-97265076D01*
X262024867Y-97265076D01*
X262043302Y-97393301D01*
X262097069Y-97511032D01*
X262097118Y-97511139D01*
X262137256Y-97557461D01*
X262185272Y-97612876D01*
X262214296Y-97676432D01*
X262204352Y-97745591D01*
X262185273Y-97775279D01*
X262117118Y-97853937D01*
X262117117Y-97853938D01*
X262063302Y-97971774D01*
X262044867Y-98100000D01*
X262063302Y-98228225D01*
X262117117Y-98346061D01*
X262117118Y-98346063D01*
X262201804Y-98443798D01*
X262230828Y-98507354D01*
X262220884Y-98576513D01*
X262201804Y-98606202D01*
X262117118Y-98703936D01*
X262117117Y-98703938D01*
X262063302Y-98821774D01*
X262044867Y-98950000D01*
X262063302Y-99078225D01*
X262117117Y-99196061D01*
X262117118Y-99196063D01*
X262201804Y-99293798D01*
X262230828Y-99357354D01*
X262220884Y-99426513D01*
X262201804Y-99456202D01*
X262117118Y-99553936D01*
X262117117Y-99553938D01*
X262063302Y-99671774D01*
X262044867Y-99800000D01*
X262063302Y-99928225D01*
X262117117Y-100046061D01*
X262117118Y-100046063D01*
X262201804Y-100143798D01*
X262230828Y-100207354D01*
X262220884Y-100276513D01*
X262201804Y-100306202D01*
X262117118Y-100403936D01*
X262117117Y-100403938D01*
X262063302Y-100521774D01*
X262044867Y-100650000D01*
X262063302Y-100778225D01*
X262117117Y-100896061D01*
X262117118Y-100896063D01*
X262201951Y-100993967D01*
X262310931Y-101064004D01*
X262435225Y-101100499D01*
X262435227Y-101100500D01*
X262435228Y-101100500D01*
X262564773Y-101100500D01*
X262564773Y-101100499D01*
X262689069Y-101064004D01*
X262798049Y-100993967D01*
X262882882Y-100896063D01*
X262926753Y-100800000D01*
X263844867Y-100800000D01*
X263863302Y-100928225D01*
X263916160Y-101043966D01*
X263917118Y-101046063D01*
X264001951Y-101143967D01*
X264110931Y-101214004D01*
X264235225Y-101250499D01*
X264235227Y-101250500D01*
X264235228Y-101250500D01*
X264364773Y-101250500D01*
X264364773Y-101250499D01*
X264489069Y-101214004D01*
X264598049Y-101143967D01*
X264609622Y-101130610D01*
X264668396Y-101092835D01*
X264738266Y-101092831D01*
X264797046Y-101130602D01*
X264797051Y-101130608D01*
X264840375Y-101180608D01*
X264851951Y-101193967D01*
X264960931Y-101264004D01*
X265085225Y-101300499D01*
X265085227Y-101300500D01*
X265085228Y-101300500D01*
X265214773Y-101300500D01*
X265214773Y-101300499D01*
X265339069Y-101264004D01*
X265448049Y-101193967D01*
X265456284Y-101184462D01*
X265515061Y-101146686D01*
X265584930Y-101146684D01*
X265643710Y-101184456D01*
X265643716Y-101184463D01*
X265651949Y-101193966D01*
X265668703Y-101204733D01*
X265760931Y-101264004D01*
X265885225Y-101300499D01*
X265885227Y-101300500D01*
X265885228Y-101300500D01*
X266014773Y-101300500D01*
X266014773Y-101300499D01*
X266139069Y-101264004D01*
X266248049Y-101193967D01*
X266259622Y-101180610D01*
X266318396Y-101142835D01*
X266388266Y-101142831D01*
X266447046Y-101180602D01*
X266447051Y-101180608D01*
X266488311Y-101228226D01*
X266501951Y-101243967D01*
X266610931Y-101314004D01*
X266720117Y-101346063D01*
X266735225Y-101350499D01*
X266735227Y-101350500D01*
X266735228Y-101350500D01*
X266864773Y-101350500D01*
X266864773Y-101350499D01*
X266989069Y-101314004D01*
X267098049Y-101243967D01*
X267182882Y-101146063D01*
X267236697Y-101028226D01*
X267236697Y-101028225D01*
X267240381Y-101020159D01*
X267241689Y-101020756D01*
X267274306Y-100970001D01*
X267337861Y-100940974D01*
X267390445Y-100944733D01*
X267418561Y-100952989D01*
X267495227Y-100975500D01*
X267495228Y-100975500D01*
X267624773Y-100975500D01*
X267624773Y-100975499D01*
X267749069Y-100939004D01*
X267858049Y-100868967D01*
X267942882Y-100771063D01*
X267975336Y-100700000D01*
X271644861Y-100700000D01*
X271663296Y-100828225D01*
X271708966Y-100928226D01*
X271717112Y-100946063D01*
X271801945Y-101043967D01*
X271910925Y-101114004D01*
X272035219Y-101150499D01*
X272035221Y-101150500D01*
X272130303Y-101150500D01*
X272197342Y-101170185D01*
X272243097Y-101222989D01*
X272253041Y-101256853D01*
X272263302Y-101328225D01*
X272300411Y-101409480D01*
X272317118Y-101446063D01*
X272401951Y-101543967D01*
X272510931Y-101614004D01*
X272597765Y-101639500D01*
X272635225Y-101650499D01*
X272635227Y-101650500D01*
X272635228Y-101650500D01*
X272764773Y-101650500D01*
X272764773Y-101650499D01*
X272889069Y-101614004D01*
X272998049Y-101543967D01*
X273082882Y-101446063D01*
X273136697Y-101328226D01*
X273146959Y-101256853D01*
X273175984Y-101193297D01*
X273234762Y-101155523D01*
X273269697Y-101150500D01*
X273364773Y-101150500D01*
X273364773Y-101150499D01*
X273489069Y-101114004D01*
X273598049Y-101043967D01*
X273682882Y-100946063D01*
X273736697Y-100828226D01*
X273755133Y-100700000D01*
X273736697Y-100571774D01*
X273682882Y-100453937D01*
X273598049Y-100356033D01*
X273489069Y-100285996D01*
X273489065Y-100285994D01*
X273489064Y-100285994D01*
X273364774Y-100249500D01*
X273364772Y-100249500D01*
X273235228Y-100249500D01*
X273235226Y-100249500D01*
X273110935Y-100285994D01*
X273110932Y-100285995D01*
X273110931Y-100285996D01*
X273079753Y-100306033D01*
X273001950Y-100356033D01*
X272917118Y-100453937D01*
X272917117Y-100453938D01*
X272863302Y-100571774D01*
X272853041Y-100643147D01*
X272824016Y-100706703D01*
X272765238Y-100744477D01*
X272730303Y-100749500D01*
X272669691Y-100749500D01*
X272602652Y-100729815D01*
X272556897Y-100677011D01*
X272546953Y-100643147D01*
X272536691Y-100571774D01*
X272513856Y-100521774D01*
X272482876Y-100453937D01*
X272398043Y-100356033D01*
X272289063Y-100285996D01*
X272289059Y-100285994D01*
X272289058Y-100285994D01*
X272164768Y-100249500D01*
X272164766Y-100249500D01*
X272035222Y-100249500D01*
X272035220Y-100249500D01*
X271910929Y-100285994D01*
X271910926Y-100285995D01*
X271910925Y-100285996D01*
X271879747Y-100306033D01*
X271801944Y-100356033D01*
X271717112Y-100453937D01*
X271717111Y-100453938D01*
X271663296Y-100571774D01*
X271644861Y-100700000D01*
X267975336Y-100700000D01*
X267996697Y-100653226D01*
X268015133Y-100525000D01*
X267996697Y-100396774D01*
X267942882Y-100278937D01*
X267916938Y-100248995D01*
X274944499Y-100248995D01*
X274971418Y-100384322D01*
X274971421Y-100384332D01*
X275024221Y-100511804D01*
X275024228Y-100511817D01*
X275100885Y-100626541D01*
X275100888Y-100626545D01*
X275198454Y-100724111D01*
X275198458Y-100724114D01*
X275313182Y-100800771D01*
X275313195Y-100800778D01*
X275440138Y-100853359D01*
X275440672Y-100853580D01*
X275440676Y-100853580D01*
X275440677Y-100853581D01*
X275576004Y-100880500D01*
X276468464Y-100880500D01*
X276535503Y-100900185D01*
X276581258Y-100952989D01*
X276591202Y-101022147D01*
X276562177Y-101085703D01*
X276503399Y-101123477D01*
X276500603Y-101124262D01*
X276497365Y-101125129D01*
X276494478Y-101125903D01*
X276494473Y-101125906D01*
X276376025Y-101194291D01*
X276376017Y-101194297D01*
X276279297Y-101291017D01*
X276279291Y-101291025D01*
X276210906Y-101409473D01*
X276210903Y-101409480D01*
X276175500Y-101541606D01*
X276175500Y-101678394D01*
X276204332Y-101785994D01*
X276210903Y-101810519D01*
X276210906Y-101810526D01*
X276279291Y-101928974D01*
X276279295Y-101928979D01*
X276279296Y-101928981D01*
X276376019Y-102025704D01*
X276376021Y-102025705D01*
X276376025Y-102025708D01*
X276487384Y-102090000D01*
X276494480Y-102094097D01*
X276626606Y-102129500D01*
X276626608Y-102129500D01*
X276763392Y-102129500D01*
X276763394Y-102129500D01*
X276895520Y-102094097D01*
X277013981Y-102025704D01*
X277110704Y-101928981D01*
X277179097Y-101810520D01*
X277214500Y-101678394D01*
X277214500Y-101541606D01*
X277179097Y-101409480D01*
X277145045Y-101350499D01*
X277110708Y-101291025D01*
X277110702Y-101291017D01*
X277013982Y-101194297D01*
X277013974Y-101194291D01*
X276895526Y-101125906D01*
X276895522Y-101125904D01*
X276895520Y-101125903D01*
X276895518Y-101125902D01*
X276895515Y-101125901D01*
X276848824Y-101113390D01*
X276789164Y-101077025D01*
X276758636Y-101014177D01*
X276766931Y-100944802D01*
X276811417Y-100890925D01*
X276856723Y-100872000D01*
X276949328Y-100853580D01*
X277076811Y-100800775D01*
X277191542Y-100724114D01*
X277289114Y-100626542D01*
X277365775Y-100511811D01*
X277418580Y-100384328D01*
X277440026Y-100276513D01*
X277445500Y-100248995D01*
X279274499Y-100248995D01*
X279301418Y-100384322D01*
X279301421Y-100384332D01*
X279354221Y-100511804D01*
X279354228Y-100511817D01*
X279430885Y-100626541D01*
X279430888Y-100626545D01*
X279528454Y-100724111D01*
X279528458Y-100724114D01*
X279643182Y-100800771D01*
X279643195Y-100800778D01*
X279770138Y-100853359D01*
X279770672Y-100853580D01*
X279770676Y-100853580D01*
X279770677Y-100853581D01*
X279906004Y-100880500D01*
X279906007Y-100880500D01*
X280843995Y-100880500D01*
X280935041Y-100862389D01*
X280979328Y-100853580D01*
X281106811Y-100800775D01*
X281221542Y-100724114D01*
X281319114Y-100626542D01*
X281395775Y-100511811D01*
X281448580Y-100384328D01*
X281470026Y-100276513D01*
X281475500Y-100248995D01*
X281475500Y-100111004D01*
X281448581Y-99975677D01*
X281448580Y-99975676D01*
X281448580Y-99975672D01*
X281446966Y-99971776D01*
X281395778Y-99848195D01*
X281395771Y-99848182D01*
X281319114Y-99733458D01*
X281319111Y-99733454D01*
X281221545Y-99635888D01*
X281221541Y-99635885D01*
X281106817Y-99559228D01*
X281106804Y-99559221D01*
X280979332Y-99506421D01*
X280979322Y-99506418D01*
X280843995Y-99479500D01*
X280843993Y-99479500D01*
X279906007Y-99479500D01*
X279906005Y-99479500D01*
X279770677Y-99506418D01*
X279770667Y-99506421D01*
X279643195Y-99559221D01*
X279643182Y-99559228D01*
X279528458Y-99635885D01*
X279528454Y-99635888D01*
X279430888Y-99733454D01*
X279430885Y-99733458D01*
X279354228Y-99848182D01*
X279354221Y-99848195D01*
X279301421Y-99975667D01*
X279301418Y-99975677D01*
X279274500Y-100111004D01*
X279274500Y-100111007D01*
X279274500Y-100248993D01*
X279274500Y-100248995D01*
X279274499Y-100248995D01*
X277445500Y-100248995D01*
X277445500Y-100111004D01*
X277418581Y-99975677D01*
X277418580Y-99975676D01*
X277418580Y-99975672D01*
X277416966Y-99971776D01*
X277365778Y-99848195D01*
X277365771Y-99848182D01*
X277289114Y-99733458D01*
X277289111Y-99733454D01*
X277191545Y-99635888D01*
X277191541Y-99635885D01*
X277076817Y-99559228D01*
X277076804Y-99559221D01*
X276949332Y-99506421D01*
X276949322Y-99506418D01*
X276813995Y-99479500D01*
X276813993Y-99479500D01*
X275576007Y-99479500D01*
X275576005Y-99479500D01*
X275440677Y-99506418D01*
X275440667Y-99506421D01*
X275313195Y-99559221D01*
X275313182Y-99559228D01*
X275198458Y-99635885D01*
X275198454Y-99635888D01*
X275100888Y-99733454D01*
X275100885Y-99733458D01*
X275024228Y-99848182D01*
X275024221Y-99848195D01*
X274971421Y-99975667D01*
X274971418Y-99975677D01*
X274944500Y-100111004D01*
X274944500Y-100111007D01*
X274944500Y-100248993D01*
X274944500Y-100248995D01*
X274944499Y-100248995D01*
X267916938Y-100248995D01*
X267858049Y-100181033D01*
X267749069Y-100110996D01*
X267749065Y-100110994D01*
X267749064Y-100110994D01*
X267624774Y-100074500D01*
X267624772Y-100074500D01*
X267495228Y-100074500D01*
X267495226Y-100074500D01*
X267370935Y-100110994D01*
X267370932Y-100110995D01*
X267370931Y-100110996D01*
X267319890Y-100143798D01*
X267261950Y-100181033D01*
X267177118Y-100278937D01*
X267177117Y-100278938D01*
X267119619Y-100404841D01*
X267118312Y-100404244D01*
X267085679Y-100455011D01*
X267022119Y-100484028D01*
X266969553Y-100480265D01*
X266864774Y-100449500D01*
X266864772Y-100449500D01*
X266735228Y-100449500D01*
X266735226Y-100449500D01*
X266610935Y-100485994D01*
X266610932Y-100485995D01*
X266610931Y-100485996D01*
X266579753Y-100506033D01*
X266501949Y-100556033D01*
X266490375Y-100569392D01*
X266431597Y-100607166D01*
X266361727Y-100607166D01*
X266302949Y-100569392D01*
X266302948Y-100569391D01*
X266291373Y-100556033D01*
X266248049Y-100506033D01*
X266139069Y-100435996D01*
X266139065Y-100435994D01*
X266139064Y-100435994D01*
X266014774Y-100399500D01*
X266014772Y-100399500D01*
X265885228Y-100399500D01*
X265885226Y-100399500D01*
X265760935Y-100435994D01*
X265760932Y-100435995D01*
X265760931Y-100435996D01*
X265733014Y-100453937D01*
X265651948Y-100506034D01*
X265643713Y-100515539D01*
X265584936Y-100553314D01*
X265515066Y-100553314D01*
X265456288Y-100515540D01*
X265456287Y-100515539D01*
X265448051Y-100506034D01*
X265416871Y-100485996D01*
X265339069Y-100435996D01*
X265339065Y-100435994D01*
X265339064Y-100435994D01*
X265214774Y-100399500D01*
X265214772Y-100399500D01*
X265085228Y-100399500D01*
X265085226Y-100399500D01*
X264960935Y-100435994D01*
X264960932Y-100435995D01*
X264960931Y-100435996D01*
X264933014Y-100453937D01*
X264851949Y-100506033D01*
X264840375Y-100519392D01*
X264781597Y-100557166D01*
X264711727Y-100557166D01*
X264652949Y-100519392D01*
X264652948Y-100519391D01*
X264641373Y-100506033D01*
X264598049Y-100456033D01*
X264489069Y-100385996D01*
X264489065Y-100385994D01*
X264489064Y-100385994D01*
X264364774Y-100349500D01*
X264364772Y-100349500D01*
X264235228Y-100349500D01*
X264235226Y-100349500D01*
X264110935Y-100385994D01*
X264110932Y-100385995D01*
X264110931Y-100385996D01*
X264081608Y-100404841D01*
X264001950Y-100456033D01*
X263917118Y-100553937D01*
X263917117Y-100553938D01*
X263863302Y-100671774D01*
X263844867Y-100800000D01*
X262926753Y-100800000D01*
X262936697Y-100778226D01*
X262955133Y-100650000D01*
X262936697Y-100521774D01*
X262882882Y-100403937D01*
X262882880Y-100403935D01*
X262882879Y-100403932D01*
X262798196Y-100306202D01*
X262769171Y-100242646D01*
X262779115Y-100173488D01*
X262798196Y-100143798D01*
X262882879Y-100046067D01*
X262882879Y-100046065D01*
X262882882Y-100046063D01*
X262936697Y-99928226D01*
X262955133Y-99800000D01*
X262936697Y-99671774D01*
X262882882Y-99553937D01*
X262882880Y-99553935D01*
X262882879Y-99553932D01*
X262798196Y-99456202D01*
X262769171Y-99392646D01*
X262779115Y-99323488D01*
X262798196Y-99293798D01*
X262882879Y-99196067D01*
X262882879Y-99196065D01*
X262882882Y-99196063D01*
X262936697Y-99078226D01*
X262955133Y-98950000D01*
X262936697Y-98821774D01*
X262882882Y-98703937D01*
X262882880Y-98703935D01*
X262882879Y-98703932D01*
X262798196Y-98606202D01*
X262769171Y-98542646D01*
X262779115Y-98473488D01*
X262798196Y-98443798D01*
X262882879Y-98346067D01*
X262882879Y-98346065D01*
X262882882Y-98346063D01*
X262936697Y-98228226D01*
X262955133Y-98100000D01*
X262936697Y-97971774D01*
X262882882Y-97853937D01*
X262798049Y-97756033D01*
X262794727Y-97752199D01*
X262765703Y-97688643D01*
X262775647Y-97619484D01*
X262794727Y-97589795D01*
X262862882Y-97511139D01*
X262916697Y-97393302D01*
X262935133Y-97265076D01*
X262916697Y-97136850D01*
X262887551Y-97073031D01*
X266973869Y-97073031D01*
X266992304Y-97201256D01*
X267025438Y-97273808D01*
X267046120Y-97319094D01*
X267104943Y-97386980D01*
X267130953Y-97416998D01*
X267134200Y-97419085D01*
X267136728Y-97422002D01*
X267137654Y-97422805D01*
X267137538Y-97422938D01*
X267179954Y-97471889D01*
X267189898Y-97541047D01*
X267160876Y-97604600D01*
X267157118Y-97608937D01*
X267157117Y-97608938D01*
X267103302Y-97726774D01*
X267084867Y-97855000D01*
X267103302Y-97983225D01*
X267157117Y-98101061D01*
X267157118Y-98101063D01*
X267241951Y-98198967D01*
X267350931Y-98269004D01*
X267475225Y-98305499D01*
X267475227Y-98305500D01*
X267475228Y-98305500D01*
X267604773Y-98305500D01*
X267604773Y-98305499D01*
X267729069Y-98269004D01*
X267838049Y-98198967D01*
X267922882Y-98101063D01*
X267976697Y-97983226D01*
X267995133Y-97855000D01*
X267976697Y-97726774D01*
X267922882Y-97608937D01*
X267838049Y-97511033D01*
X267838048Y-97511032D01*
X267834799Y-97508944D01*
X267832268Y-97506023D01*
X267831348Y-97505226D01*
X267831462Y-97505093D01*
X267789045Y-97456139D01*
X267779104Y-97386980D01*
X267808128Y-97323427D01*
X267811884Y-97319094D01*
X267865699Y-97201257D01*
X267884135Y-97073031D01*
X267865699Y-96944805D01*
X267820233Y-96845251D01*
X267810290Y-96776094D01*
X267839315Y-96712538D01*
X267851831Y-96700022D01*
X267853043Y-96698970D01*
X267853049Y-96698967D01*
X267937882Y-96601063D01*
X267991697Y-96483226D01*
X268010133Y-96355000D01*
X267991697Y-96226774D01*
X267937882Y-96108937D01*
X267937878Y-96108932D01*
X267933087Y-96101476D01*
X267934587Y-96100511D01*
X267910026Y-96046727D01*
X267919971Y-95977568D01*
X267939046Y-95947887D01*
X268002148Y-95875063D01*
X268055963Y-95757226D01*
X268068504Y-95670000D01*
X269709867Y-95670000D01*
X269728302Y-95798225D01*
X269766801Y-95882524D01*
X269782118Y-95916063D01*
X269866951Y-96013967D01*
X269975931Y-96084004D01*
X270068347Y-96111139D01*
X270100225Y-96120499D01*
X270100227Y-96120500D01*
X270100228Y-96120500D01*
X270229773Y-96120500D01*
X270229773Y-96120499D01*
X270354069Y-96084004D01*
X270406980Y-96050000D01*
X278844867Y-96050000D01*
X278863302Y-96178225D01*
X278885474Y-96226774D01*
X278917118Y-96296063D01*
X279001951Y-96393967D01*
X279110931Y-96464004D01*
X279235225Y-96500499D01*
X279235227Y-96500500D01*
X279235228Y-96500500D01*
X279364773Y-96500500D01*
X279364773Y-96500499D01*
X279489069Y-96464004D01*
X279598049Y-96393967D01*
X279682882Y-96296063D01*
X279736697Y-96178226D01*
X279755133Y-96050000D01*
X279736697Y-95921774D01*
X279682882Y-95803937D01*
X279598049Y-95706033D01*
X279489069Y-95635996D01*
X279489065Y-95635994D01*
X279489064Y-95635994D01*
X279364774Y-95599500D01*
X279364772Y-95599500D01*
X279235228Y-95599500D01*
X279235226Y-95599500D01*
X279110935Y-95635994D01*
X279110932Y-95635995D01*
X279110931Y-95635996D01*
X279106271Y-95638991D01*
X279001950Y-95706033D01*
X278917118Y-95803937D01*
X278917117Y-95803938D01*
X278863302Y-95921774D01*
X278844867Y-96050000D01*
X270406980Y-96050000D01*
X270463049Y-96013967D01*
X270547882Y-95916063D01*
X270601697Y-95798226D01*
X270620133Y-95670000D01*
X270601697Y-95541774D01*
X270547882Y-95423937D01*
X270463049Y-95326033D01*
X270354069Y-95255996D01*
X270354065Y-95255994D01*
X270354064Y-95255994D01*
X270229774Y-95219500D01*
X270229772Y-95219500D01*
X270100228Y-95219500D01*
X270100226Y-95219500D01*
X269975935Y-95255994D01*
X269975932Y-95255995D01*
X269975931Y-95255996D01*
X269924677Y-95288934D01*
X269866950Y-95326033D01*
X269782118Y-95423937D01*
X269782117Y-95423938D01*
X269728302Y-95541774D01*
X269709867Y-95670000D01*
X268068504Y-95670000D01*
X268074399Y-95629000D01*
X268062630Y-95547145D01*
X268072574Y-95477989D01*
X268118328Y-95425185D01*
X268180998Y-95406783D01*
X268180995Y-95406762D01*
X268181142Y-95406740D01*
X268185368Y-95405500D01*
X268189773Y-95405500D01*
X268189773Y-95405499D01*
X268314069Y-95369004D01*
X268423049Y-95298967D01*
X268507882Y-95201063D01*
X268561697Y-95083226D01*
X268580133Y-94955000D01*
X268561697Y-94826774D01*
X268507882Y-94708937D01*
X268423049Y-94611033D01*
X268314069Y-94540996D01*
X268314065Y-94540994D01*
X268314064Y-94540994D01*
X268189774Y-94504500D01*
X268189772Y-94504500D01*
X268060228Y-94504500D01*
X268060226Y-94504500D01*
X267935935Y-94540994D01*
X267935932Y-94540995D01*
X267935931Y-94540996D01*
X267884677Y-94573934D01*
X267826950Y-94611033D01*
X267742118Y-94708937D01*
X267742117Y-94708938D01*
X267688302Y-94826774D01*
X267669867Y-94954999D01*
X267669867Y-94955000D01*
X267672976Y-94976627D01*
X267681636Y-95036853D01*
X267671692Y-95106011D01*
X267625938Y-95158815D01*
X267563267Y-95177216D01*
X267563271Y-95177238D01*
X267563123Y-95177259D01*
X267558898Y-95178500D01*
X267554492Y-95178500D01*
X267430201Y-95214994D01*
X267430198Y-95214995D01*
X267430197Y-95214996D01*
X267423189Y-95219500D01*
X267321216Y-95285033D01*
X267236384Y-95382937D01*
X267236383Y-95382938D01*
X267182568Y-95500774D01*
X267164133Y-95629000D01*
X267182568Y-95757225D01*
X267236383Y-95875061D01*
X267241179Y-95882524D01*
X267239677Y-95883488D01*
X267264238Y-95937262D01*
X267254298Y-96006421D01*
X267235215Y-96036116D01*
X267172120Y-96108932D01*
X267172117Y-96108938D01*
X267118302Y-96226774D01*
X267099867Y-96355000D01*
X267118302Y-96483225D01*
X267163767Y-96582778D01*
X267173711Y-96651937D01*
X267144686Y-96715493D01*
X267132183Y-96727997D01*
X267130956Y-96729060D01*
X267046120Y-96826968D01*
X267046119Y-96826969D01*
X266992304Y-96944805D01*
X266973869Y-97073031D01*
X262887551Y-97073031D01*
X262862882Y-97019013D01*
X262778049Y-96921109D01*
X262669069Y-96851072D01*
X262669065Y-96851070D01*
X262669064Y-96851070D01*
X262544774Y-96814576D01*
X262544772Y-96814576D01*
X262415228Y-96814576D01*
X262415226Y-96814576D01*
X262290935Y-96851070D01*
X262290932Y-96851071D01*
X262290931Y-96851072D01*
X262239677Y-96884010D01*
X262181950Y-96921109D01*
X262097118Y-97019013D01*
X262097117Y-97019014D01*
X262043302Y-97136850D01*
X262024867Y-97265076D01*
X256095917Y-97265076D01*
X256175377Y-97173373D01*
X256235165Y-97042457D01*
X256255647Y-96900000D01*
X256235165Y-96757543D01*
X256175377Y-96626627D01*
X256081128Y-96517857D01*
X255960053Y-96440047D01*
X255960051Y-96440046D01*
X255960049Y-96440045D01*
X255960050Y-96440045D01*
X255821963Y-96399500D01*
X255821961Y-96399500D01*
X255678039Y-96399500D01*
X255678036Y-96399500D01*
X255539949Y-96440045D01*
X255418873Y-96517856D01*
X255324623Y-96626626D01*
X255324622Y-96626628D01*
X255264834Y-96757543D01*
X255244353Y-96900000D01*
X253417161Y-96900000D01*
X253435133Y-96775000D01*
X253416697Y-96646774D01*
X253362882Y-96528937D01*
X253278049Y-96431033D01*
X253169069Y-96360996D01*
X253169065Y-96360994D01*
X253169064Y-96360994D01*
X253044774Y-96324500D01*
X253044772Y-96324500D01*
X252915228Y-96324500D01*
X252915226Y-96324500D01*
X252790935Y-96360994D01*
X252790932Y-96360995D01*
X252790931Y-96360996D01*
X252739677Y-96393934D01*
X252681950Y-96431033D01*
X252597118Y-96528937D01*
X252597117Y-96528938D01*
X252543302Y-96646774D01*
X252524867Y-96775000D01*
X238647468Y-96775000D01*
X238625377Y-96726627D01*
X238531128Y-96617857D01*
X238531125Y-96617855D01*
X238531125Y-96617854D01*
X238510058Y-96604316D01*
X238464302Y-96551513D01*
X238454358Y-96482354D01*
X238483382Y-96418798D01*
X238510058Y-96395684D01*
X238531125Y-96382145D01*
X238531125Y-96382144D01*
X238531128Y-96382143D01*
X238625377Y-96273373D01*
X238685165Y-96142457D01*
X238705647Y-96000000D01*
X238686248Y-95865076D01*
X262024867Y-95865076D01*
X262043302Y-95993301D01*
X262069196Y-96050000D01*
X262097118Y-96111139D01*
X262181951Y-96209043D01*
X262290931Y-96279080D01*
X262371236Y-96302659D01*
X262415225Y-96315575D01*
X262415227Y-96315576D01*
X262415228Y-96315576D01*
X262544773Y-96315576D01*
X262544773Y-96315575D01*
X262669069Y-96279080D01*
X262778049Y-96209043D01*
X262862882Y-96111139D01*
X262916697Y-95993302D01*
X262935133Y-95865076D01*
X262925058Y-95795000D01*
X264469867Y-95795000D01*
X264488302Y-95923225D01*
X264535559Y-96026702D01*
X264542118Y-96041063D01*
X264626951Y-96138967D01*
X264735931Y-96209004D01*
X264736064Y-96209043D01*
X264860225Y-96245499D01*
X264860227Y-96245500D01*
X264860228Y-96245500D01*
X264989773Y-96245500D01*
X264989773Y-96245499D01*
X265114069Y-96209004D01*
X265223049Y-96138967D01*
X265239052Y-96120499D01*
X265270674Y-96084004D01*
X265287592Y-96064478D01*
X265346369Y-96026703D01*
X265416239Y-96026702D01*
X265475017Y-96064475D01*
X265491618Y-96083634D01*
X265600598Y-96153671D01*
X265684227Y-96178226D01*
X265724892Y-96190166D01*
X265724894Y-96190167D01*
X265724895Y-96190167D01*
X265854440Y-96190167D01*
X265854440Y-96190166D01*
X265978736Y-96153671D01*
X266087716Y-96083634D01*
X266172549Y-95985730D01*
X266226364Y-95867893D01*
X266244800Y-95739667D01*
X266226364Y-95611441D01*
X266172549Y-95493604D01*
X266087716Y-95395700D01*
X265978736Y-95325663D01*
X265978732Y-95325661D01*
X265978731Y-95325661D01*
X265854441Y-95289167D01*
X265854439Y-95289167D01*
X265724895Y-95289167D01*
X265724893Y-95289167D01*
X265600602Y-95325661D01*
X265600599Y-95325662D01*
X265600598Y-95325663D01*
X265523050Y-95375500D01*
X265491615Y-95395702D01*
X265427073Y-95470188D01*
X265368295Y-95507963D01*
X265298425Y-95507963D01*
X265239648Y-95470189D01*
X265223049Y-95451033D01*
X265114069Y-95380996D01*
X265114065Y-95380994D01*
X265114064Y-95380994D01*
X264989774Y-95344500D01*
X264989772Y-95344500D01*
X264860228Y-95344500D01*
X264860226Y-95344500D01*
X264735935Y-95380994D01*
X264735932Y-95380995D01*
X264735931Y-95380996D01*
X264695838Y-95406762D01*
X264626950Y-95451033D01*
X264542118Y-95548937D01*
X264542117Y-95548938D01*
X264488302Y-95666774D01*
X264469867Y-95795000D01*
X262925058Y-95795000D01*
X262916697Y-95736850D01*
X262862882Y-95619013D01*
X262778049Y-95521109D01*
X262669069Y-95451072D01*
X262669065Y-95451070D01*
X262669064Y-95451070D01*
X262544774Y-95414576D01*
X262544772Y-95414576D01*
X262415228Y-95414576D01*
X262415226Y-95414576D01*
X262290935Y-95451070D01*
X262290932Y-95451071D01*
X262290931Y-95451072D01*
X262249047Y-95477989D01*
X262181950Y-95521109D01*
X262097118Y-95619013D01*
X262097117Y-95619014D01*
X262043302Y-95736850D01*
X262024867Y-95865076D01*
X238686248Y-95865076D01*
X238685165Y-95857543D01*
X238625377Y-95726627D01*
X238531128Y-95617857D01*
X238410053Y-95540047D01*
X238410051Y-95540046D01*
X238410049Y-95540045D01*
X238410050Y-95540045D01*
X238271963Y-95499500D01*
X238271961Y-95499500D01*
X238128039Y-95499500D01*
X238128036Y-95499500D01*
X237989949Y-95540045D01*
X237867039Y-95619035D01*
X237800000Y-95638719D01*
X237732961Y-95619035D01*
X237702564Y-95599500D01*
X237610053Y-95540047D01*
X237610051Y-95540046D01*
X237610049Y-95540045D01*
X237610050Y-95540045D01*
X237471963Y-95499500D01*
X237471961Y-95499500D01*
X237328039Y-95499500D01*
X237328036Y-95499500D01*
X237189949Y-95540045D01*
X237067039Y-95619035D01*
X237000000Y-95638719D01*
X236932961Y-95619035D01*
X236902564Y-95599500D01*
X236810053Y-95540047D01*
X236810051Y-95540046D01*
X236810049Y-95540045D01*
X236810050Y-95540045D01*
X236671963Y-95499500D01*
X236671961Y-95499500D01*
X236528039Y-95499500D01*
X236528036Y-95499500D01*
X236389949Y-95540045D01*
X236267039Y-95619035D01*
X236200000Y-95638719D01*
X236132961Y-95619035D01*
X236102564Y-95599500D01*
X236010053Y-95540047D01*
X236010051Y-95540046D01*
X236010049Y-95540045D01*
X236010050Y-95540045D01*
X235871963Y-95499500D01*
X235871961Y-95499500D01*
X235728039Y-95499500D01*
X235728036Y-95499500D01*
X235589949Y-95540045D01*
X235467039Y-95619035D01*
X235400000Y-95638719D01*
X235332961Y-95619035D01*
X235302564Y-95599500D01*
X235210053Y-95540047D01*
X235210051Y-95540046D01*
X235210049Y-95540045D01*
X235210050Y-95540045D01*
X235071963Y-95499500D01*
X235071961Y-95499500D01*
X235024000Y-95499500D01*
X234956961Y-95479815D01*
X234911206Y-95427011D01*
X234900000Y-95375500D01*
X234900000Y-95250000D01*
X249894353Y-95250000D01*
X249914834Y-95392456D01*
X249961028Y-95493604D01*
X249974623Y-95523373D01*
X250068872Y-95632143D01*
X250189947Y-95709953D01*
X250189950Y-95709954D01*
X250189949Y-95709954D01*
X250328036Y-95750499D01*
X250328038Y-95750500D01*
X250328039Y-95750500D01*
X250471962Y-95750500D01*
X250471962Y-95750499D01*
X250610053Y-95709953D01*
X250731128Y-95632143D01*
X250825377Y-95523373D01*
X250885165Y-95392457D01*
X250905647Y-95250000D01*
X250885165Y-95107543D01*
X250825377Y-94976627D01*
X250731128Y-94867857D01*
X250610053Y-94790047D01*
X250610051Y-94790046D01*
X250610049Y-94790045D01*
X250610050Y-94790045D01*
X250471963Y-94749500D01*
X250471961Y-94749500D01*
X250328039Y-94749500D01*
X250328036Y-94749500D01*
X250189949Y-94790045D01*
X250068873Y-94867856D01*
X249974623Y-94976626D01*
X249974622Y-94976628D01*
X249914834Y-95107543D01*
X249894353Y-95250000D01*
X234900000Y-95250000D01*
X234900000Y-94600000D01*
X234600000Y-94600000D01*
X228500500Y-94600000D01*
X228500500Y-94045000D01*
X254514867Y-94045000D01*
X254533302Y-94173225D01*
X254562000Y-94236063D01*
X254587118Y-94291063D01*
X254671951Y-94388967D01*
X254780931Y-94459004D01*
X254905225Y-94495499D01*
X254905227Y-94495500D01*
X254905228Y-94495500D01*
X255034773Y-94495500D01*
X255034773Y-94495499D01*
X255159069Y-94459004D01*
X255268049Y-94388967D01*
X255352882Y-94291063D01*
X255406697Y-94173226D01*
X255425133Y-94045000D01*
X255406697Y-93916774D01*
X255352882Y-93798937D01*
X255268049Y-93701033D01*
X255159069Y-93630996D01*
X255159065Y-93630994D01*
X255159064Y-93630994D01*
X255034774Y-93594500D01*
X255034772Y-93594500D01*
X254905228Y-93594500D01*
X254905226Y-93594500D01*
X254780935Y-93630994D01*
X254780932Y-93630995D01*
X254780931Y-93630996D01*
X254729677Y-93663934D01*
X254671950Y-93701033D01*
X254587118Y-93798937D01*
X254587117Y-93798938D01*
X254533302Y-93916774D01*
X254514867Y-94045000D01*
X228500500Y-94045000D01*
X228500500Y-93550000D01*
X266844867Y-93550000D01*
X266863302Y-93678225D01*
X266893313Y-93743938D01*
X266917118Y-93796063D01*
X267001951Y-93893967D01*
X267110931Y-93964004D01*
X267235225Y-94000499D01*
X267235227Y-94000500D01*
X267235228Y-94000500D01*
X267364773Y-94000500D01*
X267364773Y-94000499D01*
X267400531Y-93990000D01*
X273454869Y-93990000D01*
X273473304Y-94118225D01*
X273498423Y-94173226D01*
X273527120Y-94236063D01*
X273611953Y-94333967D01*
X273720933Y-94404004D01*
X273845227Y-94440499D01*
X273845229Y-94440500D01*
X273845230Y-94440500D01*
X273974775Y-94440500D01*
X273974775Y-94440499D01*
X274099071Y-94404004D01*
X274208051Y-94333967D01*
X274292884Y-94236063D01*
X274346699Y-94118226D01*
X274365135Y-93990000D01*
X274346699Y-93861774D01*
X274292884Y-93743937D01*
X274208051Y-93646033D01*
X274099071Y-93575996D01*
X274099067Y-93575994D01*
X274099066Y-93575994D01*
X273974776Y-93539500D01*
X273974774Y-93539500D01*
X273845230Y-93539500D01*
X273845228Y-93539500D01*
X273720937Y-93575994D01*
X273720934Y-93575995D01*
X273720933Y-93575996D01*
X273669679Y-93608934D01*
X273611952Y-93646033D01*
X273527120Y-93743937D01*
X273527119Y-93743938D01*
X273473304Y-93861774D01*
X273454869Y-93990000D01*
X267400531Y-93990000D01*
X267489069Y-93964004D01*
X267598049Y-93893967D01*
X267682882Y-93796063D01*
X267736697Y-93678226D01*
X267755133Y-93550000D01*
X267736697Y-93421774D01*
X267726753Y-93400000D01*
X268594867Y-93400000D01*
X268613302Y-93528225D01*
X268660236Y-93630994D01*
X268667118Y-93646063D01*
X268751951Y-93743967D01*
X268860931Y-93814004D01*
X268985225Y-93850499D01*
X268985227Y-93850500D01*
X268985228Y-93850500D01*
X269114773Y-93850500D01*
X269114773Y-93850499D01*
X269239069Y-93814004D01*
X269348049Y-93743967D01*
X269432882Y-93646063D01*
X269486697Y-93528226D01*
X269505133Y-93400000D01*
X269486697Y-93271774D01*
X269432882Y-93153937D01*
X269348049Y-93056033D01*
X269239069Y-92985996D01*
X269239065Y-92985994D01*
X269239064Y-92985994D01*
X269114774Y-92949500D01*
X269114772Y-92949500D01*
X268985228Y-92949500D01*
X268985226Y-92949500D01*
X268860935Y-92985994D01*
X268860932Y-92985995D01*
X268860931Y-92985996D01*
X268809677Y-93018934D01*
X268751950Y-93056033D01*
X268667118Y-93153937D01*
X268667117Y-93153938D01*
X268613302Y-93271774D01*
X268594867Y-93400000D01*
X267726753Y-93400000D01*
X267682882Y-93303937D01*
X267598049Y-93206033D01*
X267489069Y-93135996D01*
X267489065Y-93135994D01*
X267489064Y-93135994D01*
X267364774Y-93099500D01*
X267364772Y-93099500D01*
X267235228Y-93099500D01*
X267235226Y-93099500D01*
X267110935Y-93135994D01*
X267110932Y-93135995D01*
X267110931Y-93135996D01*
X267083013Y-93153938D01*
X267001950Y-93206033D01*
X266917118Y-93303937D01*
X266917117Y-93303938D01*
X266863302Y-93421774D01*
X266844867Y-93550000D01*
X228500500Y-93550000D01*
X228500500Y-92054978D01*
X267689889Y-92054978D01*
X267708324Y-92183203D01*
X267762139Y-92301039D01*
X267762140Y-92301041D01*
X267846973Y-92398945D01*
X267955953Y-92468982D01*
X268080247Y-92505477D01*
X268080249Y-92505478D01*
X268080250Y-92505478D01*
X268209795Y-92505478D01*
X268209795Y-92505477D01*
X268334091Y-92468982D01*
X268443071Y-92398945D01*
X268527904Y-92301041D01*
X268581719Y-92183204D01*
X268600155Y-92054978D01*
X268581719Y-91926752D01*
X268527904Y-91808915D01*
X268443071Y-91711011D01*
X268334091Y-91640974D01*
X268334087Y-91640972D01*
X268334086Y-91640972D01*
X268209796Y-91604478D01*
X268209794Y-91604478D01*
X268080250Y-91604478D01*
X268080248Y-91604478D01*
X267955957Y-91640972D01*
X267955954Y-91640973D01*
X267955953Y-91640974D01*
X267904699Y-91673912D01*
X267846972Y-91711011D01*
X267762140Y-91808915D01*
X267762139Y-91808916D01*
X267708324Y-91926752D01*
X267689889Y-92054978D01*
X228500500Y-92054978D01*
X228500500Y-91600000D01*
X255044867Y-91600000D01*
X255063302Y-91728225D01*
X255100153Y-91808915D01*
X255117118Y-91846063D01*
X255201951Y-91943967D01*
X255310931Y-92014004D01*
X255435225Y-92050499D01*
X255435227Y-92050500D01*
X255435228Y-92050500D01*
X255564773Y-92050500D01*
X255564773Y-92050499D01*
X255689069Y-92014004D01*
X255798049Y-91943967D01*
X255882882Y-91846063D01*
X255936697Y-91728226D01*
X255955133Y-91600000D01*
X255936697Y-91471774D01*
X255882882Y-91353937D01*
X255798049Y-91256033D01*
X255689069Y-91185996D01*
X255689065Y-91185994D01*
X255689064Y-91185994D01*
X255564774Y-91149500D01*
X255564772Y-91149500D01*
X255435228Y-91149500D01*
X255435226Y-91149500D01*
X255310935Y-91185994D01*
X255310932Y-91185995D01*
X255310931Y-91185996D01*
X255259677Y-91218934D01*
X255201950Y-91256033D01*
X255117118Y-91353937D01*
X255117117Y-91353938D01*
X255063302Y-91471774D01*
X255044867Y-91600000D01*
X228500500Y-91600000D01*
X228500500Y-90900000D01*
X256544867Y-90900000D01*
X256563302Y-91028225D01*
X256617117Y-91146061D01*
X256617118Y-91146063D01*
X256701951Y-91243967D01*
X256810931Y-91314004D01*
X256935225Y-91350499D01*
X256935227Y-91350500D01*
X256935228Y-91350500D01*
X257064773Y-91350500D01*
X257064773Y-91350499D01*
X257189069Y-91314004D01*
X257298049Y-91243967D01*
X257382882Y-91146063D01*
X257436697Y-91028226D01*
X257455133Y-90900000D01*
X257436697Y-90771774D01*
X257382882Y-90653937D01*
X257298049Y-90556033D01*
X257189069Y-90485996D01*
X257189065Y-90485994D01*
X257189064Y-90485994D01*
X257064774Y-90449500D01*
X257064772Y-90449500D01*
X256935228Y-90449500D01*
X256935226Y-90449500D01*
X256810935Y-90485994D01*
X256810932Y-90485995D01*
X256810931Y-90485996D01*
X256759677Y-90518934D01*
X256701950Y-90556033D01*
X256617118Y-90653937D01*
X256617117Y-90653938D01*
X256563302Y-90771774D01*
X256544867Y-90900000D01*
X228500500Y-90900000D01*
X228500500Y-90299996D01*
X253344867Y-90299996D01*
X253363302Y-90428221D01*
X253408973Y-90528225D01*
X253417118Y-90546059D01*
X253501951Y-90643963D01*
X253610931Y-90714000D01*
X253712992Y-90743967D01*
X253735225Y-90750495D01*
X253735227Y-90750496D01*
X253735228Y-90750496D01*
X253864773Y-90750496D01*
X253864773Y-90750495D01*
X253989069Y-90714000D01*
X254098049Y-90643963D01*
X254182882Y-90546059D01*
X254236697Y-90428222D01*
X254240755Y-90400000D01*
X259244867Y-90400000D01*
X259263302Y-90528225D01*
X259271447Y-90546059D01*
X259317118Y-90646063D01*
X259323942Y-90653938D01*
X259369125Y-90706083D01*
X259398149Y-90769639D01*
X259388205Y-90838797D01*
X259369125Y-90868486D01*
X259351106Y-90889280D01*
X259351103Y-90889286D01*
X259297288Y-91007122D01*
X259278853Y-91135348D01*
X259297288Y-91263573D01*
X259320320Y-91314004D01*
X259351104Y-91381411D01*
X259435937Y-91479315D01*
X259544917Y-91549352D01*
X259669211Y-91585847D01*
X259669213Y-91585848D01*
X259669214Y-91585848D01*
X259798759Y-91585848D01*
X259798759Y-91585847D01*
X259923055Y-91549352D01*
X260032035Y-91479315D01*
X260116868Y-91381411D01*
X260170683Y-91263574D01*
X260189119Y-91135348D01*
X260170683Y-91007122D01*
X260116868Y-90889285D01*
X260064859Y-90829263D01*
X260035836Y-90765708D01*
X260045780Y-90696550D01*
X260064859Y-90666862D01*
X260082882Y-90646063D01*
X260136697Y-90528226D01*
X260155133Y-90400000D01*
X260136697Y-90271774D01*
X260082882Y-90153937D01*
X259998049Y-90056033D01*
X259889069Y-89985996D01*
X259889065Y-89985994D01*
X259889064Y-89985994D01*
X259764774Y-89949500D01*
X259764772Y-89949500D01*
X259635228Y-89949500D01*
X259635226Y-89949500D01*
X259510935Y-89985994D01*
X259510932Y-89985995D01*
X259510931Y-89985996D01*
X259459677Y-90018934D01*
X259401950Y-90056033D01*
X259317118Y-90153937D01*
X259317117Y-90153938D01*
X259263302Y-90271774D01*
X259244867Y-90400000D01*
X254240755Y-90400000D01*
X254255133Y-90299996D01*
X254236697Y-90171770D01*
X254182882Y-90053933D01*
X254098049Y-89956029D01*
X253989069Y-89885992D01*
X253989065Y-89885990D01*
X253989064Y-89885990D01*
X253864774Y-89849496D01*
X253864772Y-89849496D01*
X253735228Y-89849496D01*
X253735226Y-89849496D01*
X253610935Y-89885990D01*
X253610932Y-89885991D01*
X253610931Y-89885992D01*
X253559677Y-89918930D01*
X253501950Y-89956029D01*
X253417118Y-90053933D01*
X253417117Y-90053934D01*
X253363302Y-90171770D01*
X253344867Y-90299996D01*
X228500500Y-90299996D01*
X228500500Y-89740000D01*
X265654867Y-89740000D01*
X265673302Y-89868225D01*
X265710420Y-89949500D01*
X265727118Y-89986063D01*
X265811951Y-90083967D01*
X265920931Y-90154004D01*
X265981438Y-90171770D01*
X266045225Y-90190499D01*
X266045227Y-90190500D01*
X266045228Y-90190500D01*
X266174773Y-90190500D01*
X266174773Y-90190499D01*
X266299069Y-90154004D01*
X266408049Y-90083967D01*
X266492882Y-89986063D01*
X266546697Y-89868226D01*
X266565133Y-89740000D01*
X266546697Y-89611774D01*
X266492882Y-89493937D01*
X266408049Y-89396033D01*
X266299069Y-89325996D01*
X266299065Y-89325994D01*
X266299064Y-89325994D01*
X266174774Y-89289500D01*
X266174772Y-89289500D01*
X266045228Y-89289500D01*
X266045226Y-89289500D01*
X265920935Y-89325994D01*
X265920932Y-89325995D01*
X265920931Y-89325996D01*
X265869677Y-89358934D01*
X265811950Y-89396033D01*
X265727118Y-89493937D01*
X265727117Y-89493938D01*
X265673302Y-89611774D01*
X265654867Y-89740000D01*
X228500500Y-89740000D01*
X228500500Y-89150000D01*
X271444867Y-89150000D01*
X271463302Y-89278225D01*
X271485118Y-89325994D01*
X271517118Y-89396063D01*
X271573743Y-89461413D01*
X271601805Y-89493799D01*
X271630829Y-89557355D01*
X271620885Y-89626514D01*
X271601805Y-89656203D01*
X271517120Y-89753936D01*
X271517119Y-89753938D01*
X271463304Y-89871774D01*
X271444869Y-90000000D01*
X271463304Y-90128225D01*
X271475078Y-90154005D01*
X271517120Y-90246063D01*
X271601953Y-90343967D01*
X271710933Y-90414004D01*
X271835227Y-90450499D01*
X271835229Y-90450500D01*
X271835230Y-90450500D01*
X271964775Y-90450500D01*
X271964775Y-90450499D01*
X272089071Y-90414004D01*
X272198051Y-90343967D01*
X272282884Y-90246063D01*
X272336699Y-90128226D01*
X272355135Y-90000000D01*
X272336699Y-89871774D01*
X272282884Y-89753937D01*
X272217532Y-89678516D01*
X272198196Y-89656200D01*
X272169172Y-89592644D01*
X272179116Y-89523485D01*
X272198194Y-89493799D01*
X272282882Y-89396063D01*
X272336697Y-89278226D01*
X272355133Y-89150000D01*
X272336697Y-89021774D01*
X272282882Y-88903937D01*
X272198049Y-88806033D01*
X272089069Y-88735996D01*
X272089065Y-88735994D01*
X272089064Y-88735994D01*
X271964774Y-88699500D01*
X271964772Y-88699500D01*
X271835228Y-88699500D01*
X271835226Y-88699500D01*
X271710935Y-88735994D01*
X271710932Y-88735995D01*
X271710931Y-88735996D01*
X271659677Y-88768934D01*
X271601950Y-88806033D01*
X271517118Y-88903937D01*
X271517117Y-88903938D01*
X271463302Y-89021774D01*
X271444867Y-89150000D01*
X228500500Y-89150000D01*
X228500500Y-86040000D01*
X274514353Y-86040000D01*
X274534834Y-86182456D01*
X274594622Y-86313371D01*
X274594623Y-86313373D01*
X274688872Y-86422143D01*
X274809947Y-86499953D01*
X274809950Y-86499954D01*
X274809949Y-86499954D01*
X274948036Y-86540499D01*
X274948038Y-86540500D01*
X274948039Y-86540500D01*
X275091962Y-86540500D01*
X275091962Y-86540499D01*
X275230053Y-86499953D01*
X275351128Y-86422143D01*
X275445377Y-86313373D01*
X275505165Y-86182457D01*
X275525647Y-86040000D01*
X275505165Y-85897543D01*
X275445377Y-85766627D01*
X275351128Y-85657857D01*
X275230053Y-85580047D01*
X275230051Y-85580046D01*
X275230049Y-85580045D01*
X275230050Y-85580045D01*
X275091963Y-85539500D01*
X275091961Y-85539500D01*
X274948039Y-85539500D01*
X274948036Y-85539500D01*
X274809949Y-85580045D01*
X274688873Y-85657856D01*
X274594623Y-85766626D01*
X274594622Y-85766628D01*
X274534834Y-85897543D01*
X274514353Y-86040000D01*
X228500500Y-86040000D01*
X228500500Y-84386309D01*
X230293000Y-84386309D01*
X230293000Y-84613690D01*
X230328567Y-84838255D01*
X230398830Y-85054500D01*
X230502055Y-85257086D01*
X230635691Y-85441022D01*
X230635695Y-85441027D01*
X230796472Y-85601804D01*
X230796477Y-85601808D01*
X230873623Y-85657857D01*
X230980417Y-85735447D01*
X231109502Y-85801219D01*
X231182999Y-85838669D01*
X231183001Y-85838669D01*
X231183004Y-85838671D01*
X231298915Y-85876332D01*
X231399244Y-85908932D01*
X231623810Y-85944500D01*
X231623815Y-85944500D01*
X231851190Y-85944500D01*
X232075755Y-85908932D01*
X232291996Y-85838671D01*
X232494583Y-85735447D01*
X232678529Y-85601803D01*
X232839303Y-85441029D01*
X232972947Y-85257083D01*
X233076171Y-85054496D01*
X233146432Y-84838255D01*
X233182000Y-84613690D01*
X233182000Y-84386309D01*
X234293000Y-84386309D01*
X234293000Y-84613690D01*
X234328567Y-84838255D01*
X234398830Y-85054500D01*
X234502055Y-85257086D01*
X234635691Y-85441022D01*
X234635695Y-85441027D01*
X234796472Y-85601804D01*
X234796477Y-85601808D01*
X234873623Y-85657857D01*
X234980417Y-85735447D01*
X235109502Y-85801219D01*
X235182999Y-85838669D01*
X235183001Y-85838669D01*
X235183004Y-85838671D01*
X235298915Y-85876332D01*
X235399244Y-85908932D01*
X235623810Y-85944500D01*
X235623815Y-85944500D01*
X235851190Y-85944500D01*
X236075755Y-85908932D01*
X236291996Y-85838671D01*
X236494583Y-85735447D01*
X236678529Y-85601803D01*
X236839303Y-85441029D01*
X236972947Y-85257083D01*
X237076171Y-85054496D01*
X237146432Y-84838255D01*
X237182000Y-84613690D01*
X237182000Y-84386309D01*
X237146432Y-84161744D01*
X237076169Y-83945499D01*
X237038719Y-83872002D01*
X236972947Y-83742917D01*
X236955872Y-83719415D01*
X236839308Y-83558977D01*
X236839304Y-83558972D01*
X236678527Y-83398195D01*
X236678522Y-83398191D01*
X236494586Y-83264555D01*
X236494585Y-83264554D01*
X236494583Y-83264553D01*
X236431320Y-83232318D01*
X236292000Y-83161330D01*
X236075755Y-83091067D01*
X235851190Y-83055500D01*
X235851185Y-83055500D01*
X235623815Y-83055500D01*
X235623810Y-83055500D01*
X235399244Y-83091067D01*
X235182999Y-83161330D01*
X234980413Y-83264555D01*
X234796477Y-83398191D01*
X234796472Y-83398195D01*
X234635695Y-83558972D01*
X234635691Y-83558977D01*
X234502055Y-83742913D01*
X234398830Y-83945499D01*
X234328567Y-84161744D01*
X234293000Y-84386309D01*
X233182000Y-84386309D01*
X233146432Y-84161744D01*
X233076169Y-83945499D01*
X233038719Y-83872002D01*
X232972947Y-83742917D01*
X232955872Y-83719415D01*
X232839308Y-83558977D01*
X232839304Y-83558972D01*
X232678527Y-83398195D01*
X232678522Y-83398191D01*
X232494586Y-83264555D01*
X232494585Y-83264554D01*
X232494583Y-83264553D01*
X232431320Y-83232318D01*
X232292000Y-83161330D01*
X232075755Y-83091067D01*
X231851190Y-83055500D01*
X231851185Y-83055500D01*
X231623815Y-83055500D01*
X231623810Y-83055500D01*
X231399244Y-83091067D01*
X231182999Y-83161330D01*
X230980413Y-83264555D01*
X230796477Y-83398191D01*
X230796472Y-83398195D01*
X230635695Y-83558972D01*
X230635691Y-83558977D01*
X230502055Y-83742913D01*
X230398830Y-83945499D01*
X230328567Y-84161744D01*
X230293000Y-84386309D01*
X228500500Y-84386309D01*
X228500500Y-78999997D01*
X229594506Y-78999997D01*
X229594506Y-79000002D01*
X229614469Y-79368196D01*
X229614470Y-79368213D01*
X229674122Y-79732068D01*
X229674128Y-79732094D01*
X229772768Y-80087365D01*
X229772770Y-80087371D01*
X229909255Y-80429926D01*
X229909261Y-80429938D01*
X230081973Y-80755708D01*
X230081976Y-80755713D01*
X230081978Y-80755716D01*
X230288910Y-81060917D01*
X230527627Y-81341956D01*
X230795330Y-81595538D01*
X231088881Y-81818690D01*
X231404838Y-82008795D01*
X231404840Y-82008796D01*
X231404842Y-82008797D01*
X231404846Y-82008799D01*
X231739486Y-82163620D01*
X231739497Y-82163625D01*
X232088934Y-82281364D01*
X232449052Y-82360632D01*
X232815630Y-82400500D01*
X232815636Y-82400500D01*
X233184364Y-82400500D01*
X233184370Y-82400500D01*
X233550948Y-82360632D01*
X233911066Y-82281364D01*
X234260503Y-82163625D01*
X234595162Y-82008795D01*
X234911119Y-81818690D01*
X235204670Y-81595538D01*
X235472373Y-81341956D01*
X235711090Y-81060917D01*
X235918022Y-80755716D01*
X236090743Y-80429930D01*
X236227227Y-80087379D01*
X236325875Y-79732081D01*
X236385531Y-79368199D01*
X236405494Y-79000000D01*
X236405494Y-78999997D01*
X274594506Y-78999997D01*
X274594506Y-79000002D01*
X274614469Y-79368196D01*
X274614470Y-79368213D01*
X274674122Y-79732068D01*
X274674128Y-79732094D01*
X274772768Y-80087365D01*
X274772770Y-80087371D01*
X274909255Y-80429926D01*
X274909261Y-80429938D01*
X275081973Y-80755708D01*
X275081976Y-80755713D01*
X275081978Y-80755716D01*
X275288910Y-81060917D01*
X275527627Y-81341956D01*
X275795330Y-81595538D01*
X276088881Y-81818690D01*
X276404838Y-82008795D01*
X276404840Y-82008796D01*
X276404842Y-82008797D01*
X276404846Y-82008799D01*
X276739486Y-82163620D01*
X276739497Y-82163625D01*
X277088934Y-82281364D01*
X277449052Y-82360632D01*
X277815630Y-82400500D01*
X277815636Y-82400500D01*
X278184364Y-82400500D01*
X278184370Y-82400500D01*
X278550948Y-82360632D01*
X278911066Y-82281364D01*
X279260503Y-82163625D01*
X279595162Y-82008795D01*
X279911119Y-81818690D01*
X280204670Y-81595538D01*
X280472373Y-81341956D01*
X280711090Y-81060917D01*
X280918022Y-80755716D01*
X281090743Y-80429930D01*
X281227227Y-80087379D01*
X281325875Y-79732081D01*
X281385531Y-79368199D01*
X281405494Y-79000000D01*
X281385531Y-78631801D01*
X281325875Y-78267919D01*
X281227227Y-77912621D01*
X281090743Y-77570070D01*
X280918022Y-77244284D01*
X280711090Y-76939083D01*
X280472373Y-76658044D01*
X280204670Y-76404462D01*
X279911119Y-76181310D01*
X279595162Y-75991205D01*
X279595161Y-75991204D01*
X279595157Y-75991202D01*
X279595153Y-75991200D01*
X279260513Y-75836379D01*
X279260508Y-75836377D01*
X279260503Y-75836375D01*
X279090172Y-75778983D01*
X278911065Y-75718635D01*
X278550946Y-75639367D01*
X278184371Y-75599500D01*
X278184370Y-75599500D01*
X277815630Y-75599500D01*
X277815628Y-75599500D01*
X277449053Y-75639367D01*
X277088934Y-75718635D01*
X276818812Y-75809650D01*
X276739497Y-75836375D01*
X276739494Y-75836376D01*
X276739486Y-75836379D01*
X276404846Y-75991200D01*
X276404842Y-75991202D01*
X276224850Y-76099500D01*
X276088881Y-76181310D01*
X275988410Y-76257685D01*
X275795330Y-76404461D01*
X275795330Y-76404462D01*
X275527626Y-76658044D01*
X275288909Y-76939083D01*
X275081979Y-77244282D01*
X275081973Y-77244291D01*
X274909261Y-77570061D01*
X274909255Y-77570073D01*
X274772770Y-77912628D01*
X274772768Y-77912634D01*
X274674128Y-78267905D01*
X274674122Y-78267931D01*
X274614470Y-78631786D01*
X274614469Y-78631803D01*
X274594506Y-78999997D01*
X236405494Y-78999997D01*
X236385531Y-78631801D01*
X236325875Y-78267919D01*
X236227227Y-77912621D01*
X236090743Y-77570070D01*
X235918022Y-77244284D01*
X235711090Y-76939083D01*
X235472373Y-76658044D01*
X235204670Y-76404462D01*
X234911119Y-76181310D01*
X234595162Y-75991205D01*
X234595161Y-75991204D01*
X234595157Y-75991202D01*
X234595153Y-75991200D01*
X234260513Y-75836379D01*
X234260508Y-75836377D01*
X234260503Y-75836375D01*
X234090172Y-75778983D01*
X233911065Y-75718635D01*
X233550946Y-75639367D01*
X233184371Y-75599500D01*
X233184370Y-75599500D01*
X232815630Y-75599500D01*
X232815628Y-75599500D01*
X232449053Y-75639367D01*
X232088934Y-75718635D01*
X231818812Y-75809650D01*
X231739497Y-75836375D01*
X231739494Y-75836376D01*
X231739486Y-75836379D01*
X231404846Y-75991200D01*
X231404842Y-75991202D01*
X231224850Y-76099500D01*
X231088881Y-76181310D01*
X230988410Y-76257685D01*
X230795330Y-76404461D01*
X230795330Y-76404462D01*
X230527626Y-76658044D01*
X230288909Y-76939083D01*
X230081979Y-77244282D01*
X230081973Y-77244291D01*
X229909261Y-77570061D01*
X229909255Y-77570073D01*
X229772770Y-77912628D01*
X229772768Y-77912634D01*
X229674128Y-78267905D01*
X229674122Y-78267931D01*
X229614470Y-78631786D01*
X229614469Y-78631803D01*
X229594506Y-78999997D01*
X228500500Y-78999997D01*
X228500500Y-76758676D01*
X228520185Y-76691637D01*
X228536819Y-76670995D01*
X230670995Y-74536819D01*
X230732318Y-74503334D01*
X230758676Y-74500500D01*
X280241324Y-74500500D01*
X280308363Y-74520185D01*
G37*
%TD.AperFunction*%
%TD*%
%TA.AperFunction,Conductor*%
%TO.N,GND*%
G36*
X234600000Y-117100001D02*
G01*
X236399999Y-119249999D01*
X236400000Y-119250000D01*
X240396474Y-119250000D01*
X240463513Y-119269685D01*
X240509268Y-119322489D01*
X240519212Y-119391647D01*
X240490187Y-119455203D01*
X240465366Y-119477100D01*
X240410618Y-119513681D01*
X240305342Y-119584024D01*
X240159024Y-119730342D01*
X240044058Y-119902403D01*
X239964870Y-120093579D01*
X239964868Y-120093587D01*
X239924500Y-120296530D01*
X239924500Y-120503469D01*
X239964868Y-120706412D01*
X239964870Y-120706420D01*
X240044058Y-120897596D01*
X240159024Y-121069657D01*
X240305342Y-121215975D01*
X240305345Y-121215977D01*
X240477402Y-121330941D01*
X240587990Y-121376748D01*
X240642393Y-121420589D01*
X240664458Y-121486883D01*
X240647179Y-121554582D01*
X240596042Y-121602193D01*
X240578856Y-121609240D01*
X240456781Y-121648905D01*
X240267442Y-121745379D01*
X240095540Y-121870272D01*
X240095535Y-121870276D01*
X239945276Y-122020535D01*
X239945272Y-122020540D01*
X239820379Y-122192442D01*
X239723904Y-122381782D01*
X239658242Y-122583870D01*
X239658242Y-122583873D01*
X239647769Y-122650000D01*
X240695854Y-122650000D01*
X240657370Y-122716657D01*
X240625000Y-122837465D01*
X240625000Y-122962535D01*
X240657370Y-123083343D01*
X240695854Y-123150000D01*
X239647769Y-123150000D01*
X239658242Y-123216126D01*
X239658242Y-123216129D01*
X239723904Y-123418217D01*
X239820379Y-123607557D01*
X239945272Y-123779459D01*
X239945276Y-123779464D01*
X240095535Y-123929723D01*
X240095540Y-123929727D01*
X240267442Y-124054620D01*
X240456782Y-124151095D01*
X240658872Y-124216757D01*
X240850000Y-124247029D01*
X240850000Y-123304145D01*
X240916657Y-123342630D01*
X241037465Y-123375000D01*
X241162535Y-123375000D01*
X241283343Y-123342630D01*
X241350000Y-123304145D01*
X241350000Y-124247028D01*
X241541127Y-124216757D01*
X241743217Y-124151095D01*
X241932557Y-124054620D01*
X242104459Y-123929727D01*
X242104464Y-123929723D01*
X242254723Y-123779464D01*
X242254727Y-123779459D01*
X242379620Y-123607557D01*
X242476095Y-123418217D01*
X242541757Y-123216129D01*
X242541757Y-123216126D01*
X242552231Y-123150000D01*
X241504146Y-123150000D01*
X241542630Y-123083343D01*
X241575000Y-122962535D01*
X241575000Y-122837465D01*
X241542630Y-122716657D01*
X241504146Y-122650000D01*
X242552231Y-122650000D01*
X242541757Y-122583873D01*
X242541757Y-122583870D01*
X242476095Y-122381782D01*
X242379620Y-122192442D01*
X242254727Y-122020540D01*
X242254723Y-122020535D01*
X242104464Y-121870276D01*
X242104459Y-121870272D01*
X241932557Y-121745379D01*
X241743216Y-121648904D01*
X241621144Y-121609240D01*
X241563468Y-121569802D01*
X241536270Y-121505444D01*
X241548185Y-121436597D01*
X241595429Y-121385122D01*
X241612006Y-121376749D01*
X241722598Y-121330941D01*
X241894655Y-121215977D01*
X242040977Y-121069655D01*
X242155941Y-120897598D01*
X242235130Y-120706420D01*
X242275500Y-120503465D01*
X242275500Y-120296535D01*
X242235130Y-120093580D01*
X242155941Y-119902402D01*
X242040977Y-119730345D01*
X242040975Y-119730342D01*
X241894657Y-119584024D01*
X241831978Y-119542144D01*
X241734635Y-119477101D01*
X241689830Y-119423491D01*
X241681123Y-119354166D01*
X241711277Y-119291138D01*
X241770720Y-119254418D01*
X241803526Y-119250000D01*
X247196474Y-119250000D01*
X247263513Y-119269685D01*
X247309268Y-119322489D01*
X247319212Y-119391647D01*
X247290187Y-119455203D01*
X247265366Y-119477100D01*
X247210618Y-119513681D01*
X247105342Y-119584024D01*
X246959024Y-119730342D01*
X246844058Y-119902403D01*
X246764870Y-120093579D01*
X246764868Y-120093587D01*
X246724500Y-120296530D01*
X246724500Y-120503469D01*
X246764868Y-120706412D01*
X246764870Y-120706420D01*
X246844058Y-120897596D01*
X246959024Y-121069657D01*
X247105342Y-121215975D01*
X247105345Y-121215977D01*
X247277402Y-121330941D01*
X247387990Y-121376748D01*
X247442393Y-121420589D01*
X247464458Y-121486883D01*
X247447179Y-121554582D01*
X247396042Y-121602193D01*
X247378856Y-121609240D01*
X247256781Y-121648905D01*
X247067442Y-121745379D01*
X246895540Y-121870272D01*
X246895535Y-121870276D01*
X246745276Y-122020535D01*
X246745272Y-122020540D01*
X246620379Y-122192442D01*
X246523904Y-122381782D01*
X246458242Y-122583870D01*
X246458242Y-122583873D01*
X246447769Y-122650000D01*
X247495854Y-122650000D01*
X247457370Y-122716657D01*
X247425000Y-122837465D01*
X247425000Y-122962535D01*
X247457370Y-123083343D01*
X247495854Y-123150000D01*
X246447769Y-123150000D01*
X246458242Y-123216126D01*
X246458242Y-123216129D01*
X246523904Y-123418217D01*
X246620379Y-123607557D01*
X246745272Y-123779459D01*
X246745276Y-123779464D01*
X246895535Y-123929723D01*
X246895540Y-123929727D01*
X247067442Y-124054620D01*
X247256782Y-124151095D01*
X247458872Y-124216757D01*
X247650000Y-124247029D01*
X247650000Y-123304145D01*
X247716657Y-123342630D01*
X247837465Y-123375000D01*
X247962535Y-123375000D01*
X248083343Y-123342630D01*
X248150000Y-123304145D01*
X248150000Y-124247028D01*
X248341127Y-124216757D01*
X248543217Y-124151095D01*
X248732557Y-124054620D01*
X248904459Y-123929727D01*
X248904464Y-123929723D01*
X249054723Y-123779464D01*
X249054727Y-123779459D01*
X249179620Y-123607557D01*
X249276095Y-123418217D01*
X249341757Y-123216129D01*
X249341757Y-123216126D01*
X249352231Y-123150000D01*
X248304146Y-123150000D01*
X248342630Y-123083343D01*
X248375000Y-122962535D01*
X248375000Y-122837465D01*
X248342630Y-122716657D01*
X248304146Y-122650000D01*
X249352231Y-122650000D01*
X249341757Y-122583873D01*
X249341757Y-122583870D01*
X249276095Y-122381782D01*
X249179620Y-122192442D01*
X249054727Y-122020540D01*
X249054723Y-122020535D01*
X248904464Y-121870276D01*
X248904459Y-121870272D01*
X248732557Y-121745379D01*
X248543216Y-121648904D01*
X248421144Y-121609240D01*
X248363468Y-121569802D01*
X248336270Y-121505444D01*
X248348185Y-121436597D01*
X248395429Y-121385122D01*
X248412006Y-121376749D01*
X248522598Y-121330941D01*
X248694655Y-121215977D01*
X248840977Y-121069655D01*
X248955941Y-120897598D01*
X249035130Y-120706420D01*
X249075500Y-120503465D01*
X249075500Y-120296535D01*
X249035130Y-120093580D01*
X248955941Y-119902402D01*
X248840977Y-119730345D01*
X248840975Y-119730342D01*
X248694657Y-119584024D01*
X248631978Y-119542144D01*
X248534635Y-119477101D01*
X248489830Y-119423491D01*
X248481123Y-119354166D01*
X248511277Y-119291138D01*
X248570720Y-119254418D01*
X248603526Y-119250000D01*
X253996474Y-119250000D01*
X254063513Y-119269685D01*
X254109268Y-119322489D01*
X254119212Y-119391647D01*
X254090187Y-119455203D01*
X254065366Y-119477100D01*
X254010618Y-119513681D01*
X253905342Y-119584024D01*
X253759024Y-119730342D01*
X253644058Y-119902403D01*
X253564870Y-120093579D01*
X253564868Y-120093587D01*
X253524500Y-120296530D01*
X253524500Y-120503469D01*
X253564868Y-120706412D01*
X253564870Y-120706420D01*
X253644058Y-120897596D01*
X253759024Y-121069657D01*
X253905342Y-121215975D01*
X253905345Y-121215977D01*
X254077402Y-121330941D01*
X254187990Y-121376748D01*
X254242393Y-121420589D01*
X254264458Y-121486883D01*
X254247179Y-121554582D01*
X254196042Y-121602193D01*
X254178856Y-121609240D01*
X254056781Y-121648905D01*
X253867442Y-121745379D01*
X253695540Y-121870272D01*
X253695535Y-121870276D01*
X253545276Y-122020535D01*
X253545272Y-122020540D01*
X253420379Y-122192442D01*
X253323904Y-122381782D01*
X253258242Y-122583870D01*
X253258242Y-122583873D01*
X253247769Y-122650000D01*
X254295854Y-122650000D01*
X254257370Y-122716657D01*
X254225000Y-122837465D01*
X254225000Y-122962535D01*
X254257370Y-123083343D01*
X254295854Y-123150000D01*
X253247769Y-123150000D01*
X253258242Y-123216126D01*
X253258242Y-123216129D01*
X253323904Y-123418217D01*
X253420379Y-123607557D01*
X253545272Y-123779459D01*
X253545276Y-123779464D01*
X253695535Y-123929723D01*
X253695540Y-123929727D01*
X253867442Y-124054620D01*
X254056782Y-124151095D01*
X254258872Y-124216757D01*
X254450000Y-124247029D01*
X254450000Y-123304145D01*
X254516657Y-123342630D01*
X254637465Y-123375000D01*
X254762535Y-123375000D01*
X254883343Y-123342630D01*
X254950000Y-123304145D01*
X254950000Y-124247029D01*
X255141127Y-124216757D01*
X255343217Y-124151095D01*
X255532557Y-124054620D01*
X255704459Y-123929727D01*
X255704464Y-123929723D01*
X255854723Y-123779464D01*
X255854727Y-123779459D01*
X255979620Y-123607557D01*
X256076095Y-123418217D01*
X256141757Y-123216129D01*
X256141757Y-123216126D01*
X256152231Y-123150000D01*
X255104146Y-123150000D01*
X255142630Y-123083343D01*
X255175000Y-122962535D01*
X255175000Y-122837465D01*
X255142630Y-122716657D01*
X255104146Y-122650000D01*
X256152231Y-122650000D01*
X256141757Y-122583873D01*
X256141757Y-122583870D01*
X256076095Y-122381782D01*
X255979620Y-122192442D01*
X255854727Y-122020540D01*
X255854723Y-122020535D01*
X255704464Y-121870276D01*
X255704459Y-121870272D01*
X255532557Y-121745379D01*
X255343216Y-121648904D01*
X255221144Y-121609240D01*
X255163468Y-121569802D01*
X255136270Y-121505444D01*
X255148185Y-121436597D01*
X255195429Y-121385122D01*
X255212006Y-121376749D01*
X255322598Y-121330941D01*
X255494655Y-121215977D01*
X255640977Y-121069655D01*
X255755941Y-120897598D01*
X255835130Y-120706420D01*
X255875500Y-120503465D01*
X255875500Y-120296535D01*
X255835130Y-120093580D01*
X255755941Y-119902402D01*
X255640977Y-119730345D01*
X255640975Y-119730342D01*
X255494657Y-119584024D01*
X255431978Y-119542144D01*
X255334635Y-119477101D01*
X255289830Y-119423491D01*
X255281123Y-119354166D01*
X255311277Y-119291138D01*
X255370720Y-119254418D01*
X255403526Y-119250000D01*
X260796474Y-119250000D01*
X260863513Y-119269685D01*
X260909268Y-119322489D01*
X260919212Y-119391647D01*
X260890187Y-119455203D01*
X260865366Y-119477100D01*
X260810618Y-119513681D01*
X260705342Y-119584024D01*
X260559024Y-119730342D01*
X260444058Y-119902403D01*
X260364870Y-120093579D01*
X260364868Y-120093587D01*
X260324500Y-120296530D01*
X260324500Y-120503469D01*
X260364868Y-120706412D01*
X260364870Y-120706420D01*
X260444058Y-120897596D01*
X260559024Y-121069657D01*
X260705342Y-121215975D01*
X260705345Y-121215977D01*
X260877402Y-121330941D01*
X260987990Y-121376748D01*
X261042393Y-121420589D01*
X261064458Y-121486883D01*
X261047179Y-121554582D01*
X260996042Y-121602193D01*
X260978856Y-121609240D01*
X260856781Y-121648905D01*
X260667442Y-121745379D01*
X260495540Y-121870272D01*
X260495535Y-121870276D01*
X260345276Y-122020535D01*
X260345272Y-122020540D01*
X260220379Y-122192442D01*
X260123904Y-122381782D01*
X260058242Y-122583870D01*
X260058242Y-122583873D01*
X260047769Y-122650000D01*
X261095854Y-122650000D01*
X261057370Y-122716657D01*
X261025000Y-122837465D01*
X261025000Y-122962535D01*
X261057370Y-123083343D01*
X261095854Y-123150000D01*
X260047769Y-123150000D01*
X260058242Y-123216126D01*
X260058242Y-123216129D01*
X260123904Y-123418217D01*
X260220379Y-123607557D01*
X260345272Y-123779459D01*
X260345276Y-123779464D01*
X260495535Y-123929723D01*
X260495540Y-123929727D01*
X260667442Y-124054620D01*
X260856782Y-124151095D01*
X261058872Y-124216757D01*
X261250000Y-124247029D01*
X261250000Y-123304145D01*
X261316657Y-123342630D01*
X261437465Y-123375000D01*
X261562535Y-123375000D01*
X261683343Y-123342630D01*
X261750000Y-123304145D01*
X261750000Y-124247029D01*
X261941127Y-124216757D01*
X262143217Y-124151095D01*
X262332557Y-124054620D01*
X262504459Y-123929727D01*
X262504464Y-123929723D01*
X262654723Y-123779464D01*
X262654727Y-123779459D01*
X262779620Y-123607557D01*
X262876095Y-123418217D01*
X262941757Y-123216129D01*
X262941757Y-123216126D01*
X262952231Y-123150000D01*
X261904146Y-123150000D01*
X261942630Y-123083343D01*
X261975000Y-122962535D01*
X261975000Y-122837465D01*
X261942630Y-122716657D01*
X261904146Y-122650000D01*
X262952231Y-122650000D01*
X262941757Y-122583873D01*
X262941757Y-122583870D01*
X262876095Y-122381782D01*
X262779620Y-122192442D01*
X262654727Y-122020540D01*
X262654723Y-122020535D01*
X262504464Y-121870276D01*
X262504459Y-121870272D01*
X262332557Y-121745379D01*
X262143216Y-121648904D01*
X262021144Y-121609240D01*
X261963468Y-121569802D01*
X261936270Y-121505444D01*
X261948185Y-121436597D01*
X261995429Y-121385122D01*
X262012006Y-121376749D01*
X262122598Y-121330941D01*
X262294655Y-121215977D01*
X262440977Y-121069655D01*
X262555941Y-120897598D01*
X262635130Y-120706420D01*
X262675500Y-120503465D01*
X262675500Y-120296535D01*
X262635130Y-120093580D01*
X262555941Y-119902402D01*
X262440977Y-119730345D01*
X262440975Y-119730342D01*
X262294657Y-119584024D01*
X262231978Y-119542144D01*
X262134635Y-119477101D01*
X262089830Y-119423491D01*
X262081123Y-119354166D01*
X262111277Y-119291138D01*
X262170720Y-119254418D01*
X262203526Y-119250000D01*
X263698638Y-119250000D01*
X263765677Y-119269685D01*
X263786319Y-119286319D01*
X264213681Y-119713681D01*
X264247166Y-119775004D01*
X264250000Y-119801362D01*
X264250000Y-128375500D01*
X264230315Y-128442539D01*
X264177511Y-128488294D01*
X264126000Y-128499500D01*
X230758676Y-128499500D01*
X230691637Y-128479815D01*
X230670995Y-128463181D01*
X228536819Y-126329005D01*
X228503334Y-126267682D01*
X228500500Y-126241324D01*
X228500500Y-123999997D01*
X229594506Y-123999997D01*
X229594506Y-124000002D01*
X229614469Y-124368196D01*
X229614470Y-124368213D01*
X229674122Y-124732068D01*
X229674128Y-124732094D01*
X229772768Y-125087365D01*
X229772770Y-125087371D01*
X229909255Y-125429926D01*
X229909261Y-125429938D01*
X230081973Y-125755708D01*
X230081979Y-125755717D01*
X230288909Y-126060916D01*
X230485777Y-126292686D01*
X230527627Y-126341956D01*
X230795330Y-126595538D01*
X231088881Y-126818690D01*
X231404838Y-127008795D01*
X231404840Y-127008796D01*
X231404842Y-127008797D01*
X231404846Y-127008799D01*
X231739486Y-127163620D01*
X231739497Y-127163625D01*
X232088934Y-127281364D01*
X232449052Y-127360632D01*
X232815630Y-127400500D01*
X232815636Y-127400500D01*
X233184364Y-127400500D01*
X233184370Y-127400500D01*
X233550948Y-127360632D01*
X233911066Y-127281364D01*
X234260503Y-127163625D01*
X234595162Y-127008795D01*
X234911119Y-126818690D01*
X235204670Y-126595538D01*
X235472373Y-126341956D01*
X235711090Y-126060917D01*
X235918022Y-125755716D01*
X236090743Y-125429930D01*
X236227227Y-125087379D01*
X236325875Y-124732081D01*
X236385531Y-124368199D01*
X236405494Y-124000000D01*
X236385531Y-123631801D01*
X236381556Y-123607557D01*
X236325877Y-123267931D01*
X236325876Y-123267930D01*
X236325875Y-123267919D01*
X236227227Y-122912621D01*
X236090743Y-122570070D01*
X235918022Y-122244284D01*
X235711090Y-121939083D01*
X235472373Y-121658044D01*
X235204670Y-121404462D01*
X234911119Y-121181310D01*
X234595162Y-120991205D01*
X234595161Y-120991204D01*
X234595157Y-120991202D01*
X234595153Y-120991200D01*
X234260513Y-120836379D01*
X234260508Y-120836377D01*
X234260503Y-120836375D01*
X234090172Y-120778983D01*
X233911065Y-120718635D01*
X233550946Y-120639367D01*
X233184371Y-120599500D01*
X233184370Y-120599500D01*
X232815630Y-120599500D01*
X232815628Y-120599500D01*
X232449053Y-120639367D01*
X232088934Y-120718635D01*
X231818812Y-120809650D01*
X231739497Y-120836375D01*
X231739494Y-120836376D01*
X231739486Y-120836379D01*
X231404846Y-120991200D01*
X231404842Y-120991202D01*
X231169538Y-121132779D01*
X231088881Y-121181310D01*
X230988410Y-121257685D01*
X230795330Y-121404461D01*
X230795330Y-121404462D01*
X230527626Y-121658044D01*
X230288909Y-121939083D01*
X230081979Y-122244282D01*
X230081973Y-122244291D01*
X229909261Y-122570061D01*
X229909255Y-122570073D01*
X229772770Y-122912628D01*
X229772768Y-122912634D01*
X229674128Y-123267905D01*
X229674122Y-123267931D01*
X229614470Y-123631786D01*
X229614469Y-123631803D01*
X229594506Y-123999997D01*
X228500500Y-123999997D01*
X228500500Y-116600000D01*
X234600000Y-116600000D01*
X234600000Y-117100001D01*
G37*
%TD.AperFunction*%
%TD*%
%TA.AperFunction,Conductor*%
%TO.N,GND*%
G36*
X234900000Y-110800000D02*
G01*
X234600000Y-110800000D01*
X234600000Y-108700000D01*
X234900000Y-108700000D01*
X234900000Y-110800000D01*
G37*
%TD.AperFunction*%
%TD*%
%TA.AperFunction,Conductor*%
%TO.N,GND*%
G36*
X266324500Y-120603469D02*
G01*
X266364868Y-120806412D01*
X266364870Y-120806420D01*
X266444058Y-120997596D01*
X266559024Y-121169657D01*
X266705342Y-121315975D01*
X266705345Y-121315977D01*
X266877402Y-121430941D01*
X266987990Y-121476748D01*
X267042393Y-121520589D01*
X267064458Y-121586883D01*
X267047179Y-121654582D01*
X266996042Y-121702193D01*
X266978856Y-121709240D01*
X266856781Y-121748905D01*
X266667442Y-121845379D01*
X266495540Y-121970272D01*
X266495535Y-121970276D01*
X266345276Y-122120535D01*
X266345272Y-122120540D01*
X266220379Y-122292442D01*
X266123904Y-122481782D01*
X266058242Y-122683870D01*
X266058242Y-122683873D01*
X266047769Y-122750000D01*
X267095854Y-122750000D01*
X267057370Y-122816657D01*
X267025000Y-122937465D01*
X267025000Y-123062535D01*
X267057370Y-123183343D01*
X267095854Y-123250000D01*
X266047769Y-123250000D01*
X266058242Y-123316126D01*
X266058242Y-123316129D01*
X266123904Y-123518217D01*
X266220379Y-123707557D01*
X266345272Y-123879459D01*
X266345276Y-123879464D01*
X266495535Y-124029723D01*
X266495540Y-124029727D01*
X266667442Y-124154620D01*
X266785971Y-124215015D01*
X266836767Y-124262990D01*
X266853562Y-124330811D01*
X266831024Y-124396946D01*
X266776309Y-124440397D01*
X266729676Y-124449500D01*
X266720730Y-124449500D01*
X266690300Y-124452353D01*
X266690298Y-124452353D01*
X266562119Y-124497206D01*
X266562117Y-124497207D01*
X266452850Y-124577850D01*
X266372207Y-124687117D01*
X266372206Y-124687119D01*
X266327353Y-124815298D01*
X266327353Y-124815300D01*
X266324500Y-124845730D01*
X266324500Y-126154269D01*
X266327353Y-126184699D01*
X266327353Y-126184701D01*
X266372206Y-126312880D01*
X266372207Y-126312882D01*
X266452850Y-126422150D01*
X266562118Y-126502793D01*
X266604845Y-126517744D01*
X266690299Y-126547646D01*
X266720730Y-126550500D01*
X266720734Y-126550500D01*
X268279270Y-126550500D01*
X268309699Y-126547646D01*
X268309701Y-126547646D01*
X268373790Y-126525219D01*
X268437882Y-126502793D01*
X268547150Y-126422150D01*
X268627793Y-126312882D01*
X268652832Y-126241324D01*
X268672646Y-126184701D01*
X268672646Y-126184699D01*
X268675500Y-126154269D01*
X268675500Y-124845730D01*
X268672646Y-124815300D01*
X268672646Y-124815298D01*
X268627793Y-124687119D01*
X268627792Y-124687117D01*
X268547150Y-124577850D01*
X268437882Y-124497207D01*
X268437880Y-124497206D01*
X268309700Y-124452353D01*
X268279270Y-124449500D01*
X268279266Y-124449500D01*
X268270324Y-124449500D01*
X268203285Y-124429815D01*
X268157530Y-124377011D01*
X268147586Y-124307853D01*
X268176611Y-124244297D01*
X268214029Y-124215015D01*
X268332557Y-124154620D01*
X268504459Y-124029727D01*
X268504464Y-124029723D01*
X268534190Y-123999997D01*
X274594506Y-123999997D01*
X274594506Y-124000002D01*
X274614469Y-124368196D01*
X274614470Y-124368213D01*
X274674122Y-124732068D01*
X274674128Y-124732094D01*
X274772768Y-125087365D01*
X274772770Y-125087371D01*
X274909255Y-125429926D01*
X274909261Y-125429938D01*
X275081973Y-125755708D01*
X275081979Y-125755717D01*
X275288909Y-126060916D01*
X275502930Y-126312880D01*
X275527627Y-126341956D01*
X275795330Y-126595538D01*
X276088881Y-126818690D01*
X276404838Y-127008795D01*
X276404840Y-127008796D01*
X276404842Y-127008797D01*
X276404846Y-127008799D01*
X276739486Y-127163620D01*
X276739497Y-127163625D01*
X277088934Y-127281364D01*
X277449052Y-127360632D01*
X277815630Y-127400500D01*
X277815636Y-127400500D01*
X278184364Y-127400500D01*
X278184370Y-127400500D01*
X278550948Y-127360632D01*
X278911066Y-127281364D01*
X279260503Y-127163625D01*
X279595162Y-127008795D01*
X279911119Y-126818690D01*
X280204670Y-126595538D01*
X280472373Y-126341956D01*
X280711090Y-126060917D01*
X280918022Y-125755716D01*
X281090743Y-125429930D01*
X281227227Y-125087379D01*
X281325875Y-124732081D01*
X281364381Y-124497206D01*
X281385529Y-124368213D01*
X281385529Y-124368210D01*
X281385531Y-124368199D01*
X281405494Y-124000000D01*
X281385531Y-123631801D01*
X281344265Y-123380095D01*
X281325877Y-123267931D01*
X281325876Y-123267930D01*
X281325875Y-123267919D01*
X281302393Y-123183343D01*
X281227231Y-122912634D01*
X281227229Y-122912628D01*
X281227228Y-122912627D01*
X281227227Y-122912621D01*
X281090743Y-122570070D01*
X280918022Y-122244284D01*
X280711090Y-121939083D01*
X280472373Y-121658044D01*
X280204670Y-121404462D01*
X279911119Y-121181310D01*
X279595162Y-120991205D01*
X279595161Y-120991204D01*
X279595157Y-120991202D01*
X279595153Y-120991200D01*
X279260513Y-120836379D01*
X279260508Y-120836377D01*
X279260503Y-120836375D01*
X279090172Y-120778983D01*
X278911065Y-120718635D01*
X278550946Y-120639367D01*
X278184371Y-120599500D01*
X278184370Y-120599500D01*
X277815630Y-120599500D01*
X277815628Y-120599500D01*
X277449053Y-120639367D01*
X277088934Y-120718635D01*
X276828424Y-120806412D01*
X276739497Y-120836375D01*
X276739494Y-120836376D01*
X276739486Y-120836379D01*
X276404846Y-120991200D01*
X276404842Y-120991202D01*
X276169538Y-121132779D01*
X276088881Y-121181310D01*
X275988410Y-121257685D01*
X275795330Y-121404461D01*
X275795330Y-121404462D01*
X275527626Y-121658044D01*
X275288909Y-121939083D01*
X275081979Y-122244282D01*
X275081973Y-122244291D01*
X274909261Y-122570061D01*
X274909255Y-122570073D01*
X274772770Y-122912628D01*
X274772768Y-122912634D01*
X274674128Y-123267905D01*
X274674122Y-123267931D01*
X274614470Y-123631786D01*
X274614469Y-123631803D01*
X274594506Y-123999997D01*
X268534190Y-123999997D01*
X268654723Y-123879464D01*
X268654727Y-123879459D01*
X268779620Y-123707557D01*
X268876095Y-123518217D01*
X268941757Y-123316129D01*
X268941757Y-123316126D01*
X268952231Y-123250000D01*
X267904146Y-123250000D01*
X267942630Y-123183343D01*
X267975000Y-123062535D01*
X267975000Y-122937465D01*
X267942630Y-122816657D01*
X267904146Y-122750000D01*
X268952231Y-122750000D01*
X268941757Y-122683873D01*
X268941757Y-122683870D01*
X268876095Y-122481782D01*
X268779620Y-122292442D01*
X268654727Y-122120540D01*
X268654723Y-122120535D01*
X268504464Y-121970276D01*
X268504459Y-121970272D01*
X268332557Y-121845379D01*
X268143216Y-121748904D01*
X268021144Y-121709240D01*
X267963468Y-121669802D01*
X267936270Y-121605444D01*
X267948185Y-121536597D01*
X267995429Y-121485122D01*
X268012006Y-121476749D01*
X268122598Y-121430941D01*
X268294655Y-121315977D01*
X268440977Y-121169655D01*
X268555941Y-120997598D01*
X268635130Y-120806420D01*
X268675500Y-120603465D01*
X268675500Y-120500000D01*
X282499500Y-120500000D01*
X282499500Y-126241324D01*
X282479815Y-126308363D01*
X282463181Y-126329005D01*
X280329005Y-128463181D01*
X280267682Y-128496666D01*
X280241324Y-128499500D01*
X264624000Y-128499500D01*
X264556961Y-128479815D01*
X264511206Y-128427011D01*
X264500000Y-128375500D01*
X264500000Y-120500000D01*
X266324500Y-120500000D01*
X266324500Y-120603469D01*
G37*
%TD.AperFunction*%
%TD*%
M02*
