M48
; DRILL file {KiCad 8.0.6-8.0.6-0~ubuntu20.04.1} date 2024-12-12T22:35:06+0500
; FORMAT={-:-/ absolute / metric / decimal}
; #@! TF.CreationDate,2024-12-12T22:35:06+05:00
; #@! TF.GenerationSoftware,Kicad,Pcbnew,8.0.6-8.0.6-0~ubuntu20.04.1
; #@! TF.FileFunction,Plated,1,4,PTH
FMAT,2
METRIC
; #@! TA.AperFunction,Plated,PTH,ViaDrill
T1C0.300
; #@! TA.AperFunction,Plated,PTH,ComponentDrill
T2C0.300
; #@! TA.AperFunction,Plated,PTH,ComponentDrill
T3C0.500
; #@! TA.AperFunction,Plated,PTH,ComponentDrill
T4C0.600
; #@! TA.AperFunction,Plated,PTH,ComponentDrill
T5C0.950
; #@! TA.AperFunction,Plated,PTH,ComponentDrill
T6C3.200
%
G90
G05
T1
X228.8Y-87.8
X228.8Y-88.6
X228.8Y-89.4
X228.8Y-90.2
X228.8Y-91.0
X228.8Y-91.8
X228.8Y-92.6
X229.5Y-98.5
X229.5Y-100.5
X229.5Y-102.5
X229.5Y-104.5
X229.5Y-106.5
X229.6Y-87.8
X229.6Y-88.6
X229.6Y-89.4
X229.6Y-90.2
X229.6Y-91.0
X229.6Y-91.8
X229.6Y-92.6
X230.1Y-109.3
X230.1Y-110.1
X230.1Y-110.9
X230.1Y-111.7
X230.1Y-112.5
X230.45Y-115.75
X230.45Y-116.5
X230.9Y-109.3
X230.9Y-110.1
X230.9Y-110.9
X230.9Y-111.7
X230.9Y-112.5
X231.25Y-115.75
X231.25Y-116.5
X233.3Y-96.0
X233.3Y-97.0
X234.15Y-96.0
X234.15Y-97.0
X235.0Y-96.0
X235.0Y-97.0
X235.8Y-96.0
X235.8Y-97.0
X236.6Y-96.0
X236.6Y-97.0
X237.1Y-109.5
X237.1Y-110.3
X237.1Y-111.1
X237.1Y-111.9
X237.195Y-105.95
X237.4Y-96.0
X237.4Y-97.0
X237.9Y-107.9
X237.9Y-108.7
X237.9Y-109.5
X237.9Y-110.3
X237.9Y-111.1
X237.9Y-111.9
X238.2Y-96.0
X238.2Y-97.0
X239.5Y-84.0
X241.9Y-92.48
X242.0Y-84.0
X242.25Y-126.25
X242.25Y-127.0
X242.25Y-127.75
X243.0Y-126.25
X243.0Y-127.0
X243.0Y-127.75
X243.45Y-103.7
X243.6Y-102.2
X243.95Y-114.35
X244.5Y-84.0
X245.0Y-102.2
X245.38Y-107.82
X245.8Y-117.0
X246.45Y-102.2
X247.0Y-84.0
X247.503Y-106.208
X247.9Y-102.2
X247.905Y-92.44
X248.15Y-108.14
X248.25Y-105.55
X248.45Y-107.35
X249.0Y-126.25
X249.0Y-127.0
X249.0Y-127.75
X249.5Y-84.0
X249.5Y-101.09
X249.75Y-126.25
X249.75Y-127.0
X249.75Y-127.75
X250.4Y-95.25
X250.5Y-101.1
X250.75Y-103.75
X250.75Y-114.35
X250.966Y-106.055
X251.15Y-106.85
X251.565Y-103.45
X252.0Y-84.0
X252.02Y-112.11
X252.5Y-117.0
X252.9Y-94.5
X252.98Y-96.775
X253.51Y-100.43
X253.8Y-90.3
X253.95Y-108.65
X254.5Y-84.0
X254.9Y-103.6
X254.97Y-94.045
X255.0Y-106.1
X255.25Y-109.195
X255.5Y-91.6
X255.75Y-96.9
X255.75Y-126.25
X255.75Y-127.0
X255.75Y-127.75
X255.755Y-107.93
X255.88Y-112.06
X256.5Y-126.25
X256.5Y-127.0
X256.5Y-127.75
X256.99Y-102.21
X257.0Y-84.0
X257.0Y-89.8
X257.0Y-90.9
X257.0Y-101.26
X257.08Y-109.73
X257.3Y-111.7
X258.39Y-97.263
X258.9Y-103.4
X258.95Y-100.1
X259.13Y-111.12
X259.5Y-84.0
X259.5Y-114.5
X259.7Y-90.4
X259.734Y-91.135
X259.82Y-92.59
X261.224Y-90.676
X261.31Y-94.12
X262.0Y-84.0
X262.0Y-90.4
X262.48Y-95.865
X262.48Y-97.265
X262.5Y-98.1
X262.5Y-98.95
X262.5Y-99.8
X262.5Y-100.65
X262.5Y-126.25
X262.5Y-127.0
X262.5Y-127.75
X262.8Y-90.4
X263.055Y-111.53
X263.25Y-126.25
X263.25Y-127.0
X263.25Y-127.75
X263.3Y-95.9
X263.37Y-100.79
X264.3Y-100.8
X264.5Y-84.0
X264.925Y-95.795
X265.15Y-100.85
X265.23Y-112.5
X265.4Y-113.8
X265.79Y-95.74
X265.95Y-93.45
X265.95Y-100.85
X266.11Y-89.74
X266.3Y-114.8
X266.4Y-102.5
X266.8Y-100.9
X267.0Y-84.0
X267.24Y-90.88
X267.3Y-93.55
X267.429Y-97.073
X267.54Y-97.855
X267.555Y-96.355
X267.56Y-100.525
X267.619Y-95.629
X268.125Y-94.955
X268.145Y-92.055
X268.45Y-90.9
X269.05Y-93.4
X269.295Y-104.42
X269.3Y-112.0
X269.445Y-100.89
X269.445Y-101.625
X269.45Y-100.16
X269.5Y-84.0
X269.6Y-103.55
X269.6Y-105.45
X269.69Y-108.53
X269.7Y-90.9
X270.165Y-95.67
X271.66Y-102.58
X271.7Y-104.5
X271.9Y-89.15
X271.9Y-90.0
X272.0Y-84.0
X272.1Y-100.7
X272.7Y-101.2
X273.005Y-108.23
X273.3Y-100.7
X273.91Y-93.99
X273.985Y-96.245
X274.065Y-104.525
X274.3Y-102.09
X274.38Y-107.235
X274.5Y-84.0
X274.8Y-100.8
X275.02Y-86.04
X276.85Y-105.65
X277.0Y-92.5
X277.0Y-94.5
X279.3Y-96.05
X281.0Y-102.5
X281.0Y-104.5
X281.0Y-106.5
X281.0Y-114.0
X281.0Y-116.0
X281.785Y-83.385
X281.79Y-90.14
T2
X232.845Y-109.8
X234.12Y-109.025
X234.12Y-110.575
X235.395Y-109.8
T3
X230.6Y-79.0
X230.6Y-124.0
X231.303Y-77.303
X231.303Y-80.697
X231.303Y-122.303
X231.303Y-125.697
X233.0Y-76.6
X233.0Y-81.4
X233.0Y-121.6
X233.0Y-126.4
X234.697Y-77.303
X234.697Y-80.697
X234.697Y-122.303
X234.697Y-125.697
X235.4Y-79.0
X235.4Y-124.0
X275.6Y-79.0
X275.6Y-124.0
X276.303Y-77.303
X276.303Y-80.697
X276.303Y-122.303
X276.303Y-125.697
X278.0Y-76.6
X278.0Y-81.4
X278.0Y-121.6
X278.0Y-126.4
X279.697Y-77.303
X279.697Y-80.697
X279.697Y-122.303
X279.697Y-125.697
X280.4Y-79.0
X280.4Y-124.0
T5
X241.1Y-117.9
X241.1Y-120.4
X241.1Y-122.9
X247.9Y-117.9
X247.9Y-120.4
X247.9Y-122.9
X254.7Y-117.9
X254.7Y-120.4
X254.7Y-122.9
X261.5Y-117.9
X261.5Y-120.4
X261.5Y-122.9
X267.5Y-118.0
X267.5Y-120.5
X267.5Y-123.0
X267.5Y-125.5
T6
X233.0Y-79.0
X233.0Y-124.0
X278.0Y-79.0
X278.0Y-124.0
T4
G00X275.645Y-100.18
M15
G01X276.745Y-100.18
M16
G05
G00X275.645Y-108.82
M15
G01X276.745Y-108.82
M16
G05
G00X279.975Y-100.18
M15
G01X280.775Y-100.18
M16
G05
G00X279.975Y-108.82
M15
G01X280.775Y-108.82
M16
G05
M30
