%TF.GenerationSoftware,KiCad,Pcbnew,8.0.9-8.0.9-0~ubuntu24.04.1*%
%TF.CreationDate,2025-04-13T19:17:34+05:00*%
%TF.ProjectId,ThetaAnomalain,54686574-6141-46e6-9f6d-616c61696e2e,rev?*%
%TF.SameCoordinates,Original*%
%TF.FileFunction,Soldermask,Bot*%
%TF.FilePolarity,Negative*%
%FSLAX46Y46*%
G04 Gerber Fmt 4.6, Leading zero omitted, Abs format (unit mm)*
G04 Created by KiCad (PCBNEW 8.0.9-8.0.9-0~ubuntu24.04.1) date 2025-04-13 19:17:34*
%MOMM*%
%LPD*%
G01*
G04 APERTURE LIST*
G04 Aperture macros list*
%AMRoundRect*
0 Rectangle with rounded corners*
0 $1 Rounding radius*
0 $2 $3 $4 $5 $6 $7 $8 $9 X,Y pos of 4 corners*
0 Add a 4 corners polygon primitive as box body*
4,1,4,$2,$3,$4,$5,$6,$7,$8,$9,$2,$3,0*
0 Add four circle primitives for the rounded corners*
1,1,$1+$1,$2,$3*
1,1,$1+$1,$4,$5*
1,1,$1+$1,$6,$7*
1,1,$1+$1,$8,$9*
0 Add four rect primitives between the rounded corners*
20,1,$1+$1,$2,$3,$4,$5,0*
20,1,$1+$1,$4,$5,$6,$7,0*
20,1,$1+$1,$6,$7,$8,$9,0*
20,1,$1+$1,$8,$9,$2,$3,0*%
G04 Aperture macros list end*
%ADD10R,1.500000X1.000000*%
%ADD11RoundRect,0.250000X-0.725000X0.600000X-0.725000X-0.600000X0.725000X-0.600000X0.725000X0.600000X0*%
%ADD12O,1.950000X1.700000*%
%ADD13C,0.800000*%
%ADD14C,6.400000*%
%ADD15RoundRect,0.250000X0.725000X-0.600000X0.725000X0.600000X-0.725000X0.600000X-0.725000X-0.600000X0*%
%ADD16C,1.649242*%
%ADD17C,0.650000*%
%ADD18O,2.100000X1.000000*%
%ADD19O,1.800000X1.000000*%
G04 APERTURE END LIST*
D10*
%TO.C,JP1*%
X87500000Y-109600000D03*
X87500000Y-110900000D03*
X87500000Y-112200000D03*
%TD*%
D11*
%TO.C,J4*%
X100700000Y-117900000D03*
D12*
X100700000Y-120400000D03*
X100700000Y-122900000D03*
%TD*%
D13*
%TO.C,H1*%
X120600000Y-79000000D03*
X121302944Y-77302944D03*
X121302944Y-80697056D03*
X123000000Y-76600000D03*
D14*
X123000000Y-79000000D03*
D13*
X123000000Y-81400000D03*
X124697056Y-77302944D03*
X124697056Y-80697056D03*
X125400000Y-79000000D03*
%TD*%
D11*
%TO.C,J3*%
X107500000Y-117900000D03*
D12*
X107500000Y-120400000D03*
X107500000Y-122900000D03*
%TD*%
D15*
%TO.C,J7*%
X113500000Y-125500000D03*
D12*
X113500000Y-123000000D03*
X113500000Y-120500000D03*
X113500000Y-118000000D03*
%TD*%
D16*
%TO.C,J8*%
X76700000Y-84750000D03*
X76700000Y-88250000D03*
X80700000Y-84750000D03*
X80700000Y-88250000D03*
%TD*%
D11*
%TO.C,J6*%
X87100000Y-117900000D03*
D12*
X87100000Y-120400000D03*
X87100000Y-122900000D03*
%TD*%
D13*
%TO.C,H4*%
X120600000Y-124000000D03*
X121302944Y-122302944D03*
X121302944Y-125697056D03*
X123000000Y-121600000D03*
D14*
X123000000Y-124000000D03*
D13*
X123000000Y-126400000D03*
X124697056Y-122302944D03*
X124697056Y-125697056D03*
X125400000Y-124000000D03*
%TD*%
D11*
%TO.C,J5*%
X93900000Y-117900000D03*
D12*
X93900000Y-120400000D03*
X93900000Y-122900000D03*
%TD*%
D13*
%TO.C,H2*%
X75600000Y-124000000D03*
X76302944Y-122302944D03*
X76302944Y-125697056D03*
X78000000Y-121600000D03*
D14*
X78000000Y-124000000D03*
D13*
X78000000Y-126400000D03*
X79697056Y-122302944D03*
X79697056Y-125697056D03*
X80400000Y-124000000D03*
%TD*%
D17*
%TO.C,J1*%
X121695000Y-107390000D03*
X121695000Y-101610000D03*
D18*
X121195000Y-108820000D03*
D19*
X125375000Y-108820000D03*
D18*
X121195000Y-100180000D03*
D19*
X125375000Y-100180000D03*
%TD*%
D13*
%TO.C,H3*%
X75600000Y-79000000D03*
X76302944Y-77302944D03*
X76302944Y-80697056D03*
X78000000Y-76600000D03*
D14*
X78000000Y-79000000D03*
D13*
X78000000Y-81400000D03*
X79697056Y-77302944D03*
X79697056Y-80697056D03*
X80400000Y-79000000D03*
%TD*%
M02*
