%TF.GenerationSoftware,KiCad,Pcbnew,8.0.9-8.0.9-0~ubuntu24.04.1*%
%TF.CreationDate,2025-04-13T19:06:22+05:00*%
%TF.ProjectId,ThetaAnomalain,54686574-6141-46e6-9f6d-616c61696e2e,rev?*%
%TF.SameCoordinates,Original*%
%TF.FileFunction,Copper,L4,Bot*%
%TF.FilePolarity,Positive*%
%FSLAX46Y46*%
G04 Gerber Fmt 4.6, Leading zero omitted, Abs format (unit mm)*
G04 Created by KiCad (PCBNEW 8.0.9-8.0.9-0~ubuntu24.04.1) date 2025-04-13 19:06:22*
%MOMM*%
%LPD*%
G01*
G04 APERTURE LIST*
G04 Aperture macros list*
%AMRoundRect*
0 Rectangle with rounded corners*
0 $1 Rounding radius*
0 $2 $3 $4 $5 $6 $7 $8 $9 X,Y pos of 4 corners*
0 Add a 4 corners polygon primitive as box body*
4,1,4,$2,$3,$4,$5,$6,$7,$8,$9,$2,$3,0*
0 Add four circle primitives for the rounded corners*
1,1,$1+$1,$2,$3*
1,1,$1+$1,$4,$5*
1,1,$1+$1,$6,$7*
1,1,$1+$1,$8,$9*
0 Add four rect primitives between the rounded corners*
20,1,$1+$1,$2,$3,$4,$5,0*
20,1,$1+$1,$4,$5,$6,$7,0*
20,1,$1+$1,$6,$7,$8,$9,0*
20,1,$1+$1,$8,$9,$2,$3,0*%
G04 Aperture macros list end*
%TA.AperFunction,EtchedComponent*%
%ADD10C,0.000000*%
%TD*%
%TA.AperFunction,SMDPad,CuDef*%
%ADD11R,1.500000X1.000000*%
%TD*%
%TA.AperFunction,ComponentPad*%
%ADD12RoundRect,0.250000X-0.725000X0.600000X-0.725000X-0.600000X0.725000X-0.600000X0.725000X0.600000X0*%
%TD*%
%TA.AperFunction,ComponentPad*%
%ADD13O,1.950000X1.700000*%
%TD*%
%TA.AperFunction,ComponentPad*%
%ADD14R,0.900000X0.500000*%
%TD*%
%TA.AperFunction,ComponentPad*%
%ADD15C,0.800000*%
%TD*%
%TA.AperFunction,ComponentPad*%
%ADD16C,6.400000*%
%TD*%
%TA.AperFunction,ComponentPad*%
%ADD17RoundRect,0.250000X0.725000X-0.600000X0.725000X0.600000X-0.725000X0.600000X-0.725000X-0.600000X0*%
%TD*%
%TA.AperFunction,ComponentPad*%
%ADD18O,2.100000X1.000000*%
%TD*%
%TA.AperFunction,ComponentPad*%
%ADD19O,1.800000X1.000000*%
%TD*%
%TA.AperFunction,ViaPad*%
%ADD20C,0.500000*%
%TD*%
%TA.AperFunction,Conductor*%
%ADD21C,0.200000*%
%TD*%
%TA.AperFunction,Conductor*%
%ADD22C,0.500000*%
%TD*%
G04 APERTURE END LIST*
D10*
%TA.AperFunction,EtchedComponent*%
%TO.C,JP1*%
G36*
X87800000Y-110500000D02*
G01*
X87200000Y-110500000D01*
X87200000Y-110000000D01*
X87800000Y-110000000D01*
X87800000Y-110500000D01*
G37*
%TD.AperFunction*%
%TD*%
D11*
%TO.P,JP1,1,A*%
%TO.N,/SERVOEN*%
X87500000Y-109600000D03*
%TO.P,JP1,2,C*%
%TO.N,Net-(JP1-C)*%
X87500000Y-110900000D03*
%TO.P,JP1,3,B*%
%TO.N,VDD*%
X87500000Y-112200000D03*
%TD*%
D12*
%TO.P,J4,1,Pin_1*%
%TO.N,/SERVOB*%
X100700000Y-117900000D03*
D13*
%TO.P,J4,2,Pin_2*%
%TO.N,+6V*%
X100700000Y-120400000D03*
%TO.P,J4,3,Pin_3*%
%TO.N,Net-(J3-Pin_3)*%
X100700000Y-122900000D03*
%TD*%
D14*
%TO.P,AE1,2,Shield*%
%TO.N,GND*%
X98700000Y-79700000D03*
%TD*%
D15*
%TO.P,H1,1*%
%TO.N,N/C*%
X120600000Y-79000000D03*
X121302944Y-77302944D03*
X121302944Y-80697056D03*
X123000000Y-76600000D03*
D16*
X123000000Y-79000000D03*
D15*
X123000000Y-81400000D03*
X124697056Y-77302944D03*
X124697056Y-80697056D03*
X125400000Y-79000000D03*
%TD*%
D12*
%TO.P,J3,1,Pin_1*%
%TO.N,/SERVOA*%
X107500000Y-117900000D03*
D13*
%TO.P,J3,2,Pin_2*%
%TO.N,+6V*%
X107500000Y-120400000D03*
%TO.P,J3,3,Pin_3*%
%TO.N,Net-(J3-Pin_3)*%
X107500000Y-122900000D03*
%TD*%
D17*
%TO.P,J7,1,Pin_1*%
%TO.N,VDD*%
X113500000Y-125500000D03*
D13*
%TO.P,J7,2,Pin_2*%
%TO.N,GND*%
X113500000Y-123000000D03*
%TO.P,J7,3,Pin_3*%
%TO.N,/RXD0*%
X113500000Y-120500000D03*
%TO.P,J7,4,Pin_4*%
%TO.N,/TXD0*%
X113500000Y-118000000D03*
%TD*%
D12*
%TO.P,J6,1,Pin_1*%
%TO.N,/SERVOD*%
X87100000Y-117900000D03*
D13*
%TO.P,J6,2,Pin_2*%
%TO.N,+6V*%
X87100000Y-120400000D03*
%TO.P,J6,3,Pin_3*%
%TO.N,Net-(J3-Pin_3)*%
X87100000Y-122900000D03*
%TD*%
D15*
%TO.P,H4,1*%
%TO.N,N/C*%
X120600000Y-124000000D03*
X121302944Y-122302944D03*
X121302944Y-125697056D03*
X123000000Y-121600000D03*
D16*
X123000000Y-124000000D03*
D15*
X123000000Y-126400000D03*
X124697056Y-122302944D03*
X124697056Y-125697056D03*
X125400000Y-124000000D03*
%TD*%
D12*
%TO.P,J5,1,Pin_1*%
%TO.N,/SERVOC*%
X93900000Y-117900000D03*
D13*
%TO.P,J5,2,Pin_2*%
%TO.N,+6V*%
X93900000Y-120400000D03*
%TO.P,J5,3,Pin_3*%
%TO.N,Net-(J3-Pin_3)*%
X93900000Y-122900000D03*
%TD*%
D15*
%TO.P,H2,1*%
%TO.N,N/C*%
X75600000Y-124000000D03*
X76302944Y-122302944D03*
X76302944Y-125697056D03*
X78000000Y-121600000D03*
D16*
X78000000Y-124000000D03*
D15*
X78000000Y-126400000D03*
X79697056Y-122302944D03*
X79697056Y-125697056D03*
X80400000Y-124000000D03*
%TD*%
D18*
%TO.P,J1,S1,SHIELD*%
%TO.N,unconnected-(J1-SHIELD-PadS1)_1*%
X121195000Y-108820000D03*
D19*
%TO.N,unconnected-(J1-SHIELD-PadS1)_3*%
X125375000Y-108820000D03*
D18*
%TO.N,unconnected-(J1-SHIELD-PadS1)*%
X121195000Y-100180000D03*
D19*
%TO.N,unconnected-(J1-SHIELD-PadS1)_2*%
X125375000Y-100180000D03*
%TD*%
D15*
%TO.P,H3,1*%
%TO.N,N/C*%
X75600000Y-79000000D03*
X76302944Y-77302944D03*
X76302944Y-80697056D03*
X78000000Y-76600000D03*
D16*
X78000000Y-79000000D03*
D15*
X78000000Y-81400000D03*
X79697056Y-77302944D03*
X79697056Y-80697056D03*
X80400000Y-79000000D03*
%TD*%
D20*
%TO.N,VDD*%
X85600000Y-112800000D03*
%TO.N,GND*%
X96000000Y-103900000D03*
%TO.N,VDD*%
X108250000Y-100950000D03*
X118850000Y-100800000D03*
X87200000Y-91500000D03*
X96150000Y-82300000D03*
X90050000Y-92600000D03*
X117450000Y-104050000D03*
X94950000Y-91500000D03*
X98500000Y-95550000D03*
X84600000Y-77550000D03*
X101750000Y-94800000D03*
X118200000Y-100800000D03*
X99050000Y-103700000D03*
X114990000Y-86050000D03*
X97750000Y-95550000D03*
X105000000Y-92750000D03*
X111590000Y-84700000D03*
X95400000Y-89000000D03*
X115550000Y-91200000D03*
X111440000Y-89100000D03*
X102400000Y-83800000D03*
X118850000Y-99300000D03*
X99050000Y-104350000D03*
X94950000Y-90800000D03*
X96100000Y-88300000D03*
X118200000Y-99300000D03*
X89000000Y-106850000D03*
X122750000Y-85200000D03*
X103050000Y-83800000D03*
X106400000Y-85650000D03*
X98050000Y-82300000D03*
X96100000Y-89000000D03*
X95400000Y-88300000D03*
%TO.N,/TX0_RAW*%
X121985876Y-86314124D03*
X106500000Y-104850000D03*
X106150000Y-87600000D03*
%TO.N,/BOOT*%
X103250000Y-89450000D03*
X91000000Y-86950000D03*
%TO.N,/Action*%
X115698893Y-84746442D03*
X122750000Y-88350000D03*
%TO.N,/RXD0*%
X105750000Y-105400000D03*
X121950000Y-87000000D03*
X105400000Y-87600000D03*
%TO.N,GND*%
X83400000Y-111550080D03*
X112150000Y-93000000D03*
X108300000Y-97650000D03*
X94950000Y-92557500D03*
X103380000Y-81215000D03*
X74100000Y-91900000D03*
X85150000Y-85350000D03*
X101600000Y-81300000D03*
X75700000Y-121200000D03*
X84800000Y-94300000D03*
X96800000Y-87350000D03*
X74100000Y-95900000D03*
X101600000Y-83200000D03*
X109700000Y-79800000D03*
X76600000Y-111550080D03*
X74100000Y-92700000D03*
X74300000Y-120500000D03*
X97450000Y-87350000D03*
X84800000Y-105400000D03*
X103300000Y-79800000D03*
X75000000Y-121200000D03*
X101600000Y-85000000D03*
X112150000Y-92300000D03*
X95100000Y-79800000D03*
X105700000Y-79800000D03*
X108300000Y-99650000D03*
X84800000Y-96500000D03*
X75000000Y-120500000D03*
X84100000Y-110150080D03*
X100900000Y-106700000D03*
X102880000Y-81715000D03*
X76600000Y-112250080D03*
X108900000Y-79800000D03*
X93425000Y-100875000D03*
X117450000Y-104950000D03*
X76600000Y-110850080D03*
X74700000Y-95500000D03*
X112800000Y-80250000D03*
X92000000Y-117900000D03*
X83400000Y-110150080D03*
X108580000Y-84415000D03*
X102500000Y-79800000D03*
X114000000Y-99600000D03*
X104100000Y-79800000D03*
X100050000Y-85700000D03*
X74100000Y-94300000D03*
X115000000Y-84750000D03*
X93200000Y-78700000D03*
X109180000Y-84415000D03*
X74300000Y-118400000D03*
X122600000Y-100950000D03*
X74300000Y-117700000D03*
X90200000Y-99900000D03*
X92100000Y-77600000D03*
X116100000Y-79800000D03*
X100000000Y-80600000D03*
X101700000Y-79800000D03*
X119200000Y-79800000D03*
X91550000Y-76250000D03*
X98100000Y-87350000D03*
X101600000Y-82000000D03*
X117400000Y-97850000D03*
X74100000Y-95100000D03*
X84100000Y-111550080D03*
X93750000Y-79250000D03*
X84800000Y-99800000D03*
X96700000Y-79800000D03*
X84100000Y-112250080D03*
X74700000Y-96300000D03*
X84100000Y-108750080D03*
X94300000Y-79800000D03*
X107300000Y-79800000D03*
X74700000Y-92300000D03*
X101600000Y-80600000D03*
X84800000Y-100900000D03*
X105300000Y-106700000D03*
X117700000Y-79800000D03*
X74700000Y-97100000D03*
X84100000Y-110850080D03*
X115300000Y-79800000D03*
X102880000Y-82915000D03*
X84800000Y-103100000D03*
X104580000Y-81215000D03*
X108100000Y-79800000D03*
X98050000Y-101850000D03*
X101600000Y-84400000D03*
X104200000Y-106700000D03*
X97500000Y-79800000D03*
X74100000Y-93500000D03*
X84800000Y-95400000D03*
X74100000Y-96700000D03*
X104100000Y-85100000D03*
X114000000Y-100300000D03*
X74300000Y-119800000D03*
X122950000Y-98550000D03*
X105700000Y-85750000D03*
X76600000Y-110150080D03*
X99900000Y-79800000D03*
X85400000Y-117800000D03*
X105600000Y-117900000D03*
X100350000Y-87300000D03*
X84800000Y-104200000D03*
X103100000Y-106700000D03*
X101600000Y-83800000D03*
X102000000Y-106700000D03*
X102880000Y-82315000D03*
X91550000Y-77050000D03*
X75700000Y-120500000D03*
X114000000Y-101000000D03*
X99800000Y-106700000D03*
X74300000Y-119100000D03*
X99250000Y-92600000D03*
X116700000Y-97850000D03*
X100000000Y-81300000D03*
X83400000Y-112250080D03*
X110500000Y-79800000D03*
X100000000Y-82950000D03*
X77300000Y-112250080D03*
X113500000Y-79800000D03*
X91550000Y-75450000D03*
X77300000Y-110150080D03*
X98900000Y-117900000D03*
X74300000Y-121200000D03*
X121500000Y-93000000D03*
X105780000Y-81215000D03*
X126787500Y-83100000D03*
X101600000Y-82600000D03*
X84800000Y-97600000D03*
X113200000Y-111100000D03*
X95900000Y-79800000D03*
X101500000Y-88900000D03*
X102500000Y-86850000D03*
X114500000Y-79800000D03*
X77300000Y-110850080D03*
X108900000Y-106000000D03*
X103980000Y-81215000D03*
X84800000Y-102000000D03*
X104900000Y-79800000D03*
X74700000Y-93100000D03*
X74700000Y-94700000D03*
X84100000Y-109450080D03*
X106500000Y-79800000D03*
X111440000Y-88100000D03*
X118400000Y-79800000D03*
X115140000Y-89100000D03*
X92650000Y-78150000D03*
X74700000Y-93900000D03*
X105180000Y-81215000D03*
X77300000Y-111550080D03*
X111590000Y-87250000D03*
X111300000Y-79800000D03*
X101600000Y-85600000D03*
X74700000Y-91500000D03*
X98900000Y-101000000D03*
X100000000Y-83550000D03*
X108300000Y-98400000D03*
X100000000Y-84150000D03*
X116900000Y-79800000D03*
X112000000Y-80250000D03*
X84800000Y-98700000D03*
X83400000Y-110850080D03*
X88900000Y-85350000D03*
%TO.N,/IMU_INT*%
X96350000Y-90300000D03*
X103200000Y-91400000D03*
%TO.N,+3V8*%
X82900000Y-92700000D03*
X82900000Y-96200000D03*
X119600000Y-96050000D03*
X82900000Y-95500000D03*
X118950000Y-96050000D03*
X82900000Y-93400000D03*
X82900000Y-94800000D03*
X82900000Y-94100000D03*
X99250000Y-93850000D03*
X118300000Y-96050000D03*
%TO.N,/SDA*%
X90200000Y-79850000D03*
X105800000Y-92750000D03*
X113450000Y-94850000D03*
%TO.N,/SCL*%
X113340000Y-90100000D03*
X112600000Y-94850000D03*
X113340000Y-85800000D03*
X90850000Y-79300000D03*
X106559184Y-92550000D03*
%TO.N,/CHIP_PU*%
X103250000Y-88650000D03*
X88900000Y-87200000D03*
X85150000Y-87200000D03*
%TO.N,/SERVOA*%
X110150000Y-89750000D03*
%TO.N,/SERVOB*%
X110150000Y-88750000D03*
%TO.N,/SERVOC*%
X108450000Y-89850000D03*
%TO.N,/OFF*%
X111250000Y-94650000D03*
X110150000Y-87150000D03*
%TO.N,Net-(JP1-C)*%
X83200000Y-106850000D03*
%TO.N,/SERVOEN*%
X75700000Y-116250000D03*
X108300000Y-87800000D03*
%TO.N,/BUZ*%
X111150000Y-96550000D03*
X115000000Y-105950000D03*
%TO.N,Net-(D1-A)*%
X119600000Y-106600000D03*
X126200000Y-99100000D03*
%TO.N,Net-(BZ1-+)*%
X121150000Y-111500000D03*
X125500000Y-95700000D03*
%TO.N,Net-(J3-Pin_3)*%
X79600000Y-117700000D03*
X78950000Y-119800000D03*
X79600000Y-118400000D03*
X79600000Y-119100000D03*
X78950000Y-117000000D03*
X79600000Y-119800000D03*
X78950000Y-118400000D03*
X78950000Y-117700000D03*
X78950000Y-119100000D03*
%TO.N,Net-(J1-CC2)*%
X121650000Y-102750000D03*
X114100000Y-109400000D03*
%TO.N,Net-(J1-CC1)*%
X121650000Y-105750000D03*
X114100000Y-113750000D03*
%TO.N,Net-(RN3-R3.2)*%
X104350000Y-96650000D03*
X106570000Y-102830000D03*
%TO.N,Net-(RN4-R4.2)*%
X98150000Y-96600000D03*
X93450000Y-94700000D03*
%TO.N,Net-(RN4-R2.2)*%
X96500000Y-95800000D03*
X90450000Y-102550000D03*
%TO.N,Net-(RN4-R1.2)*%
X87550000Y-102000000D03*
X95850000Y-95800000D03*
%TO.N,Net-(RN5-R4.2)*%
X95050000Y-95800000D03*
X86150000Y-102150000D03*
%TO.N,Net-(U5-INT2{slash}FSYNC{slash}CLKIN)*%
X97687276Y-91200000D03*
X96450000Y-93750000D03*
X98800003Y-87350000D03*
%TO.N,/SERVOD*%
X110150000Y-87950000D03*
%TO.N,/LD_SCK*%
X103200000Y-92200000D03*
X94750000Y-102650000D03*
%TO.N,/LD_D*%
X111900000Y-96550000D03*
X104100000Y-105000000D03*
X96700000Y-102750000D03*
X111200000Y-104900000D03*
%TO.N,/LD_CS*%
X95400000Y-101800000D03*
X107125650Y-87600000D03*
X106450000Y-105950000D03*
X98800000Y-105900000D03*
%TD*%
D21*
%TO.N,VDD*%
X87500000Y-112200000D02*
X86200000Y-112200000D01*
X86200000Y-112200000D02*
X85600000Y-112800000D01*
%TO.N,/SERVOEN*%
X86000000Y-107800000D02*
X87500000Y-107800000D01*
X87500000Y-109600000D02*
X87500000Y-107800000D01*
X87500000Y-107800000D02*
X105600000Y-107800000D01*
X75700000Y-116250000D02*
X78150000Y-116250000D01*
X78150000Y-116250000D02*
X80600000Y-113800000D01*
X80600000Y-113800000D02*
X80600000Y-107400000D01*
X80600000Y-107400000D02*
X82000000Y-106000000D01*
X82000000Y-106000000D02*
X84200000Y-106000000D01*
X109150000Y-104250000D02*
X109150000Y-91800000D01*
X84200000Y-106000000D02*
X86000000Y-107800000D01*
X107575000Y-88925000D02*
X108300000Y-88200000D01*
X105600000Y-107800000D02*
X109150000Y-104250000D01*
X109150000Y-91800000D02*
X107575000Y-90225000D01*
X107575000Y-90225000D02*
X107575000Y-88925000D01*
X108300000Y-88200000D02*
X108300000Y-87800000D01*
%TO.N,Net-(JP1-C)*%
X83200000Y-106850000D02*
X84050000Y-106850000D01*
X84050000Y-106850000D02*
X85100000Y-107900000D01*
X85100000Y-107900000D02*
X85100000Y-110000000D01*
X85100000Y-110000000D02*
X86000000Y-110900000D01*
X86000000Y-110900000D02*
X87500000Y-110900000D01*
%TO.N,/LD_CS*%
X95400000Y-101800000D02*
X95400000Y-102450000D01*
X95400000Y-102450000D02*
X98800000Y-105850000D01*
X98800000Y-105850000D02*
X98800000Y-105900000D01*
%TO.N,/LD_SCK*%
X102600000Y-92200000D02*
X103200000Y-92200000D01*
X100650000Y-95100000D02*
X100650000Y-94150000D01*
X94750000Y-102650000D02*
X94750000Y-101000000D01*
X94750000Y-101000000D02*
X100650000Y-95100000D01*
X100650000Y-94150000D02*
X102600000Y-92200000D01*
%TO.N,/TX0_RAW*%
X111250000Y-84050000D02*
X108650000Y-86650000D01*
X122200000Y-87500000D02*
X122450000Y-87250000D01*
X122450000Y-86778248D02*
X121985876Y-86314124D01*
X107100000Y-86650000D02*
X108650000Y-86650000D01*
X106150000Y-90200000D02*
X106150000Y-87600000D01*
X118150000Y-84050000D02*
X111250000Y-84050000D01*
X121600000Y-87500000D02*
X118150000Y-84050000D01*
X122450000Y-87250000D02*
X122450000Y-86778248D01*
X107650000Y-91700000D02*
X106150000Y-90200000D01*
X122200000Y-87500000D02*
X121600000Y-87500000D01*
X106150000Y-87600000D02*
X107100000Y-86650000D01*
X106500000Y-104850000D02*
X107650000Y-103700000D01*
X107650000Y-103700000D02*
X107650000Y-91700000D01*
%TO.N,/BOOT*%
X99300000Y-87050000D02*
X98850000Y-86600000D01*
X101050000Y-89700000D02*
X99300000Y-87950000D01*
X103000000Y-89700000D02*
X101050000Y-89700000D01*
X98850000Y-86600000D02*
X91350000Y-86600000D01*
X91350000Y-86600000D02*
X91000000Y-86950000D01*
X103250000Y-89450000D02*
X103000000Y-89700000D01*
X99300000Y-87950000D02*
X99300000Y-87050000D01*
%TO.N,/Action*%
X119302451Y-88350000D02*
X115698893Y-84746442D01*
X122750000Y-88350000D02*
X119302451Y-88350000D01*
%TO.N,/RXD0*%
X105400000Y-90000000D02*
X105400000Y-87600000D01*
X107100000Y-91700000D02*
X105400000Y-90000000D01*
X106700000Y-86300000D02*
X105400000Y-87600000D01*
X105750000Y-105400000D02*
X105750000Y-104350000D01*
X105750000Y-104350000D02*
X106300000Y-103800000D01*
X117850000Y-83150000D02*
X111450000Y-83150000D01*
X111450000Y-83150000D02*
X108300000Y-86300000D01*
X108300000Y-86300000D02*
X106700000Y-86300000D01*
X121650000Y-86950000D02*
X117850000Y-83150000D01*
X121900000Y-86950000D02*
X121650000Y-86950000D01*
X121850000Y-87000000D02*
X121800000Y-86950000D01*
X107100000Y-103350000D02*
X107100000Y-91700000D01*
X106650000Y-103800000D02*
X107100000Y-103350000D01*
X106300000Y-103800000D02*
X106650000Y-103800000D01*
%TO.N,/IMU_INT*%
X102650000Y-91400000D02*
X102300000Y-91750000D01*
X103200000Y-91400000D02*
X102650000Y-91400000D01*
X97250000Y-91750000D02*
X96350000Y-90850000D01*
X96350000Y-90850000D02*
X96350000Y-90300000D01*
X102300000Y-91750000D02*
X97250000Y-91750000D01*
%TO.N,/SDA*%
X96150000Y-85800000D02*
X90200000Y-79850000D01*
X102657107Y-87350000D02*
X101450000Y-87350000D01*
X105800000Y-92750000D02*
X105800000Y-91500000D01*
X103850000Y-89550000D02*
X103850000Y-88542893D01*
X99350000Y-85800000D02*
X96150000Y-85800000D01*
X100300000Y-86200000D02*
X99750000Y-86200000D01*
X105800000Y-91500000D02*
X103850000Y-89550000D01*
X99750000Y-86200000D02*
X99350000Y-85800000D01*
X101450000Y-87350000D02*
X100300000Y-86200000D01*
X103850000Y-88542893D02*
X102657107Y-87350000D01*
%TO.N,/SCL*%
X106559184Y-91759184D02*
X106559184Y-92550000D01*
X104300000Y-87750000D02*
X104300000Y-89500000D01*
X96300000Y-85100000D02*
X100250000Y-85100000D01*
X104300000Y-89500000D02*
X106559184Y-91759184D01*
X102750000Y-86200000D02*
X104300000Y-87750000D01*
X101350000Y-86200000D02*
X102750000Y-86200000D01*
X100250000Y-85100000D02*
X101350000Y-86200000D01*
X113340000Y-85800000D02*
X113340000Y-90100000D01*
X90850000Y-79300000D02*
X90850000Y-79650000D01*
X90850000Y-79650000D02*
X96300000Y-85100000D01*
%TO.N,/CHIP_PU*%
X99675000Y-86825000D02*
X99675000Y-87382107D01*
X89900000Y-86200000D02*
X99050000Y-86200000D01*
X85150000Y-87200000D02*
X88900000Y-87200000D01*
X99675000Y-87382107D02*
X100292893Y-88000000D01*
X100292893Y-88000000D02*
X102600000Y-88000000D01*
X88900000Y-87200000D02*
X89900000Y-86200000D01*
X102600000Y-88000000D02*
X103250000Y-88650000D01*
X99050000Y-86200000D02*
X99675000Y-86825000D01*
%TO.N,/SERVOA*%
X109400000Y-112575000D02*
X110600000Y-111375000D01*
X110600000Y-111375000D02*
X110600000Y-90200000D01*
X109400000Y-116000000D02*
X109400000Y-112575000D01*
X107500000Y-117900000D02*
X109400000Y-116000000D01*
X110600000Y-90200000D02*
X110150000Y-89750000D01*
%TO.N,/SERVOB*%
X109650000Y-89250000D02*
X110150000Y-88750000D01*
X100700000Y-117900000D02*
X110250000Y-108350000D01*
X110250000Y-90700000D02*
X109650000Y-90100000D01*
X110250000Y-108350000D02*
X110250000Y-90700000D01*
X109650000Y-90100000D02*
X109650000Y-89250000D01*
%TO.N,/SERVOC*%
X109900000Y-105900000D02*
X97900000Y-117900000D01*
X109900000Y-91300000D02*
X109900000Y-105900000D01*
X97900000Y-117900000D02*
X93900000Y-117900000D01*
X108450000Y-89850000D02*
X109900000Y-91300000D01*
%TO.N,/OFF*%
X111250000Y-94650000D02*
X110950000Y-94350000D01*
X110950000Y-89650000D02*
X110800000Y-89500000D01*
X110950000Y-94350000D02*
X110950000Y-89650000D01*
X110800000Y-89500000D02*
X110800000Y-87800000D01*
X110800000Y-87800000D02*
X110150000Y-87150000D01*
%TO.N,/BUZ*%
X113200000Y-104150000D02*
X115000000Y-105950000D01*
X111650000Y-96050000D02*
X112250000Y-96050000D01*
X113200000Y-97000000D02*
X113200000Y-104150000D01*
X111150000Y-96550000D02*
X111650000Y-96050000D01*
X112250000Y-96050000D02*
X113200000Y-97000000D01*
D22*
%TO.N,Net-(D1-A)*%
X126200000Y-99100000D02*
X124300000Y-99100000D01*
X124300000Y-99100000D02*
X123400000Y-100000000D01*
X123400000Y-102800000D02*
X119600000Y-106600000D01*
X123400000Y-100000000D02*
X123400000Y-102800000D01*
%TO.N,Net-(BZ1-+)*%
X127100000Y-102900000D02*
X123600000Y-106400000D01*
X123600000Y-106400000D02*
X123600000Y-109050000D01*
X127100000Y-97300000D02*
X127100000Y-102900000D01*
X125500000Y-95700000D02*
X127100000Y-97300000D01*
X123600000Y-109050000D02*
X121150000Y-111500000D01*
D21*
%TO.N,Net-(J3-Pin_3)*%
X107500000Y-122900000D02*
X87100000Y-122900000D01*
X79600000Y-119800000D02*
X82700000Y-122900000D01*
X82700000Y-122900000D02*
X87100000Y-122900000D01*
%TO.N,Net-(J1-CC2)*%
X114100000Y-109400000D02*
X115000000Y-109400000D01*
X115000000Y-109400000D02*
X121650000Y-102750000D01*
%TO.N,Net-(J1-CC1)*%
X114100000Y-113300000D02*
X114100000Y-113750000D01*
X121650000Y-105750000D02*
X114100000Y-113300000D01*
%TO.N,Net-(RN3-R3.2)*%
X104350000Y-100610000D02*
X104350000Y-96650000D01*
X106570000Y-102830000D02*
X104350000Y-100610000D01*
%TO.N,Net-(RN4-R4.2)*%
X93850000Y-95100000D02*
X93450000Y-94700000D01*
X96592893Y-95100000D02*
X93850000Y-95100000D01*
X98150000Y-96600000D02*
X98092893Y-96600000D01*
X98092893Y-96600000D02*
X96592893Y-95100000D01*
%TO.N,Net-(RN4-R2.2)*%
X96500000Y-95800000D02*
X96500000Y-96500000D01*
X96500000Y-96500000D02*
X90450000Y-102550000D01*
%TO.N,Net-(RN4-R1.2)*%
X87700000Y-101850000D02*
X87550000Y-102000000D01*
X95850000Y-95800000D02*
X89800000Y-101850000D01*
X89800000Y-101850000D02*
X87700000Y-101850000D01*
%TO.N,Net-(RN5-R4.2)*%
X95050000Y-95800000D02*
X94850000Y-96000000D01*
X92300000Y-96000000D02*
X86150000Y-102150000D01*
X94850000Y-96000000D02*
X92300000Y-96000000D01*
%TO.N,Net-(U5-INT2{slash}FSYNC{slash}CLKIN)*%
X97687276Y-91200000D02*
X97687276Y-89750000D01*
X95800000Y-90050000D02*
X96100000Y-89750000D01*
X95800000Y-93100000D02*
X95800000Y-90050000D01*
X98900000Y-87400000D02*
X97687276Y-88612724D01*
X96450000Y-93750000D02*
X95800000Y-93100000D01*
X97687276Y-88612724D02*
X97687276Y-89750000D01*
X96100000Y-89750000D02*
X97687276Y-89750000D01*
%TO.N,/SERVOD*%
X110150000Y-87950000D02*
X109550000Y-87950000D01*
X87100000Y-116300000D02*
X87100000Y-117900000D01*
X107925000Y-90075000D02*
X109550000Y-91700000D01*
X89300000Y-114100000D02*
X87100000Y-116300000D01*
X109550000Y-104400000D02*
X99850000Y-114100000D01*
X107925000Y-89575000D02*
X107925000Y-90075000D01*
X109550000Y-91700000D02*
X109550000Y-104400000D01*
X109550000Y-87950000D02*
X107925000Y-89575000D01*
X99850000Y-114100000D02*
X89300000Y-114100000D01*
%TO.N,/LD_D*%
X96700000Y-102750000D02*
X98950000Y-105000000D01*
X111200000Y-97250000D02*
X111900000Y-96550000D01*
X111200000Y-104900000D02*
X111200000Y-97250000D01*
X98950000Y-105000000D02*
X104100000Y-105000000D01*
%TO.N,/LD_CS*%
X108800000Y-92355025D02*
X108800000Y-103600000D01*
X107794975Y-91350000D02*
X108800000Y-92355025D01*
X107125650Y-90680676D02*
X107794975Y-91350000D01*
X108800000Y-103600000D02*
X106450000Y-105950000D01*
X107125650Y-87600000D02*
X107125650Y-90680676D01*
%TD*%
%TA.AperFunction,Conductor*%
%TO.N,Net-(J3-Pin_3)*%
G36*
X79523113Y-116209751D02*
G01*
X85899999Y-118900000D01*
X85900000Y-118900000D01*
X86133067Y-118900000D01*
X86174022Y-118906959D01*
X86290298Y-118947645D01*
X86290300Y-118947646D01*
X86320730Y-118950500D01*
X86320734Y-118950500D01*
X87879270Y-118950500D01*
X87909699Y-118947646D01*
X87947378Y-118934461D01*
X88025978Y-118906959D01*
X88066933Y-118900000D01*
X92933067Y-118900000D01*
X92974022Y-118906959D01*
X93090298Y-118947645D01*
X93090300Y-118947646D01*
X93120730Y-118950500D01*
X93120734Y-118950500D01*
X94679270Y-118950500D01*
X94709699Y-118947646D01*
X94747378Y-118934461D01*
X94825978Y-118906959D01*
X94866933Y-118900000D01*
X99733067Y-118900000D01*
X99774022Y-118906959D01*
X99890298Y-118947645D01*
X99890300Y-118947646D01*
X99920730Y-118950500D01*
X99920734Y-118950500D01*
X101479270Y-118950500D01*
X101509699Y-118947646D01*
X101547378Y-118934461D01*
X101625978Y-118906959D01*
X101666933Y-118900000D01*
X106533067Y-118900000D01*
X106574022Y-118906959D01*
X106690298Y-118947645D01*
X106690300Y-118947646D01*
X106720730Y-118950500D01*
X106720734Y-118950500D01*
X108279270Y-118950500D01*
X108309699Y-118947646D01*
X108347378Y-118934461D01*
X108425978Y-118906959D01*
X108466933Y-118900000D01*
X109148638Y-118900000D01*
X109215677Y-118919685D01*
X109236319Y-118936319D01*
X109963681Y-119663681D01*
X109997166Y-119725004D01*
X110000000Y-119751362D01*
X110000000Y-128375500D01*
X109980315Y-128442539D01*
X109927511Y-128488294D01*
X109876000Y-128499500D01*
X78124000Y-128499500D01*
X78056961Y-128479815D01*
X78011206Y-128427011D01*
X78000000Y-128375500D01*
X78000000Y-127524500D01*
X78019685Y-127457461D01*
X78072489Y-127411706D01*
X78124000Y-127400500D01*
X78184364Y-127400500D01*
X78184370Y-127400500D01*
X78550948Y-127360632D01*
X78911066Y-127281364D01*
X79260503Y-127163625D01*
X79595162Y-127008795D01*
X79911119Y-126818690D01*
X80204670Y-126595538D01*
X80472373Y-126341956D01*
X80711090Y-126060917D01*
X80918022Y-125755716D01*
X81090743Y-125429930D01*
X81227227Y-125087379D01*
X81325875Y-124732081D01*
X81385531Y-124368199D01*
X81405494Y-124000000D01*
X81385531Y-123631801D01*
X81325875Y-123267919D01*
X81227227Y-122912621D01*
X81090743Y-122570070D01*
X80918022Y-122244284D01*
X80711090Y-121939083D01*
X80472373Y-121658044D01*
X80204670Y-121404462D01*
X79911119Y-121181310D01*
X79595162Y-120991205D01*
X79595161Y-120991204D01*
X79595157Y-120991202D01*
X79595153Y-120991200D01*
X79260513Y-120836379D01*
X79260508Y-120836377D01*
X79260503Y-120836375D01*
X79090172Y-120778983D01*
X78911065Y-120718635D01*
X78550946Y-120639367D01*
X78184371Y-120599500D01*
X78184370Y-120599500D01*
X78124000Y-120599500D01*
X78056961Y-120579815D01*
X78011206Y-120527011D01*
X78000000Y-120475500D01*
X78000000Y-120296530D01*
X85924500Y-120296530D01*
X85924500Y-120503469D01*
X85964868Y-120706412D01*
X85964870Y-120706420D01*
X86044058Y-120897596D01*
X86159024Y-121069657D01*
X86305342Y-121215975D01*
X86305345Y-121215977D01*
X86477402Y-121330941D01*
X86668580Y-121410130D01*
X86871530Y-121450499D01*
X86871534Y-121450500D01*
X86871535Y-121450500D01*
X87328466Y-121450500D01*
X87328467Y-121450499D01*
X87531420Y-121410130D01*
X87722598Y-121330941D01*
X87894655Y-121215977D01*
X88040977Y-121069655D01*
X88155941Y-120897598D01*
X88235130Y-120706420D01*
X88275500Y-120503465D01*
X88275500Y-120296535D01*
X88275499Y-120296530D01*
X92724500Y-120296530D01*
X92724500Y-120503469D01*
X92764868Y-120706412D01*
X92764870Y-120706420D01*
X92844058Y-120897596D01*
X92959024Y-121069657D01*
X93105342Y-121215975D01*
X93105345Y-121215977D01*
X93277402Y-121330941D01*
X93468580Y-121410130D01*
X93671530Y-121450499D01*
X93671534Y-121450500D01*
X93671535Y-121450500D01*
X94128466Y-121450500D01*
X94128467Y-121450499D01*
X94331420Y-121410130D01*
X94522598Y-121330941D01*
X94694655Y-121215977D01*
X94840977Y-121069655D01*
X94955941Y-120897598D01*
X95035130Y-120706420D01*
X95075500Y-120503465D01*
X95075500Y-120296535D01*
X95075499Y-120296530D01*
X99524500Y-120296530D01*
X99524500Y-120503469D01*
X99564868Y-120706412D01*
X99564870Y-120706420D01*
X99644058Y-120897596D01*
X99759024Y-121069657D01*
X99905342Y-121215975D01*
X99905345Y-121215977D01*
X100077402Y-121330941D01*
X100268580Y-121410130D01*
X100471530Y-121450499D01*
X100471534Y-121450500D01*
X100471535Y-121450500D01*
X100928466Y-121450500D01*
X100928467Y-121450499D01*
X101131420Y-121410130D01*
X101322598Y-121330941D01*
X101494655Y-121215977D01*
X101640977Y-121069655D01*
X101755941Y-120897598D01*
X101835130Y-120706420D01*
X101875500Y-120503465D01*
X101875500Y-120296535D01*
X101875499Y-120296530D01*
X106324500Y-120296530D01*
X106324500Y-120503469D01*
X106364868Y-120706412D01*
X106364870Y-120706420D01*
X106444058Y-120897596D01*
X106559024Y-121069657D01*
X106705342Y-121215975D01*
X106705345Y-121215977D01*
X106877402Y-121330941D01*
X107068580Y-121410130D01*
X107271530Y-121450499D01*
X107271534Y-121450500D01*
X107271535Y-121450500D01*
X107728466Y-121450500D01*
X107728467Y-121450499D01*
X107931420Y-121410130D01*
X108122598Y-121330941D01*
X108294655Y-121215977D01*
X108440977Y-121069655D01*
X108555941Y-120897598D01*
X108635130Y-120706420D01*
X108675500Y-120503465D01*
X108675500Y-120296535D01*
X108635130Y-120093580D01*
X108555941Y-119902402D01*
X108440977Y-119730345D01*
X108440975Y-119730342D01*
X108294657Y-119584024D01*
X108208626Y-119526541D01*
X108122598Y-119469059D01*
X107931420Y-119389870D01*
X107931412Y-119389868D01*
X107728469Y-119349500D01*
X107728465Y-119349500D01*
X107271535Y-119349500D01*
X107271530Y-119349500D01*
X107068587Y-119389868D01*
X107068579Y-119389870D01*
X106877403Y-119469058D01*
X106705342Y-119584024D01*
X106559024Y-119730342D01*
X106444058Y-119902403D01*
X106364870Y-120093579D01*
X106364868Y-120093587D01*
X106324500Y-120296530D01*
X101875499Y-120296530D01*
X101835130Y-120093580D01*
X101755941Y-119902402D01*
X101640977Y-119730345D01*
X101640975Y-119730342D01*
X101494657Y-119584024D01*
X101408626Y-119526541D01*
X101322598Y-119469059D01*
X101131420Y-119389870D01*
X101131412Y-119389868D01*
X100928469Y-119349500D01*
X100928465Y-119349500D01*
X100471535Y-119349500D01*
X100471530Y-119349500D01*
X100268587Y-119389868D01*
X100268579Y-119389870D01*
X100077403Y-119469058D01*
X99905342Y-119584024D01*
X99759024Y-119730342D01*
X99644058Y-119902403D01*
X99564870Y-120093579D01*
X99564868Y-120093587D01*
X99524500Y-120296530D01*
X95075499Y-120296530D01*
X95035130Y-120093580D01*
X94955941Y-119902402D01*
X94840977Y-119730345D01*
X94840975Y-119730342D01*
X94694657Y-119584024D01*
X94608626Y-119526541D01*
X94522598Y-119469059D01*
X94331420Y-119389870D01*
X94331412Y-119389868D01*
X94128469Y-119349500D01*
X94128465Y-119349500D01*
X93671535Y-119349500D01*
X93671530Y-119349500D01*
X93468587Y-119389868D01*
X93468579Y-119389870D01*
X93277403Y-119469058D01*
X93105342Y-119584024D01*
X92959024Y-119730342D01*
X92844058Y-119902403D01*
X92764870Y-120093579D01*
X92764868Y-120093587D01*
X92724500Y-120296530D01*
X88275499Y-120296530D01*
X88235130Y-120093580D01*
X88155941Y-119902402D01*
X88040977Y-119730345D01*
X88040975Y-119730342D01*
X87894657Y-119584024D01*
X87808626Y-119526541D01*
X87722598Y-119469059D01*
X87531420Y-119389870D01*
X87531412Y-119389868D01*
X87328469Y-119349500D01*
X87328465Y-119349500D01*
X86871535Y-119349500D01*
X86871530Y-119349500D01*
X86668587Y-119389868D01*
X86668579Y-119389870D01*
X86477403Y-119469058D01*
X86305342Y-119584024D01*
X86159024Y-119730342D01*
X86044058Y-119902403D01*
X85964870Y-120093579D01*
X85964868Y-120093587D01*
X85924500Y-120296530D01*
X78000000Y-120296530D01*
X78000000Y-116674500D01*
X78019685Y-116607461D01*
X78072489Y-116561706D01*
X78124000Y-116550500D01*
X78189560Y-116550500D01*
X78189562Y-116550500D01*
X78265989Y-116530021D01*
X78334511Y-116490460D01*
X78390460Y-116434511D01*
X78588652Y-116236319D01*
X78649975Y-116202834D01*
X78676333Y-116200000D01*
X79474914Y-116200000D01*
X79523113Y-116209751D01*
G37*
%TD.AperFunction*%
%TD*%
%TA.AperFunction,Conductor*%
%TO.N,GND*%
G36*
X91893039Y-74520185D02*
G01*
X91938794Y-74572989D01*
X91950000Y-74624500D01*
X91950000Y-76900000D01*
X94500000Y-79450000D01*
X97750000Y-79450000D01*
X119522554Y-79450000D01*
X119589593Y-79469685D01*
X119635348Y-79522489D01*
X119644918Y-79553931D01*
X119660570Y-79649399D01*
X119674126Y-79732086D01*
X119674128Y-79732094D01*
X119772768Y-80087365D01*
X119772770Y-80087371D01*
X119909255Y-80429926D01*
X119909261Y-80429938D01*
X120081973Y-80755708D01*
X120081976Y-80755713D01*
X120081978Y-80755716D01*
X120288910Y-81060917D01*
X120527627Y-81341956D01*
X120795330Y-81595538D01*
X121088881Y-81818690D01*
X121404838Y-82008795D01*
X121404840Y-82008796D01*
X121404842Y-82008797D01*
X121404846Y-82008799D01*
X121739486Y-82163620D01*
X121739497Y-82163625D01*
X122088934Y-82281364D01*
X122449052Y-82360632D01*
X122815630Y-82400500D01*
X122815636Y-82400500D01*
X123184364Y-82400500D01*
X123184370Y-82400500D01*
X123550948Y-82360632D01*
X123911066Y-82281364D01*
X124260503Y-82163625D01*
X124595162Y-82008795D01*
X124911119Y-81818690D01*
X125204670Y-81595538D01*
X125472373Y-81341956D01*
X125711090Y-81060917D01*
X125918022Y-80755716D01*
X126090743Y-80429930D01*
X126227227Y-80087379D01*
X126325875Y-79732081D01*
X126355080Y-79553935D01*
X126385350Y-79490968D01*
X126444861Y-79454358D01*
X126477446Y-79450000D01*
X127375500Y-79450000D01*
X127442539Y-79469685D01*
X127488294Y-79522489D01*
X127499500Y-79574000D01*
X127499500Y-96763034D01*
X127479815Y-96830073D01*
X127427011Y-96875828D01*
X127357853Y-96885772D01*
X127294297Y-96856747D01*
X127287819Y-96850715D01*
X125833072Y-95395969D01*
X125827040Y-95389491D01*
X125811688Y-95371774D01*
X125798049Y-95356033D01*
X125798047Y-95356032D01*
X125798048Y-95356032D01*
X125795511Y-95354402D01*
X125783102Y-95344402D01*
X125783060Y-95344458D01*
X125776617Y-95339514D01*
X125776614Y-95339511D01*
X125737103Y-95316699D01*
X125732078Y-95313636D01*
X125689070Y-95285996D01*
X125687764Y-95285400D01*
X125678843Y-95282253D01*
X125673892Y-95280202D01*
X125623233Y-95266627D01*
X125620399Y-95265831D01*
X125564774Y-95249500D01*
X125564772Y-95249500D01*
X125435228Y-95249500D01*
X125410237Y-95256837D01*
X125379582Y-95265837D01*
X125376748Y-95266632D01*
X125326111Y-95280200D01*
X125321146Y-95282257D01*
X125312230Y-95285402D01*
X125310933Y-95285994D01*
X125267930Y-95313630D01*
X125262895Y-95316699D01*
X125223387Y-95339509D01*
X125216941Y-95344456D01*
X125216899Y-95344401D01*
X125204494Y-95354397D01*
X125201955Y-95356028D01*
X125201949Y-95356033D01*
X125172969Y-95389478D01*
X125166943Y-95395951D01*
X125139515Y-95423380D01*
X125139503Y-95423396D01*
X125137279Y-95427249D01*
X125123619Y-95446433D01*
X125117116Y-95453938D01*
X125117114Y-95453941D01*
X125101576Y-95487965D01*
X125096172Y-95498450D01*
X125080200Y-95526114D01*
X125077263Y-95537074D01*
X125070289Y-95556473D01*
X125063305Y-95571767D01*
X125063302Y-95571777D01*
X125058952Y-95602028D01*
X125055991Y-95616464D01*
X125049502Y-95640684D01*
X125049501Y-95640693D01*
X125049501Y-95658899D01*
X125048239Y-95676545D01*
X125044867Y-95699999D01*
X125044867Y-95700000D01*
X125047740Y-95719979D01*
X125048239Y-95723452D01*
X125049501Y-95741099D01*
X125049501Y-95759313D01*
X125055991Y-95783535D01*
X125058952Y-95797972D01*
X125063303Y-95828225D01*
X125063304Y-95828230D01*
X125070286Y-95843518D01*
X125077265Y-95862932D01*
X125080201Y-95873887D01*
X125091793Y-95893966D01*
X125096166Y-95901539D01*
X125101573Y-95912026D01*
X125117117Y-95946062D01*
X125117118Y-95946063D01*
X125123609Y-95953555D01*
X125137283Y-95972756D01*
X125139509Y-95976612D01*
X125139510Y-95976613D01*
X125139511Y-95976614D01*
X125166945Y-96004048D01*
X125172951Y-96010499D01*
X125201951Y-96043967D01*
X125204488Y-96045597D01*
X125225126Y-96062229D01*
X126613181Y-97450284D01*
X126646666Y-97511607D01*
X126649500Y-97537965D01*
X126649500Y-98624552D01*
X126629815Y-98691591D01*
X126577011Y-98737346D01*
X126507853Y-98747290D01*
X126463501Y-98731940D01*
X126437118Y-98716708D01*
X126432078Y-98713636D01*
X126389068Y-98685995D01*
X126387773Y-98685404D01*
X126378845Y-98682254D01*
X126373887Y-98680200D01*
X126323195Y-98666617D01*
X126320358Y-98665821D01*
X126264772Y-98649500D01*
X126259309Y-98649500D01*
X124240691Y-98649500D01*
X124150325Y-98673713D01*
X124150324Y-98673712D01*
X124126116Y-98680199D01*
X124126113Y-98680200D01*
X124023386Y-98739511D01*
X124023383Y-98739513D01*
X123039513Y-99723383D01*
X123039509Y-99723389D01*
X122980201Y-99826112D01*
X122980200Y-99826117D01*
X122949500Y-99940691D01*
X122949500Y-102562034D01*
X122929815Y-102629073D01*
X122913181Y-102649715D01*
X119325125Y-106237770D01*
X119304491Y-106254400D01*
X119301950Y-106256032D01*
X119301949Y-106256033D01*
X119272969Y-106289478D01*
X119266943Y-106295951D01*
X119239515Y-106323380D01*
X119239503Y-106323396D01*
X119237279Y-106327249D01*
X119223619Y-106346433D01*
X119217116Y-106353938D01*
X119217114Y-106353941D01*
X119201576Y-106387965D01*
X119196175Y-106398442D01*
X119194989Y-106400499D01*
X119180200Y-106426114D01*
X119177263Y-106437074D01*
X119170289Y-106456473D01*
X119163305Y-106471767D01*
X119163302Y-106471777D01*
X119158952Y-106502028D01*
X119155991Y-106516464D01*
X119149502Y-106540684D01*
X119149501Y-106540693D01*
X119149501Y-106558899D01*
X119148239Y-106576545D01*
X119144867Y-106599999D01*
X119148239Y-106623452D01*
X119149501Y-106641099D01*
X119149501Y-106659313D01*
X119155991Y-106683535D01*
X119158952Y-106697972D01*
X119163303Y-106728225D01*
X119163304Y-106728230D01*
X119170286Y-106743518D01*
X119177265Y-106762932D01*
X119180199Y-106773881D01*
X119180202Y-106773889D01*
X119196166Y-106801539D01*
X119201573Y-106812026D01*
X119217117Y-106846062D01*
X119217118Y-106846063D01*
X119223609Y-106853555D01*
X119237283Y-106872756D01*
X119239509Y-106876612D01*
X119239510Y-106876613D01*
X119239511Y-106876614D01*
X119266945Y-106904048D01*
X119272951Y-106910499D01*
X119301951Y-106943967D01*
X119304488Y-106945597D01*
X119316898Y-106955598D01*
X119316941Y-106955543D01*
X119323384Y-106960487D01*
X119323386Y-106960489D01*
X119362902Y-106983303D01*
X119367886Y-106986340D01*
X119410931Y-107014004D01*
X119410936Y-107014005D01*
X119410937Y-107014006D01*
X119412235Y-107014599D01*
X119421170Y-107017751D01*
X119426111Y-107019798D01*
X119426113Y-107019799D01*
X119426114Y-107019799D01*
X119426116Y-107019800D01*
X119476777Y-107033374D01*
X119479584Y-107034161D01*
X119535228Y-107050500D01*
X119625166Y-107050500D01*
X119692205Y-107070185D01*
X119737960Y-107122989D01*
X119747904Y-107192147D01*
X119718879Y-107255703D01*
X119712847Y-107262181D01*
X113915489Y-113059540D01*
X113859541Y-113115487D01*
X113859535Y-113115495D01*
X113819982Y-113184004D01*
X113819979Y-113184009D01*
X113799500Y-113260439D01*
X113799500Y-113362611D01*
X113779815Y-113429650D01*
X113769214Y-113443812D01*
X113717120Y-113503932D01*
X113717117Y-113503938D01*
X113663302Y-113621774D01*
X113644867Y-113750000D01*
X113663302Y-113878225D01*
X113711841Y-113984509D01*
X113717118Y-113996063D01*
X113801951Y-114093967D01*
X113910931Y-114164004D01*
X114035225Y-114200499D01*
X114035227Y-114200500D01*
X114035228Y-114200500D01*
X114164773Y-114200500D01*
X114164773Y-114200499D01*
X114289069Y-114164004D01*
X114398049Y-114093967D01*
X114482882Y-113996063D01*
X114536697Y-113878226D01*
X114555133Y-113750000D01*
X114536697Y-113621774D01*
X114482882Y-113503937D01*
X114482878Y-113503932D01*
X114478087Y-113496476D01*
X114479329Y-113495677D01*
X114454322Y-113440920D01*
X114464265Y-113371761D01*
X114489376Y-113335593D01*
X118935975Y-108888995D01*
X119944499Y-108888995D01*
X119971418Y-109024322D01*
X119971421Y-109024332D01*
X120024221Y-109151804D01*
X120024228Y-109151817D01*
X120100885Y-109266541D01*
X120100888Y-109266545D01*
X120198454Y-109364111D01*
X120198458Y-109364114D01*
X120313182Y-109440771D01*
X120313195Y-109440778D01*
X120440667Y-109493578D01*
X120440672Y-109493580D01*
X120440676Y-109493580D01*
X120440677Y-109493581D01*
X120576004Y-109520500D01*
X120576007Y-109520500D01*
X121813995Y-109520500D01*
X121905041Y-109502389D01*
X121949328Y-109493580D01*
X122076811Y-109440775D01*
X122191542Y-109364114D01*
X122289114Y-109266542D01*
X122365775Y-109151811D01*
X122418580Y-109024328D01*
X122441096Y-108911133D01*
X122445500Y-108888995D01*
X122445500Y-108751004D01*
X122418581Y-108615677D01*
X122418580Y-108615676D01*
X122418580Y-108615672D01*
X122418578Y-108615667D01*
X122365778Y-108488195D01*
X122365771Y-108488182D01*
X122289114Y-108373458D01*
X122289111Y-108373454D01*
X122191545Y-108275888D01*
X122191541Y-108275885D01*
X122076817Y-108199228D01*
X122076804Y-108199221D01*
X121949332Y-108146421D01*
X121949320Y-108146418D01*
X121856728Y-108128000D01*
X121794817Y-108095615D01*
X121760242Y-108034899D01*
X121763982Y-107965130D01*
X121804849Y-107908458D01*
X121848823Y-107886609D01*
X121895520Y-107874097D01*
X122013981Y-107805704D01*
X122110704Y-107708981D01*
X122179097Y-107590520D01*
X122214500Y-107458394D01*
X122214500Y-107321606D01*
X122179097Y-107189480D01*
X122179093Y-107189473D01*
X122110708Y-107071025D01*
X122110702Y-107071017D01*
X122013982Y-106974297D01*
X122013974Y-106974291D01*
X121895526Y-106905906D01*
X121895522Y-106905904D01*
X121895520Y-106905903D01*
X121763394Y-106870500D01*
X121626606Y-106870500D01*
X121494480Y-106905903D01*
X121494473Y-106905906D01*
X121376025Y-106974291D01*
X121376017Y-106974297D01*
X121279297Y-107071017D01*
X121279291Y-107071025D01*
X121210906Y-107189473D01*
X121210903Y-107189480D01*
X121175500Y-107321606D01*
X121175500Y-107458394D01*
X121193206Y-107524471D01*
X121210903Y-107590519D01*
X121210906Y-107590526D01*
X121279291Y-107708974D01*
X121279295Y-107708979D01*
X121279296Y-107708981D01*
X121376019Y-107805704D01*
X121376021Y-107805705D01*
X121376025Y-107805708D01*
X121466242Y-107857794D01*
X121494480Y-107874097D01*
X121500559Y-107875726D01*
X121560218Y-107912090D01*
X121590747Y-107974937D01*
X121582452Y-108044313D01*
X121537967Y-108098191D01*
X121471415Y-108119465D01*
X121468464Y-108119500D01*
X120576005Y-108119500D01*
X120440677Y-108146418D01*
X120440667Y-108146421D01*
X120313195Y-108199221D01*
X120313182Y-108199228D01*
X120198458Y-108275885D01*
X120198454Y-108275888D01*
X120100888Y-108373454D01*
X120100885Y-108373458D01*
X120024228Y-108488182D01*
X120024221Y-108488195D01*
X119971421Y-108615667D01*
X119971418Y-108615677D01*
X119944500Y-108751004D01*
X119944500Y-108751007D01*
X119944500Y-108888993D01*
X119944500Y-108888995D01*
X119944499Y-108888995D01*
X118935975Y-108888995D01*
X121588152Y-106236819D01*
X121649475Y-106203334D01*
X121675833Y-106200500D01*
X121714773Y-106200500D01*
X121714773Y-106200499D01*
X121839069Y-106164004D01*
X121948049Y-106093967D01*
X122032882Y-105996063D01*
X122086697Y-105878226D01*
X122105133Y-105750000D01*
X122086697Y-105621774D01*
X122032882Y-105503937D01*
X121948049Y-105406033D01*
X121839069Y-105335996D01*
X121839067Y-105335995D01*
X121839065Y-105335994D01*
X121778341Y-105318164D01*
X121719563Y-105280390D01*
X121690538Y-105216834D01*
X121700482Y-105147675D01*
X121725592Y-105111509D01*
X123760490Y-103076613D01*
X123819799Y-102973886D01*
X123823995Y-102958226D01*
X123827274Y-102945990D01*
X123827274Y-102945988D01*
X123840447Y-102896826D01*
X123850500Y-102859309D01*
X123850500Y-100237965D01*
X123870185Y-100170926D01*
X123886819Y-100150284D01*
X123960093Y-100077010D01*
X124071965Y-99965137D01*
X124133286Y-99931654D01*
X124202977Y-99936638D01*
X124258911Y-99978509D01*
X124283328Y-100043974D01*
X124281262Y-100077010D01*
X124274500Y-100111007D01*
X124274500Y-100248993D01*
X124274500Y-100248995D01*
X124274499Y-100248995D01*
X124301418Y-100384322D01*
X124301421Y-100384332D01*
X124354221Y-100511804D01*
X124354228Y-100511817D01*
X124430885Y-100626541D01*
X124430888Y-100626545D01*
X124528454Y-100724111D01*
X124528458Y-100724114D01*
X124643182Y-100800771D01*
X124643195Y-100800778D01*
X124770667Y-100853578D01*
X124770672Y-100853580D01*
X124770676Y-100853580D01*
X124770677Y-100853581D01*
X124906004Y-100880500D01*
X124906007Y-100880500D01*
X125843995Y-100880500D01*
X125935041Y-100862389D01*
X125979328Y-100853580D01*
X126106811Y-100800775D01*
X126221542Y-100724114D01*
X126319114Y-100626542D01*
X126395775Y-100511811D01*
X126410938Y-100475201D01*
X126454779Y-100420799D01*
X126521073Y-100398733D01*
X126588772Y-100416012D01*
X126636383Y-100467148D01*
X126649500Y-100522654D01*
X126649500Y-102662035D01*
X126629815Y-102729074D01*
X126613181Y-102749716D01*
X123239513Y-106123383D01*
X123239511Y-106123386D01*
X123180199Y-106226114D01*
X123177150Y-106237498D01*
X123177150Y-106237499D01*
X123149500Y-106340691D01*
X123149500Y-108812034D01*
X123129815Y-108879073D01*
X123113181Y-108899715D01*
X120875125Y-111137770D01*
X120854491Y-111154400D01*
X120851950Y-111156032D01*
X120851949Y-111156033D01*
X120822969Y-111189478D01*
X120816943Y-111195951D01*
X120789515Y-111223380D01*
X120789503Y-111223396D01*
X120787279Y-111227249D01*
X120773619Y-111246433D01*
X120767116Y-111253938D01*
X120767114Y-111253941D01*
X120751576Y-111287965D01*
X120746172Y-111298450D01*
X120730200Y-111326114D01*
X120727263Y-111337074D01*
X120720289Y-111356473D01*
X120713305Y-111371767D01*
X120713302Y-111371777D01*
X120708952Y-111402028D01*
X120705991Y-111416464D01*
X120699502Y-111440684D01*
X120699501Y-111440693D01*
X120699501Y-111458899D01*
X120698239Y-111476545D01*
X120694867Y-111499999D01*
X120698239Y-111523452D01*
X120699501Y-111541099D01*
X120699501Y-111559313D01*
X120705991Y-111583535D01*
X120708952Y-111597972D01*
X120713303Y-111628225D01*
X120713304Y-111628230D01*
X120720286Y-111643518D01*
X120727265Y-111662932D01*
X120730199Y-111673881D01*
X120730202Y-111673889D01*
X120746166Y-111701539D01*
X120751573Y-111712026D01*
X120767117Y-111746062D01*
X120767118Y-111746063D01*
X120773609Y-111753555D01*
X120787283Y-111772756D01*
X120789509Y-111776612D01*
X120789510Y-111776613D01*
X120789511Y-111776614D01*
X120816945Y-111804048D01*
X120822951Y-111810499D01*
X120851951Y-111843967D01*
X120854488Y-111845597D01*
X120866898Y-111855598D01*
X120866941Y-111855543D01*
X120873384Y-111860487D01*
X120873386Y-111860489D01*
X120912896Y-111883300D01*
X120917886Y-111886340D01*
X120960931Y-111914004D01*
X120960936Y-111914005D01*
X120960937Y-111914006D01*
X120962235Y-111914599D01*
X120971170Y-111917751D01*
X120976111Y-111919798D01*
X120976113Y-111919799D01*
X120976114Y-111919799D01*
X120976116Y-111919800D01*
X121026777Y-111933374D01*
X121029584Y-111934161D01*
X121085228Y-111950500D01*
X121214772Y-111950500D01*
X121270423Y-111934159D01*
X121273218Y-111933374D01*
X121323887Y-111919799D01*
X121323899Y-111919791D01*
X121328823Y-111917753D01*
X121337764Y-111914599D01*
X121339065Y-111914005D01*
X121339069Y-111914004D01*
X121382081Y-111886360D01*
X121387085Y-111883310D01*
X121426614Y-111860489D01*
X121426616Y-111860487D01*
X121433069Y-111855536D01*
X121433112Y-111855592D01*
X121445519Y-111845592D01*
X121448049Y-111843967D01*
X121477055Y-111810490D01*
X121483060Y-111804041D01*
X123960489Y-109326614D01*
X124019799Y-109223887D01*
X124028500Y-109191413D01*
X124050500Y-109109309D01*
X124050500Y-109021861D01*
X124070185Y-108954822D01*
X124122989Y-108909067D01*
X124192147Y-108899123D01*
X124255703Y-108928148D01*
X124293477Y-108986926D01*
X124296117Y-108997670D01*
X124301418Y-109024320D01*
X124301421Y-109024332D01*
X124354221Y-109151804D01*
X124354228Y-109151817D01*
X124430885Y-109266541D01*
X124430888Y-109266545D01*
X124528454Y-109364111D01*
X124528458Y-109364114D01*
X124643182Y-109440771D01*
X124643195Y-109440778D01*
X124770667Y-109493578D01*
X124770672Y-109493580D01*
X124770676Y-109493580D01*
X124770677Y-109493581D01*
X124906004Y-109520500D01*
X124906007Y-109520500D01*
X125843995Y-109520500D01*
X125935041Y-109502389D01*
X125979328Y-109493580D01*
X126106811Y-109440775D01*
X126221542Y-109364114D01*
X126319114Y-109266542D01*
X126395775Y-109151811D01*
X126448580Y-109024328D01*
X126471096Y-108911133D01*
X126475500Y-108888995D01*
X126475500Y-108751004D01*
X126448581Y-108615677D01*
X126448580Y-108615676D01*
X126448580Y-108615672D01*
X126448578Y-108615667D01*
X126395778Y-108488195D01*
X126395771Y-108488182D01*
X126319114Y-108373458D01*
X126319111Y-108373454D01*
X126221545Y-108275888D01*
X126221541Y-108275885D01*
X126106817Y-108199228D01*
X126106804Y-108199221D01*
X125979332Y-108146421D01*
X125979322Y-108146418D01*
X125843995Y-108119500D01*
X125843993Y-108119500D01*
X124906007Y-108119500D01*
X124906005Y-108119500D01*
X124770677Y-108146418D01*
X124770667Y-108146421D01*
X124643195Y-108199221D01*
X124643182Y-108199228D01*
X124528458Y-108275885D01*
X124528454Y-108275888D01*
X124430888Y-108373454D01*
X124430885Y-108373458D01*
X124354228Y-108488182D01*
X124354221Y-108488195D01*
X124301421Y-108615667D01*
X124301418Y-108615677D01*
X124296117Y-108642330D01*
X124263732Y-108704240D01*
X124203016Y-108738815D01*
X124133247Y-108735075D01*
X124076575Y-108694208D01*
X124050994Y-108629190D01*
X124050500Y-108618138D01*
X124050500Y-106637965D01*
X124070185Y-106570926D01*
X124086819Y-106550284D01*
X127287819Y-103349284D01*
X127349142Y-103315799D01*
X127418834Y-103320783D01*
X127474767Y-103362655D01*
X127499184Y-103428119D01*
X127499500Y-103436965D01*
X127499500Y-126241324D01*
X127479815Y-126308363D01*
X127463181Y-126329005D01*
X125329005Y-128463181D01*
X125267682Y-128496666D01*
X125241324Y-128499500D01*
X110329500Y-128499500D01*
X110262461Y-128479815D01*
X110216706Y-128427011D01*
X110205500Y-128375500D01*
X110205500Y-124845730D01*
X112324500Y-124845730D01*
X112324500Y-126154269D01*
X112327353Y-126184699D01*
X112327353Y-126184701D01*
X112372206Y-126312880D01*
X112372207Y-126312882D01*
X112452850Y-126422150D01*
X112562118Y-126502793D01*
X112604845Y-126517744D01*
X112690299Y-126547646D01*
X112720730Y-126550500D01*
X112720734Y-126550500D01*
X114279270Y-126550500D01*
X114309699Y-126547646D01*
X114309701Y-126547646D01*
X114373790Y-126525219D01*
X114437882Y-126502793D01*
X114547150Y-126422150D01*
X114627793Y-126312882D01*
X114652832Y-126241324D01*
X114672646Y-126184701D01*
X114672646Y-126184699D01*
X114675500Y-126154269D01*
X114675500Y-124845730D01*
X114672646Y-124815300D01*
X114672646Y-124815298D01*
X114627793Y-124687119D01*
X114627792Y-124687117D01*
X114547150Y-124577850D01*
X114437882Y-124497207D01*
X114437880Y-124497206D01*
X114309700Y-124452353D01*
X114279270Y-124449500D01*
X114279266Y-124449500D01*
X112720734Y-124449500D01*
X112720730Y-124449500D01*
X112690300Y-124452353D01*
X112690298Y-124452353D01*
X112562119Y-124497206D01*
X112562117Y-124497207D01*
X112452850Y-124577850D01*
X112372207Y-124687117D01*
X112372206Y-124687119D01*
X112327353Y-124815298D01*
X112327353Y-124815300D01*
X112324500Y-124845730D01*
X110205500Y-124845730D01*
X110205500Y-123999997D01*
X119594506Y-123999997D01*
X119594506Y-124000002D01*
X119614469Y-124368196D01*
X119614470Y-124368213D01*
X119674122Y-124732068D01*
X119674128Y-124732094D01*
X119772768Y-125087365D01*
X119772770Y-125087371D01*
X119909255Y-125429926D01*
X119909261Y-125429938D01*
X120081973Y-125755708D01*
X120081979Y-125755717D01*
X120288909Y-126060916D01*
X120502930Y-126312880D01*
X120527627Y-126341956D01*
X120795330Y-126595538D01*
X121088881Y-126818690D01*
X121404838Y-127008795D01*
X121404840Y-127008796D01*
X121404842Y-127008797D01*
X121404846Y-127008799D01*
X121739486Y-127163620D01*
X121739497Y-127163625D01*
X122088934Y-127281364D01*
X122449052Y-127360632D01*
X122815630Y-127400500D01*
X122815636Y-127400500D01*
X123184364Y-127400500D01*
X123184370Y-127400500D01*
X123550948Y-127360632D01*
X123911066Y-127281364D01*
X124260503Y-127163625D01*
X124595162Y-127008795D01*
X124911119Y-126818690D01*
X125204670Y-126595538D01*
X125472373Y-126341956D01*
X125711090Y-126060917D01*
X125918022Y-125755716D01*
X126090743Y-125429930D01*
X126227227Y-125087379D01*
X126325875Y-124732081D01*
X126364381Y-124497206D01*
X126385529Y-124368213D01*
X126385529Y-124368210D01*
X126385531Y-124368199D01*
X126405494Y-124000000D01*
X126385531Y-123631801D01*
X126325875Y-123267919D01*
X126227227Y-122912621D01*
X126090743Y-122570070D01*
X125918022Y-122244284D01*
X125711090Y-121939083D01*
X125472373Y-121658044D01*
X125204670Y-121404462D01*
X124911119Y-121181310D01*
X124595162Y-120991205D01*
X124595161Y-120991204D01*
X124595157Y-120991202D01*
X124595153Y-120991200D01*
X124260513Y-120836379D01*
X124260508Y-120836377D01*
X124260503Y-120836375D01*
X124090172Y-120778983D01*
X123911065Y-120718635D01*
X123550946Y-120639367D01*
X123184371Y-120599500D01*
X123184370Y-120599500D01*
X122815630Y-120599500D01*
X122815628Y-120599500D01*
X122449053Y-120639367D01*
X122088934Y-120718635D01*
X121828424Y-120806412D01*
X121739497Y-120836375D01*
X121739494Y-120836376D01*
X121739486Y-120836379D01*
X121404846Y-120991200D01*
X121404842Y-120991202D01*
X121169538Y-121132779D01*
X121088881Y-121181310D01*
X120988410Y-121257685D01*
X120795330Y-121404461D01*
X120795330Y-121404462D01*
X120527626Y-121658044D01*
X120288909Y-121939083D01*
X120081979Y-122244282D01*
X120081973Y-122244291D01*
X119909261Y-122570061D01*
X119909255Y-122570073D01*
X119772770Y-122912628D01*
X119772768Y-122912634D01*
X119674128Y-123267905D01*
X119674122Y-123267931D01*
X119614470Y-123631786D01*
X119614469Y-123631803D01*
X119594506Y-123999997D01*
X110205500Y-123999997D01*
X110205500Y-120396530D01*
X112324500Y-120396530D01*
X112324500Y-120603469D01*
X112364868Y-120806412D01*
X112364870Y-120806420D01*
X112444058Y-120997596D01*
X112559024Y-121169657D01*
X112705342Y-121315975D01*
X112705345Y-121315977D01*
X112877402Y-121430941D01*
X113068580Y-121510130D01*
X113271530Y-121550499D01*
X113271534Y-121550500D01*
X113271535Y-121550500D01*
X113728466Y-121550500D01*
X113728467Y-121550499D01*
X113931420Y-121510130D01*
X114122598Y-121430941D01*
X114294655Y-121315977D01*
X114440977Y-121169655D01*
X114555941Y-120997598D01*
X114635130Y-120806420D01*
X114675500Y-120603465D01*
X114675500Y-120396535D01*
X114635130Y-120193580D01*
X114555941Y-120002402D01*
X114440977Y-119830345D01*
X114440975Y-119830342D01*
X114294657Y-119684024D01*
X114208589Y-119626516D01*
X114122598Y-119569059D01*
X114000258Y-119518384D01*
X113931420Y-119489870D01*
X113931412Y-119489868D01*
X113728469Y-119449500D01*
X113728465Y-119449500D01*
X113271535Y-119449500D01*
X113271530Y-119449500D01*
X113068587Y-119489868D01*
X113068579Y-119489870D01*
X112877403Y-119569058D01*
X112705342Y-119684024D01*
X112559024Y-119830342D01*
X112444058Y-120002403D01*
X112364870Y-120193579D01*
X112364868Y-120193587D01*
X112324500Y-120396530D01*
X110205500Y-120396530D01*
X110205500Y-119751361D01*
X110204321Y-119729381D01*
X110201488Y-119703034D01*
X110201487Y-119703032D01*
X110195535Y-119684023D01*
X110177529Y-119626518D01*
X110144044Y-119565195D01*
X110108991Y-119518371D01*
X110040120Y-119449500D01*
X109381634Y-118791013D01*
X109381633Y-118791012D01*
X109365283Y-118776325D01*
X109365269Y-118776313D01*
X109344620Y-118759672D01*
X109273575Y-118722509D01*
X109206543Y-118702826D01*
X109205894Y-118702732D01*
X109148638Y-118694500D01*
X109148634Y-118694500D01*
X108798522Y-118694500D01*
X108731483Y-118674815D01*
X108685728Y-118622011D01*
X108675063Y-118558928D01*
X108675500Y-118554265D01*
X108675500Y-117896530D01*
X112324500Y-117896530D01*
X112324500Y-118103469D01*
X112364868Y-118306412D01*
X112364870Y-118306420D01*
X112444059Y-118497598D01*
X112481923Y-118554266D01*
X112559024Y-118669657D01*
X112705342Y-118815975D01*
X112705345Y-118815977D01*
X112877402Y-118930941D01*
X113068580Y-119010130D01*
X113271530Y-119050499D01*
X113271534Y-119050500D01*
X113271535Y-119050500D01*
X113728466Y-119050500D01*
X113728467Y-119050499D01*
X113931420Y-119010130D01*
X114122598Y-118930941D01*
X114294655Y-118815977D01*
X114440977Y-118669655D01*
X114555941Y-118497598D01*
X114635130Y-118306420D01*
X114675500Y-118103465D01*
X114675500Y-117896535D01*
X114635130Y-117693580D01*
X114555941Y-117502402D01*
X114440977Y-117330345D01*
X114440975Y-117330342D01*
X114294657Y-117184024D01*
X114149624Y-117087117D01*
X114122598Y-117069059D01*
X113931420Y-116989870D01*
X113931412Y-116989868D01*
X113728469Y-116949500D01*
X113728465Y-116949500D01*
X113271535Y-116949500D01*
X113271530Y-116949500D01*
X113068587Y-116989868D01*
X113068579Y-116989870D01*
X112877403Y-117069058D01*
X112705342Y-117184024D01*
X112559024Y-117330342D01*
X112444058Y-117502403D01*
X112364870Y-117693579D01*
X112364868Y-117693587D01*
X112324500Y-117896530D01*
X108675500Y-117896530D01*
X108675500Y-117245733D01*
X108672689Y-117215764D01*
X108686027Y-117147179D01*
X108708463Y-117116506D01*
X109640460Y-116184511D01*
X109680022Y-116115988D01*
X109700500Y-116039562D01*
X109700500Y-115960438D01*
X109700500Y-112750833D01*
X109720185Y-112683794D01*
X109736819Y-112663152D01*
X110086790Y-112313181D01*
X110840460Y-111559511D01*
X110842806Y-111555448D01*
X110880021Y-111490989D01*
X110900500Y-111414562D01*
X110900500Y-109400000D01*
X113644867Y-109400000D01*
X113663302Y-109528225D01*
X113714558Y-109640458D01*
X113717118Y-109646063D01*
X113768640Y-109705523D01*
X113801369Y-109743296D01*
X113801951Y-109743967D01*
X113910931Y-109814004D01*
X113945544Y-109824167D01*
X114035225Y-109850499D01*
X114035227Y-109850500D01*
X114035228Y-109850500D01*
X114164773Y-109850500D01*
X114164773Y-109850499D01*
X114289069Y-109814004D01*
X114398049Y-109743967D01*
X114398374Y-109743591D01*
X114398631Y-109743296D01*
X114399379Y-109742815D01*
X114404754Y-109738158D01*
X114405423Y-109738930D01*
X114457409Y-109705523D01*
X114492343Y-109700500D01*
X115039560Y-109700500D01*
X115039562Y-109700500D01*
X115115989Y-109680021D01*
X115184511Y-109640460D01*
X115240460Y-109584511D01*
X121588152Y-103236819D01*
X121649475Y-103203334D01*
X121675833Y-103200500D01*
X121714773Y-103200500D01*
X121714773Y-103200499D01*
X121839069Y-103164004D01*
X121948049Y-103093967D01*
X122032882Y-102996063D01*
X122086697Y-102878226D01*
X122105133Y-102750000D01*
X122086697Y-102621774D01*
X122032882Y-102503937D01*
X121948049Y-102406033D01*
X121839069Y-102335996D01*
X121839066Y-102335995D01*
X121831608Y-102331202D01*
X121832435Y-102329914D01*
X121787079Y-102290609D01*
X121767398Y-102223568D01*
X121787086Y-102156530D01*
X121839893Y-102110778D01*
X121859300Y-102103801D01*
X121895520Y-102094097D01*
X122013981Y-102025704D01*
X122110704Y-101928981D01*
X122179097Y-101810520D01*
X122214500Y-101678394D01*
X122214500Y-101541606D01*
X122179097Y-101409480D01*
X122179093Y-101409473D01*
X122110708Y-101291025D01*
X122110702Y-101291017D01*
X122013982Y-101194297D01*
X122013974Y-101194291D01*
X121895526Y-101125906D01*
X121895522Y-101125904D01*
X121895520Y-101125903D01*
X121895518Y-101125902D01*
X121895515Y-101125901D01*
X121848824Y-101113390D01*
X121789164Y-101077025D01*
X121758636Y-101014177D01*
X121766931Y-100944802D01*
X121811417Y-100890925D01*
X121856723Y-100872000D01*
X121949328Y-100853580D01*
X122076811Y-100800775D01*
X122191542Y-100724114D01*
X122289114Y-100626542D01*
X122365775Y-100511811D01*
X122418580Y-100384328D01*
X122445500Y-100248993D01*
X122445500Y-100111007D01*
X122445500Y-100111004D01*
X122418581Y-99975677D01*
X122418580Y-99975676D01*
X122418580Y-99975672D01*
X122408004Y-99950139D01*
X122365778Y-99848195D01*
X122365771Y-99848182D01*
X122289114Y-99733458D01*
X122289111Y-99733454D01*
X122191545Y-99635888D01*
X122191541Y-99635885D01*
X122076817Y-99559228D01*
X122076804Y-99559221D01*
X121949332Y-99506421D01*
X121949322Y-99506418D01*
X121813995Y-99479500D01*
X121813993Y-99479500D01*
X120576007Y-99479500D01*
X120576005Y-99479500D01*
X120440677Y-99506418D01*
X120440667Y-99506421D01*
X120313195Y-99559221D01*
X120313182Y-99559228D01*
X120198458Y-99635885D01*
X120198454Y-99635888D01*
X120100888Y-99733454D01*
X120100885Y-99733458D01*
X120024228Y-99848182D01*
X120024221Y-99848195D01*
X119971421Y-99975667D01*
X119971418Y-99975677D01*
X119944500Y-100111004D01*
X119944500Y-100111007D01*
X119944500Y-100248993D01*
X119944500Y-100248995D01*
X119944499Y-100248995D01*
X119971418Y-100384322D01*
X119971421Y-100384332D01*
X120024221Y-100511804D01*
X120024228Y-100511817D01*
X120100885Y-100626541D01*
X120100888Y-100626545D01*
X120198454Y-100724111D01*
X120198458Y-100724114D01*
X120313182Y-100800771D01*
X120313195Y-100800778D01*
X120440667Y-100853578D01*
X120440672Y-100853580D01*
X120440676Y-100853580D01*
X120440677Y-100853581D01*
X120576004Y-100880500D01*
X121468464Y-100880500D01*
X121535503Y-100900185D01*
X121581258Y-100952989D01*
X121591202Y-101022147D01*
X121562177Y-101085703D01*
X121503399Y-101123477D01*
X121500603Y-101124262D01*
X121497365Y-101125129D01*
X121494478Y-101125903D01*
X121494473Y-101125906D01*
X121376025Y-101194291D01*
X121376017Y-101194297D01*
X121279297Y-101291017D01*
X121279291Y-101291025D01*
X121210906Y-101409473D01*
X121210903Y-101409480D01*
X121175500Y-101541606D01*
X121175500Y-101678394D01*
X121207534Y-101797944D01*
X121210903Y-101810519D01*
X121210906Y-101810526D01*
X121279291Y-101928974D01*
X121279295Y-101928979D01*
X121279296Y-101928981D01*
X121376019Y-102025704D01*
X121376021Y-102025705D01*
X121376025Y-102025708D01*
X121494475Y-102094095D01*
X121497561Y-102095373D01*
X121499765Y-102097148D01*
X121501518Y-102098161D01*
X121501360Y-102098434D01*
X121551967Y-102139211D01*
X121574035Y-102205504D01*
X121556759Y-102273204D01*
X121505624Y-102320817D01*
X121485052Y-102328912D01*
X121460935Y-102335993D01*
X121351950Y-102406033D01*
X121267118Y-102503937D01*
X121267117Y-102503938D01*
X121213302Y-102621774D01*
X121195675Y-102744376D01*
X121166650Y-102807931D01*
X121160618Y-102814409D01*
X114911848Y-109063181D01*
X114850525Y-109096666D01*
X114824167Y-109099500D01*
X114492343Y-109099500D01*
X114425304Y-109079815D01*
X114398631Y-109056704D01*
X114398050Y-109056034D01*
X114398049Y-109056033D01*
X114289069Y-108985996D01*
X114289065Y-108985994D01*
X114289064Y-108985994D01*
X114164774Y-108949500D01*
X114164772Y-108949500D01*
X114035228Y-108949500D01*
X114035226Y-108949500D01*
X113910935Y-108985994D01*
X113910932Y-108985995D01*
X113910931Y-108985996D01*
X113892766Y-108997670D01*
X113801950Y-109056033D01*
X113717118Y-109153937D01*
X113717117Y-109153938D01*
X113663302Y-109271774D01*
X113644867Y-109400000D01*
X110900500Y-109400000D01*
X110900500Y-105447223D01*
X110920185Y-105380184D01*
X110972989Y-105334429D01*
X111042147Y-105324485D01*
X111059434Y-105328246D01*
X111135225Y-105350499D01*
X111135227Y-105350500D01*
X111135228Y-105350500D01*
X111264773Y-105350500D01*
X111264773Y-105350499D01*
X111389069Y-105314004D01*
X111498049Y-105243967D01*
X111582882Y-105146063D01*
X111636697Y-105028226D01*
X111655133Y-104900000D01*
X111636697Y-104771774D01*
X111582882Y-104653937D01*
X111582880Y-104653935D01*
X111582879Y-104653932D01*
X111530786Y-104593812D01*
X111501762Y-104530256D01*
X111500500Y-104512611D01*
X111500500Y-97425833D01*
X111520185Y-97358794D01*
X111536819Y-97338152D01*
X111838152Y-97036819D01*
X111899475Y-97003334D01*
X111925833Y-97000500D01*
X111964773Y-97000500D01*
X111964773Y-97000499D01*
X112089069Y-96964004D01*
X112198049Y-96893967D01*
X112282882Y-96796063D01*
X112299048Y-96760662D01*
X112344801Y-96707860D01*
X112411840Y-96688175D01*
X112478880Y-96707859D01*
X112499523Y-96724494D01*
X112863181Y-97088152D01*
X112896666Y-97149475D01*
X112899500Y-97175833D01*
X112899500Y-104189562D01*
X112912010Y-104236250D01*
X112919979Y-104265989D01*
X112930383Y-104284008D01*
X112930384Y-104284012D01*
X112930385Y-104284012D01*
X112959539Y-104334509D01*
X112959541Y-104334512D01*
X114510618Y-105885589D01*
X114544103Y-105946912D01*
X114545675Y-105955623D01*
X114563302Y-106078225D01*
X114594283Y-106146062D01*
X114617118Y-106196063D01*
X114667667Y-106254400D01*
X114700967Y-106292832D01*
X114701951Y-106293967D01*
X114810931Y-106364004D01*
X114935225Y-106400499D01*
X114935227Y-106400500D01*
X114935228Y-106400500D01*
X115064773Y-106400500D01*
X115064773Y-106400499D01*
X115189069Y-106364004D01*
X115298049Y-106293967D01*
X115382882Y-106196063D01*
X115436697Y-106078226D01*
X115455133Y-105950000D01*
X115436697Y-105821774D01*
X115382882Y-105703937D01*
X115298049Y-105606033D01*
X115189069Y-105535996D01*
X115189065Y-105535994D01*
X115189064Y-105535994D01*
X115064774Y-105499500D01*
X115064772Y-105499500D01*
X115025833Y-105499500D01*
X114958794Y-105479815D01*
X114938152Y-105463181D01*
X113536819Y-104061848D01*
X113530349Y-104050000D01*
X116994867Y-104050000D01*
X117013302Y-104178225D01*
X117061614Y-104284012D01*
X117067118Y-104296063D01*
X117151951Y-104393967D01*
X117260931Y-104464004D01*
X117309368Y-104478226D01*
X117385225Y-104500499D01*
X117385227Y-104500500D01*
X117385228Y-104500500D01*
X117514773Y-104500500D01*
X117514773Y-104500499D01*
X117639069Y-104464004D01*
X117748049Y-104393967D01*
X117832882Y-104296063D01*
X117886697Y-104178226D01*
X117905133Y-104050000D01*
X117886697Y-103921774D01*
X117832882Y-103803937D01*
X117748049Y-103706033D01*
X117639069Y-103635996D01*
X117639065Y-103635994D01*
X117639064Y-103635994D01*
X117514774Y-103599500D01*
X117514772Y-103599500D01*
X117385228Y-103599500D01*
X117385226Y-103599500D01*
X117260935Y-103635994D01*
X117260932Y-103635995D01*
X117260931Y-103635996D01*
X117209677Y-103668934D01*
X117151950Y-103706033D01*
X117067118Y-103803937D01*
X117067117Y-103803938D01*
X117013302Y-103921774D01*
X116994867Y-104050000D01*
X113530349Y-104050000D01*
X113503334Y-104000525D01*
X113500500Y-103974167D01*
X113500500Y-100800000D01*
X117744867Y-100800000D01*
X117763302Y-100928225D01*
X117778014Y-100960439D01*
X117817118Y-101046063D01*
X117901951Y-101143967D01*
X118010931Y-101214004D01*
X118135225Y-101250499D01*
X118135227Y-101250500D01*
X118135228Y-101250500D01*
X118264773Y-101250500D01*
X118264773Y-101250499D01*
X118389069Y-101214004D01*
X118457961Y-101169730D01*
X118525000Y-101150045D01*
X118592039Y-101169730D01*
X118660931Y-101214004D01*
X118660933Y-101214005D01*
X118785225Y-101250499D01*
X118785227Y-101250500D01*
X118785228Y-101250500D01*
X118914773Y-101250500D01*
X118914773Y-101250499D01*
X119039069Y-101214004D01*
X119148049Y-101143967D01*
X119232882Y-101046063D01*
X119286697Y-100928226D01*
X119305133Y-100800000D01*
X119286697Y-100671774D01*
X119232882Y-100553937D01*
X119148049Y-100456033D01*
X119039069Y-100385996D01*
X119039065Y-100385994D01*
X119039064Y-100385994D01*
X118914774Y-100349500D01*
X118914772Y-100349500D01*
X118785228Y-100349500D01*
X118785226Y-100349500D01*
X118660933Y-100385994D01*
X118660932Y-100385994D01*
X118592038Y-100430270D01*
X118524999Y-100449954D01*
X118457962Y-100430270D01*
X118389066Y-100385994D01*
X118264774Y-100349500D01*
X118264772Y-100349500D01*
X118135228Y-100349500D01*
X118135226Y-100349500D01*
X118010935Y-100385994D01*
X118010932Y-100385995D01*
X118010931Y-100385996D01*
X117991112Y-100398733D01*
X117901950Y-100456033D01*
X117817118Y-100553937D01*
X117817117Y-100553938D01*
X117763302Y-100671774D01*
X117744867Y-100800000D01*
X113500500Y-100800000D01*
X113500500Y-99300000D01*
X117744867Y-99300000D01*
X117763302Y-99428225D01*
X117805123Y-99519799D01*
X117817118Y-99546063D01*
X117901951Y-99643967D01*
X118010931Y-99714004D01*
X118077187Y-99733458D01*
X118135225Y-99750499D01*
X118135227Y-99750500D01*
X118135228Y-99750500D01*
X118264773Y-99750500D01*
X118264773Y-99750499D01*
X118389069Y-99714004D01*
X118457961Y-99669730D01*
X118525000Y-99650045D01*
X118592039Y-99669730D01*
X118660931Y-99714004D01*
X118660933Y-99714005D01*
X118785225Y-99750499D01*
X118785227Y-99750500D01*
X118785228Y-99750500D01*
X118914773Y-99750500D01*
X118914773Y-99750499D01*
X119039069Y-99714004D01*
X119148049Y-99643967D01*
X119232882Y-99546063D01*
X119286697Y-99428226D01*
X119305133Y-99300000D01*
X119286697Y-99171774D01*
X119232882Y-99053937D01*
X119148049Y-98956033D01*
X119039069Y-98885996D01*
X119039065Y-98885994D01*
X119039064Y-98885994D01*
X118914774Y-98849500D01*
X118914772Y-98849500D01*
X118785228Y-98849500D01*
X118785226Y-98849500D01*
X118660933Y-98885994D01*
X118660932Y-98885994D01*
X118592038Y-98930270D01*
X118524999Y-98949954D01*
X118457962Y-98930270D01*
X118389066Y-98885994D01*
X118264774Y-98849500D01*
X118264772Y-98849500D01*
X118135228Y-98849500D01*
X118135226Y-98849500D01*
X118010935Y-98885994D01*
X118010932Y-98885995D01*
X118010931Y-98885996D01*
X117959677Y-98918934D01*
X117901950Y-98956033D01*
X117817118Y-99053937D01*
X117817117Y-99053938D01*
X117763302Y-99171774D01*
X117744867Y-99300000D01*
X113500500Y-99300000D01*
X113500500Y-96960439D01*
X113499360Y-96956183D01*
X113480021Y-96884011D01*
X113458112Y-96846063D01*
X113440464Y-96815495D01*
X113440458Y-96815487D01*
X112674971Y-96050000D01*
X117844867Y-96050000D01*
X117863302Y-96178225D01*
X117912896Y-96286819D01*
X117917118Y-96296063D01*
X118001951Y-96393967D01*
X118110931Y-96464004D01*
X118137377Y-96471769D01*
X118235225Y-96500499D01*
X118235227Y-96500500D01*
X118235228Y-96500500D01*
X118364773Y-96500500D01*
X118364773Y-96500499D01*
X118489069Y-96464004D01*
X118557961Y-96419730D01*
X118625000Y-96400045D01*
X118692039Y-96419730D01*
X118760931Y-96464004D01*
X118760933Y-96464005D01*
X118885225Y-96500499D01*
X118885227Y-96500500D01*
X118885228Y-96500500D01*
X119014773Y-96500500D01*
X119014773Y-96500499D01*
X119139069Y-96464004D01*
X119207961Y-96419730D01*
X119275000Y-96400045D01*
X119342039Y-96419730D01*
X119410931Y-96464004D01*
X119410933Y-96464005D01*
X119535225Y-96500499D01*
X119535227Y-96500500D01*
X119535228Y-96500500D01*
X119664773Y-96500500D01*
X119664773Y-96500499D01*
X119789069Y-96464004D01*
X119898049Y-96393967D01*
X119982882Y-96296063D01*
X120036697Y-96178226D01*
X120055133Y-96050000D01*
X120036697Y-95921774D01*
X119982882Y-95803937D01*
X119898049Y-95706033D01*
X119789069Y-95635996D01*
X119789065Y-95635994D01*
X119789064Y-95635994D01*
X119664774Y-95599500D01*
X119664772Y-95599500D01*
X119535228Y-95599500D01*
X119535226Y-95599500D01*
X119410933Y-95635994D01*
X119410932Y-95635994D01*
X119342038Y-95680270D01*
X119274999Y-95699954D01*
X119207962Y-95680270D01*
X119139066Y-95635994D01*
X119014774Y-95599500D01*
X119014772Y-95599500D01*
X118885228Y-95599500D01*
X118885226Y-95599500D01*
X118760933Y-95635994D01*
X118760932Y-95635994D01*
X118692038Y-95680270D01*
X118624999Y-95699954D01*
X118557962Y-95680270D01*
X118489066Y-95635994D01*
X118364774Y-95599500D01*
X118364772Y-95599500D01*
X118235228Y-95599500D01*
X118235226Y-95599500D01*
X118110935Y-95635994D01*
X118110932Y-95635995D01*
X118110931Y-95635996D01*
X118075293Y-95658899D01*
X118001950Y-95706033D01*
X117917118Y-95803937D01*
X117917117Y-95803938D01*
X117863302Y-95921774D01*
X117844867Y-96050000D01*
X112674971Y-96050000D01*
X112434510Y-95809539D01*
X112422839Y-95802801D01*
X112411168Y-95796063D01*
X112365991Y-95769980D01*
X112365990Y-95769979D01*
X112340513Y-95763152D01*
X112289562Y-95749500D01*
X111689562Y-95749500D01*
X111610438Y-95749500D01*
X111534010Y-95769978D01*
X111465489Y-95809540D01*
X111465486Y-95809542D01*
X111211848Y-96063181D01*
X111150525Y-96096666D01*
X111124167Y-96099500D01*
X111085226Y-96099500D01*
X111059434Y-96107073D01*
X110989564Y-96107073D01*
X110930786Y-96069298D01*
X110901762Y-96005742D01*
X110900500Y-95988096D01*
X110900500Y-95182542D01*
X110920185Y-95115503D01*
X110972989Y-95069748D01*
X111042147Y-95059804D01*
X111059434Y-95063565D01*
X111162764Y-95093904D01*
X111181822Y-95099500D01*
X111185225Y-95100499D01*
X111185227Y-95100500D01*
X111185228Y-95100500D01*
X111314773Y-95100500D01*
X111314773Y-95100499D01*
X111439069Y-95064004D01*
X111548049Y-94993967D01*
X111632882Y-94896063D01*
X111653919Y-94850000D01*
X112144867Y-94850000D01*
X112163302Y-94978225D01*
X112194283Y-95046062D01*
X112217118Y-95096063D01*
X112301951Y-95193967D01*
X112410931Y-95264004D01*
X112535225Y-95300499D01*
X112535227Y-95300500D01*
X112535228Y-95300500D01*
X112664773Y-95300500D01*
X112664773Y-95300499D01*
X112789069Y-95264004D01*
X112898049Y-95193967D01*
X112930919Y-95156033D01*
X112931286Y-95155609D01*
X112990063Y-95117834D01*
X113059933Y-95117832D01*
X113118711Y-95155606D01*
X113118714Y-95155609D01*
X113151948Y-95193965D01*
X113151950Y-95193966D01*
X113151951Y-95193967D01*
X113260931Y-95264004D01*
X113385225Y-95300499D01*
X113385227Y-95300500D01*
X113385228Y-95300500D01*
X113514773Y-95300500D01*
X113514773Y-95300499D01*
X113639069Y-95264004D01*
X113748049Y-95193967D01*
X113832882Y-95096063D01*
X113886697Y-94978226D01*
X113905133Y-94850000D01*
X113886697Y-94721774D01*
X113832882Y-94603937D01*
X113748049Y-94506033D01*
X113639069Y-94435996D01*
X113639065Y-94435994D01*
X113639064Y-94435994D01*
X113514774Y-94399500D01*
X113514772Y-94399500D01*
X113385228Y-94399500D01*
X113385226Y-94399500D01*
X113260935Y-94435994D01*
X113260932Y-94435995D01*
X113260931Y-94435996D01*
X113233013Y-94453938D01*
X113151950Y-94506033D01*
X113118714Y-94544391D01*
X113059936Y-94582166D01*
X112990066Y-94582166D01*
X112931288Y-94544392D01*
X112931286Y-94544391D01*
X112898049Y-94506033D01*
X112891014Y-94501512D01*
X112789069Y-94435996D01*
X112789065Y-94435994D01*
X112789064Y-94435994D01*
X112664774Y-94399500D01*
X112664772Y-94399500D01*
X112535228Y-94399500D01*
X112535226Y-94399500D01*
X112410935Y-94435994D01*
X112410932Y-94435995D01*
X112410931Y-94435996D01*
X112383013Y-94453938D01*
X112301950Y-94506033D01*
X112217118Y-94603937D01*
X112217117Y-94603938D01*
X112163302Y-94721774D01*
X112144867Y-94850000D01*
X111653919Y-94850000D01*
X111686697Y-94778226D01*
X111705133Y-94650000D01*
X111686697Y-94521774D01*
X111632882Y-94403937D01*
X111548049Y-94306033D01*
X111439069Y-94235996D01*
X111439068Y-94235995D01*
X111439064Y-94235993D01*
X111339566Y-94206779D01*
X111280787Y-94169005D01*
X111251762Y-94105450D01*
X111250500Y-94087802D01*
X111250500Y-91200000D01*
X115094867Y-91200000D01*
X115113302Y-91328225D01*
X115146081Y-91400000D01*
X115167118Y-91446063D01*
X115251951Y-91543967D01*
X115360931Y-91614004D01*
X115481737Y-91649475D01*
X115485225Y-91650499D01*
X115485227Y-91650500D01*
X115485228Y-91650500D01*
X115614773Y-91650500D01*
X115614773Y-91650499D01*
X115739069Y-91614004D01*
X115848049Y-91543967D01*
X115932882Y-91446063D01*
X115986697Y-91328226D01*
X116005133Y-91200000D01*
X115986697Y-91071774D01*
X115932882Y-90953937D01*
X115848049Y-90856033D01*
X115739069Y-90785996D01*
X115739065Y-90785994D01*
X115739064Y-90785994D01*
X115614774Y-90749500D01*
X115614772Y-90749500D01*
X115485228Y-90749500D01*
X115485226Y-90749500D01*
X115360935Y-90785994D01*
X115360932Y-90785995D01*
X115360931Y-90785996D01*
X115319517Y-90812611D01*
X115251950Y-90856033D01*
X115167118Y-90953937D01*
X115167117Y-90953938D01*
X115113302Y-91071774D01*
X115094867Y-91200000D01*
X111250500Y-91200000D01*
X111250500Y-89674500D01*
X111270185Y-89607461D01*
X111322989Y-89561706D01*
X111374500Y-89550500D01*
X111504773Y-89550500D01*
X111504773Y-89550499D01*
X111629069Y-89514004D01*
X111738049Y-89443967D01*
X111822882Y-89346063D01*
X111876697Y-89228226D01*
X111895133Y-89100000D01*
X111876697Y-88971774D01*
X111822882Y-88853937D01*
X111738049Y-88756033D01*
X111629069Y-88685996D01*
X111629065Y-88685994D01*
X111629064Y-88685994D01*
X111504774Y-88649500D01*
X111504772Y-88649500D01*
X111375228Y-88649500D01*
X111259433Y-88683499D01*
X111189564Y-88683498D01*
X111130786Y-88645723D01*
X111101762Y-88582167D01*
X111100500Y-88564521D01*
X111100500Y-87760439D01*
X111100500Y-87760438D01*
X111080021Y-87684011D01*
X111080017Y-87684004D01*
X111040464Y-87615495D01*
X111040458Y-87615487D01*
X110639381Y-87214410D01*
X110605896Y-87153087D01*
X110604324Y-87144375D01*
X110597872Y-87099502D01*
X110586697Y-87021774D01*
X110532882Y-86903937D01*
X110448049Y-86806033D01*
X110339069Y-86735996D01*
X110339065Y-86735994D01*
X110339064Y-86735994D01*
X110214774Y-86699500D01*
X110214772Y-86699500D01*
X110085228Y-86699500D01*
X110085226Y-86699500D01*
X109960935Y-86735994D01*
X109960932Y-86735995D01*
X109960931Y-86735996D01*
X109909677Y-86768934D01*
X109851950Y-86806033D01*
X109767118Y-86903937D01*
X109767117Y-86903938D01*
X109713302Y-87021774D01*
X109694867Y-87150000D01*
X109713302Y-87278225D01*
X109767117Y-87396061D01*
X109767118Y-87396063D01*
X109808913Y-87444298D01*
X109837937Y-87507854D01*
X109827993Y-87577013D01*
X109782237Y-87629816D01*
X109715199Y-87649500D01*
X109510438Y-87649500D01*
X109472224Y-87659739D01*
X109434009Y-87669979D01*
X109434004Y-87669982D01*
X109365495Y-87709535D01*
X109365487Y-87709541D01*
X108876016Y-88199012D01*
X108814693Y-88232497D01*
X108745001Y-88227513D01*
X108689068Y-88185641D01*
X108664651Y-88120177D01*
X108679503Y-88051904D01*
X108682591Y-88046698D01*
X108682879Y-88046065D01*
X108682882Y-88046063D01*
X108736697Y-87928226D01*
X108755133Y-87800000D01*
X108736697Y-87671774D01*
X108682882Y-87553937D01*
X108598049Y-87456033D01*
X108489069Y-87385996D01*
X108489065Y-87385994D01*
X108489064Y-87385994D01*
X108364774Y-87349500D01*
X108364772Y-87349500D01*
X108235228Y-87349500D01*
X108235226Y-87349500D01*
X108110935Y-87385994D01*
X108110932Y-87385995D01*
X108110931Y-87385996D01*
X108065039Y-87415489D01*
X108001950Y-87456033D01*
X107917118Y-87553937D01*
X107917117Y-87553938D01*
X107863302Y-87671774D01*
X107844867Y-87800000D01*
X107863302Y-87928226D01*
X107863303Y-87928227D01*
X107916417Y-88044531D01*
X107926361Y-88113689D01*
X107897336Y-88177245D01*
X107891304Y-88183723D01*
X107637831Y-88437197D01*
X107576508Y-88470682D01*
X107506817Y-88465698D01*
X107450883Y-88423827D01*
X107426466Y-88358362D01*
X107426150Y-88349516D01*
X107426150Y-87987386D01*
X107445835Y-87920347D01*
X107456428Y-87906194D01*
X107508532Y-87846063D01*
X107562347Y-87728226D01*
X107580783Y-87600000D01*
X107562347Y-87471774D01*
X107508532Y-87353937D01*
X107423699Y-87256033D01*
X107314719Y-87185996D01*
X107314716Y-87185995D01*
X107307258Y-87181202D01*
X107308428Y-87179381D01*
X107264755Y-87141535D01*
X107245073Y-87074495D01*
X107264761Y-87007456D01*
X107317567Y-86961703D01*
X107369073Y-86950500D01*
X108689560Y-86950500D01*
X108689562Y-86950500D01*
X108765989Y-86930021D01*
X108834511Y-86890460D01*
X108890460Y-86834511D01*
X109924970Y-85800000D01*
X112884867Y-85800000D01*
X112903302Y-85928225D01*
X112922452Y-85970157D01*
X112957118Y-86046063D01*
X113009214Y-86106186D01*
X113038238Y-86169738D01*
X113039500Y-86187386D01*
X113039500Y-89712611D01*
X113019815Y-89779650D01*
X113009214Y-89793812D01*
X112957120Y-89853932D01*
X112957117Y-89853938D01*
X112903302Y-89971774D01*
X112884867Y-90100000D01*
X112903302Y-90228225D01*
X112957117Y-90346061D01*
X112957118Y-90346063D01*
X113041951Y-90443967D01*
X113150931Y-90514004D01*
X113260117Y-90546063D01*
X113275225Y-90550499D01*
X113275227Y-90550500D01*
X113275228Y-90550500D01*
X113404773Y-90550500D01*
X113404773Y-90550499D01*
X113529069Y-90514004D01*
X113638049Y-90443967D01*
X113722882Y-90346063D01*
X113776697Y-90228226D01*
X113795133Y-90100000D01*
X113776697Y-89971774D01*
X113722882Y-89853937D01*
X113722880Y-89853935D01*
X113722879Y-89853932D01*
X113670786Y-89793812D01*
X113641762Y-89730256D01*
X113640500Y-89712611D01*
X113640500Y-86187386D01*
X113660185Y-86120347D01*
X113670778Y-86106194D01*
X113719471Y-86050000D01*
X114534867Y-86050000D01*
X114553302Y-86178225D01*
X114590433Y-86259529D01*
X114607118Y-86296063D01*
X114691951Y-86393967D01*
X114800931Y-86464004D01*
X114925225Y-86500499D01*
X114925227Y-86500500D01*
X114925228Y-86500500D01*
X115054773Y-86500500D01*
X115054773Y-86500499D01*
X115179069Y-86464004D01*
X115288049Y-86393967D01*
X115372882Y-86296063D01*
X115426697Y-86178226D01*
X115445133Y-86050000D01*
X115426697Y-85921774D01*
X115372882Y-85803937D01*
X115288049Y-85706033D01*
X115179069Y-85635996D01*
X115179065Y-85635994D01*
X115179064Y-85635994D01*
X115054774Y-85599500D01*
X115054772Y-85599500D01*
X114925228Y-85599500D01*
X114925226Y-85599500D01*
X114800935Y-85635994D01*
X114800932Y-85635995D01*
X114800931Y-85635996D01*
X114749677Y-85668934D01*
X114691950Y-85706033D01*
X114607118Y-85803937D01*
X114607117Y-85803938D01*
X114553302Y-85921774D01*
X114534867Y-86050000D01*
X113719471Y-86050000D01*
X113722882Y-86046063D01*
X113776697Y-85928226D01*
X113795133Y-85800000D01*
X113776697Y-85671774D01*
X113722882Y-85553937D01*
X113638049Y-85456033D01*
X113529069Y-85385996D01*
X113529065Y-85385994D01*
X113529064Y-85385994D01*
X113404774Y-85349500D01*
X113404772Y-85349500D01*
X113275228Y-85349500D01*
X113275226Y-85349500D01*
X113150935Y-85385994D01*
X113150932Y-85385995D01*
X113150931Y-85385996D01*
X113123013Y-85403938D01*
X113041950Y-85456033D01*
X112957118Y-85553937D01*
X112957117Y-85553938D01*
X112903302Y-85671774D01*
X112884867Y-85800000D01*
X109924970Y-85800000D01*
X110947292Y-84777677D01*
X111008613Y-84744194D01*
X111078305Y-84749178D01*
X111134238Y-84791050D01*
X111148961Y-84820459D01*
X111149619Y-84820159D01*
X111153302Y-84828225D01*
X111153303Y-84828226D01*
X111207118Y-84946063D01*
X111291951Y-85043967D01*
X111400931Y-85114004D01*
X111525225Y-85150499D01*
X111525227Y-85150500D01*
X111525228Y-85150500D01*
X111654773Y-85150500D01*
X111654773Y-85150499D01*
X111779069Y-85114004D01*
X111888049Y-85043967D01*
X111972882Y-84946063D01*
X112026697Y-84828226D01*
X112045133Y-84700000D01*
X112026697Y-84571774D01*
X112005798Y-84526012D01*
X111995854Y-84456853D01*
X112024879Y-84393297D01*
X112083657Y-84355523D01*
X112118592Y-84350500D01*
X115191511Y-84350500D01*
X115258550Y-84370185D01*
X115304305Y-84422989D01*
X115314249Y-84492147D01*
X115304305Y-84526012D01*
X115262195Y-84618216D01*
X115243760Y-84746442D01*
X115262195Y-84874667D01*
X115294800Y-84946061D01*
X115316011Y-84992505D01*
X115384697Y-85071774D01*
X115398977Y-85088255D01*
X115400844Y-85090409D01*
X115509824Y-85160446D01*
X115634118Y-85196941D01*
X115634120Y-85196942D01*
X115634121Y-85196942D01*
X115673060Y-85196942D01*
X115740099Y-85216627D01*
X115760741Y-85233261D01*
X119117940Y-88590460D01*
X119186463Y-88630022D01*
X119262889Y-88650500D01*
X122357657Y-88650500D01*
X122424696Y-88670185D01*
X122451369Y-88693296D01*
X122451949Y-88693965D01*
X122451951Y-88693967D01*
X122560931Y-88764004D01*
X122685225Y-88800499D01*
X122685227Y-88800500D01*
X122685228Y-88800500D01*
X122814773Y-88800500D01*
X122814773Y-88800499D01*
X122939069Y-88764004D01*
X123048049Y-88693967D01*
X123132882Y-88596063D01*
X123186697Y-88478226D01*
X123205133Y-88350000D01*
X123186697Y-88221774D01*
X123132882Y-88103937D01*
X123048049Y-88006033D01*
X122939069Y-87935996D01*
X122939065Y-87935994D01*
X122939064Y-87935994D01*
X122814774Y-87899500D01*
X122814772Y-87899500D01*
X122685228Y-87899500D01*
X122685226Y-87899500D01*
X122560935Y-87935994D01*
X122560932Y-87935995D01*
X122560931Y-87935996D01*
X122488277Y-87982687D01*
X122451949Y-88006034D01*
X122451369Y-88006704D01*
X122450620Y-88007184D01*
X122445246Y-88011842D01*
X122444576Y-88011069D01*
X122392591Y-88044477D01*
X122357657Y-88049500D01*
X119478284Y-88049500D01*
X119411245Y-88029815D01*
X119390603Y-88013181D01*
X116188274Y-84810852D01*
X116154789Y-84749529D01*
X116153217Y-84740817D01*
X116147348Y-84700000D01*
X116135590Y-84618216D01*
X116093480Y-84526010D01*
X116083537Y-84456854D01*
X116112562Y-84393298D01*
X116171339Y-84355523D01*
X116206275Y-84350500D01*
X117974167Y-84350500D01*
X118041206Y-84370185D01*
X118061848Y-84386819D01*
X121415489Y-87740460D01*
X121474829Y-87774720D01*
X121484008Y-87780020D01*
X121484012Y-87780022D01*
X121560438Y-87800500D01*
X121560440Y-87800500D01*
X122239560Y-87800500D01*
X122239562Y-87800500D01*
X122315989Y-87780021D01*
X122384511Y-87740460D01*
X122440460Y-87684511D01*
X122690460Y-87434511D01*
X122695354Y-87426032D01*
X122701442Y-87415490D01*
X122701442Y-87415489D01*
X122730021Y-87365989D01*
X122750500Y-87289562D01*
X122750500Y-86738686D01*
X122730021Y-86662259D01*
X122723439Y-86650858D01*
X122690464Y-86593743D01*
X122690458Y-86593735D01*
X122475257Y-86378534D01*
X122441772Y-86317211D01*
X122440200Y-86308499D01*
X122422573Y-86185898D01*
X122410258Y-86158932D01*
X122368758Y-86068061D01*
X122283925Y-85970157D01*
X122174945Y-85900120D01*
X122174941Y-85900118D01*
X122174940Y-85900118D01*
X122050650Y-85863624D01*
X122050648Y-85863624D01*
X121921104Y-85863624D01*
X121921102Y-85863624D01*
X121796811Y-85900118D01*
X121796808Y-85900119D01*
X121796807Y-85900120D01*
X121765906Y-85919979D01*
X121687826Y-85970157D01*
X121602994Y-86068060D01*
X121548656Y-86187042D01*
X121502900Y-86239845D01*
X121435861Y-86259529D01*
X121368821Y-86239844D01*
X121348181Y-86223210D01*
X120324971Y-85200000D01*
X122294867Y-85200000D01*
X122313302Y-85328225D01*
X122336957Y-85380021D01*
X122367118Y-85446063D01*
X122451951Y-85543967D01*
X122560931Y-85614004D01*
X122685225Y-85650499D01*
X122685227Y-85650500D01*
X122685228Y-85650500D01*
X122814773Y-85650500D01*
X122814773Y-85650499D01*
X122939069Y-85614004D01*
X123048049Y-85543967D01*
X123132882Y-85446063D01*
X123186697Y-85328226D01*
X123205133Y-85200000D01*
X123186697Y-85071774D01*
X123132882Y-84953937D01*
X123048049Y-84856033D01*
X122939069Y-84785996D01*
X122939065Y-84785994D01*
X122939064Y-84785994D01*
X122814774Y-84749500D01*
X122814772Y-84749500D01*
X122685228Y-84749500D01*
X122685226Y-84749500D01*
X122560935Y-84785994D01*
X122560932Y-84785995D01*
X122560931Y-84785996D01*
X122522254Y-84810852D01*
X122451950Y-84856033D01*
X122367118Y-84953937D01*
X122367117Y-84953938D01*
X122313302Y-85071774D01*
X122294867Y-85200000D01*
X120324971Y-85200000D01*
X118034512Y-82909541D01*
X118034504Y-82909535D01*
X117965995Y-82869982D01*
X117965990Y-82869979D01*
X117940513Y-82863152D01*
X117889562Y-82849500D01*
X111489562Y-82849500D01*
X111410438Y-82849500D01*
X111334010Y-82869978D01*
X111265489Y-82909540D01*
X111265486Y-82909542D01*
X108211848Y-85963181D01*
X108150525Y-85996666D01*
X108124167Y-85999500D01*
X106928592Y-85999500D01*
X106861553Y-85979815D01*
X106815798Y-85927011D01*
X106805854Y-85857853D01*
X106815798Y-85823988D01*
X106818152Y-85818834D01*
X106836697Y-85778226D01*
X106855133Y-85650000D01*
X106836697Y-85521774D01*
X106782882Y-85403937D01*
X106698049Y-85306033D01*
X106589069Y-85235996D01*
X106589065Y-85235994D01*
X106589064Y-85235994D01*
X106464774Y-85199500D01*
X106464772Y-85199500D01*
X106335228Y-85199500D01*
X106335226Y-85199500D01*
X106210935Y-85235994D01*
X106210932Y-85235995D01*
X106210931Y-85235996D01*
X106159677Y-85268934D01*
X106101950Y-85306033D01*
X106017118Y-85403937D01*
X106017117Y-85403938D01*
X105963302Y-85521774D01*
X105944867Y-85650000D01*
X105963302Y-85778225D01*
X105973247Y-85800000D01*
X106017118Y-85896063D01*
X106101951Y-85993967D01*
X106210931Y-86064004D01*
X106242381Y-86073238D01*
X106301160Y-86111011D01*
X106330186Y-86174566D01*
X106320244Y-86243725D01*
X106295130Y-86279897D01*
X105461848Y-87113181D01*
X105400525Y-87146666D01*
X105374167Y-87149500D01*
X105335226Y-87149500D01*
X105210935Y-87185994D01*
X105210932Y-87185995D01*
X105210931Y-87185996D01*
X105180391Y-87205623D01*
X105101950Y-87256033D01*
X105017118Y-87353937D01*
X105017117Y-87353938D01*
X104963302Y-87471774D01*
X104944867Y-87600000D01*
X104963302Y-87728225D01*
X104991235Y-87789388D01*
X105017118Y-87846063D01*
X105069214Y-87906186D01*
X105098238Y-87969738D01*
X105099500Y-87987386D01*
X105099500Y-89575167D01*
X105079815Y-89642206D01*
X105027011Y-89687961D01*
X104957853Y-89697905D01*
X104894297Y-89668880D01*
X104887819Y-89662848D01*
X104636819Y-89411848D01*
X104603334Y-89350525D01*
X104600500Y-89324167D01*
X104600500Y-87710439D01*
X104600500Y-87710438D01*
X104580021Y-87634011D01*
X104569331Y-87615495D01*
X104540464Y-87565495D01*
X104540458Y-87565487D01*
X102934510Y-85959539D01*
X102934019Y-85959256D01*
X102934024Y-85959246D01*
X102933983Y-85959235D01*
X102865989Y-85919979D01*
X102789562Y-85899500D01*
X102789560Y-85899500D01*
X101525833Y-85899500D01*
X101458794Y-85879815D01*
X101438152Y-85863181D01*
X100434513Y-84859541D01*
X100434512Y-84859540D01*
X100428439Y-84856033D01*
X100428439Y-84856034D01*
X100365989Y-84819979D01*
X100365990Y-84819979D01*
X100331927Y-84810852D01*
X100289562Y-84799500D01*
X100289560Y-84799500D01*
X96475833Y-84799500D01*
X96408794Y-84779815D01*
X96388152Y-84763181D01*
X95424971Y-83800000D01*
X101944867Y-83800000D01*
X101963302Y-83928225D01*
X102017117Y-84046061D01*
X102017118Y-84046063D01*
X102101951Y-84143967D01*
X102210931Y-84214004D01*
X102335225Y-84250499D01*
X102335227Y-84250500D01*
X102335228Y-84250500D01*
X102464773Y-84250500D01*
X102464773Y-84250499D01*
X102589069Y-84214004D01*
X102657961Y-84169730D01*
X102725000Y-84150045D01*
X102792039Y-84169730D01*
X102860931Y-84214004D01*
X102860933Y-84214005D01*
X102985225Y-84250499D01*
X102985227Y-84250500D01*
X102985228Y-84250500D01*
X103114773Y-84250500D01*
X103114773Y-84250499D01*
X103239069Y-84214004D01*
X103348049Y-84143967D01*
X103432882Y-84046063D01*
X103486697Y-83928226D01*
X103505133Y-83800000D01*
X103486697Y-83671774D01*
X103432882Y-83553937D01*
X103348049Y-83456033D01*
X103239069Y-83385996D01*
X103239065Y-83385994D01*
X103239064Y-83385994D01*
X103114774Y-83349500D01*
X103114772Y-83349500D01*
X102985228Y-83349500D01*
X102985226Y-83349500D01*
X102860933Y-83385994D01*
X102860932Y-83385994D01*
X102792038Y-83430270D01*
X102724999Y-83449954D01*
X102657962Y-83430270D01*
X102589066Y-83385994D01*
X102464774Y-83349500D01*
X102464772Y-83349500D01*
X102335228Y-83349500D01*
X102335226Y-83349500D01*
X102210935Y-83385994D01*
X102210932Y-83385995D01*
X102210931Y-83385996D01*
X102159677Y-83418934D01*
X102101950Y-83456033D01*
X102017118Y-83553937D01*
X102017117Y-83553938D01*
X101963302Y-83671774D01*
X101944867Y-83800000D01*
X95424971Y-83800000D01*
X93924971Y-82300000D01*
X95694867Y-82300000D01*
X95713302Y-82428225D01*
X95767117Y-82546061D01*
X95767118Y-82546063D01*
X95851951Y-82643967D01*
X95960931Y-82714004D01*
X96085225Y-82750499D01*
X96085227Y-82750500D01*
X96085228Y-82750500D01*
X96214773Y-82750500D01*
X96214773Y-82750499D01*
X96339069Y-82714004D01*
X96448049Y-82643967D01*
X96532882Y-82546063D01*
X96586697Y-82428226D01*
X96605133Y-82300000D01*
X97594867Y-82300000D01*
X97613302Y-82428225D01*
X97667117Y-82546061D01*
X97667118Y-82546063D01*
X97751951Y-82643967D01*
X97860931Y-82714004D01*
X97985225Y-82750499D01*
X97985227Y-82750500D01*
X97985228Y-82750500D01*
X98114773Y-82750500D01*
X98114773Y-82750499D01*
X98239069Y-82714004D01*
X98348049Y-82643967D01*
X98432882Y-82546063D01*
X98486697Y-82428226D01*
X98505133Y-82300000D01*
X98486697Y-82171774D01*
X98432882Y-82053937D01*
X98348049Y-81956033D01*
X98239069Y-81885996D01*
X98239065Y-81885994D01*
X98239064Y-81885994D01*
X98114774Y-81849500D01*
X98114772Y-81849500D01*
X97985228Y-81849500D01*
X97985226Y-81849500D01*
X97860935Y-81885994D01*
X97860932Y-81885995D01*
X97860931Y-81885996D01*
X97809677Y-81918934D01*
X97751950Y-81956033D01*
X97667118Y-82053937D01*
X97667117Y-82053938D01*
X97613302Y-82171774D01*
X97594867Y-82300000D01*
X96605133Y-82300000D01*
X96586697Y-82171774D01*
X96532882Y-82053937D01*
X96448049Y-81956033D01*
X96339069Y-81885996D01*
X96339065Y-81885994D01*
X96339064Y-81885994D01*
X96214774Y-81849500D01*
X96214772Y-81849500D01*
X96085228Y-81849500D01*
X96085226Y-81849500D01*
X95960935Y-81885994D01*
X95960932Y-81885995D01*
X95960931Y-81885996D01*
X95909677Y-81918934D01*
X95851950Y-81956033D01*
X95767118Y-82053937D01*
X95767117Y-82053938D01*
X95713302Y-82171774D01*
X95694867Y-82300000D01*
X93924971Y-82300000D01*
X91274370Y-79649399D01*
X91240885Y-79588076D01*
X91245869Y-79518384D01*
X91249251Y-79510218D01*
X91286697Y-79428226D01*
X91305133Y-79300000D01*
X91286697Y-79171774D01*
X91232882Y-79053937D01*
X91148049Y-78956033D01*
X91039069Y-78885996D01*
X91039065Y-78885994D01*
X91039064Y-78885994D01*
X90914774Y-78849500D01*
X90914772Y-78849500D01*
X90785228Y-78849500D01*
X90785226Y-78849500D01*
X90660935Y-78885994D01*
X90660932Y-78885995D01*
X90660931Y-78885996D01*
X90609677Y-78918934D01*
X90551950Y-78956033D01*
X90467118Y-79053937D01*
X90467117Y-79053938D01*
X90413302Y-79171774D01*
X90395852Y-79293147D01*
X90366827Y-79356703D01*
X90308049Y-79394477D01*
X90273114Y-79399500D01*
X90135226Y-79399500D01*
X90010935Y-79435994D01*
X90010932Y-79435995D01*
X90010931Y-79435996D01*
X89959677Y-79468934D01*
X89901950Y-79506033D01*
X89817118Y-79603937D01*
X89817117Y-79603938D01*
X89763302Y-79721774D01*
X89744867Y-79850000D01*
X89763302Y-79978225D01*
X89813146Y-80087365D01*
X89817118Y-80096063D01*
X89901951Y-80193967D01*
X90010931Y-80264004D01*
X90135225Y-80300499D01*
X90135227Y-80300500D01*
X90135228Y-80300500D01*
X90174167Y-80300500D01*
X90241206Y-80320185D01*
X90261848Y-80336819D01*
X95612848Y-85687819D01*
X95646333Y-85749142D01*
X95641349Y-85818834D01*
X95599477Y-85874767D01*
X95534013Y-85899184D01*
X95525167Y-85899500D01*
X89860438Y-85899500D01*
X89784010Y-85919978D01*
X89715489Y-85959540D01*
X89715486Y-85959542D01*
X88961848Y-86713181D01*
X88900525Y-86746666D01*
X88874167Y-86749500D01*
X88835226Y-86749500D01*
X88710935Y-86785994D01*
X88710932Y-86785995D01*
X88710931Y-86785996D01*
X88679753Y-86806033D01*
X88601949Y-86856034D01*
X88601369Y-86856704D01*
X88600620Y-86857184D01*
X88595246Y-86861842D01*
X88594576Y-86861069D01*
X88542591Y-86894477D01*
X88507657Y-86899500D01*
X85542343Y-86899500D01*
X85475304Y-86879815D01*
X85448631Y-86856704D01*
X85448050Y-86856034D01*
X85448049Y-86856033D01*
X85339069Y-86785996D01*
X85339065Y-86785994D01*
X85339064Y-86785994D01*
X85214774Y-86749500D01*
X85214772Y-86749500D01*
X85085228Y-86749500D01*
X85085226Y-86749500D01*
X84960935Y-86785994D01*
X84960932Y-86785995D01*
X84960931Y-86785996D01*
X84930582Y-86805500D01*
X84851950Y-86856033D01*
X84767118Y-86953937D01*
X84767117Y-86953938D01*
X84713302Y-87071774D01*
X84694867Y-87200000D01*
X84713302Y-87328225D01*
X84761842Y-87434511D01*
X84767118Y-87446063D01*
X84831344Y-87520185D01*
X84851369Y-87543296D01*
X84851951Y-87543967D01*
X84960931Y-87614004D01*
X85085225Y-87650499D01*
X85085227Y-87650500D01*
X85085228Y-87650500D01*
X85214773Y-87650500D01*
X85214773Y-87650499D01*
X85339069Y-87614004D01*
X85448049Y-87543967D01*
X85448374Y-87543591D01*
X85448631Y-87543296D01*
X85449379Y-87542815D01*
X85454754Y-87538158D01*
X85455423Y-87538930D01*
X85507409Y-87505523D01*
X85542343Y-87500500D01*
X88507657Y-87500500D01*
X88574696Y-87520185D01*
X88601369Y-87543296D01*
X88601949Y-87543965D01*
X88601951Y-87543967D01*
X88710931Y-87614004D01*
X88835225Y-87650499D01*
X88835227Y-87650500D01*
X88835228Y-87650500D01*
X88964773Y-87650500D01*
X88964773Y-87650499D01*
X89089069Y-87614004D01*
X89198049Y-87543967D01*
X89282882Y-87446063D01*
X89336697Y-87328226D01*
X89354324Y-87205621D01*
X89383349Y-87142067D01*
X89389366Y-87135603D01*
X89988152Y-86536819D01*
X90049475Y-86503334D01*
X90075833Y-86500500D01*
X90521875Y-86500500D01*
X90588914Y-86520185D01*
X90634669Y-86572989D01*
X90644613Y-86642147D01*
X90620280Y-86695427D01*
X90621913Y-86696476D01*
X90617117Y-86703938D01*
X90563302Y-86821774D01*
X90544867Y-86950000D01*
X90563302Y-87078225D01*
X90617117Y-87196061D01*
X90617118Y-87196063D01*
X90688311Y-87278225D01*
X90701940Y-87293955D01*
X90701951Y-87293967D01*
X90810931Y-87364004D01*
X90885824Y-87385994D01*
X90935225Y-87400499D01*
X90935227Y-87400500D01*
X90935228Y-87400500D01*
X91064773Y-87400500D01*
X91064773Y-87400499D01*
X91189069Y-87364004D01*
X91298049Y-87293967D01*
X91382882Y-87196063D01*
X91436697Y-87078226D01*
X91444814Y-87021774D01*
X91446959Y-87006853D01*
X91475984Y-86943297D01*
X91534762Y-86905523D01*
X91569697Y-86900500D01*
X98321878Y-86900500D01*
X98388917Y-86920185D01*
X98434672Y-86972989D01*
X98444616Y-87042147D01*
X98420283Y-87095427D01*
X98421916Y-87096476D01*
X98417120Y-87103938D01*
X98363305Y-87221774D01*
X98344870Y-87350000D01*
X98358683Y-87446073D01*
X98348739Y-87515232D01*
X98323626Y-87551401D01*
X97502765Y-88372264D01*
X97446817Y-88428211D01*
X97446811Y-88428219D01*
X97407258Y-88496728D01*
X97407255Y-88496733D01*
X97405325Y-88503937D01*
X97387946Y-88568798D01*
X97386776Y-88573163D01*
X97386776Y-89325500D01*
X97367091Y-89392539D01*
X97314287Y-89438294D01*
X97262776Y-89449500D01*
X96578125Y-89449500D01*
X96511086Y-89429815D01*
X96465331Y-89377011D01*
X96455387Y-89307853D01*
X96479719Y-89254572D01*
X96478087Y-89253524D01*
X96482877Y-89246068D01*
X96482882Y-89246063D01*
X96536697Y-89128226D01*
X96555133Y-89000000D01*
X96536697Y-88871774D01*
X96482882Y-88753937D01*
X96463181Y-88731201D01*
X96434157Y-88667649D01*
X96444100Y-88598490D01*
X96463182Y-88568798D01*
X96482882Y-88546063D01*
X96536697Y-88428226D01*
X96555133Y-88300000D01*
X96536697Y-88171774D01*
X96482882Y-88053937D01*
X96398049Y-87956033D01*
X96289069Y-87885996D01*
X96289065Y-87885994D01*
X96289064Y-87885994D01*
X96164774Y-87849500D01*
X96164772Y-87849500D01*
X96035228Y-87849500D01*
X96035226Y-87849500D01*
X95910933Y-87885994D01*
X95910932Y-87885994D01*
X95817038Y-87946336D01*
X95749999Y-87966020D01*
X95682962Y-87946336D01*
X95589066Y-87885994D01*
X95464774Y-87849500D01*
X95464772Y-87849500D01*
X95335228Y-87849500D01*
X95335226Y-87849500D01*
X95210935Y-87885994D01*
X95210932Y-87885995D01*
X95210931Y-87885996D01*
X95170866Y-87911744D01*
X95101950Y-87956033D01*
X95017118Y-88053937D01*
X95017117Y-88053938D01*
X94963302Y-88171774D01*
X94944867Y-88300000D01*
X94963302Y-88428225D01*
X95017117Y-88546061D01*
X95017120Y-88546067D01*
X95036817Y-88568798D01*
X95065842Y-88632354D01*
X95055898Y-88701512D01*
X95036817Y-88731202D01*
X95017120Y-88753932D01*
X95017117Y-88753938D01*
X94963302Y-88871774D01*
X94944867Y-89000000D01*
X94963302Y-89128225D01*
X95008972Y-89228226D01*
X95017118Y-89246063D01*
X95101951Y-89343967D01*
X95210931Y-89414004D01*
X95335225Y-89450499D01*
X95335227Y-89450500D01*
X95335228Y-89450500D01*
X95464773Y-89450500D01*
X95464773Y-89450499D01*
X95589069Y-89414004D01*
X95682962Y-89353662D01*
X95750001Y-89333979D01*
X95817038Y-89353663D01*
X95842416Y-89369972D01*
X95888172Y-89422775D01*
X95898116Y-89491933D01*
X95869092Y-89555490D01*
X95863059Y-89561969D01*
X95615489Y-89809540D01*
X95559541Y-89865487D01*
X95559535Y-89865495D01*
X95519982Y-89934004D01*
X95519979Y-89934009D01*
X95499500Y-90010439D01*
X95499500Y-90413766D01*
X95479815Y-90480805D01*
X95427011Y-90526560D01*
X95357853Y-90536504D01*
X95294297Y-90507479D01*
X95281786Y-90494968D01*
X95248049Y-90456033D01*
X95204780Y-90428226D01*
X95139069Y-90385996D01*
X95139065Y-90385994D01*
X95139064Y-90385994D01*
X95014774Y-90349500D01*
X95014772Y-90349500D01*
X94885228Y-90349500D01*
X94885226Y-90349500D01*
X94760935Y-90385994D01*
X94760932Y-90385995D01*
X94760931Y-90385996D01*
X94717720Y-90413766D01*
X94651950Y-90456033D01*
X94567118Y-90553937D01*
X94567117Y-90553938D01*
X94513302Y-90671774D01*
X94494867Y-90800000D01*
X94513302Y-90928225D01*
X94567117Y-91046061D01*
X94567120Y-91046067D01*
X94586817Y-91068798D01*
X94615842Y-91132354D01*
X94605898Y-91201512D01*
X94586817Y-91231202D01*
X94567120Y-91253932D01*
X94567117Y-91253938D01*
X94513302Y-91371774D01*
X94494867Y-91500000D01*
X94513302Y-91628225D01*
X94546310Y-91700500D01*
X94567118Y-91746063D01*
X94651951Y-91843967D01*
X94760931Y-91914004D01*
X94885225Y-91950499D01*
X94885227Y-91950500D01*
X94885228Y-91950500D01*
X95014773Y-91950500D01*
X95014773Y-91950499D01*
X95139069Y-91914004D01*
X95248049Y-91843967D01*
X95281786Y-91805032D01*
X95340563Y-91767256D01*
X95410433Y-91767255D01*
X95469212Y-91805029D01*
X95498238Y-91868584D01*
X95499500Y-91886233D01*
X95499500Y-93139562D01*
X95519979Y-93215989D01*
X95552186Y-93271774D01*
X95552187Y-93271776D01*
X95552186Y-93271776D01*
X95559535Y-93284505D01*
X95559542Y-93284514D01*
X95960618Y-93685589D01*
X95994103Y-93746912D01*
X95995675Y-93755623D01*
X96013302Y-93878225D01*
X96058972Y-93978226D01*
X96067118Y-93996063D01*
X96151951Y-94093967D01*
X96260931Y-94164004D01*
X96385225Y-94200499D01*
X96385227Y-94200500D01*
X96385228Y-94200500D01*
X96514773Y-94200500D01*
X96514773Y-94200499D01*
X96639069Y-94164004D01*
X96748049Y-94093967D01*
X96832882Y-93996063D01*
X96886697Y-93878226D01*
X96890755Y-93850000D01*
X98794867Y-93850000D01*
X98813302Y-93978225D01*
X98838779Y-94034011D01*
X98867118Y-94096063D01*
X98951951Y-94193967D01*
X99060931Y-94264004D01*
X99135824Y-94285994D01*
X99185225Y-94300499D01*
X99185227Y-94300500D01*
X99185228Y-94300500D01*
X99314773Y-94300500D01*
X99314773Y-94300499D01*
X99439069Y-94264004D01*
X99548049Y-94193967D01*
X99632882Y-94096063D01*
X99686697Y-93978226D01*
X99705133Y-93850000D01*
X99686697Y-93721774D01*
X99632882Y-93603937D01*
X99548049Y-93506033D01*
X99439069Y-93435996D01*
X99439065Y-93435994D01*
X99439064Y-93435994D01*
X99314774Y-93399500D01*
X99314772Y-93399500D01*
X99185228Y-93399500D01*
X99185226Y-93399500D01*
X99060935Y-93435994D01*
X99060932Y-93435995D01*
X99060931Y-93435996D01*
X99009677Y-93468934D01*
X98951950Y-93506033D01*
X98867118Y-93603937D01*
X98867117Y-93603938D01*
X98813302Y-93721774D01*
X98794867Y-93850000D01*
X96890755Y-93850000D01*
X96905133Y-93750000D01*
X96886697Y-93621774D01*
X96832882Y-93503937D01*
X96748049Y-93406033D01*
X96639069Y-93335996D01*
X96639065Y-93335994D01*
X96639064Y-93335994D01*
X96514774Y-93299500D01*
X96514772Y-93299500D01*
X96475833Y-93299500D01*
X96408794Y-93279815D01*
X96388152Y-93263181D01*
X96136819Y-93011848D01*
X96103334Y-92950525D01*
X96100500Y-92924167D01*
X96100500Y-91324833D01*
X96120185Y-91257794D01*
X96172989Y-91212039D01*
X96242147Y-91202095D01*
X96305703Y-91231120D01*
X96312181Y-91237152D01*
X97009540Y-91934511D01*
X97065489Y-91990460D01*
X97065491Y-91990461D01*
X97065495Y-91990464D01*
X97134004Y-92030017D01*
X97134011Y-92030021D01*
X97210438Y-92050500D01*
X102025167Y-92050500D01*
X102092206Y-92070185D01*
X102137961Y-92122989D01*
X102147905Y-92192147D01*
X102118880Y-92255703D01*
X102112848Y-92262181D01*
X100409541Y-93965487D01*
X100409535Y-93965495D01*
X100369982Y-94034004D01*
X100369979Y-94034009D01*
X100356326Y-94084962D01*
X100353353Y-94096061D01*
X100349500Y-94110439D01*
X100349500Y-94924166D01*
X100329815Y-94991205D01*
X100313181Y-95011847D01*
X98794978Y-96530049D01*
X98733655Y-96563534D01*
X98663963Y-96558550D01*
X98608030Y-96516678D01*
X98588319Y-96477301D01*
X98586698Y-96471784D01*
X98586697Y-96471774D01*
X98532882Y-96353937D01*
X98448049Y-96256033D01*
X98405697Y-96228815D01*
X98359943Y-96176012D01*
X98349999Y-96106853D01*
X98379024Y-96043298D01*
X98437802Y-96005523D01*
X98472737Y-96000500D01*
X98564773Y-96000500D01*
X98564773Y-96000499D01*
X98689069Y-95964004D01*
X98798049Y-95893967D01*
X98882882Y-95796063D01*
X98936697Y-95678226D01*
X98955133Y-95550000D01*
X98936697Y-95421774D01*
X98882882Y-95303937D01*
X98798049Y-95206033D01*
X98689069Y-95135996D01*
X98689065Y-95135994D01*
X98689064Y-95135994D01*
X98564774Y-95099500D01*
X98564772Y-95099500D01*
X98435228Y-95099500D01*
X98435226Y-95099500D01*
X98310935Y-95135994D01*
X98310932Y-95135995D01*
X98310931Y-95135996D01*
X98220728Y-95193966D01*
X98194490Y-95210828D01*
X98192936Y-95208410D01*
X98142624Y-95231376D01*
X98073467Y-95221420D01*
X98055941Y-95210156D01*
X98055510Y-95210828D01*
X98041014Y-95201512D01*
X97939069Y-95135996D01*
X97939065Y-95135994D01*
X97939064Y-95135994D01*
X97814774Y-95099500D01*
X97814772Y-95099500D01*
X97685228Y-95099500D01*
X97685226Y-95099500D01*
X97560935Y-95135994D01*
X97560932Y-95135995D01*
X97560931Y-95135996D01*
X97529753Y-95156033D01*
X97451950Y-95206033D01*
X97386873Y-95281137D01*
X97328095Y-95318911D01*
X97258225Y-95318911D01*
X97205479Y-95287615D01*
X96777403Y-94859539D01*
X96750285Y-94843883D01*
X96723166Y-94828226D01*
X96723165Y-94828225D01*
X96717128Y-94824739D01*
X96708882Y-94819979D01*
X96632455Y-94799500D01*
X96632453Y-94799500D01*
X94026886Y-94799500D01*
X93959847Y-94779815D01*
X93914092Y-94727011D01*
X93904148Y-94693147D01*
X93886697Y-94571774D01*
X93863862Y-94521774D01*
X93832882Y-94453937D01*
X93748049Y-94356033D01*
X93639069Y-94285996D01*
X93639065Y-94285994D01*
X93639064Y-94285994D01*
X93514774Y-94249500D01*
X93514772Y-94249500D01*
X93385228Y-94249500D01*
X93385226Y-94249500D01*
X93260935Y-94285994D01*
X93260932Y-94285995D01*
X93260931Y-94285996D01*
X93229753Y-94306033D01*
X93151950Y-94356033D01*
X93067118Y-94453937D01*
X93067117Y-94453938D01*
X93013302Y-94571774D01*
X92994867Y-94700000D01*
X93013302Y-94828225D01*
X93058972Y-94928226D01*
X93067118Y-94946063D01*
X93151951Y-95043967D01*
X93260931Y-95114004D01*
X93385225Y-95150499D01*
X93385227Y-95150500D01*
X93385228Y-95150500D01*
X93424167Y-95150500D01*
X93491206Y-95170185D01*
X93511848Y-95186819D01*
X93609540Y-95284511D01*
X93665489Y-95340460D01*
X93665491Y-95340461D01*
X93665495Y-95340464D01*
X93734004Y-95380017D01*
X93734011Y-95380021D01*
X93810438Y-95400500D01*
X94544242Y-95400500D01*
X94611281Y-95420185D01*
X94657036Y-95472989D01*
X94666980Y-95542147D01*
X94657036Y-95576012D01*
X94633745Y-95627012D01*
X94587990Y-95679816D01*
X94520951Y-95699500D01*
X92260438Y-95699500D01*
X92222224Y-95709739D01*
X92184009Y-95719979D01*
X92184008Y-95719980D01*
X92154294Y-95737136D01*
X92138832Y-95746063D01*
X92132879Y-95749500D01*
X92115489Y-95759539D01*
X92115487Y-95759541D01*
X86211848Y-101663181D01*
X86150525Y-101696666D01*
X86124167Y-101699500D01*
X86085226Y-101699500D01*
X85960935Y-101735994D01*
X85960932Y-101735995D01*
X85960931Y-101735996D01*
X85909677Y-101768934D01*
X85851950Y-101806033D01*
X85767118Y-101903937D01*
X85767117Y-101903938D01*
X85713302Y-102021774D01*
X85694867Y-102150000D01*
X85713302Y-102278225D01*
X85757506Y-102375017D01*
X85767118Y-102396063D01*
X85851951Y-102493967D01*
X85960931Y-102564004D01*
X86085225Y-102600499D01*
X86085227Y-102600500D01*
X86085228Y-102600500D01*
X86214773Y-102600500D01*
X86214773Y-102600499D01*
X86339069Y-102564004D01*
X86448049Y-102493967D01*
X86532882Y-102396063D01*
X86586697Y-102278226D01*
X86604324Y-102155621D01*
X86633349Y-102092067D01*
X86639367Y-102085602D01*
X86893542Y-101831427D01*
X86954863Y-101797944D01*
X87024555Y-101802928D01*
X87080488Y-101844800D01*
X87104905Y-101910264D01*
X87103959Y-101936755D01*
X87094867Y-101999997D01*
X87094867Y-101999999D01*
X87113302Y-102128225D01*
X87153664Y-102216604D01*
X87167118Y-102246063D01*
X87251951Y-102343967D01*
X87360931Y-102414004D01*
X87485225Y-102450499D01*
X87485227Y-102450500D01*
X87485228Y-102450500D01*
X87614773Y-102450500D01*
X87614773Y-102450499D01*
X87739069Y-102414004D01*
X87848049Y-102343967D01*
X87932882Y-102246063D01*
X87932884Y-102246059D01*
X87943420Y-102222989D01*
X87989174Y-102170185D01*
X88056214Y-102150500D01*
X89839560Y-102150500D01*
X89839562Y-102150500D01*
X89915989Y-102130021D01*
X89915990Y-102130019D01*
X89923839Y-102127917D01*
X89924718Y-102131197D01*
X89978490Y-102125354D01*
X90041005Y-102156557D01*
X90076727Y-102216604D01*
X90074313Y-102286432D01*
X90069408Y-102298920D01*
X90013303Y-102421772D01*
X90013302Y-102421773D01*
X89994867Y-102550000D01*
X90013302Y-102678225D01*
X90058972Y-102778226D01*
X90067118Y-102796063D01*
X90151951Y-102893967D01*
X90260931Y-102964004D01*
X90370117Y-102996063D01*
X90385225Y-103000499D01*
X90385227Y-103000500D01*
X90385228Y-103000500D01*
X90514773Y-103000500D01*
X90514773Y-103000499D01*
X90639069Y-102964004D01*
X90748049Y-102893967D01*
X90832882Y-102796063D01*
X90886697Y-102678226D01*
X90904324Y-102555621D01*
X90933349Y-102492067D01*
X90939367Y-102485602D01*
X96740460Y-96684511D01*
X96766411Y-96639562D01*
X96780021Y-96615989D01*
X96800500Y-96539562D01*
X96800500Y-96187386D01*
X96820185Y-96120347D01*
X96830778Y-96106194D01*
X96882882Y-96046063D01*
X96882886Y-96046054D01*
X96887676Y-96038603D01*
X96889753Y-96039938D01*
X96926872Y-95997080D01*
X96993907Y-95977378D01*
X97060951Y-95997046D01*
X97081619Y-96013697D01*
X97670207Y-96602285D01*
X97703692Y-96663608D01*
X97705264Y-96672318D01*
X97713302Y-96728222D01*
X97713303Y-96728227D01*
X97767117Y-96846061D01*
X97767118Y-96846063D01*
X97851951Y-96943967D01*
X97960931Y-97014004D01*
X97980460Y-97019738D01*
X98031034Y-97034588D01*
X98089812Y-97072361D01*
X98118838Y-97135917D01*
X98108895Y-97205075D01*
X98083781Y-97241246D01*
X94565489Y-100759540D01*
X94509541Y-100815487D01*
X94509535Y-100815495D01*
X94469982Y-100884004D01*
X94469979Y-100884009D01*
X94449500Y-100960439D01*
X94449500Y-102262611D01*
X94429815Y-102329650D01*
X94419214Y-102343812D01*
X94367120Y-102403932D01*
X94367117Y-102403938D01*
X94313302Y-102521774D01*
X94294867Y-102650000D01*
X94313302Y-102778225D01*
X94358972Y-102878226D01*
X94367118Y-102896063D01*
X94451951Y-102993967D01*
X94560931Y-103064004D01*
X94685225Y-103100499D01*
X94685227Y-103100500D01*
X94685228Y-103100500D01*
X94814773Y-103100500D01*
X94814773Y-103100499D01*
X94939069Y-103064004D01*
X95048049Y-102993967D01*
X95132882Y-102896063D01*
X95149048Y-102860662D01*
X95194801Y-102807860D01*
X95261840Y-102788175D01*
X95328880Y-102807859D01*
X95349523Y-102824494D01*
X98311053Y-105786024D01*
X98344538Y-105847347D01*
X98346110Y-105891348D01*
X98344867Y-105899995D01*
X98344867Y-105899999D01*
X98363302Y-106028225D01*
X98417117Y-106146061D01*
X98417118Y-106146063D01*
X98466743Y-106203334D01*
X98496346Y-106237499D01*
X98501951Y-106243967D01*
X98610931Y-106314004D01*
X98701821Y-106340691D01*
X98735225Y-106350499D01*
X98735227Y-106350500D01*
X98735228Y-106350500D01*
X98864773Y-106350500D01*
X98864773Y-106350499D01*
X98989069Y-106314004D01*
X99098049Y-106243967D01*
X99182882Y-106146063D01*
X99236697Y-106028226D01*
X99255133Y-105900000D01*
X99236697Y-105771774D01*
X99182882Y-105653937D01*
X99098049Y-105556033D01*
X99055697Y-105528815D01*
X99009943Y-105476012D01*
X98999999Y-105406853D01*
X99029024Y-105343298D01*
X99087802Y-105305523D01*
X99122737Y-105300500D01*
X103707657Y-105300500D01*
X103774696Y-105320185D01*
X103801369Y-105343296D01*
X103801371Y-105343298D01*
X103801951Y-105343967D01*
X103910931Y-105414004D01*
X104035225Y-105450499D01*
X104035227Y-105450500D01*
X104035228Y-105450500D01*
X104164773Y-105450500D01*
X104164773Y-105450499D01*
X104289069Y-105414004D01*
X104398049Y-105343967D01*
X104482882Y-105246063D01*
X104536697Y-105128226D01*
X104555133Y-105000000D01*
X104536697Y-104871774D01*
X104482882Y-104753937D01*
X104398049Y-104656033D01*
X104289069Y-104585996D01*
X104289065Y-104585994D01*
X104289064Y-104585994D01*
X104164774Y-104549500D01*
X104164772Y-104549500D01*
X104035228Y-104549500D01*
X104035226Y-104549500D01*
X103910935Y-104585994D01*
X103910932Y-104585995D01*
X103910931Y-104585996D01*
X103847110Y-104627011D01*
X103801949Y-104656034D01*
X103801369Y-104656704D01*
X103800620Y-104657184D01*
X103795246Y-104661842D01*
X103794576Y-104661069D01*
X103742591Y-104694477D01*
X103707657Y-104699500D01*
X99578592Y-104699500D01*
X99511553Y-104679815D01*
X99465798Y-104627011D01*
X99455854Y-104557853D01*
X99465798Y-104523988D01*
X99473998Y-104506033D01*
X99486697Y-104478226D01*
X99505133Y-104350000D01*
X99486697Y-104221774D01*
X99432882Y-104103937D01*
X99432879Y-104103934D01*
X99428087Y-104096476D01*
X99429877Y-104095325D01*
X99405821Y-104042652D01*
X99415762Y-103973493D01*
X99428446Y-103953754D01*
X99428087Y-103953524D01*
X99432877Y-103946068D01*
X99432882Y-103946063D01*
X99486697Y-103828226D01*
X99505133Y-103700000D01*
X99486697Y-103571774D01*
X99432882Y-103453937D01*
X99348049Y-103356033D01*
X99239069Y-103285996D01*
X99239065Y-103285994D01*
X99239064Y-103285994D01*
X99114774Y-103249500D01*
X99114772Y-103249500D01*
X98985228Y-103249500D01*
X98985226Y-103249500D01*
X98860935Y-103285994D01*
X98860932Y-103285995D01*
X98860931Y-103285996D01*
X98809677Y-103318934D01*
X98751950Y-103356033D01*
X98667118Y-103453937D01*
X98667117Y-103453938D01*
X98613302Y-103571774D01*
X98594867Y-103700000D01*
X98613302Y-103828225D01*
X98670802Y-103954130D01*
X98669096Y-103954908D01*
X98685664Y-104011333D01*
X98665979Y-104078372D01*
X98613174Y-104124126D01*
X98544015Y-104134069D01*
X98480460Y-104105043D01*
X98473983Y-104099012D01*
X97189381Y-102814410D01*
X97155896Y-102753087D01*
X97154324Y-102744375D01*
X97144813Y-102678226D01*
X97136697Y-102621774D01*
X97082882Y-102503937D01*
X96998049Y-102406033D01*
X96889069Y-102335996D01*
X96889065Y-102335994D01*
X96889064Y-102335994D01*
X96764774Y-102299500D01*
X96764772Y-102299500D01*
X96635228Y-102299500D01*
X96635226Y-102299500D01*
X96510935Y-102335994D01*
X96510932Y-102335995D01*
X96510931Y-102335996D01*
X96465160Y-102365411D01*
X96401950Y-102406033D01*
X96317118Y-102503937D01*
X96317117Y-102503938D01*
X96263303Y-102621773D01*
X96261678Y-102627308D01*
X96223902Y-102686085D01*
X96160345Y-102715107D01*
X96091187Y-102705162D01*
X96055021Y-102680050D01*
X95736819Y-102361848D01*
X95703334Y-102300525D01*
X95700500Y-102274167D01*
X95700500Y-102187386D01*
X95720185Y-102120347D01*
X95730778Y-102106194D01*
X95782882Y-102046063D01*
X95836697Y-101928226D01*
X95855133Y-101800000D01*
X95836697Y-101671774D01*
X95782882Y-101553937D01*
X95698049Y-101456033D01*
X95589069Y-101385996D01*
X95589065Y-101385994D01*
X95589064Y-101385994D01*
X95464774Y-101349500D01*
X95464772Y-101349500D01*
X95335228Y-101349500D01*
X95209433Y-101386435D01*
X95139564Y-101386434D01*
X95080786Y-101348658D01*
X95051762Y-101285102D01*
X95050500Y-101267457D01*
X95050500Y-101175833D01*
X95070185Y-101108794D01*
X95086819Y-101088152D01*
X100890457Y-95284514D01*
X100890460Y-95284511D01*
X100892948Y-95280201D01*
X100930021Y-95215989D01*
X100950500Y-95139562D01*
X100950500Y-94800000D01*
X101294867Y-94800000D01*
X101313302Y-94928225D01*
X101342065Y-94991205D01*
X101367118Y-95046063D01*
X101451951Y-95143967D01*
X101560931Y-95214004D01*
X101685225Y-95250499D01*
X101685227Y-95250500D01*
X101685228Y-95250500D01*
X101814773Y-95250500D01*
X101814773Y-95250499D01*
X101939069Y-95214004D01*
X102048049Y-95143967D01*
X102132882Y-95046063D01*
X102186697Y-94928226D01*
X102205133Y-94800000D01*
X102186697Y-94671774D01*
X102132882Y-94553937D01*
X102048049Y-94456033D01*
X101939069Y-94385996D01*
X101939065Y-94385994D01*
X101939064Y-94385994D01*
X101814774Y-94349500D01*
X101814772Y-94349500D01*
X101685228Y-94349500D01*
X101685226Y-94349500D01*
X101560935Y-94385994D01*
X101560932Y-94385995D01*
X101560931Y-94385996D01*
X101533013Y-94403938D01*
X101451950Y-94456033D01*
X101367118Y-94553937D01*
X101367117Y-94553938D01*
X101313302Y-94671774D01*
X101294867Y-94800000D01*
X100950500Y-94800000D01*
X100950500Y-94325833D01*
X100970185Y-94258794D01*
X100986819Y-94238152D01*
X102688152Y-92536819D01*
X102749475Y-92503334D01*
X102775833Y-92500500D01*
X102807657Y-92500500D01*
X102874696Y-92520185D01*
X102901369Y-92543296D01*
X102901949Y-92543965D01*
X102901951Y-92543967D01*
X103010931Y-92614004D01*
X103037394Y-92621774D01*
X103135225Y-92650499D01*
X103135227Y-92650500D01*
X103135228Y-92650500D01*
X103264773Y-92650500D01*
X103264773Y-92650499D01*
X103389069Y-92614004D01*
X103498049Y-92543967D01*
X103582882Y-92446063D01*
X103636697Y-92328226D01*
X103655133Y-92200000D01*
X103636697Y-92071774D01*
X103582882Y-91953937D01*
X103582880Y-91953935D01*
X103582879Y-91953932D01*
X103519858Y-91881202D01*
X103490833Y-91817647D01*
X103500777Y-91748488D01*
X103519858Y-91718798D01*
X103582879Y-91646067D01*
X103582879Y-91646065D01*
X103582882Y-91646063D01*
X103636697Y-91528226D01*
X103655133Y-91400000D01*
X103636697Y-91271774D01*
X103582882Y-91153937D01*
X103498049Y-91056033D01*
X103389069Y-90985996D01*
X103389065Y-90985994D01*
X103389064Y-90985994D01*
X103264774Y-90949500D01*
X103264772Y-90949500D01*
X103135228Y-90949500D01*
X103135226Y-90949500D01*
X103010935Y-90985994D01*
X103010932Y-90985995D01*
X103010931Y-90985996D01*
X102959806Y-91018852D01*
X102901949Y-91056034D01*
X102901369Y-91056704D01*
X102900620Y-91057184D01*
X102895246Y-91061842D01*
X102894576Y-91061069D01*
X102842591Y-91094477D01*
X102807657Y-91099500D01*
X102610438Y-91099500D01*
X102534010Y-91119978D01*
X102465489Y-91159540D01*
X102465486Y-91159542D01*
X102211848Y-91413181D01*
X102150525Y-91446666D01*
X102124167Y-91449500D01*
X98249640Y-91449500D01*
X98182601Y-91429815D01*
X98136846Y-91377011D01*
X98126902Y-91307853D01*
X98142409Y-91200000D01*
X98123973Y-91071774D01*
X98070158Y-90953937D01*
X98070156Y-90953935D01*
X98070155Y-90953932D01*
X98018062Y-90893812D01*
X97989038Y-90830256D01*
X97987776Y-90812611D01*
X97987776Y-88788556D01*
X98007461Y-88721517D01*
X98024091Y-88700879D01*
X98791824Y-87933145D01*
X98853145Y-87899662D01*
X98922836Y-87904646D01*
X98978770Y-87946518D01*
X98999277Y-87988733D01*
X99019977Y-88065984D01*
X99019982Y-88065995D01*
X99059535Y-88134504D01*
X99059539Y-88134509D01*
X99059540Y-88134511D01*
X100865489Y-89940460D01*
X100919726Y-89971774D01*
X100934008Y-89980020D01*
X100934012Y-89980022D01*
X101010438Y-90000500D01*
X101010440Y-90000500D01*
X103039560Y-90000500D01*
X103039562Y-90000500D01*
X103115989Y-89980021D01*
X103184511Y-89940460D01*
X103188152Y-89936819D01*
X103249475Y-89903334D01*
X103275833Y-89900500D01*
X103314773Y-89900500D01*
X103314773Y-89900499D01*
X103439069Y-89864004D01*
X103537616Y-89800671D01*
X103604654Y-89780988D01*
X103671694Y-89800673D01*
X103692335Y-89817307D01*
X105463181Y-91588152D01*
X105496666Y-91649475D01*
X105499500Y-91675833D01*
X105499500Y-92309068D01*
X105479815Y-92376107D01*
X105427011Y-92421862D01*
X105357853Y-92431806D01*
X105306960Y-92408570D01*
X105305510Y-92410828D01*
X105298049Y-92406033D01*
X105189069Y-92335996D01*
X105189065Y-92335994D01*
X105189064Y-92335994D01*
X105064774Y-92299500D01*
X105064772Y-92299500D01*
X104935228Y-92299500D01*
X104935226Y-92299500D01*
X104810935Y-92335994D01*
X104810932Y-92335995D01*
X104810931Y-92335996D01*
X104783013Y-92353938D01*
X104701950Y-92406033D01*
X104617118Y-92503937D01*
X104617117Y-92503938D01*
X104563302Y-92621774D01*
X104544867Y-92750000D01*
X104563302Y-92878225D01*
X104594283Y-92946062D01*
X104617118Y-92996063D01*
X104701951Y-93093967D01*
X104810931Y-93164004D01*
X104935225Y-93200499D01*
X104935227Y-93200500D01*
X104935228Y-93200500D01*
X105064773Y-93200500D01*
X105064773Y-93200499D01*
X105189069Y-93164004D01*
X105298049Y-93093967D01*
X105306284Y-93084462D01*
X105365061Y-93046686D01*
X105434930Y-93046684D01*
X105493710Y-93084456D01*
X105493716Y-93084463D01*
X105501949Y-93093966D01*
X105501951Y-93093967D01*
X105610931Y-93164004D01*
X105735225Y-93200499D01*
X105735227Y-93200500D01*
X105735228Y-93200500D01*
X105864773Y-93200500D01*
X105864773Y-93200499D01*
X105989069Y-93164004D01*
X106098049Y-93093967D01*
X106182882Y-92996063D01*
X106182886Y-92996053D01*
X106185143Y-92992543D01*
X106188310Y-92989797D01*
X106188689Y-92989361D01*
X106188751Y-92989415D01*
X106237943Y-92946783D01*
X106307100Y-92936832D01*
X106356501Y-92955254D01*
X106370115Y-92964004D01*
X106494409Y-93000499D01*
X106494411Y-93000500D01*
X106494412Y-93000500D01*
X106623954Y-93000500D01*
X106623956Y-93000500D01*
X106640565Y-92995622D01*
X106710433Y-92995622D01*
X106769212Y-93033396D01*
X106798238Y-93096951D01*
X106799500Y-93114600D01*
X106799500Y-102262223D01*
X106779815Y-102329262D01*
X106727011Y-102375017D01*
X106657853Y-102384961D01*
X106640571Y-102381202D01*
X106634773Y-102379500D01*
X106634772Y-102379500D01*
X106595833Y-102379500D01*
X106528794Y-102359815D01*
X106508152Y-102343181D01*
X104686819Y-100521848D01*
X104653334Y-100460525D01*
X104650500Y-100434167D01*
X104650500Y-97037386D01*
X104670185Y-96970347D01*
X104680778Y-96956194D01*
X104732882Y-96896063D01*
X104786697Y-96778226D01*
X104805133Y-96650000D01*
X104786697Y-96521774D01*
X104732882Y-96403937D01*
X104648049Y-96306033D01*
X104539069Y-96235996D01*
X104539065Y-96235994D01*
X104539064Y-96235994D01*
X104414774Y-96199500D01*
X104414772Y-96199500D01*
X104285228Y-96199500D01*
X104285226Y-96199500D01*
X104160935Y-96235994D01*
X104160932Y-96235995D01*
X104160931Y-96235996D01*
X104131639Y-96254821D01*
X104051950Y-96306033D01*
X103967118Y-96403937D01*
X103967117Y-96403938D01*
X103913302Y-96521774D01*
X103894867Y-96650000D01*
X103913302Y-96778225D01*
X103944283Y-96846062D01*
X103967118Y-96896063D01*
X104019214Y-96956186D01*
X104048238Y-97019738D01*
X104049500Y-97037386D01*
X104049500Y-100649562D01*
X104055452Y-100671774D01*
X104069979Y-100725990D01*
X104069980Y-100725991D01*
X104078884Y-100741413D01*
X104078885Y-100741414D01*
X104109539Y-100794509D01*
X104109541Y-100794512D01*
X106080618Y-102765589D01*
X106114103Y-102826912D01*
X106115675Y-102835623D01*
X106133302Y-102958225D01*
X106152609Y-103000500D01*
X106187118Y-103076063D01*
X106271951Y-103173967D01*
X106380931Y-103244004D01*
X106391338Y-103247059D01*
X106423566Y-103256523D01*
X106482344Y-103294296D01*
X106511370Y-103357852D01*
X106501427Y-103427010D01*
X106455672Y-103479815D01*
X106388633Y-103499500D01*
X106260438Y-103499500D01*
X106222224Y-103509739D01*
X106184009Y-103519979D01*
X106161816Y-103532793D01*
X106158841Y-103534511D01*
X106145960Y-103541947D01*
X106115489Y-103559539D01*
X105509541Y-104165487D01*
X105509535Y-104165495D01*
X105469982Y-104234004D01*
X105469979Y-104234009D01*
X105469379Y-104236250D01*
X105453353Y-104296061D01*
X105449500Y-104310439D01*
X105449500Y-105012611D01*
X105429815Y-105079650D01*
X105419214Y-105093812D01*
X105367120Y-105153932D01*
X105367117Y-105153938D01*
X105313302Y-105271774D01*
X105294867Y-105400000D01*
X105313302Y-105528225D01*
X105349714Y-105607955D01*
X105367118Y-105646063D01*
X105451951Y-105743967D01*
X105560931Y-105814004D01*
X105587394Y-105821774D01*
X105685225Y-105850499D01*
X105685227Y-105850500D01*
X105685228Y-105850500D01*
X105814771Y-105850500D01*
X105814772Y-105850500D01*
X105836538Y-105844109D01*
X105906407Y-105844109D01*
X105965186Y-105881883D01*
X105994211Y-105945438D01*
X105994211Y-105945439D01*
X106013302Y-106078225D01*
X106044283Y-106146062D01*
X106067118Y-106196063D01*
X106117667Y-106254400D01*
X106150967Y-106292832D01*
X106151951Y-106293967D01*
X106260931Y-106364004D01*
X106282035Y-106370200D01*
X106331034Y-106384588D01*
X106389812Y-106422361D01*
X106418838Y-106485917D01*
X106408895Y-106555075D01*
X106383781Y-106591246D01*
X105511848Y-107463181D01*
X105450525Y-107496666D01*
X105424167Y-107499500D01*
X89243423Y-107499500D01*
X89176384Y-107479815D01*
X89130629Y-107427011D01*
X89120685Y-107357853D01*
X89149710Y-107294297D01*
X89182310Y-107269891D01*
X89181608Y-107268798D01*
X89189066Y-107264004D01*
X89189069Y-107264004D01*
X89298049Y-107193967D01*
X89382882Y-107096063D01*
X89436697Y-106978226D01*
X89455133Y-106850000D01*
X89436697Y-106721774D01*
X89382882Y-106603937D01*
X89298049Y-106506033D01*
X89189069Y-106435996D01*
X89189065Y-106435994D01*
X89189064Y-106435994D01*
X89064774Y-106399500D01*
X89064772Y-106399500D01*
X88935228Y-106399500D01*
X88935226Y-106399500D01*
X88810935Y-106435994D01*
X88810932Y-106435995D01*
X88810931Y-106435996D01*
X88779068Y-106456473D01*
X88701950Y-106506033D01*
X88617118Y-106603937D01*
X88617117Y-106603938D01*
X88563302Y-106721774D01*
X88544867Y-106850000D01*
X88563302Y-106978225D01*
X88605683Y-107071025D01*
X88617118Y-107096063D01*
X88681344Y-107170185D01*
X88701369Y-107193296D01*
X88701951Y-107193967D01*
X88810931Y-107264004D01*
X88810933Y-107264004D01*
X88818392Y-107268798D01*
X88817221Y-107270618D01*
X88860895Y-107308465D01*
X88880577Y-107375505D01*
X88860889Y-107442544D01*
X88808083Y-107488297D01*
X88756577Y-107499500D01*
X86175833Y-107499500D01*
X86108794Y-107479815D01*
X86088152Y-107463181D01*
X84384512Y-105759541D01*
X84384504Y-105759535D01*
X84315995Y-105719982D01*
X84315990Y-105719979D01*
X84290513Y-105713152D01*
X84239562Y-105699500D01*
X81960438Y-105699500D01*
X81922224Y-105709739D01*
X81884009Y-105719979D01*
X81884004Y-105719982D01*
X81815495Y-105759535D01*
X81815487Y-105759541D01*
X80359541Y-107215487D01*
X80359535Y-107215495D01*
X80319982Y-107284004D01*
X80319979Y-107284009D01*
X80299500Y-107360439D01*
X80299500Y-113624167D01*
X80279815Y-113691206D01*
X80263181Y-113711848D01*
X78061848Y-115913181D01*
X78000525Y-115946666D01*
X77974167Y-115949500D01*
X76092343Y-115949500D01*
X76025304Y-115929815D01*
X75998631Y-115906704D01*
X75998050Y-115906034D01*
X75998049Y-115906033D01*
X75889069Y-115835996D01*
X75889065Y-115835994D01*
X75889064Y-115835994D01*
X75764774Y-115799500D01*
X75764772Y-115799500D01*
X75635228Y-115799500D01*
X75635226Y-115799500D01*
X75510935Y-115835994D01*
X75510932Y-115835995D01*
X75510931Y-115835996D01*
X75484701Y-115852853D01*
X75401950Y-115906033D01*
X75317118Y-116003937D01*
X75317117Y-116003938D01*
X75263302Y-116121774D01*
X75244867Y-116250000D01*
X75263302Y-116378225D01*
X75307879Y-116475833D01*
X75317118Y-116496063D01*
X75368640Y-116555523D01*
X75401369Y-116593296D01*
X75401951Y-116593967D01*
X75510931Y-116664004D01*
X75635225Y-116700499D01*
X75635227Y-116700500D01*
X75635228Y-116700500D01*
X75764773Y-116700500D01*
X75764773Y-116700499D01*
X75889069Y-116664004D01*
X75998049Y-116593967D01*
X75998374Y-116593591D01*
X75998631Y-116593296D01*
X75999379Y-116592815D01*
X76004754Y-116588158D01*
X76005423Y-116588930D01*
X76057409Y-116555523D01*
X76092343Y-116550500D01*
X77670500Y-116550500D01*
X77737539Y-116570185D01*
X77783294Y-116622989D01*
X77794500Y-116674500D01*
X77794500Y-120475500D01*
X77794684Y-120477216D01*
X77794613Y-120477606D01*
X77794678Y-120478808D01*
X77794500Y-120478817D01*
X77794500Y-120478821D01*
X77794436Y-120478821D01*
X77794393Y-120478823D01*
X77782270Y-120545974D01*
X77734653Y-120597105D01*
X77684800Y-120613728D01*
X77449053Y-120639367D01*
X77088934Y-120718635D01*
X76828424Y-120806412D01*
X76739497Y-120836375D01*
X76739494Y-120836376D01*
X76739486Y-120836379D01*
X76404846Y-120991200D01*
X76404842Y-120991202D01*
X76169538Y-121132779D01*
X76088881Y-121181310D01*
X75988410Y-121257685D01*
X75795330Y-121404461D01*
X75795330Y-121404462D01*
X75527626Y-121658044D01*
X75288909Y-121939083D01*
X75081979Y-122244282D01*
X75081973Y-122244291D01*
X74909261Y-122570061D01*
X74909255Y-122570073D01*
X74772770Y-122912628D01*
X74772768Y-122912634D01*
X74674128Y-123267905D01*
X74674122Y-123267931D01*
X74614470Y-123631786D01*
X74614469Y-123631803D01*
X74594506Y-123999997D01*
X74594506Y-124000002D01*
X74614469Y-124368196D01*
X74614470Y-124368213D01*
X74674122Y-124732068D01*
X74674128Y-124732094D01*
X74772768Y-125087365D01*
X74772770Y-125087371D01*
X74909255Y-125429926D01*
X74909261Y-125429938D01*
X75081973Y-125755708D01*
X75081979Y-125755717D01*
X75288909Y-126060916D01*
X75502930Y-126312880D01*
X75527627Y-126341956D01*
X75795330Y-126595538D01*
X76088881Y-126818690D01*
X76404838Y-127008795D01*
X76404840Y-127008796D01*
X76404842Y-127008797D01*
X76404846Y-127008799D01*
X76739486Y-127163620D01*
X76739497Y-127163625D01*
X77088934Y-127281364D01*
X77449052Y-127360632D01*
X77684783Y-127386269D01*
X77749300Y-127413086D01*
X77789077Y-127470528D01*
X77793481Y-127519988D01*
X77794816Y-127520084D01*
X77794500Y-127524500D01*
X77794500Y-128375500D01*
X77774815Y-128442539D01*
X77722011Y-128488294D01*
X77670500Y-128499500D01*
X75758676Y-128499500D01*
X75691637Y-128479815D01*
X75670995Y-128463181D01*
X73536819Y-126329005D01*
X73503334Y-126267682D01*
X73500500Y-126241324D01*
X73500500Y-92700000D01*
X82444867Y-92700000D01*
X82463302Y-92828225D01*
X82517117Y-92946061D01*
X82517120Y-92946067D01*
X82536817Y-92968798D01*
X82565842Y-93032354D01*
X82555898Y-93101512D01*
X82536817Y-93131202D01*
X82517120Y-93153932D01*
X82517117Y-93153938D01*
X82463302Y-93271774D01*
X82444867Y-93400000D01*
X82463302Y-93528225D01*
X82517117Y-93646061D01*
X82517120Y-93646067D01*
X82536817Y-93668798D01*
X82565842Y-93732354D01*
X82555898Y-93801512D01*
X82536817Y-93831202D01*
X82517120Y-93853932D01*
X82517117Y-93853938D01*
X82463302Y-93971774D01*
X82444867Y-94100000D01*
X82463302Y-94228225D01*
X82517117Y-94346061D01*
X82517120Y-94346067D01*
X82536817Y-94368798D01*
X82565842Y-94432354D01*
X82555898Y-94501512D01*
X82536817Y-94531202D01*
X82517120Y-94553932D01*
X82517117Y-94553938D01*
X82463302Y-94671774D01*
X82444867Y-94800000D01*
X82463302Y-94928225D01*
X82517117Y-95046061D01*
X82517120Y-95046067D01*
X82536817Y-95068798D01*
X82565842Y-95132354D01*
X82555898Y-95201512D01*
X82536817Y-95231202D01*
X82517120Y-95253932D01*
X82517117Y-95253938D01*
X82463302Y-95371774D01*
X82444867Y-95500000D01*
X82463302Y-95628225D01*
X82517117Y-95746061D01*
X82517120Y-95746067D01*
X82536817Y-95768798D01*
X82565842Y-95832354D01*
X82555898Y-95901512D01*
X82536817Y-95931202D01*
X82517120Y-95953932D01*
X82517117Y-95953938D01*
X82463302Y-96071774D01*
X82444867Y-96200000D01*
X82463302Y-96328225D01*
X82517117Y-96446061D01*
X82517118Y-96446063D01*
X82601951Y-96543967D01*
X82710931Y-96614004D01*
X82835225Y-96650499D01*
X82835227Y-96650500D01*
X82835228Y-96650500D01*
X82964773Y-96650500D01*
X82964773Y-96650499D01*
X83089069Y-96614004D01*
X83198049Y-96543967D01*
X83282882Y-96446063D01*
X83336697Y-96328226D01*
X83355133Y-96200000D01*
X83336697Y-96071774D01*
X83282882Y-95953937D01*
X83263181Y-95931201D01*
X83234157Y-95867649D01*
X83244100Y-95798490D01*
X83263182Y-95768798D01*
X83282882Y-95746063D01*
X83336697Y-95628226D01*
X83355133Y-95500000D01*
X83336697Y-95371774D01*
X83282882Y-95253937D01*
X83263181Y-95231201D01*
X83234157Y-95167649D01*
X83244100Y-95098490D01*
X83263182Y-95068798D01*
X83282882Y-95046063D01*
X83336697Y-94928226D01*
X83355133Y-94800000D01*
X83336697Y-94671774D01*
X83282882Y-94553937D01*
X83263181Y-94531201D01*
X83234157Y-94467649D01*
X83244100Y-94398490D01*
X83263182Y-94368798D01*
X83282882Y-94346063D01*
X83336697Y-94228226D01*
X83355133Y-94100000D01*
X83336697Y-93971774D01*
X83282882Y-93853937D01*
X83263181Y-93831201D01*
X83234157Y-93767649D01*
X83244100Y-93698490D01*
X83263182Y-93668798D01*
X83282882Y-93646063D01*
X83336697Y-93528226D01*
X83355133Y-93400000D01*
X83336697Y-93271774D01*
X83282882Y-93153937D01*
X83263181Y-93131201D01*
X83234157Y-93067649D01*
X83244100Y-92998490D01*
X83263182Y-92968798D01*
X83282882Y-92946063D01*
X83336697Y-92828226D01*
X83355133Y-92700000D01*
X83340755Y-92600000D01*
X89594867Y-92600000D01*
X89613302Y-92728225D01*
X89658972Y-92828226D01*
X89667118Y-92846063D01*
X89751951Y-92943967D01*
X89860931Y-93014004D01*
X89985225Y-93050499D01*
X89985227Y-93050500D01*
X89985228Y-93050500D01*
X90114773Y-93050500D01*
X90114773Y-93050499D01*
X90239069Y-93014004D01*
X90348049Y-92943967D01*
X90432882Y-92846063D01*
X90486697Y-92728226D01*
X90505133Y-92600000D01*
X90486697Y-92471774D01*
X90432882Y-92353937D01*
X90348049Y-92256033D01*
X90239069Y-92185996D01*
X90239065Y-92185994D01*
X90239064Y-92185994D01*
X90114774Y-92149500D01*
X90114772Y-92149500D01*
X89985228Y-92149500D01*
X89985226Y-92149500D01*
X89860935Y-92185994D01*
X89860932Y-92185995D01*
X89860931Y-92185996D01*
X89809677Y-92218934D01*
X89751950Y-92256033D01*
X89667118Y-92353937D01*
X89667117Y-92353938D01*
X89613302Y-92471774D01*
X89594867Y-92600000D01*
X83340755Y-92600000D01*
X83336697Y-92571774D01*
X83282882Y-92453937D01*
X83198049Y-92356033D01*
X83089069Y-92285996D01*
X83089065Y-92285994D01*
X83089064Y-92285994D01*
X82964774Y-92249500D01*
X82964772Y-92249500D01*
X82835228Y-92249500D01*
X82835226Y-92249500D01*
X82710935Y-92285994D01*
X82710932Y-92285995D01*
X82710931Y-92285996D01*
X82675030Y-92309068D01*
X82601950Y-92356033D01*
X82517118Y-92453937D01*
X82517117Y-92453938D01*
X82463302Y-92571774D01*
X82444867Y-92700000D01*
X73500500Y-92700000D01*
X73500500Y-91500000D01*
X86744867Y-91500000D01*
X86763302Y-91628225D01*
X86796310Y-91700500D01*
X86817118Y-91746063D01*
X86901951Y-91843967D01*
X87010931Y-91914004D01*
X87135225Y-91950499D01*
X87135227Y-91950500D01*
X87135228Y-91950500D01*
X87264773Y-91950500D01*
X87264773Y-91950499D01*
X87389069Y-91914004D01*
X87498049Y-91843967D01*
X87582882Y-91746063D01*
X87636697Y-91628226D01*
X87655133Y-91500000D01*
X87636697Y-91371774D01*
X87582882Y-91253937D01*
X87498049Y-91156033D01*
X87389069Y-91085996D01*
X87389065Y-91085994D01*
X87389064Y-91085994D01*
X87264774Y-91049500D01*
X87264772Y-91049500D01*
X87135228Y-91049500D01*
X87135226Y-91049500D01*
X87010935Y-91085994D01*
X87010932Y-91085995D01*
X87010931Y-91085996D01*
X86974296Y-91109540D01*
X86901950Y-91156033D01*
X86817118Y-91253937D01*
X86817117Y-91253938D01*
X86763302Y-91371774D01*
X86744867Y-91500000D01*
X73500500Y-91500000D01*
X73500500Y-88136309D01*
X75255500Y-88136309D01*
X75255500Y-88363690D01*
X75291067Y-88588255D01*
X75361330Y-88804500D01*
X75464555Y-89007086D01*
X75598191Y-89191022D01*
X75598195Y-89191027D01*
X75758972Y-89351804D01*
X75758977Y-89351808D01*
X75874853Y-89435996D01*
X75942917Y-89485447D01*
X76038229Y-89534011D01*
X76145499Y-89588669D01*
X76145501Y-89588669D01*
X76145504Y-89588671D01*
X76203334Y-89607461D01*
X76361744Y-89658932D01*
X76586310Y-89694500D01*
X76586315Y-89694500D01*
X76813690Y-89694500D01*
X77038255Y-89658932D01*
X77089732Y-89642206D01*
X77254496Y-89588671D01*
X77457083Y-89485447D01*
X77641029Y-89351803D01*
X77801803Y-89191029D01*
X77935447Y-89007083D01*
X78038671Y-88804496D01*
X78108932Y-88588255D01*
X78111322Y-88573163D01*
X78144500Y-88363690D01*
X78144500Y-88136309D01*
X79255500Y-88136309D01*
X79255500Y-88363690D01*
X79291067Y-88588255D01*
X79361330Y-88804500D01*
X79464555Y-89007086D01*
X79598191Y-89191022D01*
X79598195Y-89191027D01*
X79758972Y-89351804D01*
X79758977Y-89351808D01*
X79874853Y-89435996D01*
X79942917Y-89485447D01*
X80038229Y-89534011D01*
X80145499Y-89588669D01*
X80145501Y-89588669D01*
X80145504Y-89588671D01*
X80203334Y-89607461D01*
X80361744Y-89658932D01*
X80586310Y-89694500D01*
X80586315Y-89694500D01*
X80813690Y-89694500D01*
X81038255Y-89658932D01*
X81089732Y-89642206D01*
X81254496Y-89588671D01*
X81457083Y-89485447D01*
X81641029Y-89351803D01*
X81801803Y-89191029D01*
X81935447Y-89007083D01*
X82038671Y-88804496D01*
X82108932Y-88588255D01*
X82111322Y-88573163D01*
X82144500Y-88363690D01*
X82144500Y-88136309D01*
X82108932Y-87911744D01*
X82069176Y-87789388D01*
X82038671Y-87695504D01*
X82038669Y-87695501D01*
X82038669Y-87695499D01*
X81976572Y-87573629D01*
X81935447Y-87492917D01*
X81893013Y-87434511D01*
X81801808Y-87308977D01*
X81801804Y-87308972D01*
X81641027Y-87148195D01*
X81641022Y-87148191D01*
X81457086Y-87014555D01*
X81457085Y-87014554D01*
X81457083Y-87014553D01*
X81353360Y-86961703D01*
X81254500Y-86911330D01*
X81038255Y-86841067D01*
X80813690Y-86805500D01*
X80813685Y-86805500D01*
X80586315Y-86805500D01*
X80586310Y-86805500D01*
X80361744Y-86841067D01*
X80145499Y-86911330D01*
X79942913Y-87014555D01*
X79758977Y-87148191D01*
X79758972Y-87148195D01*
X79598195Y-87308972D01*
X79598191Y-87308977D01*
X79464555Y-87492913D01*
X79361330Y-87695499D01*
X79291067Y-87911744D01*
X79255500Y-88136309D01*
X78144500Y-88136309D01*
X78108932Y-87911744D01*
X78069176Y-87789388D01*
X78038671Y-87695504D01*
X78038669Y-87695501D01*
X78038669Y-87695499D01*
X77976572Y-87573629D01*
X77935447Y-87492917D01*
X77893013Y-87434511D01*
X77801808Y-87308977D01*
X77801804Y-87308972D01*
X77641027Y-87148195D01*
X77641022Y-87148191D01*
X77457086Y-87014555D01*
X77457085Y-87014554D01*
X77457083Y-87014553D01*
X77353360Y-86961703D01*
X77254500Y-86911330D01*
X77038255Y-86841067D01*
X76813690Y-86805500D01*
X76813685Y-86805500D01*
X76586315Y-86805500D01*
X76586310Y-86805500D01*
X76361744Y-86841067D01*
X76145499Y-86911330D01*
X75942913Y-87014555D01*
X75758977Y-87148191D01*
X75758972Y-87148195D01*
X75598195Y-87308972D01*
X75598191Y-87308977D01*
X75464555Y-87492913D01*
X75361330Y-87695499D01*
X75291067Y-87911744D01*
X75255500Y-88136309D01*
X73500500Y-88136309D01*
X73500500Y-84636309D01*
X75255500Y-84636309D01*
X75255500Y-84863690D01*
X75291067Y-85088255D01*
X75361330Y-85304500D01*
X75420276Y-85420185D01*
X75460689Y-85499500D01*
X75464555Y-85507086D01*
X75598191Y-85691022D01*
X75598195Y-85691027D01*
X75758972Y-85851804D01*
X75758977Y-85851808D01*
X75907259Y-85959540D01*
X75942917Y-85985447D01*
X76061878Y-86046061D01*
X76145499Y-86088669D01*
X76145501Y-86088669D01*
X76145504Y-86088671D01*
X76242993Y-86120347D01*
X76361744Y-86158932D01*
X76586310Y-86194500D01*
X76586315Y-86194500D01*
X76813690Y-86194500D01*
X77038255Y-86158932D01*
X77093019Y-86141138D01*
X77254496Y-86088671D01*
X77457083Y-85985447D01*
X77641029Y-85851803D01*
X77801803Y-85691029D01*
X77935447Y-85507083D01*
X78038671Y-85304496D01*
X78108932Y-85088255D01*
X78111542Y-85071774D01*
X78144500Y-84863690D01*
X78144500Y-84636309D01*
X79255500Y-84636309D01*
X79255500Y-84863690D01*
X79291067Y-85088255D01*
X79361330Y-85304500D01*
X79420276Y-85420185D01*
X79460689Y-85499500D01*
X79464555Y-85507086D01*
X79598191Y-85691022D01*
X79598195Y-85691027D01*
X79758972Y-85851804D01*
X79758977Y-85851808D01*
X79907259Y-85959540D01*
X79942917Y-85985447D01*
X80061878Y-86046061D01*
X80145499Y-86088669D01*
X80145501Y-86088669D01*
X80145504Y-86088671D01*
X80242993Y-86120347D01*
X80361744Y-86158932D01*
X80586310Y-86194500D01*
X80586315Y-86194500D01*
X80813690Y-86194500D01*
X81038255Y-86158932D01*
X81093019Y-86141138D01*
X81254496Y-86088671D01*
X81457083Y-85985447D01*
X81641029Y-85851803D01*
X81801803Y-85691029D01*
X81935447Y-85507083D01*
X82038671Y-85304496D01*
X82108932Y-85088255D01*
X82111542Y-85071774D01*
X82144500Y-84863690D01*
X82144500Y-84636309D01*
X82108932Y-84411744D01*
X82038669Y-84195499D01*
X81962526Y-84046063D01*
X81935447Y-83992917D01*
X81918372Y-83969415D01*
X81801808Y-83808977D01*
X81801804Y-83808972D01*
X81641027Y-83648195D01*
X81641022Y-83648191D01*
X81457086Y-83514555D01*
X81457085Y-83514554D01*
X81457083Y-83514553D01*
X81370007Y-83470185D01*
X81254500Y-83411330D01*
X81038255Y-83341067D01*
X80813690Y-83305500D01*
X80813685Y-83305500D01*
X80586315Y-83305500D01*
X80586310Y-83305500D01*
X80361744Y-83341067D01*
X80145499Y-83411330D01*
X79942913Y-83514555D01*
X79758977Y-83648191D01*
X79758972Y-83648195D01*
X79598195Y-83808972D01*
X79598191Y-83808977D01*
X79464555Y-83992913D01*
X79361330Y-84195499D01*
X79291067Y-84411744D01*
X79255500Y-84636309D01*
X78144500Y-84636309D01*
X78108932Y-84411744D01*
X78038669Y-84195499D01*
X77962526Y-84046063D01*
X77935447Y-83992917D01*
X77918372Y-83969415D01*
X77801808Y-83808977D01*
X77801804Y-83808972D01*
X77641027Y-83648195D01*
X77641022Y-83648191D01*
X77457086Y-83514555D01*
X77457085Y-83514554D01*
X77457083Y-83514553D01*
X77370007Y-83470185D01*
X77254500Y-83411330D01*
X77038255Y-83341067D01*
X76813690Y-83305500D01*
X76813685Y-83305500D01*
X76586315Y-83305500D01*
X76586310Y-83305500D01*
X76361744Y-83341067D01*
X76145499Y-83411330D01*
X75942913Y-83514555D01*
X75758977Y-83648191D01*
X75758972Y-83648195D01*
X75598195Y-83808972D01*
X75598191Y-83808977D01*
X75464555Y-83992913D01*
X75361330Y-84195499D01*
X75291067Y-84411744D01*
X75255500Y-84636309D01*
X73500500Y-84636309D01*
X73500500Y-79000000D01*
X74594506Y-79000000D01*
X74610771Y-79300000D01*
X74614469Y-79368196D01*
X74614470Y-79368213D01*
X74674122Y-79732068D01*
X74674128Y-79732094D01*
X74772768Y-80087365D01*
X74772770Y-80087371D01*
X74909255Y-80429926D01*
X74909261Y-80429938D01*
X75081973Y-80755708D01*
X75081976Y-80755713D01*
X75081978Y-80755716D01*
X75288910Y-81060917D01*
X75527627Y-81341956D01*
X75795330Y-81595538D01*
X76088881Y-81818690D01*
X76404838Y-82008795D01*
X76404840Y-82008796D01*
X76404842Y-82008797D01*
X76404846Y-82008799D01*
X76739486Y-82163620D01*
X76739497Y-82163625D01*
X77088934Y-82281364D01*
X77449052Y-82360632D01*
X77815630Y-82400500D01*
X77815636Y-82400500D01*
X78184364Y-82400500D01*
X78184370Y-82400500D01*
X78550948Y-82360632D01*
X78911066Y-82281364D01*
X79260503Y-82163625D01*
X79595162Y-82008795D01*
X79911119Y-81818690D01*
X80204670Y-81595538D01*
X80472373Y-81341956D01*
X80711090Y-81060917D01*
X80918022Y-80755716D01*
X81090743Y-80429930D01*
X81227227Y-80087379D01*
X81325875Y-79732081D01*
X81374416Y-79435996D01*
X81385529Y-79368213D01*
X81385529Y-79368210D01*
X81385531Y-79368199D01*
X81405494Y-79000000D01*
X81385531Y-78631801D01*
X81325875Y-78267919D01*
X81303748Y-78188226D01*
X81227231Y-77912634D01*
X81227229Y-77912628D01*
X81227228Y-77912627D01*
X81227227Y-77912621D01*
X81090743Y-77570070D01*
X81080103Y-77550000D01*
X84144867Y-77550000D01*
X84163302Y-77678225D01*
X84217117Y-77796061D01*
X84217118Y-77796063D01*
X84301951Y-77893967D01*
X84410931Y-77964004D01*
X84535225Y-78000499D01*
X84535227Y-78000500D01*
X84535228Y-78000500D01*
X84664773Y-78000500D01*
X84664773Y-78000499D01*
X84789069Y-77964004D01*
X84898049Y-77893967D01*
X84982882Y-77796063D01*
X85036697Y-77678226D01*
X85055133Y-77550000D01*
X85036697Y-77421774D01*
X84982882Y-77303937D01*
X84898049Y-77206033D01*
X84789069Y-77135996D01*
X84789065Y-77135994D01*
X84789064Y-77135994D01*
X84664774Y-77099500D01*
X84664772Y-77099500D01*
X84535228Y-77099500D01*
X84535226Y-77099500D01*
X84410935Y-77135994D01*
X84410932Y-77135995D01*
X84410931Y-77135996D01*
X84359677Y-77168934D01*
X84301950Y-77206033D01*
X84217118Y-77303937D01*
X84217117Y-77303938D01*
X84163302Y-77421774D01*
X84144867Y-77550000D01*
X81080103Y-77550000D01*
X80918022Y-77244284D01*
X80711090Y-76939083D01*
X80472373Y-76658044D01*
X80204670Y-76404462D01*
X79911119Y-76181310D01*
X79595162Y-75991205D01*
X79595161Y-75991204D01*
X79595157Y-75991202D01*
X79595153Y-75991200D01*
X79260513Y-75836379D01*
X79260508Y-75836377D01*
X79260503Y-75836375D01*
X79090172Y-75778983D01*
X78911065Y-75718635D01*
X78550946Y-75639367D01*
X78184371Y-75599500D01*
X78184370Y-75599500D01*
X77815630Y-75599500D01*
X77815628Y-75599500D01*
X77449053Y-75639367D01*
X77088934Y-75718635D01*
X76818812Y-75809650D01*
X76739497Y-75836375D01*
X76739494Y-75836376D01*
X76739486Y-75836379D01*
X76404846Y-75991200D01*
X76404842Y-75991202D01*
X76224850Y-76099500D01*
X76088881Y-76181310D01*
X75988410Y-76257685D01*
X75795330Y-76404461D01*
X75795330Y-76404462D01*
X75527626Y-76658044D01*
X75288909Y-76939083D01*
X75081979Y-77244282D01*
X75081973Y-77244291D01*
X74909261Y-77570061D01*
X74909255Y-77570073D01*
X74772770Y-77912628D01*
X74772768Y-77912634D01*
X74674128Y-78267905D01*
X74674122Y-78267931D01*
X74614470Y-78631786D01*
X74614469Y-78631799D01*
X74614469Y-78631801D01*
X74594506Y-79000000D01*
X73500500Y-79000000D01*
X73500500Y-76758676D01*
X73520185Y-76691637D01*
X73536819Y-76670995D01*
X75670995Y-74536819D01*
X75732318Y-74503334D01*
X75758676Y-74500500D01*
X91826000Y-74500500D01*
X91893039Y-74520185D01*
G37*
%TD.AperFunction*%
%TA.AperFunction,Conductor*%
G36*
X109518834Y-104958651D02*
G01*
X109574767Y-105000523D01*
X109599184Y-105065987D01*
X109599500Y-105074833D01*
X109599500Y-105724167D01*
X109579815Y-105791206D01*
X109563181Y-105811848D01*
X97811848Y-117563181D01*
X97750525Y-117596666D01*
X97724167Y-117599500D01*
X95199500Y-117599500D01*
X95132461Y-117579815D01*
X95086706Y-117527011D01*
X95075500Y-117475500D01*
X95075500Y-117245730D01*
X95072646Y-117215300D01*
X95072646Y-117215298D01*
X95027793Y-117087119D01*
X95027792Y-117087117D01*
X95014464Y-117069058D01*
X94947150Y-116977850D01*
X94837882Y-116897207D01*
X94837880Y-116897206D01*
X94709700Y-116852353D01*
X94679270Y-116849500D01*
X94679266Y-116849500D01*
X93120734Y-116849500D01*
X93120730Y-116849500D01*
X93090300Y-116852353D01*
X93090298Y-116852353D01*
X92962119Y-116897206D01*
X92962117Y-116897207D01*
X92852850Y-116977850D01*
X92772207Y-117087117D01*
X92772206Y-117087119D01*
X92727353Y-117215298D01*
X92727353Y-117215300D01*
X92724500Y-117245730D01*
X92724500Y-118554265D01*
X92724937Y-118558928D01*
X92711594Y-118627512D01*
X92663291Y-118677995D01*
X92601478Y-118694500D01*
X88398522Y-118694500D01*
X88331483Y-118674815D01*
X88285728Y-118622011D01*
X88275063Y-118558928D01*
X88275500Y-118554265D01*
X88275500Y-117245730D01*
X88272646Y-117215300D01*
X88272646Y-117215298D01*
X88227793Y-117087119D01*
X88227792Y-117087117D01*
X88214464Y-117069058D01*
X88147150Y-116977850D01*
X88037882Y-116897207D01*
X88037880Y-116897206D01*
X87909700Y-116852353D01*
X87879270Y-116849500D01*
X87879266Y-116849500D01*
X87524500Y-116849500D01*
X87457461Y-116829815D01*
X87411706Y-116777011D01*
X87400500Y-116725500D01*
X87400500Y-116475833D01*
X87420185Y-116408794D01*
X87436819Y-116388152D01*
X89388152Y-114436819D01*
X89449475Y-114403334D01*
X89475833Y-114400500D01*
X99889560Y-114400500D01*
X99889562Y-114400500D01*
X99965989Y-114380021D01*
X100034511Y-114340460D01*
X100090460Y-114284511D01*
X109387819Y-104987152D01*
X109449142Y-104953667D01*
X109518834Y-104958651D01*
G37*
%TD.AperFunction*%
%TA.AperFunction,Conductor*%
G36*
X109868834Y-106458651D02*
G01*
X109924767Y-106500523D01*
X109949184Y-106565987D01*
X109949500Y-106574833D01*
X109949500Y-108174167D01*
X109929815Y-108241206D01*
X109913181Y-108261848D01*
X101361848Y-116813181D01*
X101300525Y-116846666D01*
X101274167Y-116849500D01*
X99920730Y-116849500D01*
X99890300Y-116852353D01*
X99890298Y-116852353D01*
X99762119Y-116897206D01*
X99762117Y-116897207D01*
X99652850Y-116977850D01*
X99572207Y-117087117D01*
X99572206Y-117087119D01*
X99527353Y-117215298D01*
X99527353Y-117215300D01*
X99524500Y-117245730D01*
X99524500Y-118554265D01*
X99524937Y-118558928D01*
X99511594Y-118627512D01*
X99463291Y-118677995D01*
X99401478Y-118694500D01*
X95198522Y-118694500D01*
X95131483Y-118674815D01*
X95085728Y-118622011D01*
X95075063Y-118558928D01*
X95075500Y-118554265D01*
X95075500Y-118324500D01*
X95095185Y-118257461D01*
X95147989Y-118211706D01*
X95199500Y-118200500D01*
X97939560Y-118200500D01*
X97939562Y-118200500D01*
X98015989Y-118180021D01*
X98084511Y-118140460D01*
X98140460Y-118084511D01*
X109737819Y-106487152D01*
X109799142Y-106453667D01*
X109868834Y-106458651D01*
G37*
%TD.AperFunction*%
%TA.AperFunction,Conductor*%
G36*
X110218834Y-108908650D02*
G01*
X110274767Y-108950522D01*
X110299184Y-109015986D01*
X110299500Y-109024832D01*
X110299500Y-111199167D01*
X110279815Y-111266206D01*
X110263181Y-111286848D01*
X109159541Y-112390487D01*
X109159535Y-112390495D01*
X109119982Y-112459004D01*
X109119979Y-112459009D01*
X109099500Y-112535439D01*
X109099500Y-115824167D01*
X109079815Y-115891206D01*
X109063181Y-115911848D01*
X108161848Y-116813181D01*
X108100525Y-116846666D01*
X108074167Y-116849500D01*
X106720730Y-116849500D01*
X106690300Y-116852353D01*
X106690298Y-116852353D01*
X106562119Y-116897206D01*
X106562117Y-116897207D01*
X106452850Y-116977850D01*
X106372207Y-117087117D01*
X106372206Y-117087119D01*
X106327353Y-117215298D01*
X106327353Y-117215300D01*
X106324500Y-117245730D01*
X106324500Y-118554265D01*
X106324937Y-118558928D01*
X106311594Y-118627512D01*
X106263291Y-118677995D01*
X106201478Y-118694500D01*
X101998522Y-118694500D01*
X101931483Y-118674815D01*
X101885728Y-118622011D01*
X101875063Y-118558928D01*
X101875500Y-118554265D01*
X101875500Y-117245733D01*
X101872689Y-117215764D01*
X101886027Y-117147179D01*
X101908463Y-117116506D01*
X110087821Y-108937149D01*
X110149142Y-108903666D01*
X110218834Y-108908650D01*
G37*
%TD.AperFunction*%
%TA.AperFunction,Conductor*%
G36*
X82875563Y-106320185D02*
G01*
X82921318Y-106372989D01*
X82931262Y-106442147D01*
X82902238Y-106505702D01*
X82901951Y-106506032D01*
X82901951Y-106506033D01*
X82864561Y-106549184D01*
X82817118Y-106603937D01*
X82817117Y-106603938D01*
X82763302Y-106721774D01*
X82744867Y-106850000D01*
X82763302Y-106978225D01*
X82805683Y-107071025D01*
X82817118Y-107096063D01*
X82881344Y-107170185D01*
X82901369Y-107193296D01*
X82901951Y-107193967D01*
X83010931Y-107264004D01*
X83114102Y-107294297D01*
X83135225Y-107300499D01*
X83135227Y-107300500D01*
X83135228Y-107300500D01*
X83264773Y-107300500D01*
X83264773Y-107300499D01*
X83389069Y-107264004D01*
X83498049Y-107193967D01*
X83498374Y-107193591D01*
X83498631Y-107193296D01*
X83499379Y-107192815D01*
X83504754Y-107188158D01*
X83505423Y-107188930D01*
X83557409Y-107155523D01*
X83592343Y-107150500D01*
X83874167Y-107150500D01*
X83941206Y-107170185D01*
X83961848Y-107186819D01*
X84763181Y-107988152D01*
X84796666Y-108049475D01*
X84799500Y-108075833D01*
X84799500Y-110039562D01*
X84813152Y-110090513D01*
X84819979Y-110115990D01*
X84819980Y-110115991D01*
X84855915Y-110178232D01*
X84855916Y-110178234D01*
X84859541Y-110184513D01*
X85759540Y-111084511D01*
X85815489Y-111140460D01*
X85815491Y-111140461D01*
X85815495Y-111140464D01*
X85842462Y-111156033D01*
X85884011Y-111180021D01*
X85960438Y-111200500D01*
X86425500Y-111200500D01*
X86492539Y-111220185D01*
X86538294Y-111272989D01*
X86549500Y-111324500D01*
X86549500Y-111419752D01*
X86561131Y-111478229D01*
X86561132Y-111478231D01*
X86563058Y-111481113D01*
X86565322Y-111488344D01*
X86565806Y-111489513D01*
X86565701Y-111489556D01*
X86583933Y-111547791D01*
X86565446Y-111615171D01*
X86563058Y-111618887D01*
X86561132Y-111621768D01*
X86561131Y-111621770D01*
X86549500Y-111680247D01*
X86549500Y-111775500D01*
X86529815Y-111842539D01*
X86477011Y-111888294D01*
X86425500Y-111899500D01*
X86160438Y-111899500D01*
X86129867Y-111907691D01*
X86084008Y-111919979D01*
X86084005Y-111919981D01*
X86031152Y-111950497D01*
X86031149Y-111950499D01*
X86023319Y-111955019D01*
X86015488Y-111959540D01*
X86015486Y-111959542D01*
X85661848Y-112313181D01*
X85600525Y-112346666D01*
X85574167Y-112349500D01*
X85535226Y-112349500D01*
X85410935Y-112385994D01*
X85410932Y-112385995D01*
X85410931Y-112385996D01*
X85359677Y-112418934D01*
X85301950Y-112456033D01*
X85217118Y-112553937D01*
X85217117Y-112553938D01*
X85163302Y-112671774D01*
X85144867Y-112800000D01*
X85163302Y-112928225D01*
X85217117Y-113046061D01*
X85217118Y-113046063D01*
X85301951Y-113143967D01*
X85410931Y-113214004D01*
X85535225Y-113250499D01*
X85535227Y-113250500D01*
X85535228Y-113250500D01*
X85664773Y-113250500D01*
X85664773Y-113250499D01*
X85789069Y-113214004D01*
X85898049Y-113143967D01*
X85982882Y-113046063D01*
X86036697Y-112928226D01*
X86054324Y-112805621D01*
X86083349Y-112742067D01*
X86089352Y-112735617D01*
X86288153Y-112536816D01*
X86349476Y-112503334D01*
X86375833Y-112500500D01*
X86425500Y-112500500D01*
X86492539Y-112520185D01*
X86538294Y-112572989D01*
X86549500Y-112624500D01*
X86549500Y-112719752D01*
X86561131Y-112778229D01*
X86561132Y-112778230D01*
X86605447Y-112844552D01*
X86671769Y-112888867D01*
X86671770Y-112888868D01*
X86730247Y-112900499D01*
X86730250Y-112900500D01*
X86730252Y-112900500D01*
X88269750Y-112900500D01*
X88269751Y-112900499D01*
X88284568Y-112897552D01*
X88328229Y-112888868D01*
X88328229Y-112888867D01*
X88328231Y-112888867D01*
X88394552Y-112844552D01*
X88438867Y-112778231D01*
X88438867Y-112778229D01*
X88438868Y-112778229D01*
X88450499Y-112719752D01*
X88450500Y-112719750D01*
X88450500Y-111680249D01*
X88450499Y-111680247D01*
X88438868Y-111621770D01*
X88438867Y-111621768D01*
X88436945Y-111618892D01*
X88434681Y-111611664D01*
X88434194Y-111610487D01*
X88434299Y-111610443D01*
X88416066Y-111552215D01*
X88434550Y-111484835D01*
X88436945Y-111481108D01*
X88438867Y-111478231D01*
X88438868Y-111478229D01*
X88450499Y-111419752D01*
X88450500Y-111419750D01*
X88450500Y-110380249D01*
X88450499Y-110380247D01*
X88438868Y-110321770D01*
X88438867Y-110321768D01*
X88436945Y-110318892D01*
X88434681Y-110311664D01*
X88434194Y-110310487D01*
X88434299Y-110310443D01*
X88416066Y-110252215D01*
X88434550Y-110184835D01*
X88436945Y-110181108D01*
X88438867Y-110178231D01*
X88438868Y-110178229D01*
X88450499Y-110119752D01*
X88450500Y-110119750D01*
X88450500Y-109080249D01*
X88450499Y-109080247D01*
X88438868Y-109021770D01*
X88438867Y-109021769D01*
X88394552Y-108955447D01*
X88328230Y-108911132D01*
X88328229Y-108911131D01*
X88269752Y-108899500D01*
X88269748Y-108899500D01*
X87924500Y-108899500D01*
X87857461Y-108879815D01*
X87811706Y-108827011D01*
X87800500Y-108775500D01*
X87800500Y-108224500D01*
X87820185Y-108157461D01*
X87872989Y-108111706D01*
X87924500Y-108100500D01*
X105125167Y-108100500D01*
X105192206Y-108120185D01*
X105237961Y-108172989D01*
X105247905Y-108242147D01*
X105218880Y-108305703D01*
X105212848Y-108312181D01*
X99761848Y-113763181D01*
X99700525Y-113796666D01*
X99674167Y-113799500D01*
X89260438Y-113799500D01*
X89222224Y-113809739D01*
X89184009Y-113819979D01*
X89184004Y-113819982D01*
X89115495Y-113859535D01*
X89115487Y-113859541D01*
X86859541Y-116115487D01*
X86859535Y-116115495D01*
X86819982Y-116184004D01*
X86819979Y-116184009D01*
X86799500Y-116260439D01*
X86799500Y-116725500D01*
X86779815Y-116792539D01*
X86727011Y-116838294D01*
X86675500Y-116849500D01*
X86320730Y-116849500D01*
X86290300Y-116852353D01*
X86290298Y-116852353D01*
X86162119Y-116897206D01*
X86162117Y-116897207D01*
X86052850Y-116977850D01*
X85972207Y-117087117D01*
X85972206Y-117087119D01*
X85927353Y-117215298D01*
X85927353Y-117215300D01*
X85924500Y-117245730D01*
X85924500Y-118500402D01*
X85904815Y-118567441D01*
X85852011Y-118613196D01*
X85782853Y-118623140D01*
X85752301Y-118614651D01*
X79602997Y-116020413D01*
X79563864Y-116008332D01*
X79515663Y-115998581D01*
X79474914Y-115994500D01*
X79474909Y-115994500D01*
X79129833Y-115994500D01*
X79062794Y-115974815D01*
X79017039Y-115922011D01*
X79007095Y-115852853D01*
X79036120Y-115789297D01*
X79042152Y-115782819D01*
X80840460Y-113984511D01*
X80869327Y-113934511D01*
X80880021Y-113915989D01*
X80900500Y-113839562D01*
X80900500Y-107575833D01*
X80920185Y-107508794D01*
X80936819Y-107488152D01*
X82088152Y-106336819D01*
X82149475Y-106303334D01*
X82175833Y-106300500D01*
X82808524Y-106300500D01*
X82875563Y-106320185D01*
G37*
%TD.AperFunction*%
%TA.AperFunction,Conductor*%
G36*
X94692205Y-96320185D02*
G01*
X94737960Y-96372989D01*
X94747904Y-96442147D01*
X94718879Y-96505703D01*
X94712847Y-96512181D01*
X89711848Y-101513181D01*
X89650525Y-101546666D01*
X89624167Y-101549500D01*
X87660438Y-101549500D01*
X87653523Y-101550410D01*
X87619698Y-101550208D01*
X87614773Y-101549500D01*
X87614772Y-101549500D01*
X87485228Y-101549500D01*
X87476360Y-101549500D01*
X87476360Y-101546219D01*
X87423024Y-101538532D01*
X87370236Y-101492759D01*
X87350575Y-101425712D01*
X87370283Y-101358680D01*
X87386889Y-101338080D01*
X92388152Y-96336819D01*
X92449475Y-96303334D01*
X92475833Y-96300500D01*
X94625166Y-96300500D01*
X94692205Y-96320185D01*
G37*
%TD.AperFunction*%
%TA.AperFunction,Conductor*%
G36*
X108155703Y-92136145D02*
G01*
X108162181Y-92142177D01*
X108463181Y-92443177D01*
X108496666Y-92504500D01*
X108499500Y-92530858D01*
X108499500Y-100388096D01*
X108479815Y-100455135D01*
X108427011Y-100500890D01*
X108357853Y-100510834D01*
X108340566Y-100507073D01*
X108314774Y-100499500D01*
X108314772Y-100499500D01*
X108185228Y-100499500D01*
X108109433Y-100521754D01*
X108039563Y-100521753D01*
X107980786Y-100483977D01*
X107951762Y-100420421D01*
X107950500Y-100402776D01*
X107950500Y-92229858D01*
X107970185Y-92162819D01*
X108022989Y-92117064D01*
X108092147Y-92107120D01*
X108155703Y-92136145D01*
G37*
%TD.AperFunction*%
%TA.AperFunction,Conductor*%
G36*
X102491206Y-88320185D02*
G01*
X102511848Y-88336819D01*
X102760618Y-88585589D01*
X102794103Y-88646912D01*
X102795675Y-88655623D01*
X102813302Y-88778225D01*
X102823475Y-88800500D01*
X102867118Y-88896063D01*
X102915115Y-88951455D01*
X102930142Y-88968798D01*
X102959166Y-89032354D01*
X102949222Y-89101513D01*
X102930142Y-89131202D01*
X102867118Y-89203937D01*
X102867117Y-89203938D01*
X102810911Y-89327012D01*
X102765156Y-89379816D01*
X102698117Y-89399500D01*
X101225833Y-89399500D01*
X101158794Y-89379815D01*
X101138152Y-89363181D01*
X100287152Y-88512181D01*
X100253667Y-88450858D01*
X100258651Y-88381166D01*
X100300523Y-88325233D01*
X100365987Y-88300816D01*
X100374833Y-88300500D01*
X102424167Y-88300500D01*
X102491206Y-88320185D01*
G37*
%TD.AperFunction*%
%TA.AperFunction,Conductor*%
G36*
X102641206Y-86520185D02*
G01*
X102661848Y-86536819D01*
X103963181Y-87838152D01*
X103996666Y-87899475D01*
X103999500Y-87925833D01*
X103999500Y-87968060D01*
X103979815Y-88035099D01*
X103927011Y-88080854D01*
X103857853Y-88090798D01*
X103794297Y-88061773D01*
X103787819Y-88055741D01*
X102841619Y-87109541D01*
X102841614Y-87109537D01*
X102824231Y-87099502D01*
X102824227Y-87099498D01*
X102824227Y-87099499D01*
X102798662Y-87084739D01*
X102773097Y-87069979D01*
X102747620Y-87063152D01*
X102696669Y-87049500D01*
X102696667Y-87049500D01*
X101625833Y-87049500D01*
X101558794Y-87029815D01*
X101538152Y-87013181D01*
X101237152Y-86712181D01*
X101203667Y-86650858D01*
X101208651Y-86581166D01*
X101250523Y-86525233D01*
X101315987Y-86500816D01*
X101324833Y-86500500D01*
X101389562Y-86500500D01*
X102574167Y-86500500D01*
X102641206Y-86520185D01*
G37*
%TD.AperFunction*%
%TA.AperFunction,Conductor*%
G36*
X100191206Y-86520185D02*
G01*
X100211848Y-86536819D01*
X101162848Y-87487819D01*
X101196333Y-87549142D01*
X101191349Y-87618834D01*
X101149477Y-87674767D01*
X101084013Y-87699184D01*
X101075167Y-87699500D01*
X100468726Y-87699500D01*
X100401687Y-87679815D01*
X100381045Y-87663181D01*
X100011819Y-87293955D01*
X99978334Y-87232632D01*
X99975500Y-87206274D01*
X99975500Y-86785439D01*
X99965870Y-86749500D01*
X99955021Y-86709011D01*
X99942023Y-86686498D01*
X99925551Y-86618601D01*
X99948403Y-86552574D01*
X100003324Y-86509383D01*
X100049411Y-86500500D01*
X100124167Y-86500500D01*
X100191206Y-86520185D01*
G37*
%TD.AperFunction*%
%TA.AperFunction,Conductor*%
G36*
X100141206Y-85420185D02*
G01*
X100161848Y-85436819D01*
X100412848Y-85687819D01*
X100446333Y-85749142D01*
X100441349Y-85818834D01*
X100399477Y-85874767D01*
X100334013Y-85899184D01*
X100325167Y-85899500D01*
X99925833Y-85899500D01*
X99858794Y-85879815D01*
X99838152Y-85863181D01*
X99587152Y-85612181D01*
X99553667Y-85550858D01*
X99558651Y-85481166D01*
X99600523Y-85425233D01*
X99665987Y-85400816D01*
X99674833Y-85400500D01*
X100074167Y-85400500D01*
X100141206Y-85420185D01*
G37*
%TD.AperFunction*%
%TD*%
M02*
