M48
; DRILL file {KiCad 8.0.9-8.0.9-0~ubuntu24.04.1} date 2025-04-13T18:50:38+0500
; FORMAT={-:-/ absolute / metric / decimal}
; #@! TF.CreationDate,2025-04-13T18:50:38+05:00
; #@! TF.GenerationSoftware,Kicad,Pcbnew,8.0.9-8.0.9-0~ubuntu24.04.1
; #@! TF.FileFunction,Plated,1,4,PTH
FMAT,2
METRIC
; #@! TA.AperFunction,Plated,PTH,ViaDrill
T1C0.300
; #@! TA.AperFunction,Plated,PTH,ComponentDrill
T2C0.300
; #@! TA.AperFunction,Plated,PTH,ComponentDrill
T3C0.500
; #@! TA.AperFunction,Plated,PTH,ComponentDrill
T4C0.600
; #@! TA.AperFunction,Plated,PTH,ComponentDrill
T5C0.950
; #@! TA.AperFunction,Plated,PTH,ComponentDrill
T6C3.200
%
G90
G05
T1
X74.1Y-91.9
X74.1Y-92.7
X74.1Y-93.5
X74.1Y-94.3
X74.1Y-95.1
X74.1Y-95.9
X74.1Y-96.7
X74.3Y-117.7
X74.3Y-118.4
X74.3Y-119.1
X74.3Y-119.8
X74.3Y-120.5
X74.3Y-121.2
X74.7Y-91.5
X74.7Y-92.3
X74.7Y-93.1
X74.7Y-93.9
X74.7Y-94.7
X74.7Y-95.5
X74.7Y-96.3
X74.7Y-97.1
X75.0Y-120.5
X75.0Y-121.2
X75.7Y-116.25
X75.7Y-120.5
X75.7Y-121.2
X76.6Y-110.15
X76.6Y-110.85
X76.6Y-111.55
X76.6Y-112.25
X77.3Y-110.15
X77.3Y-110.85
X77.3Y-111.55
X77.3Y-112.25
X78.95Y-117.0
X78.95Y-117.7
X78.95Y-118.4
X78.95Y-119.1
X78.95Y-119.8
X79.6Y-117.7
X79.6Y-118.4
X79.6Y-119.1
X79.6Y-119.8
X82.9Y-92.7
X82.9Y-93.4
X82.9Y-94.1
X82.9Y-94.8
X82.9Y-95.5
X82.9Y-96.2
X83.2Y-106.85
X83.4Y-110.15
X83.4Y-110.85
X83.4Y-111.55
X83.4Y-112.25
X84.1Y-108.75
X84.1Y-109.45
X84.1Y-110.15
X84.1Y-110.85
X84.1Y-111.55
X84.1Y-112.25
X84.6Y-77.55
X84.8Y-94.3
X84.8Y-95.4
X84.8Y-96.5
X84.8Y-97.6
X84.8Y-98.7
X84.8Y-99.8
X84.8Y-100.9
X84.8Y-102.0
X84.8Y-103.1
X84.8Y-104.2
X84.8Y-105.4
X85.15Y-85.35
X85.15Y-87.2
X85.4Y-117.8
X85.6Y-112.8
X86.15Y-102.15
X87.2Y-91.5
X87.55Y-102.0
X88.9Y-85.35
X88.9Y-87.2
X89.0Y-106.85
X90.05Y-92.6
X90.2Y-79.85
X90.2Y-99.9
X90.45Y-102.55
X90.85Y-79.3
X91.0Y-86.95
X91.55Y-75.45
X91.55Y-76.25
X91.55Y-77.05
X92.0Y-117.9
X92.1Y-77.6
X92.65Y-78.15
X93.2Y-78.7
X93.425Y-100.875
X93.45Y-94.7
X93.75Y-79.25
X94.3Y-79.8
X94.75Y-102.65
X94.95Y-90.8
X94.95Y-91.5
X94.95Y-92.557
X95.05Y-95.8
X95.1Y-79.8
X95.4Y-88.3
X95.4Y-89.0
X95.4Y-101.8
X95.85Y-95.8
X95.9Y-79.8
X96.0Y-103.9
X96.1Y-88.3
X96.1Y-89.0
X96.15Y-82.3
X96.35Y-90.3
X96.45Y-93.75
X96.5Y-95.8
X96.7Y-79.8
X96.7Y-102.75
X96.8Y-87.35
X97.45Y-87.35
X97.5Y-79.8
X97.687Y-91.2
X97.75Y-95.55
X98.05Y-82.3
X98.05Y-101.85
X98.1Y-87.35
X98.15Y-96.6
X98.5Y-95.55
X98.8Y-105.9
X98.8Y-87.35
X98.9Y-101.0
X98.9Y-117.9
X99.05Y-103.7
X99.05Y-104.35
X99.25Y-92.6
X99.25Y-93.85
X99.8Y-106.7
X99.9Y-79.8
X100.0Y-80.6
X100.0Y-81.3
X100.0Y-82.95
X100.0Y-83.55
X100.0Y-84.15
X100.05Y-85.7
X100.35Y-87.3
X100.9Y-106.7
X101.5Y-88.9
X101.6Y-80.6
X101.6Y-81.3
X101.6Y-82.0
X101.6Y-82.6
X101.6Y-83.2
X101.6Y-83.8
X101.6Y-84.4
X101.6Y-85.0
X101.6Y-85.6
X101.7Y-79.8
X101.75Y-94.8
X102.0Y-106.7
X102.4Y-83.8
X102.5Y-79.8
X102.5Y-86.85
X102.88Y-81.715
X102.88Y-82.315
X102.88Y-82.915
X103.05Y-83.8
X103.1Y-106.7
X103.2Y-91.4
X103.2Y-92.2
X103.25Y-88.65
X103.25Y-89.45
X103.3Y-79.8
X103.38Y-81.215
X103.98Y-81.215
X104.1Y-79.8
X104.1Y-85.1
X104.1Y-105.0
X104.2Y-106.7
X104.35Y-96.65
X104.58Y-81.215
X104.9Y-79.8
X105.0Y-92.75
X105.18Y-81.215
X105.3Y-106.7
X105.4Y-87.6
X105.6Y-117.9
X105.7Y-79.8
X105.7Y-85.75
X105.75Y-105.4
X105.78Y-81.215
X105.8Y-92.75
X106.15Y-87.6
X106.4Y-85.65
X106.45Y-105.95
X106.5Y-79.8
X106.5Y-104.85
X106.559Y-92.55
X106.57Y-102.83
X107.126Y-87.6
X107.3Y-79.8
X108.1Y-79.8
X108.25Y-100.95
X108.3Y-87.8
X108.3Y-97.65
X108.3Y-98.4
X108.3Y-99.65
X108.45Y-89.85
X108.58Y-84.415
X108.9Y-79.8
X108.9Y-106.0
X109.18Y-84.415
X109.7Y-79.8
X110.15Y-87.15
X110.15Y-87.95
X110.15Y-88.75
X110.15Y-89.75
X110.5Y-79.8
X111.15Y-96.55
X111.2Y-104.9
X111.25Y-94.65
X111.3Y-79.8
X111.44Y-88.1
X111.44Y-89.1
X111.59Y-84.7
X111.59Y-87.25
X111.9Y-96.55
X112.0Y-80.25
X112.15Y-92.3
X112.15Y-93.0
X112.6Y-94.85
X112.8Y-80.25
X113.2Y-111.1
X113.34Y-85.8
X113.34Y-90.1
X113.45Y-94.85
X113.5Y-79.8
X114.0Y-99.6
X114.0Y-100.3
X114.0Y-101.0
X114.1Y-109.4
X114.1Y-113.75
X114.5Y-79.8
X114.99Y-86.05
X115.0Y-84.75
X115.0Y-105.95
X115.14Y-89.1
X115.3Y-79.8
X115.55Y-91.2
X115.699Y-84.746
X116.1Y-79.8
X116.7Y-97.85
X116.9Y-79.8
X117.4Y-97.85
X117.45Y-104.05
X117.45Y-104.95
X117.7Y-79.8
X118.2Y-99.3
X118.2Y-100.8
X118.3Y-96.05
X118.4Y-79.8
X118.85Y-99.3
X118.85Y-100.8
X118.95Y-96.05
X119.2Y-79.8
X119.6Y-96.05
X119.6Y-106.6
X121.15Y-111.5
X121.5Y-93.0
X121.65Y-102.75
X121.65Y-105.75
X121.95Y-87.0
X121.986Y-86.314
X122.6Y-100.95
X122.75Y-85.2
X122.75Y-88.35
X122.95Y-98.55
X125.5Y-95.7
X126.2Y-99.1
X126.787Y-83.1
T2
X98.7Y-79.7
T3
X75.6Y-79.0
X75.6Y-124.0
X76.303Y-77.303
X76.303Y-80.697
X76.303Y-122.303
X76.303Y-125.697
X78.0Y-76.6
X78.0Y-81.4
X78.0Y-121.6
X78.0Y-126.4
X79.697Y-77.303
X79.697Y-80.697
X79.697Y-122.303
X79.697Y-125.697
X80.4Y-79.0
X80.4Y-124.0
X120.6Y-79.0
X120.6Y-124.0
X121.303Y-77.303
X121.303Y-80.697
X121.303Y-122.303
X121.303Y-125.697
X123.0Y-76.6
X123.0Y-81.4
X123.0Y-121.6
X123.0Y-126.4
X124.697Y-77.303
X124.697Y-80.697
X124.697Y-122.303
X124.697Y-125.697
X125.4Y-79.0
X125.4Y-124.0
T5
X87.1Y-117.9
X87.1Y-120.4
X87.1Y-122.9
X93.9Y-117.9
X93.9Y-120.4
X93.9Y-122.9
X100.7Y-117.9
X100.7Y-120.4
X100.7Y-122.9
X107.5Y-117.9
X107.5Y-120.4
X107.5Y-122.9
X113.5Y-118.0
X113.5Y-120.5
X113.5Y-123.0
X113.5Y-125.5
T6
X78.0Y-79.0
X78.0Y-124.0
X123.0Y-79.0
X123.0Y-124.0
T4
G00X120.645Y-100.18
M15
G01X121.745Y-100.18
M16
G05
G00X120.645Y-108.82
M15
G01X121.745Y-108.82
M16
G05
G00X124.975Y-100.18
M15
G01X125.775Y-100.18
M16
G05
G00X124.975Y-108.82
M15
G01X125.775Y-108.82
M16
G05
M30
