%TF.GenerationSoftware,KiCad,Pcbnew,8.0.9-8.0.9-0~ubuntu24.04.1*%
%TF.CreationDate,2025-04-13T18:50:21+05:00*%
%TF.ProjectId,ThetaAnomalain,54686574-6141-46e6-9f6d-616c61696e2e,rev?*%
%TF.SameCoordinates,Original*%
%TF.FileFunction,Soldermask,Top*%
%TF.FilePolarity,Negative*%
%FSLAX46Y46*%
G04 Gerber Fmt 4.6, Leading zero omitted, Abs format (unit mm)*
G04 Created by KiCad (PCBNEW 8.0.9-8.0.9-0~ubuntu24.04.1) date 2025-04-13 18:50:21*
%MOMM*%
%LPD*%
G01*
G04 APERTURE LIST*
G04 Aperture macros list*
%AMRoundRect*
0 Rectangle with rounded corners*
0 $1 Rounding radius*
0 $2 $3 $4 $5 $6 $7 $8 $9 X,Y pos of 4 corners*
0 Add a 4 corners polygon primitive as box body*
4,1,4,$2,$3,$4,$5,$6,$7,$8,$9,$2,$3,0*
0 Add four circle primitives for the rounded corners*
1,1,$1+$1,$2,$3*
1,1,$1+$1,$4,$5*
1,1,$1+$1,$6,$7*
1,1,$1+$1,$8,$9*
0 Add four rect primitives between the rounded corners*
20,1,$1+$1,$2,$3,$4,$5,0*
20,1,$1+$1,$4,$5,$6,$7,0*
20,1,$1+$1,$6,$7,$8,$9,0*
20,1,$1+$1,$8,$9,$2,$3,0*%
%AMOutline5P*
0 Free polygon, 5 corners , with rotation*
0 The origin of the aperture is its center*
0 number of corners: always 5*
0 $1 to $10 corner X, Y*
0 $11 Rotation angle, in degrees counterclockwise*
0 create outline with 5 corners*
4,1,5,$1,$2,$3,$4,$5,$6,$7,$8,$9,$10,$1,$2,$11*%
%AMOutline6P*
0 Free polygon, 6 corners , with rotation*
0 The origin of the aperture is its center*
0 number of corners: always 6*
0 $1 to $12 corner X, Y*
0 $13 Rotation angle, in degrees counterclockwise*
0 create outline with 6 corners*
4,1,6,$1,$2,$3,$4,$5,$6,$7,$8,$9,$10,$11,$12,$1,$2,$13*%
%AMOutline7P*
0 Free polygon, 7 corners , with rotation*
0 The origin of the aperture is its center*
0 number of corners: always 7*
0 $1 to $14 corner X, Y*
0 $15 Rotation angle, in degrees counterclockwise*
0 create outline with 7 corners*
4,1,7,$1,$2,$3,$4,$5,$6,$7,$8,$9,$10,$11,$12,$13,$14,$1,$2,$15*%
%AMOutline8P*
0 Free polygon, 8 corners , with rotation*
0 The origin of the aperture is its center*
0 number of corners: always 8*
0 $1 to $16 corner X, Y*
0 $17 Rotation angle, in degrees counterclockwise*
0 create outline with 8 corners*
4,1,8,$1,$2,$3,$4,$5,$6,$7,$8,$9,$10,$11,$12,$13,$14,$15,$16,$1,$2,$17*%
G04 Aperture macros list end*
%ADD10RoundRect,0.218750X0.218750X0.256250X-0.218750X0.256250X-0.218750X-0.256250X0.218750X-0.256250X0*%
%ADD11RoundRect,0.135000X-0.185000X0.135000X-0.185000X-0.135000X0.185000X-0.135000X0.185000X0.135000X0*%
%ADD12O,0.599999X0.240000*%
%ADD13O,0.240000X0.599999*%
%ADD14R,0.725068X0.229918*%
%ADD15R,0.724920X0.229997*%
%ADD16R,0.399999X0.319994*%
%ADD17R,0.399998X0.319995*%
%ADD18R,3.050006X2.049998*%
%ADD19R,0.725070X0.230003*%
%ADD20R,0.724922X0.230003*%
%ADD21RoundRect,0.135000X0.185000X-0.135000X0.185000X0.135000X-0.185000X0.135000X-0.185000X-0.135000X0*%
%ADD22RoundRect,0.250000X-0.725000X0.600000X-0.725000X-0.600000X0.725000X-0.600000X0.725000X0.600000X0*%
%ADD23O,1.950000X1.700000*%
%ADD24RoundRect,0.250000X-0.325000X-0.650000X0.325000X-0.650000X0.325000X0.650000X-0.325000X0.650000X0*%
%ADD25R,1.000000X0.750000*%
%ADD26RoundRect,0.225000X-0.375000X0.225000X-0.375000X-0.225000X0.375000X-0.225000X0.375000X0.225000X0*%
%ADD27RoundRect,0.135000X-0.135000X-0.185000X0.135000X-0.185000X0.135000X0.185000X-0.135000X0.185000X0*%
%ADD28C,0.800000*%
%ADD29C,6.400000*%
%ADD30RoundRect,0.135000X0.135000X0.185000X-0.135000X0.185000X-0.135000X-0.185000X0.135000X-0.185000X0*%
%ADD31RoundRect,0.100000X-0.100000X0.637500X-0.100000X-0.637500X0.100000X-0.637500X0.100000X0.637500X0*%
%ADD32RoundRect,0.150000X0.587500X0.150000X-0.587500X0.150000X-0.587500X-0.150000X0.587500X-0.150000X0*%
%ADD33RoundRect,0.140000X0.140000X0.170000X-0.140000X0.170000X-0.140000X-0.170000X0.140000X-0.170000X0*%
%ADD34RoundRect,0.250000X-1.500000X0.925000X-1.500000X-0.925000X1.500000X-0.925000X1.500000X0.925000X0*%
%ADD35RoundRect,0.147500X0.172500X-0.147500X0.172500X0.147500X-0.172500X0.147500X-0.172500X-0.147500X0*%
%ADD36RoundRect,0.140000X0.170000X-0.140000X0.170000X0.140000X-0.170000X0.140000X-0.170000X-0.140000X0*%
%ADD37RoundRect,0.140000X-0.170000X0.140000X-0.170000X-0.140000X0.170000X-0.140000X0.170000X0.140000X0*%
%ADD38RoundRect,0.140000X-0.140000X-0.170000X0.140000X-0.170000X0.140000X0.170000X-0.140000X0.170000X0*%
%ADD39RoundRect,0.250000X0.725000X-0.600000X0.725000X0.600000X-0.725000X0.600000X-0.725000X-0.600000X0*%
%ADD40R,1.200000X1.400000*%
%ADD41R,1.000000X2.800000*%
%ADD42C,1.649242*%
%ADD43Outline8P,-3.500000X0.900000X-2.900000X1.500000X2.900000X1.500000X3.500000X0.900000X3.500000X-0.900000X2.900000X-1.500000X-2.900000X-1.500000X-3.500000X-0.900000X90.000000*%
%ADD44R,0.400000X0.500000*%
%ADD45R,0.300000X0.500000*%
%ADD46RoundRect,0.000000X-0.400000X-0.250000X0.400000X-0.250000X0.400000X0.250000X-0.400000X0.250000X0*%
%ADD47RoundRect,0.250000X0.650000X-0.325000X0.650000X0.325000X-0.650000X0.325000X-0.650000X-0.325000X0*%
%ADD48R,0.500000X0.400000*%
%ADD49R,0.500000X0.300000*%
%ADD50R,2.500000X2.500000*%
%ADD51RoundRect,0.087500X-0.087500X0.225000X-0.087500X-0.225000X0.087500X-0.225000X0.087500X0.225000X0*%
%ADD52RoundRect,0.087500X-0.225000X0.087500X-0.225000X-0.087500X0.225000X-0.087500X0.225000X0.087500X0*%
%ADD53RoundRect,0.150000X0.150000X0.700000X-0.150000X0.700000X-0.150000X-0.700000X0.150000X-0.700000X0*%
%ADD54RoundRect,0.250000X0.250000X1.100000X-0.250000X1.100000X-0.250000X-1.100000X0.250000X-1.100000X0*%
%ADD55RoundRect,0.150000X-0.512500X-0.150000X0.512500X-0.150000X0.512500X0.150000X-0.512500X0.150000X0*%
%ADD56R,1.400000X1.200000*%
%ADD57R,1.250000X2.700000*%
%ADD58RoundRect,0.075000X-0.362500X-0.075000X0.362500X-0.075000X0.362500X0.075000X-0.362500X0.075000X0*%
%ADD59RoundRect,0.150000X0.512500X0.150000X-0.512500X0.150000X-0.512500X-0.150000X0.512500X-0.150000X0*%
%ADD60RoundRect,0.050000X-0.350000X-0.050000X0.350000X-0.050000X0.350000X0.050000X-0.350000X0.050000X0*%
%ADD61RoundRect,0.050000X-0.050000X-0.350000X0.050000X-0.350000X0.050000X0.350000X-0.050000X0.350000X0*%
%ADD62R,4.000000X4.000000*%
%ADD63RoundRect,0.125000X0.200000X0.125000X-0.200000X0.125000X-0.200000X-0.125000X0.200000X-0.125000X0*%
%ADD64R,3.400000X4.300000*%
%ADD65RoundRect,0.250000X-0.950000X-0.500000X0.950000X-0.500000X0.950000X0.500000X-0.950000X0.500000X0*%
%ADD66RoundRect,0.250000X-0.275000X-0.500000X0.275000X-0.500000X0.275000X0.500000X-0.275000X0.500000X0*%
%ADD67RoundRect,0.250000X0.950000X0.500000X-0.950000X0.500000X-0.950000X-0.500000X0.950000X-0.500000X0*%
%ADD68RoundRect,0.250000X0.275000X0.500000X-0.275000X0.500000X-0.275000X-0.500000X0.275000X-0.500000X0*%
%ADD69RoundRect,0.045000X0.205000X-0.105000X0.205000X0.105000X-0.205000X0.105000X-0.205000X-0.105000X0*%
%ADD70RoundRect,0.045000X0.105000X-0.205000X0.105000X0.205000X-0.105000X0.205000X-0.105000X-0.205000X0*%
%ADD71C,0.650000*%
%ADD72RoundRect,0.150000X0.425000X-0.150000X0.425000X0.150000X-0.425000X0.150000X-0.425000X-0.150000X0*%
%ADD73RoundRect,0.075000X0.500000X-0.075000X0.500000X0.075000X-0.500000X0.075000X-0.500000X-0.075000X0*%
%ADD74O,2.100000X1.000000*%
%ADD75O,1.800000X1.000000*%
%ADD76RoundRect,0.250000X0.325000X0.650000X-0.325000X0.650000X-0.325000X-0.650000X0.325000X-0.650000X0*%
G04 APERTURE END LIST*
D10*
%TO.C,D8*%
X126687500Y-89000000D03*
X125112500Y-89000000D03*
%TD*%
D11*
%TO.C,R5*%
X81650000Y-113130080D03*
X81650000Y-114150080D03*
%TD*%
D12*
%TO.C,U2*%
X82500002Y-109850078D03*
D13*
X82099921Y-108949999D03*
X81599922Y-108949999D03*
X81099921Y-108949999D03*
X80599922Y-108949999D03*
X80099923Y-108949999D03*
X79599921Y-108949999D03*
X79099922Y-108949999D03*
X78599921Y-108949999D03*
D12*
X78200000Y-109850078D03*
X78200000Y-111350080D03*
D13*
X78599921Y-112249997D03*
X79099922Y-112249997D03*
X79599921Y-112249997D03*
X80099923Y-112249997D03*
X80599922Y-112249997D03*
X81099921Y-112249997D03*
X81599922Y-112249997D03*
X82099921Y-112249997D03*
D12*
X82500002Y-111350080D03*
D14*
X82237460Y-110325039D03*
D15*
X78462459Y-110325079D03*
D16*
X82074925Y-110600077D03*
D17*
X78624920Y-110600077D03*
D18*
X80349923Y-110600079D03*
D19*
X82237461Y-110875077D03*
D20*
X78462458Y-110875077D03*
%TD*%
D21*
%TO.C,R6*%
X114850000Y-102560000D03*
X114850000Y-101540000D03*
%TD*%
D22*
%TO.C,J4*%
X100700000Y-117900000D03*
D23*
X100700000Y-120400000D03*
X100700000Y-122900000D03*
%TD*%
D24*
%TO.C,C29*%
X90925000Y-127000000D03*
X93875000Y-127000000D03*
%TD*%
D25*
%TO.C,SW3*%
X89900000Y-85275000D03*
X83900000Y-85275000D03*
X89900000Y-81525000D03*
X83900000Y-81525000D03*
%TD*%
D26*
%TO.C,D3*%
X115800000Y-110650000D03*
X115800000Y-113950000D03*
%TD*%
D27*
%TO.C,R7*%
X83490000Y-113250080D03*
X84510000Y-113250080D03*
%TD*%
D28*
%TO.C,H1*%
X120600000Y-79000000D03*
X121302944Y-77302944D03*
X121302944Y-80697056D03*
X123000000Y-76600000D03*
D29*
X123000000Y-79000000D03*
D28*
X123000000Y-81400000D03*
X124697056Y-77302944D03*
X124697056Y-80697056D03*
X125400000Y-79000000D03*
%TD*%
D21*
%TO.C,R9*%
X114100000Y-113010000D03*
X114100000Y-111990000D03*
%TD*%
D30*
%TO.C,R13*%
X113200000Y-114350000D03*
X112180000Y-114350000D03*
%TD*%
D24*
%TO.C,C30*%
X97725000Y-127000000D03*
X100675000Y-127000000D03*
%TD*%
D25*
%TO.C,SW2*%
X89900000Y-90975000D03*
X83900000Y-90975000D03*
X89900000Y-87225000D03*
X83900000Y-87225000D03*
%TD*%
D31*
%TO.C,U9*%
X97975000Y-99475000D03*
X97325000Y-99475000D03*
X96675000Y-99475000D03*
X96025000Y-99475000D03*
X95375000Y-99475000D03*
X94725000Y-99475000D03*
X94075000Y-99475000D03*
X93425000Y-99475000D03*
X93425000Y-105200000D03*
X94075000Y-105200000D03*
X94725000Y-105200000D03*
X95375000Y-105200000D03*
X96025000Y-105200000D03*
X96675000Y-105200000D03*
X97325000Y-105200000D03*
X97975000Y-105200000D03*
%TD*%
D21*
%TO.C,R14*%
X115000000Y-107800000D03*
X115000000Y-106780000D03*
%TD*%
D11*
%TO.C,R8*%
X114100000Y-110090000D03*
X114100000Y-111110000D03*
%TD*%
D32*
%TO.C,Q1*%
X118337500Y-108950000D03*
X118337500Y-107050000D03*
X116462500Y-108000000D03*
%TD*%
D33*
%TO.C,C32*%
X79580000Y-113250080D03*
X78620000Y-113250080D03*
%TD*%
D34*
%TO.C,L2*%
X80600000Y-99725000D03*
X80600000Y-105775000D03*
%TD*%
D35*
%TO.C,L1*%
X99800000Y-89120000D03*
X99800000Y-88150000D03*
%TD*%
D36*
%TO.C,C2*%
X96900000Y-89080000D03*
X96900000Y-88120000D03*
%TD*%
D37*
%TO.C,C5*%
X100750000Y-88150000D03*
X100750000Y-89110000D03*
%TD*%
D38*
%TO.C,C1*%
X78740000Y-107850080D03*
X79700000Y-107850080D03*
%TD*%
D22*
%TO.C,J3*%
X107500000Y-117900000D03*
D23*
X107500000Y-120400000D03*
X107500000Y-122900000D03*
%TD*%
D24*
%TO.C,C26*%
X84125000Y-127000000D03*
X87075000Y-127000000D03*
%TD*%
D38*
%TO.C,C15*%
X107040000Y-85450000D03*
X108000000Y-85450000D03*
%TD*%
D39*
%TO.C,J7*%
X113500000Y-125500000D03*
D23*
X113500000Y-123000000D03*
X113500000Y-120500000D03*
X113500000Y-118000000D03*
%TD*%
D21*
%TO.C,R10*%
X95700000Y-90700000D03*
X95700000Y-89680000D03*
%TD*%
D30*
%TO.C,R12*%
X114750000Y-91200000D03*
X113730000Y-91200000D03*
%TD*%
D40*
%TO.C,Y2*%
X96150000Y-83700000D03*
X96150000Y-86100000D03*
X98050000Y-86100000D03*
X98050000Y-83700000D03*
%TD*%
D38*
%TO.C,C11*%
X102440000Y-85550000D03*
X103400000Y-85550000D03*
%TD*%
D37*
%TO.C,C37*%
X95700000Y-93770000D03*
X95700000Y-94730000D03*
%TD*%
D21*
%TO.C,R20*%
X75700000Y-115460000D03*
X75700000Y-114440000D03*
%TD*%
D41*
%TO.C,U8*%
X86120000Y-104740000D03*
X87560000Y-104730000D03*
X89000000Y-104750000D03*
X90440000Y-104740000D03*
X91880000Y-104740000D03*
X91880000Y-94640000D03*
X90440000Y-94640000D03*
X89000000Y-94650000D03*
X87560000Y-94630000D03*
X86120000Y-94640000D03*
%TD*%
D42*
%TO.C,J8*%
X76700000Y-84750000D03*
X76700000Y-88250000D03*
X80700000Y-84750000D03*
X80700000Y-88250000D03*
D43*
X80650000Y-94250000D03*
X76650000Y-94250000D03*
%TD*%
D21*
%TO.C,R1*%
X82550000Y-117960000D03*
X82550000Y-116940000D03*
%TD*%
D10*
%TO.C,D7*%
X126687500Y-87400000D03*
X125112500Y-87400000D03*
%TD*%
D44*
%TO.C,RN6*%
X104850000Y-95750000D03*
D45*
X105350000Y-95750000D03*
X105850000Y-95750000D03*
D44*
X106350000Y-95750000D03*
X106350000Y-94750000D03*
D45*
X105850000Y-94750000D03*
X105350000Y-94750000D03*
D44*
X104850000Y-94750000D03*
%TD*%
D10*
%TO.C,D5*%
X126687500Y-84200000D03*
X125112500Y-84200000D03*
%TD*%
D38*
%TO.C,C20*%
X76320000Y-109050080D03*
X77280000Y-109050080D03*
%TD*%
D37*
%TO.C,C24*%
X95700000Y-91597500D03*
X95700000Y-92557500D03*
%TD*%
%TO.C,C16*%
X114850000Y-99720000D03*
X114850000Y-100680000D03*
%TD*%
D22*
%TO.C,J6*%
X87100000Y-117900000D03*
D23*
X87100000Y-120400000D03*
X87100000Y-122900000D03*
%TD*%
D46*
%TO.C,U6*%
X112290000Y-88100000D03*
X112290000Y-89100000D03*
X112290000Y-90100000D03*
X114290000Y-90100000D03*
X114290000Y-89100000D03*
X114290000Y-88100000D03*
%TD*%
D47*
%TO.C,C9*%
X75850000Y-102075000D03*
X75850000Y-99125000D03*
%TD*%
D21*
%TO.C,R17*%
X108700000Y-102860000D03*
X108700000Y-101840000D03*
%TD*%
D30*
%TO.C,R15*%
X87210000Y-92400000D03*
X86190000Y-92400000D03*
%TD*%
D33*
%TO.C,C12*%
X117480000Y-98700000D03*
X116520000Y-98700000D03*
%TD*%
D38*
%TO.C,C6*%
X110370000Y-92300000D03*
X111330000Y-92300000D03*
%TD*%
D36*
%TO.C,C34*%
X99050000Y-102830000D03*
X99050000Y-101870000D03*
%TD*%
D28*
%TO.C,H4*%
X120600000Y-124000000D03*
X121302944Y-122302944D03*
X121302944Y-125697056D03*
X123000000Y-121600000D03*
D29*
X123000000Y-124000000D03*
D28*
X123000000Y-126400000D03*
X124697056Y-122302944D03*
X124697056Y-125697056D03*
X125400000Y-124000000D03*
%TD*%
D38*
%TO.C,C7*%
X110370000Y-93250000D03*
X111330000Y-93250000D03*
%TD*%
D48*
%TO.C,RN1*%
X100900000Y-91750000D03*
D49*
X100900000Y-91250000D03*
X100900000Y-90750000D03*
D48*
X100900000Y-90250000D03*
X99900000Y-90250000D03*
D49*
X99900000Y-90750000D03*
X99900000Y-91250000D03*
D48*
X99900000Y-91750000D03*
%TD*%
D27*
%TO.C,R11*%
X111870000Y-91200000D03*
X112890000Y-91200000D03*
%TD*%
D30*
%TO.C,R16*%
X89100000Y-92400000D03*
X88080000Y-92400000D03*
%TD*%
D38*
%TO.C,C10*%
X102440000Y-84600000D03*
X103400000Y-84600000D03*
%TD*%
D50*
%TO.C,BZ1*%
X119000000Y-111600000D03*
X119000000Y-118600000D03*
X126000000Y-118600000D03*
X126000000Y-111600000D03*
%TD*%
D36*
%TO.C,C25*%
X111590000Y-86480000D03*
X111590000Y-85520000D03*
%TD*%
D51*
%TO.C,U5*%
X98450000Y-90387500D03*
X97950000Y-90387500D03*
X97450000Y-90387500D03*
X96950000Y-90387500D03*
D52*
X96787500Y-91050000D03*
X96787500Y-91550000D03*
X96787500Y-92050000D03*
D51*
X96950000Y-92712500D03*
X97450000Y-92712500D03*
X97950000Y-92712500D03*
X98450000Y-92712500D03*
D52*
X98612500Y-92050000D03*
X98612500Y-91550000D03*
X98612500Y-91050000D03*
%TD*%
D53*
%TO.C,J2*%
X88350000Y-79100000D03*
X87100000Y-79100000D03*
X85850000Y-79100000D03*
X84600000Y-79100000D03*
D54*
X90200000Y-75900000D03*
X82750000Y-75900000D03*
%TD*%
D55*
%TO.C,U1*%
X116262500Y-100050000D03*
X116262500Y-101000000D03*
X116262500Y-101950000D03*
X118537500Y-101950000D03*
X118537500Y-100050000D03*
%TD*%
D33*
%TO.C,C8*%
X101030000Y-94800000D03*
X100070000Y-94800000D03*
%TD*%
D38*
%TO.C,C19*%
X83320000Y-107850080D03*
X84280000Y-107850080D03*
%TD*%
D56*
%TO.C,Y1*%
X107380000Y-82385000D03*
X105180000Y-82385000D03*
X105180000Y-84085000D03*
X107380000Y-84085000D03*
%TD*%
D11*
%TO.C,R4*%
X119400000Y-92490000D03*
X119400000Y-93510000D03*
%TD*%
D25*
%TO.C,SW1*%
X126700000Y-94875000D03*
X120700000Y-94875000D03*
X126700000Y-91125000D03*
X120700000Y-91125000D03*
%TD*%
D38*
%TO.C,C21*%
X112860000Y-84050000D03*
X113820000Y-84050000D03*
%TD*%
D22*
%TO.C,J5*%
X93900000Y-117900000D03*
D23*
X93900000Y-120400000D03*
X93900000Y-122900000D03*
%TD*%
D30*
%TO.C,R19*%
X101060000Y-92900000D03*
X100040000Y-92900000D03*
%TD*%
D33*
%TO.C,C33*%
X85310000Y-92400000D03*
X84350000Y-92400000D03*
%TD*%
%TO.C,C35*%
X100800000Y-85000000D03*
X99840000Y-85000000D03*
%TD*%
D44*
%TO.C,RN5*%
X93550000Y-97637500D03*
D45*
X94050000Y-97637500D03*
X94550000Y-97637500D03*
D44*
X95050000Y-97637500D03*
X95050000Y-96637500D03*
D45*
X94550000Y-96637500D03*
X94050000Y-96637500D03*
D44*
X93550000Y-96637500D03*
%TD*%
D57*
%TO.C,Q2*%
X76662500Y-118400000D03*
D58*
X78100000Y-117425000D03*
X78100000Y-118075000D03*
X78100000Y-118725000D03*
X78100000Y-119375000D03*
X75225000Y-117425000D03*
X75225000Y-118075000D03*
X75225000Y-118725000D03*
X75225000Y-119375000D03*
%TD*%
D59*
%TO.C,U3*%
X118537500Y-105450000D03*
X118537500Y-104500000D03*
X118537500Y-103550000D03*
X116262500Y-103550000D03*
X116262500Y-104500000D03*
X116262500Y-105450000D03*
%TD*%
D44*
%TO.C,RN4*%
X96050000Y-97637500D03*
D45*
X96550000Y-97637500D03*
X97050000Y-97637500D03*
D44*
X97550000Y-97637500D03*
X97550000Y-96637500D03*
D45*
X97050000Y-96637500D03*
X96550000Y-96637500D03*
D44*
X96050000Y-96637500D03*
%TD*%
D60*
%TO.C,U4*%
X102350000Y-87550000D03*
X102350000Y-87950000D03*
X102350000Y-88350000D03*
X102350000Y-88750000D03*
X102350000Y-89150000D03*
X102350000Y-89550000D03*
X102350000Y-89950000D03*
X102350000Y-90350000D03*
X102350000Y-90750000D03*
X102350000Y-91150000D03*
X102350000Y-91550000D03*
X102350000Y-91950000D03*
X102350000Y-92350000D03*
X102350000Y-92750000D03*
D61*
X103200000Y-93600000D03*
X103600000Y-93600000D03*
X104000000Y-93600000D03*
X104400000Y-93600000D03*
X104800000Y-93600000D03*
X105200000Y-93600000D03*
X105600000Y-93600000D03*
X106000000Y-93600000D03*
X106400000Y-93600000D03*
X106800000Y-93600000D03*
X107200000Y-93600000D03*
X107600000Y-93600000D03*
X108000000Y-93600000D03*
X108400000Y-93600000D03*
D60*
X109250000Y-92750000D03*
X109250000Y-92350000D03*
X109250000Y-91950000D03*
X109250000Y-91550000D03*
X109250000Y-91150000D03*
X109250000Y-90750000D03*
X109250000Y-90350000D03*
X109250000Y-89950000D03*
X109250000Y-89550000D03*
X109250000Y-89150000D03*
X109250000Y-88750000D03*
X109250000Y-88350000D03*
X109250000Y-87950000D03*
X109250000Y-87550000D03*
D61*
X108400000Y-86700000D03*
X108000000Y-86700000D03*
X107600000Y-86700000D03*
X107200000Y-86700000D03*
X106800000Y-86700000D03*
X106400000Y-86700000D03*
X106000000Y-86700000D03*
X105600000Y-86700000D03*
X105200000Y-86700000D03*
X104800000Y-86700000D03*
X104400000Y-86700000D03*
X104000000Y-86700000D03*
X103600000Y-86700000D03*
X103200000Y-86700000D03*
D62*
X105800000Y-90150000D03*
%TD*%
D33*
%TO.C,C13*%
X82600000Y-115050080D03*
X81640000Y-115050080D03*
%TD*%
D36*
%TO.C,C18*%
X82600000Y-114110080D03*
X82600000Y-113150080D03*
%TD*%
D63*
%TO.C,U10*%
X107600000Y-102830000D03*
X107600000Y-101560000D03*
X107600000Y-100290000D03*
X107600000Y-99020000D03*
X100100000Y-99020000D03*
X100100000Y-100290000D03*
X100100000Y-101560000D03*
X100100000Y-102830000D03*
D64*
X103850000Y-100925000D03*
%TD*%
D28*
%TO.C,H2*%
X75600000Y-124000000D03*
X76302944Y-122302944D03*
X76302944Y-125697056D03*
X78000000Y-121600000D03*
D29*
X78000000Y-124000000D03*
D28*
X78000000Y-126400000D03*
X79697056Y-122302944D03*
X79697056Y-125697056D03*
X80400000Y-124000000D03*
%TD*%
D33*
%TO.C,C17*%
X77800000Y-107850080D03*
X76840000Y-107850080D03*
%TD*%
D38*
%TO.C,C22*%
X97220000Y-93787500D03*
X98180000Y-93787500D03*
%TD*%
D65*
%TO.C,D2*%
X121275000Y-97200000D03*
D66*
X118900000Y-97200000D03*
%TD*%
D67*
%TO.C,D1*%
X124600000Y-97200000D03*
D68*
X126975000Y-97200000D03*
%TD*%
D35*
%TO.C,L3*%
X100800000Y-84085000D03*
X100800000Y-83115000D03*
%TD*%
D69*
%TO.C,U7*%
X112469000Y-85531000D03*
X112469000Y-86031000D03*
D70*
X112840000Y-86650000D03*
X113340000Y-86650000D03*
X113840000Y-86650000D03*
D69*
X114211000Y-86031000D03*
X114211000Y-85531000D03*
D70*
X113840000Y-84912000D03*
X113340000Y-84912000D03*
X112840000Y-84912000D03*
%TD*%
D38*
%TO.C,C23*%
X97220000Y-94737500D03*
X98180000Y-94737500D03*
%TD*%
D44*
%TO.C,RN3*%
X103850000Y-94750000D03*
D45*
X103350000Y-94750000D03*
X102850000Y-94750000D03*
D44*
X102350000Y-94750000D03*
X102350000Y-95750000D03*
D45*
X102850000Y-95750000D03*
X103350000Y-95750000D03*
D44*
X103850000Y-95750000D03*
%TD*%
D71*
%TO.C,J1*%
X121695000Y-107390000D03*
X121695000Y-101610000D03*
D72*
X120620000Y-107700000D03*
X120620000Y-106900000D03*
D73*
X120620000Y-105750000D03*
X120620000Y-104750000D03*
X120620000Y-104250000D03*
X120620000Y-103250000D03*
D72*
X120620000Y-102100000D03*
X120620000Y-101300000D03*
X120620000Y-101300000D03*
X120620000Y-102100000D03*
D73*
X120620000Y-102750000D03*
X120620000Y-103750000D03*
X120620000Y-105250000D03*
X120620000Y-106250000D03*
D72*
X120620000Y-106900000D03*
X120620000Y-107700000D03*
D74*
X121195000Y-108820000D03*
D75*
X125375000Y-108820000D03*
D74*
X121195000Y-100180000D03*
D75*
X125375000Y-100180000D03*
%TD*%
D33*
%TO.C,C36*%
X100780000Y-82200000D03*
X99820000Y-82200000D03*
%TD*%
D27*
%TO.C,R18*%
X100040000Y-93850000D03*
X101060000Y-93850000D03*
%TD*%
D24*
%TO.C,C31*%
X104525000Y-127000000D03*
X107475000Y-127000000D03*
%TD*%
D27*
%TO.C,R3*%
X81580000Y-116000080D03*
X82600000Y-116000080D03*
%TD*%
D48*
%TO.C,RN2*%
X123750000Y-87500000D03*
D49*
X123750000Y-87000000D03*
X123750000Y-86500000D03*
D48*
X123750000Y-86000000D03*
X122750000Y-86000000D03*
D49*
X122750000Y-86500000D03*
X122750000Y-87000000D03*
D48*
X122750000Y-87500000D03*
%TD*%
D36*
%TO.C,C4*%
X98800000Y-89080000D03*
X98800000Y-88120000D03*
%TD*%
D27*
%TO.C,R2*%
X81090000Y-107850080D03*
X82110000Y-107850080D03*
%TD*%
D76*
%TO.C,C14*%
X80025000Y-114950080D03*
X77075000Y-114950080D03*
%TD*%
D28*
%TO.C,H3*%
X75600000Y-79000000D03*
X76302944Y-77302944D03*
X76302944Y-80697056D03*
X78000000Y-76600000D03*
D29*
X78000000Y-79000000D03*
D28*
X78000000Y-81400000D03*
X79697056Y-77302944D03*
X79697056Y-80697056D03*
X80400000Y-79000000D03*
%TD*%
D36*
%TO.C,C3*%
X97850000Y-89080000D03*
X97850000Y-88120000D03*
%TD*%
D10*
%TO.C,D6*%
X126687500Y-85800000D03*
X125112500Y-85800000D03*
%TD*%
D36*
%TO.C,C27*%
X103680000Y-82945000D03*
X103680000Y-81985000D03*
%TD*%
D37*
%TO.C,C28*%
X108880000Y-82755000D03*
X108880000Y-83715000D03*
%TD*%
M02*
